{
  "ticks_per_beat": 384,
  "tracks": [
    [
      {
        "type": "time_signature",
        "numerator": 4,
        "denominator": 4,
        "clocks_per_click": 96,
        "notated_32nd_notes_per_beat": 8,
        "time": 0
      },
      {
        "type": "sequencer_specific",
        "data": [
          0,
          0,
          65
        ],
        "time": 0
      },
      {
        "type": "sequencer_specific",
        "data": [
          0,
          0,
          119,
          14,
          0
        ],
        "time": 0
      },
      {
        "type": "set_tempo",
        "tempo": 666666,
        "time": 0
      },
      {
        "type": "end_of_track",
        "time": 0
      }
    ],
    [
      {
        "type": "track_name",
        "name": "melody",
        "time": 0
      },
      {
        "type": "control_change",
        "time": 0,
        "control": 0,
        "value": 0,
        "channel": 0
      },
      {
        "type": "program_change",
        "time": 0,
        "program": 24,
        "channel": 0
      },
      {
        "type": "control_change",
        "time": 0,
        "control": 7,
        "value": 127,
        "channel": 0
      },
      {
        "type": "control_change",
        "time": 0,
        "control": 10,
        "value": 90,
        "channel": 0
      },
      {
        "type": "key_signature",
        "key": "C",
        "time": 0
      },
      {
        "type": "note_on",
        "time": 1536,
        "note": 55,
        "velocity": 127,
        "channel": 0
      },
      {
        "type": "note_off",
        "time": 192,
        "note": 55,
        "velocity": 64,
        "channel": 0
      },
      {
        "type": "note_on",
        "time": 0,
        "note": 53,
        "velocity": 127,
        "channel": 0
      },
      {
        "type": "note_off",
        "time": 132,
        "note": 53,
        "velocity": 64,
        "channel": 0
      },
      {
        "type": "note_on",
        "time": 60,
        "note": 53,
        "velocity": 127,
        "channel": 0
      },
      {
        "type": "note_off",
        "time": 404,
        "note": 53,
        "velocity": 64,
        "channel": 0
      },
      {
        "type": "note_on",
        "time": 1132,
        "note": 57,
        "velocity": 127,
        "channel": 0
      },
      {
        "type": "note_on",
        "time": 192,
        "note": 59,
        "velocity": 127,
        "channel": 0
      },
      {
        "type": "note_off",
        "time": 20,
        "note": 57,
        "velocity": 64,
        "channel": 0
      },
      {
        "type": "note_on",
        "time": 172,
        "note": 61,
        "velocity": 127,
        "channel": 0
      },
      {
        "type": "note_off",
        "time": 12,
        "note": 59,
        "velocity": 64,
        "channel": 0
      },
      {
        "type": "note_on",
        "time": 180,
        "note": 62,
        "velocity": 127,
        "channel": 0
      },
      {
        "type": "note_off",
        "time": 12,
        "note": 61,
        "velocity": 64,
        "channel": 0
      },
      {
        "type": "note_on",
        "time": 180,
        "note": 64,
        "velocity": 127,
        "channel": 0
      },
      {
        "type": "note_off",
        "time": 4,
        "note": 62,
        "velocity": 64,
        "channel": 0
      },
      {
        "type": "note_off",
        "time": 116,
        "note": 64,
        "velocity": 64,
        "channel": 0
      },
      {
        "type": "note_on",
        "time": 72,
        "note": 65,
        "velocity": 127,
        "channel": 0
      },
      {
        "type": "note_off",
        "time": 152,
        "note": 65,
        "velocity": 64,
        "channel": 0
      },
      {
        "type": "note_on",
        "time": 40,
        "note": 64,
        "velocity": 127,
        "channel": 0
      },
      {
        "type": "note_off",
        "time": 288,
        "note": 64,
        "velocity": 64,
        "channel": 0
      },
      {
        "type": "note_on",
        "time": 96,
        "note": 62,
        "velocity": 127,
        "channel": 0
      },
      {
        "type": "note_off",
        "time": 96,
        "note": 62,
        "velocity": 64,
        "channel": 0
      },
      {
        "type": "note_on",
        "time": 96,
        "note": 62,
        "velocity": 127,
        "channel": 0
      },
      {
        "type": "note_off",
        "time": 1292,
        "note": 62,
        "velocity": 64,
        "channel": 0
      },
      {
        "type": "note_on",
        "time": 52,
        "note": 62,
        "velocity": 127,
        "channel": 0
      },
      {
        "type": "note_off",
        "time": 96,
        "note": 62,
        "velocity": 64,
        "channel": 0
      },
      {
        "type": "note_on",
        "time": 96,
        "note": 62,
        "velocity": 127,
        "channel": 0
      },
      {
        "type": "note_off",
        "time": 168,
        "note": 62,
        "velocity": 64,
        "channel": 0
      },
      {
        "type": "note_on",
        "time": 24,
        "note": 60,
        "velocity": 127,
        "channel": 0
      },
      {
        "type": "note_off",
        "time": 184,
        "note": 60,
        "velocity": 64,
        "channel": 0
      },
      {
        "type": "note_on",
        "time": 8,
        "note": 58,
        "velocity": 127,
        "channel": 0
      },
      {
        "type": "note_off",
        "time": 188,
        "note": 58,
        "velocity": 64,
        "channel": 0
      },
      {
        "type": "note_on",
        "time": 4,
        "note": 57,
        "velocity": 127,
        "channel": 0
      },
      {
        "type": "note_on",
        "time": 192,
        "note": 55,
        "velocity": 127,
        "channel": 0
      },
      {
        "type": "note_off",
        "time": 8,
        "note": 57,
        "velocity": 64,
        "channel": 0
      },
      {
        "type": "note_on",
        "time": 184,
        "note": 58,
        "velocity": 127,
        "channel": 0
      },
      {
        "type": "note_off",
        "time": 16,
        "note": 55,
        "velocity": 64,
        "channel": 0
      },
      {
        "type": "note_off",
        "time": 328,
        "note": 58,
        "velocity": 64,
        "channel": 0
      },
      {
        "type": "note_on",
        "time": 40,
        "note": 57,
        "velocity": 127,
        "channel": 0
      },
      {
        "type": "note_off",
        "time": 176,
        "note": 57,
        "velocity": 64,
        "channel": 0
      },
      {
        "type": "note_on",
        "time": 16,
        "note": 57,
        "velocity": 127,
        "channel": 0
      },
      {
        "type": "note_off",
        "time": 456,
        "note": 57,
        "velocity": 64,
        "channel": 0
      },
      {
        "type": "note_on",
        "time": 312,
        "note": 55,
        "velocity": 127,
        "channel": 0
      },
      {
        "type": "note_on",
        "time": 192,
        "note": 53,
        "velocity": 127,
        "channel": 0
      },
      {
        "type": "note_off",
        "time": 8,
        "note": 55,
        "velocity": 64,
        "channel": 0
      },
      {
        "type": "note_off",
        "time": 372,
        "note": 53,
        "velocity": 64,
        "channel": 0
      },
      {
        "type": "note_on",
        "time": 4,
        "note": 57,
        "velocity": 127,
        "channel": 0
      },
      {
        "type": "note_on",
        "time": 192,
        "note": 55,
        "velocity": 127,
        "channel": 0
      },
      {
        "type": "note_off",
        "time": 28,
        "note": 57,
        "velocity": 64,
        "channel": 0
      },
      {
        "type": "note_off",
        "time": 696,
        "note": 55,
        "velocity": 64,
        "channel": 0
      },
      {
        "type": "note_on",
        "time": 44,
        "note": 50,
        "velocity": 127,
        "channel": 0
      },
      {
        "type": "note_off",
        "time": 188,
        "note": 50,
        "velocity": 64,
        "channel": 0
      },
      {
        "type": "note_on",
        "time": 4,
        "note": 53,
        "velocity": 127,
        "channel": 0
      },
      {
        "type": "note_off",
        "time": 312,
        "note": 53,
        "velocity": 64,
        "channel": 0
      },
      {
        "type": "note_on",
        "time": 72,
        "note": 57,
        "velocity": 127,
        "channel": 0
      },
      {
        "type": "note_off",
        "time": 140,
        "note": 57,
        "velocity": 64,
        "channel": 0
      },
      {
        "type": "note_on",
        "time": 52,
        "note": 57,
        "velocity": 127,
        "channel": 0
      },
      {
        "type": "note_off",
        "time": 296,
        "note": 57,
        "velocity": 64,
        "channel": 0
      },
      {
        "type": "note_on",
        "time": 664,
        "note": 55,
        "velocity": 127,
        "channel": 0
      },
      {
        "type": "note_off",
        "time": 192,
        "note": 55,
        "velocity": 64,
        "channel": 0
      },
      {
        "type": "note_on",
        "time": 0,
        "note": 53,
        "velocity": 127,
        "channel": 0
      },
      {
        "type": "note_off",
        "time": 132,
        "note": 53,
        "velocity": 64,
        "channel": 0
      },
      {
        "type": "note_on",
        "time": 60,
        "note": 53,
        "velocity": 127,
        "channel": 0
      },
      {
        "type": "note_off",
        "time": 404,
        "note": 53,
        "velocity": 64,
        "channel": 0
      },
      {
        "type": "note_on",
        "time": 1132,
        "note": 57,
        "velocity": 127,
        "channel": 0
      },
      {
        "type": "note_on",
        "time": 192,
        "note": 59,
        "velocity": 127,
        "channel": 0
      },
      {
        "type": "note_off",
        "time": 20,
        "note": 57,
        "velocity": 64,
        "channel": 0
      },
      {
        "type": "note_on",
        "time": 172,
        "note": 61,
        "velocity": 127,
        "channel": 0
      },
      {
        "type": "note_off",
        "time": 12,
        "note": 59,
        "velocity": 64,
        "channel": 0
      },
      {
        "type": "note_on",
        "time": 180,
        "note": 62,
        "velocity": 127,
        "channel": 0
      },
      {
        "type": "note_off",
        "time": 12,
        "note": 61,
        "velocity": 64,
        "channel": 0
      },
      {
        "type": "note_on",
        "time": 180,
        "note": 64,
        "velocity": 127,
        "channel": 0
      },
      {
        "type": "note_off",
        "time": 4,
        "note": 62,
        "velocity": 64,
        "channel": 0
      },
      {
        "type": "note_off",
        "time": 116,
        "note": 64,
        "velocity": 64,
        "channel": 0
      },
      {
        "type": "note_on",
        "time": 72,
        "note": 65,
        "velocity": 127,
        "channel": 0
      },
      {
        "type": "note_off",
        "time": 152,
        "note": 65,
        "velocity": 64,
        "channel": 0
      },
      {
        "type": "note_on",
        "time": 40,
        "note": 64,
        "velocity": 127,
        "channel": 0
      },
      {
        "type": "note_off",
        "time": 288,
        "note": 64,
        "velocity": 64,
        "channel": 0
      },
      {
        "type": "note_on",
        "time": 96,
        "note": 62,
        "velocity": 127,
        "channel": 0
      },
      {
        "type": "note_off",
        "time": 96,
        "note": 62,
        "velocity": 64,
        "channel": 0
      },
      {
        "type": "note_on",
        "time": 96,
        "note": 62,
        "velocity": 127,
        "channel": 0
      },
      {
        "type": "note_off",
        "time": 1292,
        "note": 62,
        "velocity": 64,
        "channel": 0
      },
      {
        "type": "note_on",
        "time": 52,
        "note": 62,
        "velocity": 127,
        "channel": 0
      },
      {
        "type": "note_off",
        "time": 96,
        "note": 62,
        "velocity": 64,
        "channel": 0
      },
      {
        "type": "note_on",
        "time": 96,
        "note": 62,
        "velocity": 127,
        "channel": 0
      },
      {
        "type": "note_off",
        "time": 168,
        "note": 62,
        "velocity": 64,
        "channel": 0
      },
      {
        "type": "note_on",
        "time": 24,
        "note": 60,
        "velocity": 127,
        "channel": 0
      },
      {
        "type": "note_off",
        "time": 184,
        "note": 60,
        "velocity": 64,
        "channel": 0
      },
      {
        "type": "note_on",
        "time": 8,
        "note": 58,
        "velocity": 127,
        "channel": 0
      },
      {
        "type": "note_off",
        "time": 188,
        "note": 58,
        "velocity": 64,
        "channel": 0
      },
      {
        "type": "note_on",
        "time": 4,
        "note": 57,
        "velocity": 127,
        "channel": 0
      },
      {
        "type": "note_on",
        "time": 192,
        "note": 55,
        "velocity": 127,
        "channel": 0
      },
      {
        "type": "note_off",
        "time": 8,
        "note": 57,
        "velocity": 64,
        "channel": 0
      },
      {
        "type": "note_on",
        "time": 184,
        "note": 58,
        "velocity": 127,
        "channel": 0
      },
      {
        "type": "note_off",
        "time": 16,
        "note": 55,
        "velocity": 64,
        "channel": 0
      },
      {
        "type": "note_off",
        "time": 328,
        "note": 58,
        "velocity": 64,
        "channel": 0
      },
      {
        "type": "note_on",
        "time": 40,
        "note": 57,
        "velocity": 127,
        "channel": 0
      },
      {
        "type": "note_off",
        "time": 176,
        "note": 57,
        "velocity": 64,
        "channel": 0
      },
      {
        "type": "note_on",
        "time": 16,
        "note": 57,
        "velocity": 127,
        "channel": 0
      },
      {
        "type": "note_off",
        "time": 456,
        "note": 57,
        "velocity": 64,
        "channel": 0
      },
      {
        "type": "note_on",
        "time": 312,
        "note": 55,
        "velocity": 127,
        "channel": 0
      },
      {
        "type": "note_on",
        "time": 192,
        "note": 53,
        "velocity": 127,
        "channel": 0
      },
      {
        "type": "note_off",
        "time": 8,
        "note": 55,
        "velocity": 64,
        "channel": 0
      },
      {
        "type": "note_off",
        "time": 372,
        "note": 53,
        "velocity": 64,
        "channel": 0
      },
      {
        "type": "note_on",
        "time": 4,
        "note": 57,
        "velocity": 127,
        "channel": 0
      },
      {
        "type": "note_on",
        "time": 192,
        "note": 55,
        "velocity": 127,
        "channel": 0
      },
      {
        "type": "note_off",
        "time": 28,
        "note": 57,
        "velocity": 64,
        "channel": 0
      },
      {
        "type": "note_off",
        "time": 696,
        "note": 55,
        "velocity": 64,
        "channel": 0
      },
      {
        "type": "note_on",
        "time": 44,
        "note": 50,
        "velocity": 127,
        "channel": 0
      },
      {
        "type": "note_off",
        "time": 188,
        "note": 50,
        "velocity": 64,
        "channel": 0
      },
      {
        "type": "note_on",
        "time": 4,
        "note": 53,
        "velocity": 127,
        "channel": 0
      },
      {
        "type": "note_off",
        "time": 312,
        "note": 53,
        "velocity": 64,
        "channel": 0
      },
      {
        "type": "note_on",
        "time": 72,
        "note": 57,
        "velocity": 127,
        "channel": 0
      },
      {
        "type": "note_off",
        "time": 140,
        "note": 57,
        "velocity": 64,
        "channel": 0
      },
      {
        "type": "note_on",
        "time": 52,
        "note": 57,
        "velocity": 127,
        "channel": 0
      },
      {
        "type": "note_off",
        "time": 296,
        "note": 57,
        "velocity": 64,
        "channel": 0
      },
      {
        "type": "note_on",
        "time": 664,
        "note": 57,
        "velocity": 127,
        "channel": 0
      },
      {
        "type": "note_off",
        "time": 592,
        "note": 57,
        "velocity": 64,
        "channel": 0
      },
      {
        "type": "note_on",
        "time": 176,
        "note": 57,
        "velocity": 127,
        "channel": 0
      },
      {
        "type": "note_off",
        "time": 520,
        "note": 57,
        "velocity": 64,
        "channel": 0
      },
      {
        "type": "note_on",
        "time": 248,
        "note": 62,
        "velocity": 127,
        "channel": 0
      },
      {
        "type": "note_off",
        "time": 328,
        "note": 62,
        "velocity": 64,
        "channel": 0
      },
      {
        "type": "note_on",
        "time": 56,
        "note": 64,
        "velocity": 127,
        "channel": 0
      },
      {
        "type": "note_off",
        "time": 364,
        "note": 64,
        "velocity": 64,
        "channel": 0
      },
      {
        "type": "note_on",
        "time": 20,
        "note": 65,
        "velocity": 127,
        "channel": 0
      },
      {
        "type": "note_off",
        "time": 344,
        "note": 65,
        "velocity": 64,
        "channel": 0
      },
      {
        "type": "note_on",
        "time": 40,
        "note": 64,
        "velocity": 127,
        "channel": 0
      },
      {
        "type": "note_off",
        "time": 140,
        "note": 64,
        "velocity": 64,
        "channel": 0
      },
      {
        "type": "note_on",
        "time": 52,
        "note": 62,
        "velocity": 127,
        "channel": 0
      },
      {
        "type": "note_off",
        "time": 136,
        "note": 62,
        "velocity": 64,
        "channel": 0
      },
      {
        "type": "note_on",
        "time": 56,
        "note": 64,
        "velocity": 127,
        "channel": 0
      },
      {
        "type": "note_off",
        "time": 532,
        "note": 64,
        "velocity": 64,
        "channel": 0
      },
      {
        "type": "note_on",
        "time": 44,
        "note": 62,
        "velocity": 127,
        "channel": 0
      },
      {
        "type": "note_off",
        "time": 164,
        "note": 62,
        "velocity": 64,
        "channel": 0
      },
      {
        "type": "note_on",
        "time": 28,
        "note": 60,
        "velocity": 127,
        "channel": 0
      },
      {
        "type": "note_off",
        "time": 348,
        "note": 60,
        "velocity": 64,
        "channel": 0
      },
      {
        "type": "note_on",
        "time": 36,
        "note": 62,
        "velocity": 127,
        "channel": 0
      },
      {
        "type": "note_on",
        "time": 192,
        "note": 57,
        "velocity": 127,
        "channel": 0
      },
      {
        "type": "note_off",
        "time": 8,
        "note": 62,
        "velocity": 64,
        "channel": 0
      },
      {
        "type": "note_off",
        "time": 528,
        "note": 57,
        "velocity": 64,
        "channel": 0
      },
      {
        "type": "note_on",
        "time": 1192,
        "note": 57,
        "velocity": 127,
        "channel": 0
      },
      {
        "type": "note_off",
        "time": 560,
        "note": 57,
        "velocity": 64,
        "channel": 0
      },
      {
        "type": "note_on",
        "time": 208,
        "note": 57,
        "velocity": 127,
        "channel": 0
      },
      {
        "type": "note_off",
        "time": 644,
        "note": 57,
        "velocity": 64,
        "channel": 0
      },
      {
        "type": "note_on",
        "time": 124,
        "note": 62,
        "velocity": 127,
        "channel": 0
      },
      {
        "type": "note_off",
        "time": 324,
        "note": 62,
        "velocity": 64,
        "channel": 0
      },
      {
        "type": "note_on",
        "time": 60,
        "note": 64,
        "velocity": 127,
        "channel": 0
      },
      {
        "type": "note_off",
        "time": 356,
        "note": 64,
        "velocity": 64,
        "channel": 0
      },
      {
        "type": "note_on",
        "time": 28,
        "note": 65,
        "velocity": 127,
        "channel": 0
      },
      {
        "type": "note_off",
        "time": 320,
        "note": 65,
        "velocity": 64,
        "channel": 0
      },
      {
        "type": "note_on",
        "time": 64,
        "note": 64,
        "velocity": 127,
        "channel": 0
      },
      {
        "type": "note_off",
        "time": 148,
        "note": 64,
        "velocity": 64,
        "channel": 0
      },
      {
        "type": "note_on",
        "time": 44,
        "note": 62,
        "velocity": 127,
        "channel": 0
      },
      {
        "type": "note_off",
        "time": 128,
        "note": 62,
        "velocity": 64,
        "channel": 0
      },
      {
        "type": "note_on",
        "time": 64,
        "note": 64,
        "velocity": 127,
        "channel": 0
      },
      {
        "type": "note_on",
        "time": 576,
        "note": 62,
        "velocity": 127,
        "channel": 0
      },
      {
        "type": "note_off",
        "time": 20,
        "note": 64,
        "velocity": 64,
        "channel": 0
      },
      {
        "type": "note_on",
        "time": 172,
        "note": 60,
        "velocity": 127,
        "channel": 0
      },
      {
        "type": "note_off",
        "time": 8,
        "note": 62,
        "velocity": 64,
        "channel": 0
      },
      {
        "type": "note_off",
        "time": 376,
        "note": 60,
        "velocity": 64,
        "channel": 0
      },
      {
        "type": "note_on",
        "time": 0,
        "note": 64,
        "velocity": 127,
        "channel": 0
      },
      {
        "type": "note_on",
        "time": 192,
        "note": 65,
        "velocity": 127,
        "channel": 0
      },
      {
        "type": "note_off",
        "time": 32,
        "note": 64,
        "velocity": 64,
        "channel": 0
      },
      {
        "type": "note_off",
        "time": 412,
        "note": 65,
        "velocity": 64,
        "channel": 0
      },
      {
        "type": "note_on",
        "time": 1284,
        "note": 55,
        "velocity": 127,
        "channel": 0
      },
      {
        "type": "note_off",
        "time": 192,
        "note": 55,
        "velocity": 64,
        "channel": 0
      },
      {
        "type": "note_on",
        "time": 0,
        "note": 53,
        "velocity": 127,
        "channel": 0
      },
      {
        "type": "note_off",
        "time": 132,
        "note": 53,
        "velocity": 64,
        "channel": 0
      },
      {
        "type": "note_on",
        "time": 60,
        "note": 53,
        "velocity": 127,
        "channel": 0
      },
      {
        "type": "note_off",
        "time": 404,
        "note": 53,
        "velocity": 64,
        "channel": 0
      },
      {
        "type": "note_on",
        "time": 1132,
        "note": 57,
        "velocity": 127,
        "channel": 0
      },
      {
        "type": "note_on",
        "time": 192,
        "note": 59,
        "velocity": 127,
        "channel": 0
      },
      {
        "type": "note_off",
        "time": 20,
        "note": 57,
        "velocity": 64,
        "channel": 0
      },
      {
        "type": "note_on",
        "time": 172,
        "note": 61,
        "velocity": 127,
        "channel": 0
      },
      {
        "type": "note_off",
        "time": 12,
        "note": 59,
        "velocity": 64,
        "channel": 0
      },
      {
        "type": "note_on",
        "time": 180,
        "note": 62,
        "velocity": 127,
        "channel": 0
      },
      {
        "type": "note_off",
        "time": 12,
        "note": 61,
        "velocity": 64,
        "channel": 0
      },
      {
        "type": "note_on",
        "time": 180,
        "note": 64,
        "velocity": 127,
        "channel": 0
      },
      {
        "type": "note_off",
        "time": 4,
        "note": 62,
        "velocity": 64,
        "channel": 0
      },
      {
        "type": "note_off",
        "time": 116,
        "note": 64,
        "velocity": 64,
        "channel": 0
      },
      {
        "type": "note_on",
        "time": 72,
        "note": 65,
        "velocity": 127,
        "channel": 0
      },
      {
        "type": "note_off",
        "time": 152,
        "note": 65,
        "velocity": 64,
        "channel": 0
      },
      {
        "type": "note_on",
        "time": 40,
        "note": 64,
        "velocity": 127,
        "channel": 0
      },
      {
        "type": "note_off",
        "time": 288,
        "note": 64,
        "velocity": 64,
        "channel": 0
      },
      {
        "type": "note_on",
        "time": 96,
        "note": 62,
        "velocity": 127,
        "channel": 0
      },
      {
        "type": "note_off",
        "time": 96,
        "note": 62,
        "velocity": 64,
        "channel": 0
      },
      {
        "type": "note_on",
        "time": 96,
        "note": 62,
        "velocity": 127,
        "channel": 0
      },
      {
        "type": "note_off",
        "time": 1292,
        "note": 62,
        "velocity": 64,
        "channel": 0
      },
      {
        "type": "note_on",
        "time": 52,
        "note": 62,
        "velocity": 127,
        "channel": 0
      },
      {
        "type": "note_off",
        "time": 96,
        "note": 62,
        "velocity": 64,
        "channel": 0
      },
      {
        "type": "note_on",
        "time": 96,
        "note": 62,
        "velocity": 127,
        "channel": 0
      },
      {
        "type": "note_off",
        "time": 168,
        "note": 62,
        "velocity": 64,
        "channel": 0
      },
      {
        "type": "note_on",
        "time": 24,
        "note": 60,
        "velocity": 127,
        "channel": 0
      },
      {
        "type": "note_off",
        "time": 184,
        "note": 60,
        "velocity": 64,
        "channel": 0
      },
      {
        "type": "note_on",
        "time": 8,
        "note": 58,
        "velocity": 127,
        "channel": 0
      },
      {
        "type": "note_off",
        "time": 188,
        "note": 58,
        "velocity": 64,
        "channel": 0
      },
      {
        "type": "note_on",
        "time": 4,
        "note": 57,
        "velocity": 127,
        "channel": 0
      },
      {
        "type": "note_on",
        "time": 192,
        "note": 55,
        "velocity": 127,
        "channel": 0
      },
      {
        "type": "note_off",
        "time": 8,
        "note": 57,
        "velocity": 64,
        "channel": 0
      },
      {
        "type": "note_on",
        "time": 184,
        "note": 58,
        "velocity": 127,
        "channel": 0
      },
      {
        "type": "note_off",
        "time": 16,
        "note": 55,
        "velocity": 64,
        "channel": 0
      },
      {
        "type": "note_off",
        "time": 328,
        "note": 58,
        "velocity": 64,
        "channel": 0
      },
      {
        "type": "note_on",
        "time": 40,
        "note": 57,
        "velocity": 127,
        "channel": 0
      },
      {
        "type": "note_off",
        "time": 176,
        "note": 57,
        "velocity": 64,
        "channel": 0
      },
      {
        "type": "note_on",
        "time": 16,
        "note": 57,
        "velocity": 127,
        "channel": 0
      },
      {
        "type": "note_off",
        "time": 456,
        "note": 57,
        "velocity": 64,
        "channel": 0
      },
      {
        "type": "note_on",
        "time": 312,
        "note": 55,
        "velocity": 127,
        "channel": 0
      },
      {
        "type": "note_on",
        "time": 192,
        "note": 53,
        "velocity": 127,
        "channel": 0
      },
      {
        "type": "note_off",
        "time": 8,
        "note": 55,
        "velocity": 64,
        "channel": 0
      },
      {
        "type": "note_off",
        "time": 372,
        "note": 53,
        "velocity": 64,
        "channel": 0
      },
      {
        "type": "note_on",
        "time": 4,
        "note": 57,
        "velocity": 127,
        "channel": 0
      },
      {
        "type": "note_on",
        "time": 192,
        "note": 55,
        "velocity": 127,
        "channel": 0
      },
      {
        "type": "note_off",
        "time": 28,
        "note": 57,
        "velocity": 64,
        "channel": 0
      },
      {
        "type": "note_off",
        "time": 696,
        "note": 55,
        "velocity": 64,
        "channel": 0
      },
      {
        "type": "note_on",
        "time": 44,
        "note": 50,
        "velocity": 127,
        "channel": 0
      },
      {
        "type": "note_off",
        "time": 188,
        "note": 50,
        "velocity": 64,
        "channel": 0
      },
      {
        "type": "note_on",
        "time": 4,
        "note": 53,
        "velocity": 127,
        "channel": 0
      },
      {
        "type": "note_off",
        "time": 312,
        "note": 53,
        "velocity": 64,
        "channel": 0
      },
      {
        "type": "note_on",
        "time": 72,
        "note": 57,
        "velocity": 127,
        "channel": 0
      },
      {
        "type": "note_off",
        "time": 140,
        "note": 57,
        "velocity": 64,
        "channel": 0
      },
      {
        "type": "note_on",
        "time": 52,
        "note": 57,
        "velocity": 127,
        "channel": 0
      },
      {
        "type": "note_off",
        "time": 296,
        "note": 57,
        "velocity": 64,
        "channel": 0
      },
      {
        "type": "note_on",
        "time": 664,
        "note": 57,
        "velocity": 127,
        "channel": 0
      },
      {
        "type": "note_off",
        "time": 592,
        "note": 57,
        "velocity": 64,
        "channel": 0
      },
      {
        "type": "note_on",
        "time": 176,
        "note": 57,
        "velocity": 127,
        "channel": 0
      },
      {
        "type": "note_off",
        "time": 520,
        "note": 57,
        "velocity": 64,
        "channel": 0
      },
      {
        "type": "note_on",
        "time": 248,
        "note": 62,
        "velocity": 127,
        "channel": 0
      },
      {
        "type": "note_off",
        "time": 328,
        "note": 62,
        "velocity": 64,
        "channel": 0
      },
      {
        "type": "note_on",
        "time": 56,
        "note": 64,
        "velocity": 127,
        "channel": 0
      },
      {
        "type": "note_off",
        "time": 364,
        "note": 64,
        "velocity": 64,
        "channel": 0
      },
      {
        "type": "note_on",
        "time": 20,
        "note": 65,
        "velocity": 127,
        "channel": 0
      },
      {
        "type": "note_off",
        "time": 344,
        "note": 65,
        "velocity": 64,
        "channel": 0
      },
      {
        "type": "note_on",
        "time": 40,
        "note": 64,
        "velocity": 127,
        "channel": 0
      },
      {
        "type": "note_off",
        "time": 140,
        "note": 64,
        "velocity": 64,
        "channel": 0
      },
      {
        "type": "note_on",
        "time": 52,
        "note": 62,
        "velocity": 127,
        "channel": 0
      },
      {
        "type": "note_off",
        "time": 136,
        "note": 62,
        "velocity": 64,
        "channel": 0
      },
      {
        "type": "note_on",
        "time": 56,
        "note": 64,
        "velocity": 127,
        "channel": 0
      },
      {
        "type": "note_off",
        "time": 532,
        "note": 64,
        "velocity": 64,
        "channel": 0
      },
      {
        "type": "note_on",
        "time": 44,
        "note": 62,
        "velocity": 127,
        "channel": 0
      },
      {
        "type": "note_off",
        "time": 164,
        "note": 62,
        "velocity": 64,
        "channel": 0
      },
      {
        "type": "note_on",
        "time": 28,
        "note": 60,
        "velocity": 127,
        "channel": 0
      },
      {
        "type": "note_off",
        "time": 348,
        "note": 60,
        "velocity": 64,
        "channel": 0
      },
      {
        "type": "note_on",
        "time": 36,
        "note": 62,
        "velocity": 127,
        "channel": 0
      },
      {
        "type": "note_on",
        "time": 192,
        "note": 57,
        "velocity": 127,
        "channel": 0
      },
      {
        "type": "note_off",
        "time": 8,
        "note": 62,
        "velocity": 64,
        "channel": 0
      },
      {
        "type": "note_off",
        "time": 528,
        "note": 57,
        "velocity": 64,
        "channel": 0
      },
      {
        "type": "note_on",
        "time": 1192,
        "note": 57,
        "velocity": 127,
        "channel": 0
      },
      {
        "type": "note_off",
        "time": 560,
        "note": 57,
        "velocity": 64,
        "channel": 0
      },
      {
        "type": "note_on",
        "time": 208,
        "note": 57,
        "velocity": 127,
        "channel": 0
      },
      {
        "type": "note_off",
        "time": 644,
        "note": 57,
        "velocity": 64,
        "channel": 0
      },
      {
        "type": "note_on",
        "time": 124,
        "note": 62,
        "velocity": 127,
        "channel": 0
      },
      {
        "type": "note_off",
        "time": 324,
        "note": 62,
        "velocity": 64,
        "channel": 0
      },
      {
        "type": "note_on",
        "time": 60,
        "note": 64,
        "velocity": 127,
        "channel": 0
      },
      {
        "type": "note_off",
        "time": 356,
        "note": 64,
        "velocity": 64,
        "channel": 0
      },
      {
        "type": "note_on",
        "time": 28,
        "note": 65,
        "velocity": 127,
        "channel": 0
      },
      {
        "type": "note_off",
        "time": 320,
        "note": 65,
        "velocity": 64,
        "channel": 0
      },
      {
        "type": "note_on",
        "time": 64,
        "note": 64,
        "velocity": 127,
        "channel": 0
      },
      {
        "type": "note_off",
        "time": 148,
        "note": 64,
        "velocity": 64,
        "channel": 0
      },
      {
        "type": "note_on",
        "time": 44,
        "note": 62,
        "velocity": 127,
        "channel": 0
      },
      {
        "type": "note_off",
        "time": 128,
        "note": 62,
        "velocity": 64,
        "channel": 0
      },
      {
        "type": "note_on",
        "time": 64,
        "note": 64,
        "velocity": 127,
        "channel": 0
      },
      {
        "type": "note_on",
        "time": 576,
        "note": 62,
        "velocity": 127,
        "channel": 0
      },
      {
        "type": "note_off",
        "time": 20,
        "note": 64,
        "velocity": 64,
        "channel": 0
      },
      {
        "type": "note_on",
        "time": 172,
        "note": 60,
        "velocity": 127,
        "channel": 0
      },
      {
        "type": "note_off",
        "time": 8,
        "note": 62,
        "velocity": 64,
        "channel": 0
      },
      {
        "type": "note_off",
        "time": 376,
        "note": 60,
        "velocity": 64,
        "channel": 0
      },
      {
        "type": "note_on",
        "time": 0,
        "note": 64,
        "velocity": 127,
        "channel": 0
      },
      {
        "type": "note_on",
        "time": 192,
        "note": 65,
        "velocity": 127,
        "channel": 0
      },
      {
        "type": "note_off",
        "time": 32,
        "note": 64,
        "velocity": 64,
        "channel": 0
      },
      {
        "type": "note_off",
        "time": 412,
        "note": 65,
        "velocity": 64,
        "channel": 0
      },
      {
        "type": "note_on",
        "time": 1284,
        "note": 55,
        "velocity": 127,
        "channel": 0
      },
      {
        "type": "note_off",
        "time": 192,
        "note": 55,
        "velocity": 64,
        "channel": 0
      },
      {
        "type": "note_on",
        "time": 0,
        "note": 53,
        "velocity": 127,
        "channel": 0
      },
      {
        "type": "note_off",
        "time": 132,
        "note": 53,
        "velocity": 64,
        "channel": 0
      },
      {
        "type": "note_on",
        "time": 60,
        "note": 53,
        "velocity": 127,
        "channel": 0
      },
      {
        "type": "note_off",
        "time": 404,
        "note": 53,
        "velocity": 64,
        "channel": 0
      },
      {
        "type": "note_on",
        "time": 1132,
        "note": 57,
        "velocity": 127,
        "channel": 0
      },
      {
        "type": "note_on",
        "time": 192,
        "note": 59,
        "velocity": 127,
        "channel": 0
      },
      {
        "type": "note_off",
        "time": 20,
        "note": 57,
        "velocity": 64,
        "channel": 0
      },
      {
        "type": "note_on",
        "time": 172,
        "note": 61,
        "velocity": 127,
        "channel": 0
      },
      {
        "type": "note_off",
        "time": 12,
        "note": 59,
        "velocity": 64,
        "channel": 0
      },
      {
        "type": "note_on",
        "time": 180,
        "note": 62,
        "velocity": 127,
        "channel": 0
      },
      {
        "type": "note_off",
        "time": 12,
        "note": 61,
        "velocity": 64,
        "channel": 0
      },
      {
        "type": "note_on",
        "time": 180,
        "note": 64,
        "velocity": 127,
        "channel": 0
      },
      {
        "type": "note_off",
        "time": 4,
        "note": 62,
        "velocity": 64,
        "channel": 0
      },
      {
        "type": "note_off",
        "time": 116,
        "note": 64,
        "velocity": 64,
        "channel": 0
      },
      {
        "type": "note_on",
        "time": 72,
        "note": 65,
        "velocity": 127,
        "channel": 0
      },
      {
        "type": "note_off",
        "time": 152,
        "note": 65,
        "velocity": 64,
        "channel": 0
      },
      {
        "type": "note_on",
        "time": 40,
        "note": 64,
        "velocity": 127,
        "channel": 0
      },
      {
        "type": "note_off",
        "time": 288,
        "note": 64,
        "velocity": 64,
        "channel": 0
      },
      {
        "type": "note_on",
        "time": 96,
        "note": 62,
        "velocity": 127,
        "channel": 0
      },
      {
        "type": "note_off",
        "time": 96,
        "note": 62,
        "velocity": 64,
        "channel": 0
      },
      {
        "type": "note_on",
        "time": 96,
        "note": 62,
        "velocity": 127,
        "channel": 0
      },
      {
        "type": "note_off",
        "time": 1292,
        "note": 62,
        "velocity": 64,
        "channel": 0
      },
      {
        "type": "note_on",
        "time": 52,
        "note": 62,
        "velocity": 127,
        "channel": 0
      },
      {
        "type": "note_off",
        "time": 96,
        "note": 62,
        "velocity": 64,
        "channel": 0
      },
      {
        "type": "note_on",
        "time": 96,
        "note": 62,
        "velocity": 127,
        "channel": 0
      },
      {
        "type": "note_off",
        "time": 168,
        "note": 62,
        "velocity": 64,
        "channel": 0
      },
      {
        "type": "note_on",
        "time": 24,
        "note": 60,
        "velocity": 127,
        "channel": 0
      },
      {
        "type": "note_off",
        "time": 184,
        "note": 60,
        "velocity": 64,
        "channel": 0
      },
      {
        "type": "note_on",
        "time": 8,
        "note": 58,
        "velocity": 127,
        "channel": 0
      },
      {
        "type": "note_off",
        "time": 188,
        "note": 58,
        "velocity": 64,
        "channel": 0
      },
      {
        "type": "note_on",
        "time": 4,
        "note": 57,
        "velocity": 127,
        "channel": 0
      },
      {
        "type": "note_on",
        "time": 192,
        "note": 55,
        "velocity": 127,
        "channel": 0
      },
      {
        "type": "note_off",
        "time": 8,
        "note": 57,
        "velocity": 64,
        "channel": 0
      },
      {
        "type": "note_on",
        "time": 184,
        "note": 58,
        "velocity": 127,
        "channel": 0
      },
      {
        "type": "note_off",
        "time": 16,
        "note": 55,
        "velocity": 64,
        "channel": 0
      },
      {
        "type": "note_off",
        "time": 328,
        "note": 58,
        "velocity": 64,
        "channel": 0
      },
      {
        "type": "note_on",
        "time": 40,
        "note": 57,
        "velocity": 127,
        "channel": 0
      },
      {
        "type": "note_off",
        "time": 176,
        "note": 57,
        "velocity": 64,
        "channel": 0
      },
      {
        "type": "note_on",
        "time": 16,
        "note": 57,
        "velocity": 127,
        "channel": 0
      },
      {
        "type": "note_off",
        "time": 456,
        "note": 57,
        "velocity": 64,
        "channel": 0
      },
      {
        "type": "note_on",
        "time": 312,
        "note": 55,
        "velocity": 127,
        "channel": 0
      },
      {
        "type": "note_on",
        "time": 192,
        "note": 53,
        "velocity": 127,
        "channel": 0
      },
      {
        "type": "note_off",
        "time": 8,
        "note": 55,
        "velocity": 64,
        "channel": 0
      },
      {
        "type": "note_off",
        "time": 372,
        "note": 53,
        "velocity": 64,
        "channel": 0
      },
      {
        "type": "note_on",
        "time": 4,
        "note": 57,
        "velocity": 127,
        "channel": 0
      },
      {
        "type": "note_on",
        "time": 192,
        "note": 55,
        "velocity": 127,
        "channel": 0
      },
      {
        "type": "note_off",
        "time": 28,
        "note": 57,
        "velocity": 64,
        "channel": 0
      },
      {
        "type": "note_off",
        "time": 696,
        "note": 55,
        "velocity": 64,
        "channel": 0
      },
      {
        "type": "note_on",
        "time": 44,
        "note": 50,
        "velocity": 127,
        "channel": 0
      },
      {
        "type": "note_off",
        "time": 188,
        "note": 50,
        "velocity": 64,
        "channel": 0
      },
      {
        "type": "note_on",
        "time": 4,
        "note": 53,
        "velocity": 127,
        "channel": 0
      },
      {
        "type": "note_off",
        "time": 312,
        "note": 53,
        "velocity": 64,
        "channel": 0
      },
      {
        "type": "note_on",
        "time": 72,
        "note": 57,
        "velocity": 127,
        "channel": 0
      },
      {
        "type": "note_off",
        "time": 140,
        "note": 57,
        "velocity": 64,
        "channel": 0
      },
      {
        "type": "note_on",
        "time": 52,
        "note": 57,
        "velocity": 127,
        "channel": 0
      },
      {
        "type": "note_off",
        "time": 296,
        "note": 57,
        "velocity": 64,
        "channel": 0
      },
      {
        "type": "note_on",
        "time": 664,
        "note": 53,
        "velocity": 127,
        "channel": 0
      },
      {
        "type": "note_off",
        "time": 380,
        "note": 53,
        "velocity": 64,
        "channel": 0
      },
      {
        "type": "note_on",
        "time": 4,
        "note": 57,
        "velocity": 127,
        "channel": 0
      },
      {
        "type": "note_on",
        "time": 192,
        "note": 55,
        "velocity": 127,
        "channel": 0
      },
      {
        "type": "note_off",
        "time": 28,
        "note": 57,
        "velocity": 64,
        "channel": 0
      },
      {
        "type": "note_off",
        "time": 696,
        "note": 55,
        "velocity": 64,
        "channel": 0
      },
      {
        "type": "note_on",
        "time": 44,
        "note": 50,
        "velocity": 127,
        "channel": 0
      },
      {
        "type": "note_off",
        "time": 188,
        "note": 50,
        "velocity": 64,
        "channel": 0
      },
      {
        "type": "note_on",
        "time": 4,
        "note": 53,
        "velocity": 127,
        "channel": 0
      },
      {
        "type": "note_off",
        "time": 312,
        "note": 53,
        "velocity": 64,
        "channel": 0
      },
      {
        "type": "note_on",
        "time": 72,
        "note": 57,
        "velocity": 127,
        "channel": 0
      },
      {
        "type": "note_off",
        "time": 140,
        "note": 57,
        "velocity": 64,
        "channel": 0
      },
      {
        "type": "note_on",
        "time": 52,
        "note": 57,
        "velocity": 127,
        "channel": 0
      },
      {
        "type": "note_off",
        "time": 296,
        "note": 57,
        "velocity": 64,
        "channel": 0
      },
      {
        "type": "end_of_track",
        "time": 0
      }
    ],
    [
      {
        "type": "track_name",
        "name": "Strings",
        "time": 0
      },
      {
        "type": "control_change",
        "time": 0,
        "control": 0,
        "value": 0,
        "channel": 1
      },
      {
        "type": "program_change",
        "time": 0,
        "program": 48,
        "channel": 1
      },
      {
        "type": "control_change",
        "time": 0,
        "control": 7,
        "value": 116,
        "channel": 1
      },
      {
        "type": "control_change",
        "time": 0,
        "control": 10,
        "value": 84,
        "channel": 1
      },
      {
        "type": "key_signature",
        "key": "C",
        "time": 0
      },
      {
        "type": "note_on",
        "time": 12256,
        "note": 77,
        "velocity": 55,
        "channel": 1
      },
      {
        "type": "note_on",
        "time": 36,
        "note": 53,
        "velocity": 77,
        "channel": 1
      },
      {
        "type": "note_on",
        "time": 0,
        "note": 81,
        "velocity": 49,
        "channel": 1
      },
      {
        "type": "note_on",
        "time": 4,
        "note": 72,
        "velocity": 84,
        "channel": 1
      },
      {
        "type": "note_on",
        "time": 1516,
        "note": 74,
        "velocity": 70,
        "channel": 1
      },
      {
        "type": "note_off",
        "time": 12,
        "note": 77,
        "velocity": 64,
        "channel": 1
      },
      {
        "type": "note_on",
        "time": 8,
        "note": 52,
        "velocity": 91,
        "channel": 1
      },
      {
        "type": "note_on",
        "time": 4,
        "note": 70,
        "velocity": 79,
        "channel": 1
      },
      {
        "type": "note_off",
        "time": 12,
        "note": 72,
        "velocity": 64,
        "channel": 1
      },
      {
        "type": "note_off",
        "time": 12,
        "note": 53,
        "velocity": 64,
        "channel": 1
      },
      {
        "type": "note_off",
        "time": 692,
        "note": 52,
        "velocity": 64,
        "channel": 1
      },
      {
        "type": "note_on",
        "time": 32,
        "note": 73,
        "velocity": 63,
        "channel": 1
      },
      {
        "type": "note_off",
        "time": 12,
        "note": 74,
        "velocity": 64,
        "channel": 1
      },
      {
        "type": "note_off",
        "time": 0,
        "note": 81,
        "velocity": 64,
        "channel": 1
      },
      {
        "type": "note_off",
        "time": 8,
        "note": 70,
        "velocity": 64,
        "channel": 1
      },
      {
        "type": "note_on",
        "time": 4,
        "note": 57,
        "velocity": 91,
        "channel": 1
      },
      {
        "type": "note_on",
        "time": 0,
        "note": 67,
        "velocity": 75,
        "channel": 1
      },
      {
        "type": "note_on",
        "time": 0,
        "note": 76,
        "velocity": 79,
        "channel": 1
      },
      {
        "type": "note_off",
        "time": 400,
        "note": 76,
        "velocity": 64,
        "channel": 1
      },
      {
        "type": "note_off",
        "time": 352,
        "note": 57,
        "velocity": 64,
        "channel": 1
      },
      {
        "type": "note_on",
        "time": 4,
        "note": 74,
        "velocity": 58,
        "channel": 1
      },
      {
        "type": "note_on",
        "time": 4,
        "note": 62,
        "velocity": 79,
        "channel": 1
      },
      {
        "type": "note_on",
        "time": 4,
        "note": 69,
        "velocity": 70,
        "channel": 1
      },
      {
        "type": "note_on",
        "time": 0,
        "note": 77,
        "velocity": 72,
        "channel": 1
      },
      {
        "type": "note_off",
        "time": 12,
        "note": 73,
        "velocity": 64,
        "channel": 1
      },
      {
        "type": "note_off",
        "time": 8,
        "note": 67,
        "velocity": 64,
        "channel": 1
      },
      {
        "type": "note_off",
        "time": 1076,
        "note": 74,
        "velocity": 64,
        "channel": 1
      },
      {
        "type": "note_off",
        "time": 20,
        "note": 62,
        "velocity": 64,
        "channel": 1
      },
      {
        "type": "note_on",
        "time": 28,
        "note": 60,
        "velocity": 91,
        "channel": 1
      },
      {
        "type": "note_off",
        "time": 56,
        "note": 77,
        "velocity": 64,
        "channel": 1
      },
      {
        "type": "note_off",
        "time": 208,
        "note": 69,
        "velocity": 64,
        "channel": 1
      },
      {
        "type": "note_on",
        "time": 120,
        "note": 58,
        "velocity": 89,
        "channel": 1
      },
      {
        "type": "note_on",
        "time": 4,
        "note": 74,
        "velocity": 60,
        "channel": 1
      },
      {
        "type": "note_on",
        "time": 0,
        "note": 77,
        "velocity": 67,
        "channel": 1
      },
      {
        "type": "note_off",
        "time": 12,
        "note": 60,
        "velocity": 64,
        "channel": 1
      },
      {
        "type": "note_off",
        "time": 612,
        "note": 74,
        "velocity": 64,
        "channel": 1
      },
      {
        "type": "note_off",
        "time": 124,
        "note": 58,
        "velocity": 64,
        "channel": 1
      },
      {
        "type": "note_off",
        "time": 4,
        "note": 77,
        "velocity": 64,
        "channel": 1
      },
      {
        "type": "note_on",
        "time": 16,
        "note": 60,
        "velocity": 91,
        "channel": 1
      },
      {
        "type": "note_on",
        "time": 0,
        "note": 76,
        "velocity": 91,
        "channel": 1
      },
      {
        "type": "note_on",
        "time": 4,
        "note": 72,
        "velocity": 72,
        "channel": 1
      },
      {
        "type": "note_off",
        "time": 752,
        "note": 72,
        "velocity": 64,
        "channel": 1
      },
      {
        "type": "note_on",
        "time": 12,
        "note": 53,
        "velocity": 91,
        "channel": 1
      },
      {
        "type": "note_on",
        "time": 0,
        "note": 74,
        "velocity": 77,
        "channel": 1
      },
      {
        "type": "note_on",
        "time": 4,
        "note": 70,
        "velocity": 75,
        "channel": 1
      },
      {
        "type": "note_off",
        "time": 12,
        "note": 60,
        "velocity": 64,
        "channel": 1
      },
      {
        "type": "note_off",
        "time": 0,
        "note": 76,
        "velocity": 64,
        "channel": 1
      },
      {
        "type": "note_off",
        "time": 368,
        "note": 74,
        "velocity": 64,
        "channel": 1
      },
      {
        "type": "note_on",
        "time": 4,
        "note": 72,
        "velocity": 77,
        "channel": 1
      },
      {
        "type": "note_on",
        "time": 4,
        "note": 69,
        "velocity": 72,
        "channel": 1
      },
      {
        "type": "note_off",
        "time": 28,
        "note": 70,
        "velocity": 64,
        "channel": 1
      },
      {
        "type": "note_off",
        "time": 80,
        "note": 72,
        "velocity": 64,
        "channel": 1
      },
      {
        "type": "note_off",
        "time": 4,
        "note": 69,
        "velocity": 64,
        "channel": 1
      },
      {
        "type": "note_off",
        "time": 40,
        "note": 53,
        "velocity": 64,
        "channel": 1
      },
      {
        "type": "note_on",
        "time": 32,
        "note": 53,
        "velocity": 75,
        "channel": 1
      },
      {
        "type": "note_on",
        "time": 4,
        "note": 69,
        "velocity": 70,
        "channel": 1
      },
      {
        "type": "note_on",
        "time": 0,
        "note": 72,
        "velocity": 70,
        "channel": 1
      },
      {
        "type": "note_off",
        "time": 124,
        "note": 53,
        "velocity": 64,
        "channel": 1
      },
      {
        "type": "note_on",
        "time": 60,
        "note": 53,
        "velocity": 65,
        "channel": 1
      },
      {
        "type": "note_off",
        "time": 344,
        "note": 72,
        "velocity": 64,
        "channel": 1
      },
      {
        "type": "note_off",
        "time": 40,
        "note": 53,
        "velocity": 64,
        "channel": 1
      },
      {
        "type": "note_on",
        "time": 0,
        "note": 52,
        "velocity": 91,
        "channel": 1
      },
      {
        "type": "note_off",
        "time": 136,
        "note": 69,
        "velocity": 64,
        "channel": 1
      },
      {
        "type": "note_on",
        "time": 56,
        "note": 72,
        "velocity": 79,
        "channel": 1
      },
      {
        "type": "note_on",
        "time": 4,
        "note": 69,
        "velocity": 63,
        "channel": 1
      },
      {
        "type": "note_off",
        "time": 96,
        "note": 69,
        "velocity": 64,
        "channel": 1
      },
      {
        "type": "note_off",
        "time": 28,
        "note": 72,
        "velocity": 64,
        "channel": 1
      },
      {
        "type": "note_off",
        "time": 32,
        "note": 52,
        "velocity": 64,
        "channel": 1
      },
      {
        "type": "note_on",
        "time": 32,
        "note": 50,
        "velocity": 91,
        "channel": 1
      },
      {
        "type": "note_on",
        "time": 4,
        "note": 69,
        "velocity": 65,
        "channel": 1
      },
      {
        "type": "note_on",
        "time": 0,
        "note": 72,
        "velocity": 70,
        "channel": 1
      },
      {
        "type": "note_on",
        "time": 380,
        "note": 77,
        "velocity": 65,
        "channel": 1
      },
      {
        "type": "note_off",
        "time": 20,
        "note": 72,
        "velocity": 64,
        "channel": 1
      },
      {
        "type": "note_off",
        "time": 140,
        "note": 50,
        "velocity": 64,
        "channel": 1
      },
      {
        "type": "note_off",
        "time": 16,
        "note": 77,
        "velocity": 64,
        "channel": 1
      },
      {
        "type": "note_on",
        "time": 24,
        "note": 50,
        "velocity": 91,
        "channel": 1
      },
      {
        "type": "note_on",
        "time": 0,
        "note": 72,
        "velocity": 72,
        "channel": 1
      },
      {
        "type": "note_on",
        "time": 184,
        "note": 55,
        "velocity": 79,
        "channel": 1
      },
      {
        "type": "note_on",
        "time": 0,
        "note": 71,
        "velocity": 63,
        "channel": 1
      },
      {
        "type": "note_on",
        "time": 4,
        "note": 67,
        "velocity": 70,
        "channel": 1
      },
      {
        "type": "note_off",
        "time": 16,
        "note": 69,
        "velocity": 64,
        "channel": 1
      },
      {
        "type": "note_off",
        "time": 4,
        "note": 50,
        "velocity": 64,
        "channel": 1
      },
      {
        "type": "note_off",
        "time": 0,
        "note": 72,
        "velocity": 64,
        "channel": 1
      },
      {
        "type": "note_on",
        "time": 360,
        "note": 77,
        "velocity": 70,
        "channel": 1
      },
      {
        "type": "note_off",
        "time": 32,
        "note": 71,
        "velocity": 64,
        "channel": 1
      },
      {
        "type": "note_off",
        "time": 96,
        "note": 77,
        "velocity": 64,
        "channel": 1
      },
      {
        "type": "note_off",
        "time": 16,
        "note": 55,
        "velocity": 64,
        "channel": 1
      },
      {
        "type": "note_on",
        "time": 52,
        "note": 55,
        "velocity": 75,
        "channel": 1
      },
      {
        "type": "note_on",
        "time": 4,
        "note": 71,
        "velocity": 55,
        "channel": 1
      },
      {
        "type": "note_on",
        "time": 192,
        "note": 58,
        "velocity": 91,
        "channel": 1
      },
      {
        "type": "note_on",
        "time": 0,
        "note": 70,
        "velocity": 72,
        "channel": 1
      },
      {
        "type": "note_on",
        "time": 0,
        "note": 77,
        "velocity": 77,
        "channel": 1
      },
      {
        "type": "note_on",
        "time": 4,
        "note": 74,
        "velocity": 72,
        "channel": 1
      },
      {
        "type": "note_off",
        "time": 8,
        "note": 55,
        "velocity": 64,
        "channel": 1
      },
      {
        "type": "note_off",
        "time": 4,
        "note": 71,
        "velocity": 64,
        "channel": 1
      },
      {
        "type": "note_off",
        "time": 12,
        "note": 67,
        "velocity": 64,
        "channel": 1
      },
      {
        "type": "note_off",
        "time": 212,
        "note": 77,
        "velocity": 64,
        "channel": 1
      },
      {
        "type": "note_off",
        "time": 144,
        "note": 58,
        "velocity": 64,
        "channel": 1
      },
      {
        "type": "note_off",
        "time": 0,
        "note": 70,
        "velocity": 64,
        "channel": 1
      },
      {
        "type": "note_on",
        "time": 0,
        "note": 53,
        "velocity": 91,
        "channel": 1
      },
      {
        "type": "note_on",
        "time": 4,
        "note": 69,
        "velocity": 79,
        "channel": 1
      },
      {
        "type": "note_on",
        "time": 0,
        "note": 77,
        "velocity": 70,
        "channel": 1
      },
      {
        "type": "note_on",
        "time": 4,
        "note": 72,
        "velocity": 79,
        "channel": 1
      },
      {
        "type": "note_off",
        "time": 12,
        "note": 74,
        "velocity": 64,
        "channel": 1
      },
      {
        "type": "note_off",
        "time": 60,
        "note": 53,
        "velocity": 64,
        "channel": 1
      },
      {
        "type": "note_off",
        "time": 4,
        "note": 69,
        "velocity": 64,
        "channel": 1
      },
      {
        "type": "note_off",
        "time": 4,
        "note": 72,
        "velocity": 64,
        "channel": 1
      },
      {
        "type": "note_off",
        "time": 28,
        "note": 77,
        "velocity": 64,
        "channel": 1
      },
      {
        "type": "note_on",
        "time": 72,
        "note": 53,
        "velocity": 79,
        "channel": 1
      },
      {
        "type": "note_on",
        "time": 4,
        "note": 69,
        "velocity": 70,
        "channel": 1
      },
      {
        "type": "note_on",
        "time": 0,
        "note": 72,
        "velocity": 70,
        "channel": 1
      },
      {
        "type": "note_on",
        "time": 0,
        "note": 77,
        "velocity": 70,
        "channel": 1
      },
      {
        "type": "note_off",
        "time": 656,
        "note": 77,
        "velocity": 64,
        "channel": 1
      },
      {
        "type": "note_off",
        "time": 48,
        "note": 69,
        "velocity": 64,
        "channel": 1
      },
      {
        "type": "note_off",
        "time": 0,
        "note": 72,
        "velocity": 64,
        "channel": 1
      },
      {
        "type": "note_off",
        "time": 236,
        "note": 53,
        "velocity": 64,
        "channel": 1
      },
      {
        "type": "note_on",
        "time": 16,
        "note": 52,
        "velocity": 91,
        "channel": 1
      },
      {
        "type": "note_on",
        "time": 0,
        "note": 71,
        "velocity": 55,
        "channel": 1
      },
      {
        "type": "note_on",
        "time": 0,
        "note": 74,
        "velocity": 49,
        "channel": 1
      },
      {
        "type": "note_off",
        "time": 752,
        "note": 71,
        "velocity": 64,
        "channel": 1
      },
      {
        "type": "note_off",
        "time": 0,
        "note": 74,
        "velocity": 64,
        "channel": 1
      },
      {
        "type": "note_off",
        "time": 8,
        "note": 52,
        "velocity": 64,
        "channel": 1
      },
      {
        "type": "note_on",
        "time": 8,
        "note": 73,
        "velocity": 63,
        "channel": 1
      },
      {
        "type": "note_on",
        "time": 0,
        "note": 76,
        "velocity": 60,
        "channel": 1
      },
      {
        "type": "note_off",
        "time": 752,
        "note": 73,
        "velocity": 64,
        "channel": 1
      },
      {
        "type": "note_on",
        "time": 20,
        "note": 62,
        "velocity": 79,
        "channel": 1
      },
      {
        "type": "note_on",
        "time": 4,
        "note": 74,
        "velocity": 67,
        "channel": 1
      },
      {
        "type": "note_on",
        "time": 0,
        "note": 77,
        "velocity": 55,
        "channel": 1
      },
      {
        "type": "note_off",
        "time": 8,
        "note": 76,
        "velocity": 64,
        "channel": 1
      },
      {
        "type": "note_off",
        "time": 340,
        "note": 62,
        "velocity": 64,
        "channel": 1
      },
      {
        "type": "note_on",
        "time": 28,
        "note": 60,
        "velocity": 91,
        "channel": 1
      },
      {
        "type": "note_off",
        "time": 368,
        "note": 60,
        "velocity": 64,
        "channel": 1
      },
      {
        "type": "note_on",
        "time": 20,
        "note": 58,
        "velocity": 91,
        "channel": 1
      },
      {
        "type": "note_off",
        "time": 368,
        "note": 58,
        "velocity": 64,
        "channel": 1
      },
      {
        "type": "note_on",
        "time": 16,
        "note": 57,
        "velocity": 91,
        "channel": 1
      },
      {
        "type": "note_off",
        "time": 100,
        "note": 77,
        "velocity": 64,
        "channel": 1
      },
      {
        "type": "note_on",
        "time": 276,
        "note": 55,
        "velocity": 91,
        "channel": 1
      },
      {
        "type": "note_on",
        "time": 4,
        "note": 70,
        "velocity": 54,
        "channel": 1
      },
      {
        "type": "note_off",
        "time": 4,
        "note": 57,
        "velocity": 64,
        "channel": 1
      },
      {
        "type": "note_off",
        "time": 488,
        "note": 55,
        "velocity": 64,
        "channel": 1
      },
      {
        "type": "note_on",
        "time": 84,
        "note": 55,
        "velocity": 79,
        "channel": 1
      },
      {
        "type": "note_off",
        "time": 160,
        "note": 55,
        "velocity": 64,
        "channel": 1
      },
      {
        "type": "note_on",
        "time": 32,
        "note": 60,
        "velocity": 70,
        "channel": 1
      },
      {
        "type": "note_on",
        "time": 0,
        "note": 72,
        "velocity": 60,
        "channel": 1
      },
      {
        "type": "note_on",
        "time": 0,
        "note": 76,
        "velocity": 55,
        "channel": 1
      },
      {
        "type": "note_on",
        "time": 4,
        "note": 77,
        "velocity": 54,
        "channel": 1
      },
      {
        "type": "note_off",
        "time": 20,
        "note": 74,
        "velocity": 64,
        "channel": 1
      },
      {
        "type": "note_off",
        "time": 8,
        "note": 70,
        "velocity": 64,
        "channel": 1
      },
      {
        "type": "note_off",
        "time": 20,
        "note": 77,
        "velocity": 64,
        "channel": 1
      },
      {
        "type": "note_off",
        "time": 444,
        "note": 60,
        "velocity": 64,
        "channel": 1
      },
      {
        "type": "note_on",
        "time": 84,
        "note": 60,
        "velocity": 67,
        "channel": 1
      },
      {
        "type": "note_off",
        "time": 92,
        "note": 76,
        "velocity": 64,
        "channel": 1
      },
      {
        "type": "note_off",
        "time": 68,
        "note": 60,
        "velocity": 64,
        "channel": 1
      },
      {
        "type": "note_on",
        "time": 28,
        "note": 53,
        "velocity": 77,
        "channel": 1
      },
      {
        "type": "note_on",
        "time": 0,
        "note": 69,
        "velocity": 54,
        "channel": 1
      },
      {
        "type": "note_off",
        "time": 496,
        "note": 53,
        "velocity": 64,
        "channel": 1
      },
      {
        "type": "note_on",
        "time": 84,
        "note": 53,
        "velocity": 67,
        "channel": 1
      },
      {
        "type": "note_off",
        "time": 144,
        "note": 53,
        "velocity": 64,
        "channel": 1
      },
      {
        "type": "note_on",
        "time": 44,
        "note": 53,
        "velocity": 60,
        "channel": 1
      },
      {
        "type": "note_off",
        "time": 528,
        "note": 53,
        "velocity": 64,
        "channel": 1
      },
      {
        "type": "note_on",
        "time": 48,
        "note": 53,
        "velocity": 72,
        "channel": 1
      },
      {
        "type": "note_off",
        "time": 160,
        "note": 72,
        "velocity": 64,
        "channel": 1
      },
      {
        "type": "note_off",
        "time": 16,
        "note": 53,
        "velocity": 64,
        "channel": 1
      },
      {
        "type": "note_on",
        "time": 20,
        "note": 52,
        "velocity": 91,
        "channel": 1
      },
      {
        "type": "note_on",
        "time": 0,
        "note": 71,
        "velocity": 70,
        "channel": 1
      },
      {
        "type": "note_on",
        "time": 0,
        "note": 74,
        "velocity": 67,
        "channel": 1
      },
      {
        "type": "note_off",
        "time": 12,
        "note": 69,
        "velocity": 64,
        "channel": 1
      },
      {
        "type": "note_off",
        "time": 532,
        "note": 52,
        "velocity": 64,
        "channel": 1
      },
      {
        "type": "note_on",
        "time": 216,
        "note": 57,
        "velocity": 77,
        "channel": 1
      },
      {
        "type": "note_on",
        "time": 0,
        "note": 73,
        "velocity": 79,
        "channel": 1
      },
      {
        "type": "note_on",
        "time": 4,
        "note": 76,
        "velocity": 75,
        "channel": 1
      },
      {
        "type": "note_off",
        "time": 4,
        "note": 71,
        "velocity": 64,
        "channel": 1
      },
      {
        "type": "note_off",
        "time": 0,
        "note": 74,
        "velocity": 64,
        "channel": 1
      },
      {
        "type": "note_off",
        "time": 504,
        "note": 57,
        "velocity": 64,
        "channel": 1
      },
      {
        "type": "note_on",
        "time": 68,
        "note": 57,
        "velocity": 75,
        "channel": 1
      },
      {
        "type": "note_off",
        "time": 140,
        "note": 73,
        "velocity": 64,
        "channel": 1
      },
      {
        "type": "note_on",
        "time": 52,
        "note": 62,
        "velocity": 72,
        "channel": 1
      },
      {
        "type": "note_on",
        "time": 4,
        "note": 74,
        "velocity": 72,
        "channel": 1
      },
      {
        "type": "note_on",
        "time": 0,
        "note": 77,
        "velocity": 65,
        "channel": 1
      },
      {
        "type": "note_off",
        "time": 12,
        "note": 57,
        "velocity": 64,
        "channel": 1
      },
      {
        "type": "note_off",
        "time": 0,
        "note": 76,
        "velocity": 64,
        "channel": 1
      },
      {
        "type": "note_on",
        "time": 368,
        "note": 60,
        "velocity": 91,
        "channel": 1
      },
      {
        "type": "note_off",
        "time": 16,
        "note": 62,
        "velocity": 64,
        "channel": 1
      },
      {
        "type": "note_off",
        "time": 352,
        "note": 60,
        "velocity": 64,
        "channel": 1
      },
      {
        "type": "note_on",
        "time": 20,
        "note": 58,
        "velocity": 91,
        "channel": 1
      },
      {
        "type": "note_off",
        "time": 352,
        "note": 58,
        "velocity": 64,
        "channel": 1
      },
      {
        "type": "note_on",
        "time": 32,
        "note": 57,
        "velocity": 91,
        "channel": 1
      },
      {
        "type": "note_off",
        "time": 256,
        "note": 77,
        "velocity": 64,
        "channel": 1
      },
      {
        "type": "note_on",
        "time": 124,
        "note": 55,
        "velocity": 70,
        "channel": 1
      },
      {
        "type": "note_on",
        "time": 0,
        "note": 70,
        "velocity": 49,
        "channel": 1
      },
      {
        "type": "note_off",
        "time": 20,
        "note": 57,
        "velocity": 64,
        "channel": 1
      },
      {
        "type": "note_off",
        "time": 492,
        "note": 55,
        "velocity": 64,
        "channel": 1
      },
      {
        "type": "note_on",
        "time": 68,
        "note": 55,
        "velocity": 77,
        "channel": 1
      },
      {
        "type": "note_off",
        "time": 156,
        "note": 70,
        "velocity": 64,
        "channel": 1
      },
      {
        "type": "note_off",
        "time": 4,
        "note": 74,
        "velocity": 64,
        "channel": 1
      },
      {
        "type": "note_off",
        "time": 16,
        "note": 55,
        "velocity": 64,
        "channel": 1
      },
      {
        "type": "note_on",
        "time": 12,
        "note": 60,
        "velocity": 72,
        "channel": 1
      },
      {
        "type": "note_on",
        "time": 0,
        "note": 72,
        "velocity": 55,
        "channel": 1
      },
      {
        "type": "note_on",
        "time": 4,
        "note": 76,
        "velocity": 55,
        "channel": 1
      },
      {
        "type": "note_off",
        "time": 476,
        "note": 60,
        "velocity": 64,
        "channel": 1
      },
      {
        "type": "note_on",
        "time": 292,
        "note": 53,
        "velocity": 77,
        "channel": 1
      },
      {
        "type": "note_on",
        "time": 0,
        "note": 77,
        "velocity": 52,
        "channel": 1
      },
      {
        "type": "note_off",
        "time": 16,
        "note": 76,
        "velocity": 64,
        "channel": 1
      },
      {
        "type": "note_off",
        "time": 300,
        "note": 72,
        "velocity": 64,
        "channel": 1
      },
      {
        "type": "note_on",
        "time": 32,
        "note": 72,
        "velocity": 127,
        "channel": 1
      },
      {
        "type": "note_on",
        "time": 384,
        "note": 70,
        "velocity": 127,
        "channel": 1
      },
      {
        "type": "note_off",
        "time": 32,
        "note": 72,
        "velocity": 64,
        "channel": 1
      },
      {
        "type": "note_on",
        "time": 352,
        "note": 69,
        "velocity": 127,
        "channel": 1
      },
      {
        "type": "note_off",
        "time": 32,
        "note": 70,
        "velocity": 64,
        "channel": 1
      },
      {
        "type": "note_off",
        "time": 260,
        "note": 53,
        "velocity": 64,
        "channel": 1
      },
      {
        "type": "note_off",
        "time": 48,
        "note": 77,
        "velocity": 64,
        "channel": 1
      },
      {
        "type": "note_on",
        "time": 72,
        "note": 53,
        "velocity": 91,
        "channel": 1
      },
      {
        "type": "note_on",
        "time": 0,
        "note": 72,
        "velocity": 91,
        "channel": 1
      },
      {
        "type": "note_off",
        "time": 4,
        "note": 69,
        "velocity": 64,
        "channel": 1
      },
      {
        "type": "note_on",
        "time": 0,
        "note": 77,
        "velocity": 91,
        "channel": 1
      },
      {
        "type": "note_on",
        "time": 0,
        "note": 81,
        "velocity": 91,
        "channel": 1
      },
      {
        "type": "note_off",
        "time": 1276,
        "note": 53,
        "velocity": 64,
        "channel": 1
      },
      {
        "type": "note_off",
        "time": 176,
        "note": 72,
        "velocity": 64,
        "channel": 1
      },
      {
        "type": "note_off",
        "time": 68,
        "note": 77,
        "velocity": 64,
        "channel": 1
      },
      {
        "type": "note_on",
        "time": 16,
        "note": 52,
        "velocity": 91,
        "channel": 1
      },
      {
        "type": "note_on",
        "time": 0,
        "note": 70,
        "velocity": 89,
        "channel": 1
      },
      {
        "type": "note_on",
        "time": 4,
        "note": 74,
        "velocity": 77,
        "channel": 1
      },
      {
        "type": "note_off",
        "time": 508,
        "note": 52,
        "velocity": 64,
        "channel": 1
      },
      {
        "type": "note_on",
        "time": 256,
        "note": 57,
        "velocity": 91,
        "channel": 1
      },
      {
        "type": "note_on",
        "time": 4,
        "note": 69,
        "velocity": 91,
        "channel": 1
      },
      {
        "type": "note_on",
        "time": 0,
        "note": 73,
        "velocity": 91,
        "channel": 1
      },
      {
        "type": "note_off",
        "time": 28,
        "note": 70,
        "velocity": 64,
        "channel": 1
      },
      {
        "type": "note_off",
        "time": 8,
        "note": 74,
        "velocity": 64,
        "channel": 1
      },
      {
        "type": "note_off",
        "time": 472,
        "note": 57,
        "velocity": 64,
        "channel": 1
      },
      {
        "type": "note_on",
        "time": 252,
        "note": 62,
        "velocity": 77,
        "channel": 1
      },
      {
        "type": "note_on",
        "time": 0,
        "note": 74,
        "velocity": 91,
        "channel": 1
      },
      {
        "type": "note_on",
        "time": 4,
        "note": 77,
        "velocity": 91,
        "channel": 1
      },
      {
        "type": "note_off",
        "time": 16,
        "note": 73,
        "velocity": 64,
        "channel": 1
      },
      {
        "type": "note_off",
        "time": 0,
        "note": 81,
        "velocity": 64,
        "channel": 1
      },
      {
        "type": "note_off",
        "time": 492,
        "note": 62,
        "velocity": 64,
        "channel": 1
      },
      {
        "type": "note_off",
        "time": 196,
        "note": 77,
        "velocity": 64,
        "channel": 1
      },
      {
        "type": "note_on",
        "time": 60,
        "note": 62,
        "velocity": 72,
        "channel": 1
      },
      {
        "type": "note_on",
        "time": 0,
        "note": 65,
        "velocity": 72,
        "channel": 1
      },
      {
        "type": "note_off",
        "time": 336,
        "note": 62,
        "velocity": 64,
        "channel": 1
      },
      {
        "type": "note_on",
        "time": 48,
        "note": 60,
        "velocity": 91,
        "channel": 1
      },
      {
        "type": "note_on",
        "time": 0,
        "note": 76,
        "velocity": 91,
        "channel": 1
      },
      {
        "type": "note_off",
        "time": 16,
        "note": 74,
        "velocity": 64,
        "channel": 1
      },
      {
        "type": "note_on",
        "time": 176,
        "note": 77,
        "velocity": 72,
        "channel": 1
      },
      {
        "type": "note_off",
        "time": 16,
        "note": 76,
        "velocity": 64,
        "channel": 1
      },
      {
        "type": "note_off",
        "time": 104,
        "note": 69,
        "velocity": 64,
        "channel": 1
      },
      {
        "type": "note_off",
        "time": 40,
        "note": 65,
        "velocity": 64,
        "channel": 1
      },
      {
        "type": "note_off",
        "time": 16,
        "note": 60,
        "velocity": 64,
        "channel": 1
      },
      {
        "type": "note_on",
        "time": 20,
        "note": 58,
        "velocity": 91,
        "channel": 1
      },
      {
        "type": "note_on",
        "time": 0,
        "note": 70,
        "velocity": 79,
        "channel": 1
      },
      {
        "type": "note_on",
        "time": 0,
        "note": 74,
        "velocity": 79,
        "channel": 1
      },
      {
        "type": "note_off",
        "time": 28,
        "note": 77,
        "velocity": 64,
        "channel": 1
      },
      {
        "type": "note_off",
        "time": 708,
        "note": 70,
        "velocity": 64,
        "channel": 1
      },
      {
        "type": "note_on",
        "time": 32,
        "note": 60,
        "velocity": 91,
        "channel": 1
      },
      {
        "type": "note_on",
        "time": 0,
        "note": 67,
        "velocity": 72,
        "channel": 1
      },
      {
        "type": "note_on",
        "time": 4,
        "note": 72,
        "velocity": 70,
        "channel": 1
      },
      {
        "type": "note_on",
        "time": 0,
        "note": 76,
        "velocity": 60,
        "channel": 1
      },
      {
        "type": "note_off",
        "time": 12,
        "note": 58,
        "velocity": 64,
        "channel": 1
      },
      {
        "type": "note_off",
        "time": 0,
        "note": 74,
        "velocity": 64,
        "channel": 1
      },
      {
        "type": "note_off",
        "time": 612,
        "note": 72,
        "velocity": 64,
        "channel": 1
      },
      {
        "type": "note_off",
        "time": 44,
        "note": 67,
        "velocity": 64,
        "channel": 1
      },
      {
        "type": "note_off",
        "time": 20,
        "note": 76,
        "velocity": 64,
        "channel": 1
      },
      {
        "type": "note_on",
        "time": 76,
        "note": 53,
        "velocity": 91,
        "channel": 1
      },
      {
        "type": "note_on",
        "time": 4,
        "note": 70,
        "velocity": 91,
        "channel": 1
      },
      {
        "type": "note_on",
        "time": 0,
        "note": 74,
        "velocity": 91,
        "channel": 1
      },
      {
        "type": "note_on",
        "time": 0,
        "note": 77,
        "velocity": 77,
        "channel": 1
      },
      {
        "type": "note_off",
        "time": 12,
        "note": 60,
        "velocity": 64,
        "channel": 1
      },
      {
        "type": "note_off",
        "time": 324,
        "note": 70,
        "velocity": 64,
        "channel": 1
      },
      {
        "type": "note_off",
        "time": 32,
        "note": 74,
        "velocity": 64,
        "channel": 1
      },
      {
        "type": "note_on",
        "time": 12,
        "note": 69,
        "velocity": 70,
        "channel": 1
      },
      {
        "type": "note_on",
        "time": 0,
        "note": 72,
        "velocity": 79,
        "channel": 1
      },
      {
        "type": "note_off",
        "time": 112,
        "note": 69,
        "velocity": 64,
        "channel": 1
      },
      {
        "type": "note_off",
        "time": 32,
        "note": 72,
        "velocity": 64,
        "channel": 1
      },
      {
        "type": "note_on",
        "time": 56,
        "note": 69,
        "velocity": 77,
        "channel": 1
      },
      {
        "type": "note_on",
        "time": 0,
        "note": 72,
        "velocity": 91,
        "channel": 1
      },
      {
        "type": "note_off",
        "time": 120,
        "note": 53,
        "velocity": 64,
        "channel": 1
      },
      {
        "type": "note_on",
        "time": 60,
        "note": 53,
        "velocity": 91,
        "channel": 1
      },
      {
        "type": "note_on",
        "time": 384,
        "note": 52,
        "velocity": 91,
        "channel": 1
      },
      {
        "type": "note_off",
        "time": 16,
        "note": 53,
        "velocity": 64,
        "channel": 1
      },
      {
        "type": "note_off",
        "time": 76,
        "note": 72,
        "velocity": 64,
        "channel": 1
      },
      {
        "type": "note_off",
        "time": 44,
        "note": 77,
        "velocity": 64,
        "channel": 1
      },
      {
        "type": "note_on",
        "time": 56,
        "note": 72,
        "velocity": 91,
        "channel": 1
      },
      {
        "type": "note_off",
        "time": 144,
        "note": 72,
        "velocity": 64,
        "channel": 1
      },
      {
        "type": "note_on",
        "time": 48,
        "note": 50,
        "velocity": 91,
        "channel": 1
      },
      {
        "type": "note_on",
        "time": 0,
        "note": 72,
        "velocity": 91,
        "channel": 1
      },
      {
        "type": "note_off",
        "time": 16,
        "note": 52,
        "velocity": 64,
        "channel": 1
      },
      {
        "type": "note_on",
        "time": 368,
        "note": 77,
        "velocity": 91,
        "channel": 1
      },
      {
        "type": "note_off",
        "time": 96,
        "note": 72,
        "velocity": 64,
        "channel": 1
      },
      {
        "type": "note_off",
        "time": 96,
        "note": 77,
        "velocity": 64,
        "channel": 1
      },
      {
        "type": "note_on",
        "time": 4,
        "note": 72,
        "velocity": 91,
        "channel": 1
      },
      {
        "type": "note_on",
        "time": 188,
        "note": 55,
        "velocity": 91,
        "channel": 1
      },
      {
        "type": "note_on",
        "time": 0,
        "note": 71,
        "velocity": 91,
        "channel": 1
      },
      {
        "type": "note_off",
        "time": 16,
        "note": 50,
        "velocity": 64,
        "channel": 1
      },
      {
        "type": "note_off",
        "time": 4,
        "note": 72,
        "velocity": 64,
        "channel": 1
      },
      {
        "type": "note_on",
        "time": 364,
        "note": 77,
        "velocity": 89,
        "channel": 1
      },
      {
        "type": "note_off",
        "time": 32,
        "note": 71,
        "velocity": 64,
        "channel": 1
      },
      {
        "type": "note_off",
        "time": 156,
        "note": 69,
        "velocity": 64,
        "channel": 1
      },
      {
        "type": "note_on",
        "time": 12,
        "note": 71,
        "velocity": 91,
        "channel": 1
      },
      {
        "type": "note_off",
        "time": 144,
        "note": 71,
        "velocity": 64,
        "channel": 1
      },
      {
        "type": "note_on",
        "time": 48,
        "note": 58,
        "velocity": 89,
        "channel": 1
      },
      {
        "type": "note_on",
        "time": 0,
        "note": 70,
        "velocity": 79,
        "channel": 1
      },
      {
        "type": "note_on",
        "time": 4,
        "note": 74,
        "velocity": 77,
        "channel": 1
      },
      {
        "type": "note_off",
        "time": 20,
        "note": 55,
        "velocity": 64,
        "channel": 1
      },
      {
        "type": "note_off",
        "time": 0,
        "note": 77,
        "velocity": 64,
        "channel": 1
      },
      {
        "type": "note_on",
        "time": 4,
        "note": 77,
        "velocity": 49,
        "channel": 1
      },
      {
        "type": "note_off",
        "time": 312,
        "note": 74,
        "velocity": 64,
        "channel": 1
      },
      {
        "type": "note_off",
        "time": 12,
        "note": 70,
        "velocity": 64,
        "channel": 1
      },
      {
        "type": "note_on",
        "time": 28,
        "note": 53,
        "velocity": 91,
        "channel": 1
      },
      {
        "type": "note_on",
        "time": 20,
        "note": 69,
        "velocity": 77,
        "channel": 1
      },
      {
        "type": "note_on",
        "time": 0,
        "note": 72,
        "velocity": 84,
        "channel": 1
      },
      {
        "type": "note_off",
        "time": 16,
        "note": 58,
        "velocity": 64,
        "channel": 1
      },
      {
        "type": "note_off",
        "time": 12,
        "note": 77,
        "velocity": 64,
        "channel": 1
      },
      {
        "type": "note_off",
        "time": 64,
        "note": 53,
        "velocity": 64,
        "channel": 1
      },
      {
        "type": "note_off",
        "time": 36,
        "note": 69,
        "velocity": 64,
        "channel": 1
      },
      {
        "type": "note_off",
        "time": 16,
        "note": 72,
        "velocity": 64,
        "channel": 1
      },
      {
        "type": "note_on",
        "time": 28,
        "note": 53,
        "velocity": 77,
        "channel": 1
      },
      {
        "type": "note_on",
        "time": 4,
        "note": 69,
        "velocity": 91,
        "channel": 1
      },
      {
        "type": "note_on",
        "time": 0,
        "note": 72,
        "velocity": 91,
        "channel": 1
      },
      {
        "type": "note_on",
        "time": 4,
        "note": 77,
        "velocity": 84,
        "channel": 1
      },
      {
        "type": "note_off",
        "time": 620,
        "note": 72,
        "velocity": 64,
        "channel": 1
      },
      {
        "type": "note_off",
        "time": 16,
        "note": 69,
        "velocity": 64,
        "channel": 1
      },
      {
        "type": "note_off",
        "time": 4,
        "note": 77,
        "velocity": 64,
        "channel": 1
      },
      {
        "type": "note_off",
        "time": 296,
        "note": 53,
        "velocity": 64,
        "channel": 1
      },
      {
        "type": "note_on",
        "time": 44,
        "note": 52,
        "velocity": 91,
        "channel": 1
      },
      {
        "type": "note_on",
        "time": 4,
        "note": 71,
        "velocity": 67,
        "channel": 1
      },
      {
        "type": "note_on",
        "time": 0,
        "note": 74,
        "velocity": 77,
        "channel": 1
      },
      {
        "type": "note_on",
        "time": 744,
        "note": 57,
        "velocity": 37,
        "channel": 1
      },
      {
        "type": "note_on",
        "time": 0,
        "note": 73,
        "velocity": 60,
        "channel": 1
      },
      {
        "type": "note_on",
        "time": 0,
        "note": 76,
        "velocity": 91,
        "channel": 1
      },
      {
        "type": "note_off",
        "time": 8,
        "note": 52,
        "velocity": 64,
        "channel": 1
      },
      {
        "type": "note_off",
        "time": 4,
        "note": 71,
        "velocity": 64,
        "channel": 1
      },
      {
        "type": "note_off",
        "time": 4,
        "note": 74,
        "velocity": 64,
        "channel": 1
      },
      {
        "type": "note_off",
        "time": 752,
        "note": 57,
        "velocity": 64,
        "channel": 1
      },
      {
        "type": "note_off",
        "time": 0,
        "note": 76,
        "velocity": 64,
        "channel": 1
      },
      {
        "type": "note_on",
        "time": 12,
        "note": 62,
        "velocity": 77,
        "channel": 1
      },
      {
        "type": "note_on",
        "time": 4,
        "note": 74,
        "velocity": 65,
        "channel": 1
      },
      {
        "type": "note_on",
        "time": 0,
        "note": 77,
        "velocity": 91,
        "channel": 1
      },
      {
        "type": "note_off",
        "time": 16,
        "note": 73,
        "velocity": 64,
        "channel": 1
      },
      {
        "type": "note_off",
        "time": 316,
        "note": 62,
        "velocity": 64,
        "channel": 1
      },
      {
        "type": "note_on",
        "time": 40,
        "note": 60,
        "velocity": 91,
        "channel": 1
      },
      {
        "type": "note_on",
        "time": 4,
        "note": 79,
        "velocity": 91,
        "channel": 1
      },
      {
        "type": "note_off",
        "time": 8,
        "note": 77,
        "velocity": 64,
        "channel": 1
      },
      {
        "type": "note_off",
        "time": 360,
        "note": 79,
        "velocity": 64,
        "channel": 1
      },
      {
        "type": "note_on",
        "time": 0,
        "note": 58,
        "velocity": 91,
        "channel": 1
      },
      {
        "type": "note_on",
        "time": 16,
        "note": 81,
        "velocity": 91,
        "channel": 1
      },
      {
        "type": "note_off",
        "time": 12,
        "note": 60,
        "velocity": 64,
        "channel": 1
      },
      {
        "type": "note_off",
        "time": 324,
        "note": 81,
        "velocity": 64,
        "channel": 1
      },
      {
        "type": "note_off",
        "time": 16,
        "note": 58,
        "velocity": 64,
        "channel": 1
      },
      {
        "type": "note_on",
        "time": 16,
        "note": 57,
        "velocity": 91,
        "channel": 1
      },
      {
        "type": "note_on",
        "time": 4,
        "note": 79,
        "velocity": 91,
        "channel": 1
      },
      {
        "type": "note_on",
        "time": 180,
        "note": 77,
        "velocity": 72,
        "channel": 1
      },
      {
        "type": "note_off",
        "time": 28,
        "note": 79,
        "velocity": 64,
        "channel": 1
      },
      {
        "type": "note_off",
        "time": 164,
        "note": 74,
        "velocity": 64,
        "channel": 1
      },
      {
        "type": "note_on",
        "time": 4,
        "note": 55,
        "velocity": 77,
        "channel": 1
      },
      {
        "type": "note_on",
        "time": 4,
        "note": 70,
        "velocity": 67,
        "channel": 1
      },
      {
        "type": "note_on",
        "time": 0,
        "note": 79,
        "velocity": 67,
        "channel": 1
      },
      {
        "type": "note_off",
        "time": 16,
        "note": 57,
        "velocity": 64,
        "channel": 1
      },
      {
        "type": "note_off",
        "time": 24,
        "note": 77,
        "velocity": 64,
        "channel": 1
      },
      {
        "type": "note_off",
        "time": 468,
        "note": 55,
        "velocity": 64,
        "channel": 1
      },
      {
        "type": "note_off",
        "time": 36,
        "note": 79,
        "velocity": 64,
        "channel": 1
      },
      {
        "type": "note_on",
        "time": 36,
        "note": 55,
        "velocity": 72,
        "channel": 1
      },
      {
        "type": "note_on",
        "time": 0,
        "note": 77,
        "velocity": 91,
        "channel": 1
      },
      {
        "type": "note_off",
        "time": 176,
        "note": 55,
        "velocity": 64,
        "channel": 1
      },
      {
        "type": "note_on",
        "time": 12,
        "note": 60,
        "velocity": 89,
        "channel": 1
      },
      {
        "type": "note_on",
        "time": 4,
        "note": 72,
        "velocity": 70,
        "channel": 1
      },
      {
        "type": "note_on",
        "time": 0,
        "note": 76,
        "velocity": 70,
        "channel": 1
      },
      {
        "type": "note_off",
        "time": 16,
        "note": 77,
        "velocity": 64,
        "channel": 1
      },
      {
        "type": "note_off",
        "time": 44,
        "note": 70,
        "velocity": 64,
        "channel": 1
      },
      {
        "type": "note_off",
        "time": 308,
        "note": 76,
        "velocity": 64,
        "channel": 1
      },
      {
        "type": "note_on",
        "time": 16,
        "note": 77,
        "velocity": 58,
        "channel": 1
      },
      {
        "type": "note_off",
        "time": 60,
        "note": 60,
        "velocity": 64,
        "channel": 1
      },
      {
        "type": "note_on",
        "time": 136,
        "note": 60,
        "velocity": 70,
        "channel": 1
      },
      {
        "type": "note_off",
        "time": 140,
        "note": 72,
        "velocity": 64,
        "channel": 1
      },
      {
        "type": "note_on",
        "time": 44,
        "note": 53,
        "velocity": 91,
        "channel": 1
      },
      {
        "type": "note_on",
        "time": 4,
        "note": 69,
        "velocity": 39,
        "channel": 1
      },
      {
        "type": "note_on",
        "time": 0,
        "note": 72,
        "velocity": 39,
        "channel": 1
      },
      {
        "type": "note_on",
        "time": 0,
        "note": 81,
        "velocity": 39,
        "channel": 1
      },
      {
        "type": "note_off",
        "time": 20,
        "note": 60,
        "velocity": 64,
        "channel": 1
      },
      {
        "type": "note_off",
        "time": 344,
        "note": 53,
        "velocity": 64,
        "channel": 1
      },
      {
        "type": "note_on",
        "time": 16,
        "note": 60,
        "velocity": 91,
        "channel": 1
      },
      {
        "type": "note_off",
        "time": 364,
        "note": 60,
        "velocity": 64,
        "channel": 1
      },
      {
        "type": "note_on",
        "time": 16,
        "note": 60,
        "velocity": 91,
        "channel": 1
      },
      {
        "type": "note_off",
        "time": 368,
        "note": 60,
        "velocity": 64,
        "channel": 1
      },
      {
        "type": "note_on",
        "time": 20,
        "note": 60,
        "velocity": 91,
        "channel": 1
      },
      {
        "type": "note_off",
        "time": 160,
        "note": 60,
        "velocity": 64,
        "channel": 1
      },
      {
        "type": "note_on",
        "time": 32,
        "note": 58,
        "velocity": 75,
        "channel": 1
      },
      {
        "type": "note_off",
        "time": 132,
        "note": 77,
        "velocity": 64,
        "channel": 1
      },
      {
        "type": "note_on",
        "time": 56,
        "note": 57,
        "velocity": 91,
        "channel": 1
      },
      {
        "type": "note_on",
        "time": 0,
        "note": 71,
        "velocity": 91,
        "channel": 1
      },
      {
        "type": "note_on",
        "time": 4,
        "note": 74,
        "velocity": 87,
        "channel": 1
      },
      {
        "type": "note_off",
        "time": 32,
        "note": 58,
        "velocity": 64,
        "channel": 1
      },
      {
        "type": "note_off",
        "time": 4,
        "note": 69,
        "velocity": 64,
        "channel": 1
      },
      {
        "type": "note_off",
        "time": 0,
        "note": 72,
        "velocity": 64,
        "channel": 1
      },
      {
        "type": "note_off",
        "time": 0,
        "note": 81,
        "velocity": 64,
        "channel": 1
      },
      {
        "type": "note_off",
        "time": 392,
        "note": 71,
        "velocity": 64,
        "channel": 1
      },
      {
        "type": "note_on",
        "time": 44,
        "note": 71,
        "velocity": 91,
        "channel": 1
      },
      {
        "type": "note_off",
        "time": 248,
        "note": 74,
        "velocity": 64,
        "channel": 1
      },
      {
        "type": "note_on",
        "time": 44,
        "note": 73,
        "velocity": 91,
        "channel": 1
      },
      {
        "type": "note_on",
        "time": 0,
        "note": 76,
        "velocity": 91,
        "channel": 1
      },
      {
        "type": "note_off",
        "time": 76,
        "note": 71,
        "velocity": 64,
        "channel": 1
      },
      {
        "type": "note_off",
        "time": 388,
        "note": 57,
        "velocity": 64,
        "channel": 1
      },
      {
        "type": "note_off",
        "time": 304,
        "note": 73,
        "velocity": 64,
        "channel": 1
      },
      {
        "type": "note_on",
        "time": 8,
        "note": 74,
        "velocity": 77,
        "channel": 1
      },
      {
        "type": "note_on",
        "time": 0,
        "note": 77,
        "velocity": 91,
        "channel": 1
      },
      {
        "type": "note_off",
        "time": 40,
        "note": 76,
        "velocity": 64,
        "channel": 1
      },
      {
        "type": "note_on",
        "time": 140,
        "note": 62,
        "velocity": 89,
        "channel": 1
      },
      {
        "type": "note_off",
        "time": 188,
        "note": 77,
        "velocity": 64,
        "channel": 1
      },
      {
        "type": "note_on",
        "time": 12,
        "note": 60,
        "velocity": 91,
        "channel": 1
      },
      {
        "type": "note_on",
        "time": 4,
        "note": 79,
        "velocity": 91,
        "channel": 1
      },
      {
        "type": "note_off",
        "time": 52,
        "note": 62,
        "velocity": 64,
        "channel": 1
      },
      {
        "type": "note_off",
        "time": 296,
        "note": 60,
        "velocity": 64,
        "channel": 1
      },
      {
        "type": "note_off",
        "time": 20,
        "note": 79,
        "velocity": 64,
        "channel": 1
      },
      {
        "type": "note_on",
        "time": 16,
        "note": 58,
        "velocity": 91,
        "channel": 1
      },
      {
        "type": "note_on",
        "time": 16,
        "note": 81,
        "velocity": 84,
        "channel": 1
      },
      {
        "type": "note_on",
        "time": 364,
        "note": 57,
        "velocity": 77,
        "channel": 1
      },
      {
        "type": "note_on",
        "time": 4,
        "note": 79,
        "velocity": 91,
        "channel": 1
      },
      {
        "type": "note_off",
        "time": 16,
        "note": 58,
        "velocity": 64,
        "channel": 1
      },
      {
        "type": "note_off",
        "time": 0,
        "note": 81,
        "velocity": 64,
        "channel": 1
      },
      {
        "type": "note_off",
        "time": 128,
        "note": 79,
        "velocity": 64,
        "channel": 1
      },
      {
        "type": "note_on",
        "time": 40,
        "note": 77,
        "velocity": 72,
        "channel": 1
      },
      {
        "type": "note_off",
        "time": 168,
        "note": 74,
        "velocity": 64,
        "channel": 1
      },
      {
        "type": "note_on",
        "time": 28,
        "note": 55,
        "velocity": 91,
        "channel": 1
      },
      {
        "type": "note_on",
        "time": 0,
        "note": 70,
        "velocity": 77,
        "channel": 1
      },
      {
        "type": "note_on",
        "time": 4,
        "note": 79,
        "velocity": 63,
        "channel": 1
      },
      {
        "type": "note_off",
        "time": 24,
        "note": 77,
        "velocity": 64,
        "channel": 1
      },
      {
        "type": "note_off",
        "time": 4,
        "note": 57,
        "velocity": 64,
        "channel": 1
      },
      {
        "type": "note_off",
        "time": 448,
        "note": 55,
        "velocity": 64,
        "channel": 1
      },
      {
        "type": "note_off",
        "time": 68,
        "note": 79,
        "velocity": 64,
        "channel": 1
      },
      {
        "type": "note_on",
        "time": 28,
        "note": 55,
        "velocity": 89,
        "channel": 1
      },
      {
        "type": "note_on",
        "time": 4,
        "note": 77,
        "velocity": 84,
        "channel": 1
      },
      {
        "type": "note_on",
        "time": 184,
        "note": 60,
        "velocity": 89,
        "channel": 1
      },
      {
        "type": "note_on",
        "time": 0,
        "note": 72,
        "velocity": 91,
        "channel": 1
      },
      {
        "type": "note_on",
        "time": 4,
        "note": 76,
        "velocity": 70,
        "channel": 1
      },
      {
        "type": "note_off",
        "time": 16,
        "note": 55,
        "velocity": 64,
        "channel": 1
      },
      {
        "type": "note_off",
        "time": 4,
        "note": 77,
        "velocity": 64,
        "channel": 1
      },
      {
        "type": "note_off",
        "time": 28,
        "note": 70,
        "velocity": 64,
        "channel": 1
      },
      {
        "type": "note_off",
        "time": 336,
        "note": 76,
        "velocity": 64,
        "channel": 1
      },
      {
        "type": "note_on",
        "time": 0,
        "note": 77,
        "velocity": 49,
        "channel": 1
      },
      {
        "type": "note_off",
        "time": 92,
        "note": 60,
        "velocity": 64,
        "channel": 1
      },
      {
        "type": "note_on",
        "time": 104,
        "note": 60,
        "velocity": 77,
        "channel": 1
      },
      {
        "type": "note_off",
        "time": 152,
        "note": 72,
        "velocity": 64,
        "channel": 1
      },
      {
        "type": "note_off",
        "time": 8,
        "note": 60,
        "velocity": 64,
        "channel": 1
      },
      {
        "type": "note_on",
        "time": 28,
        "note": 53,
        "velocity": 91,
        "channel": 1
      },
      {
        "type": "note_on",
        "time": 16,
        "note": 69,
        "velocity": 91,
        "channel": 1
      },
      {
        "type": "note_on",
        "time": 0,
        "note": 72,
        "velocity": 25,
        "channel": 1
      },
      {
        "type": "note_on",
        "time": 4,
        "note": 81,
        "velocity": 35,
        "channel": 1
      },
      {
        "type": "note_off",
        "time": 160,
        "note": 81,
        "velocity": 64,
        "channel": 1
      },
      {
        "type": "note_off",
        "time": 876,
        "note": 72,
        "velocity": 64,
        "channel": 1
      },
      {
        "type": "note_off",
        "time": 192,
        "note": 69,
        "velocity": 64,
        "channel": 1
      },
      {
        "type": "note_off",
        "time": 64,
        "note": 77,
        "velocity": 64,
        "channel": 1
      },
      {
        "type": "note_off",
        "time": 96,
        "note": 53,
        "velocity": 64,
        "channel": 1
      },
      {
        "type": "note_on",
        "time": 124,
        "note": 53,
        "velocity": 89,
        "channel": 1
      },
      {
        "type": "note_on",
        "time": 0,
        "note": 72,
        "velocity": 65,
        "channel": 1
      },
      {
        "type": "note_on",
        "time": 4,
        "note": 77,
        "velocity": 67,
        "channel": 1
      },
      {
        "type": "note_on",
        "time": 0,
        "note": 93,
        "velocity": 33,
        "channel": 1
      },
      {
        "type": "note_on",
        "time": 4,
        "note": 105,
        "velocity": 34,
        "channel": 1
      },
      {
        "type": "note_off",
        "time": 1304,
        "note": 53,
        "velocity": 64,
        "channel": 1
      },
      {
        "type": "note_on",
        "time": 40,
        "note": 53,
        "velocity": 65,
        "channel": 1
      },
      {
        "type": "note_off",
        "time": 140,
        "note": 77,
        "velocity": 64,
        "channel": 1
      },
      {
        "type": "note_on",
        "time": 52,
        "note": 52,
        "velocity": 91,
        "channel": 1
      },
      {
        "type": "note_on",
        "time": 0,
        "note": 70,
        "velocity": 75,
        "channel": 1
      },
      {
        "type": "note_on",
        "time": 0,
        "note": 74,
        "velocity": 91,
        "channel": 1
      },
      {
        "type": "note_off",
        "time": 8,
        "note": 72,
        "velocity": 64,
        "channel": 1
      },
      {
        "type": "note_off",
        "time": 8,
        "note": 53,
        "velocity": 64,
        "channel": 1
      },
      {
        "type": "note_off",
        "time": 720,
        "note": 74,
        "velocity": 64,
        "channel": 1
      },
      {
        "type": "note_on",
        "time": 24,
        "note": 57,
        "velocity": 91,
        "channel": 1
      },
      {
        "type": "note_on",
        "time": 4,
        "note": 67,
        "velocity": 77,
        "channel": 1
      },
      {
        "type": "note_on",
        "time": 0,
        "note": 73,
        "velocity": 91,
        "channel": 1
      },
      {
        "type": "note_off",
        "time": 20,
        "note": 70,
        "velocity": 64,
        "channel": 1
      },
      {
        "type": "note_off",
        "time": 16,
        "note": 52,
        "velocity": 64,
        "channel": 1
      },
      {
        "type": "note_off",
        "time": 728,
        "note": 57,
        "velocity": 64,
        "channel": 1
      },
      {
        "type": "note_on",
        "time": 4,
        "note": 62,
        "velocity": 79,
        "channel": 1
      },
      {
        "type": "note_on",
        "time": 0,
        "note": 74,
        "velocity": 91,
        "channel": 1
      },
      {
        "type": "note_on",
        "time": 4,
        "note": 77,
        "velocity": 77,
        "channel": 1
      },
      {
        "type": "note_off",
        "time": 12,
        "note": 67,
        "velocity": 64,
        "channel": 1
      },
      {
        "type": "note_off",
        "time": 0,
        "note": 73,
        "velocity": 64,
        "channel": 1
      },
      {
        "type": "note_off",
        "time": 720,
        "note": 62,
        "velocity": 64,
        "channel": 1
      },
      {
        "type": "note_on",
        "time": 28,
        "note": 62,
        "velocity": 84,
        "channel": 1
      },
      {
        "type": "note_off",
        "time": 296,
        "note": 77,
        "velocity": 64,
        "channel": 1
      },
      {
        "type": "note_off",
        "time": 56,
        "note": 62,
        "velocity": 64,
        "channel": 1
      },
      {
        "type": "note_on",
        "time": 32,
        "note": 60,
        "velocity": 91,
        "channel": 1
      },
      {
        "type": "note_on",
        "time": 0,
        "note": 76,
        "velocity": 91,
        "channel": 1
      },
      {
        "type": "note_off",
        "time": 176,
        "note": 76,
        "velocity": 64,
        "channel": 1
      },
      {
        "type": "note_on",
        "time": 16,
        "note": 77,
        "velocity": 84,
        "channel": 1
      },
      {
        "type": "note_on",
        "time": 192,
        "note": 58,
        "velocity": 91,
        "channel": 1
      },
      {
        "type": "note_on",
        "time": 0,
        "note": 70,
        "velocity": 47,
        "channel": 1
      },
      {
        "type": "note_off",
        "time": 16,
        "note": 60,
        "velocity": 64,
        "channel": 1
      },
      {
        "type": "note_off",
        "time": 0,
        "note": 77,
        "velocity": 64,
        "channel": 1
      },
      {
        "type": "note_off",
        "time": 740,
        "note": 74,
        "velocity": 64,
        "channel": 1
      },
      {
        "type": "note_on",
        "time": 12,
        "note": 60,
        "velocity": 91,
        "channel": 1
      },
      {
        "type": "note_on",
        "time": 4,
        "note": 72,
        "velocity": 91,
        "channel": 1
      },
      {
        "type": "note_on",
        "time": 0,
        "note": 76,
        "velocity": 89,
        "channel": 1
      },
      {
        "type": "note_off",
        "time": 12,
        "note": 70,
        "velocity": 64,
        "channel": 1
      },
      {
        "type": "note_off",
        "time": 32,
        "note": 58,
        "velocity": 64,
        "channel": 1
      },
      {
        "type": "note_off",
        "time": 596,
        "note": 76,
        "velocity": 64,
        "channel": 1
      },
      {
        "type": "note_off",
        "time": 48,
        "note": 72,
        "velocity": 64,
        "channel": 1
      },
      {
        "type": "note_on",
        "time": 80,
        "note": 53,
        "velocity": 79,
        "channel": 1
      },
      {
        "type": "note_on",
        "time": 4,
        "note": 70,
        "velocity": 77,
        "channel": 1
      },
      {
        "type": "note_on",
        "time": 0,
        "note": 74,
        "velocity": 91,
        "channel": 1
      },
      {
        "type": "note_on",
        "time": 0,
        "note": 77,
        "velocity": 91,
        "channel": 1
      },
      {
        "type": "note_off",
        "time": 8,
        "note": 60,
        "velocity": 64,
        "channel": 1
      },
      {
        "type": "note_off",
        "time": 280,
        "note": 77,
        "velocity": 64,
        "channel": 1
      },
      {
        "type": "note_off",
        "time": 32,
        "note": 70,
        "velocity": 64,
        "channel": 1
      },
      {
        "type": "note_on",
        "time": 60,
        "note": 69,
        "velocity": 67,
        "channel": 1
      },
      {
        "type": "note_on",
        "time": 0,
        "note": 72,
        "velocity": 67,
        "channel": 1
      },
      {
        "type": "note_on",
        "time": 0,
        "note": 77,
        "velocity": 77,
        "channel": 1
      },
      {
        "type": "note_off",
        "time": 20,
        "note": 74,
        "velocity": 64,
        "channel": 1
      },
      {
        "type": "note_off",
        "time": 116,
        "note": 69,
        "velocity": 64,
        "channel": 1
      },
      {
        "type": "note_off",
        "time": 8,
        "note": 77,
        "velocity": 64,
        "channel": 1
      },
      {
        "type": "note_off",
        "time": 4,
        "note": 72,
        "velocity": 64,
        "channel": 1
      },
      {
        "type": "note_on",
        "time": 48,
        "note": 69,
        "velocity": 91,
        "channel": 1
      },
      {
        "type": "note_on",
        "time": 4,
        "note": 72,
        "velocity": 91,
        "channel": 1
      },
      {
        "type": "note_on",
        "time": 0,
        "note": 77,
        "velocity": 89,
        "channel": 1
      },
      {
        "type": "note_off",
        "time": 476,
        "note": 105,
        "velocity": 64,
        "channel": 1
      },
      {
        "type": "note_off",
        "time": 28,
        "note": 93,
        "velocity": 64,
        "channel": 1
      },
      {
        "type": "note_off",
        "time": 48,
        "note": 53,
        "velocity": 64,
        "channel": 1
      },
      {
        "type": "note_on",
        "time": 16,
        "note": 52,
        "velocity": 91,
        "channel": 1
      },
      {
        "type": "note_off",
        "time": 40,
        "note": 77,
        "velocity": 64,
        "channel": 1
      },
      {
        "type": "note_off",
        "time": 16,
        "note": 72,
        "velocity": 64,
        "channel": 1
      },
      {
        "type": "note_off",
        "time": 12,
        "note": 69,
        "velocity": 64,
        "channel": 1
      },
      {
        "type": "note_on",
        "time": 128,
        "note": 72,
        "velocity": 77,
        "channel": 1
      },
      {
        "type": "note_off",
        "time": 176,
        "note": 72,
        "velocity": 64,
        "channel": 1
      },
      {
        "type": "note_on",
        "time": 8,
        "note": 50,
        "velocity": 91,
        "channel": 1
      },
      {
        "type": "note_on",
        "time": 4,
        "note": 72,
        "velocity": 67,
        "channel": 1
      },
      {
        "type": "note_off",
        "time": 32,
        "note": 52,
        "velocity": 64,
        "channel": 1
      },
      {
        "type": "note_on",
        "time": 156,
        "note": 69,
        "velocity": 32,
        "channel": 1
      },
      {
        "type": "note_on",
        "time": 192,
        "note": 77,
        "velocity": 89,
        "channel": 1
      },
      {
        "type": "note_off",
        "time": 20,
        "note": 72,
        "velocity": 64,
        "channel": 1
      },
      {
        "type": "note_off",
        "time": 172,
        "note": 77,
        "velocity": 64,
        "channel": 1
      },
      {
        "type": "note_on",
        "time": 4,
        "note": 72,
        "velocity": 91,
        "channel": 1
      },
      {
        "type": "note_off",
        "time": 124,
        "note": 69,
        "velocity": 64,
        "channel": 1
      },
      {
        "type": "note_on",
        "time": 64,
        "note": 55,
        "velocity": 91,
        "channel": 1
      },
      {
        "type": "note_on",
        "time": 0,
        "note": 67,
        "velocity": 91,
        "channel": 1
      },
      {
        "type": "note_on",
        "time": 4,
        "note": 71,
        "velocity": 91,
        "channel": 1
      },
      {
        "type": "note_off",
        "time": 12,
        "note": 50,
        "velocity": 64,
        "channel": 1
      },
      {
        "type": "note_off",
        "time": 4,
        "note": 72,
        "velocity": 64,
        "channel": 1
      },
      {
        "type": "note_on",
        "time": 364,
        "note": 77,
        "velocity": 65,
        "channel": 1
      },
      {
        "type": "note_off",
        "time": 36,
        "note": 71,
        "velocity": 64,
        "channel": 1
      },
      {
        "type": "note_on",
        "time": 160,
        "note": 71,
        "velocity": 91,
        "channel": 1
      },
      {
        "type": "note_off",
        "time": 128,
        "note": 71,
        "velocity": 64,
        "channel": 1
      },
      {
        "type": "note_off",
        "time": 12,
        "note": 67,
        "velocity": 64,
        "channel": 1
      },
      {
        "type": "note_off",
        "time": 0,
        "note": 77,
        "velocity": 64,
        "channel": 1
      },
      {
        "type": "note_on",
        "time": 52,
        "note": 58,
        "velocity": 91,
        "channel": 1
      },
      {
        "type": "note_on",
        "time": 0,
        "note": 70,
        "velocity": 91,
        "channel": 1
      },
      {
        "type": "note_on",
        "time": 0,
        "note": 74,
        "velocity": 91,
        "channel": 1
      },
      {
        "type": "note_on",
        "time": 4,
        "note": 77,
        "velocity": 77,
        "channel": 1
      },
      {
        "type": "note_off",
        "time": 8,
        "note": 55,
        "velocity": 64,
        "channel": 1
      },
      {
        "type": "note_off",
        "time": 292,
        "note": 74,
        "velocity": 64,
        "channel": 1
      },
      {
        "type": "note_off",
        "time": 16,
        "note": 70,
        "velocity": 64,
        "channel": 1
      },
      {
        "type": "note_off",
        "time": 20,
        "note": 77,
        "velocity": 64,
        "channel": 1
      },
      {
        "type": "note_on",
        "time": 44,
        "note": 53,
        "velocity": 91,
        "channel": 1
      },
      {
        "type": "note_on",
        "time": 0,
        "note": 69,
        "velocity": 84,
        "channel": 1
      },
      {
        "type": "note_on",
        "time": 4,
        "note": 72,
        "velocity": 77,
        "channel": 1
      },
      {
        "type": "note_on",
        "time": 0,
        "note": 77,
        "velocity": 58,
        "channel": 1
      },
      {
        "type": "note_off",
        "time": 12,
        "note": 58,
        "velocity": 64,
        "channel": 1
      },
      {
        "type": "note_off",
        "time": 48,
        "note": 69,
        "velocity": 64,
        "channel": 1
      },
      {
        "type": "note_off",
        "time": 4,
        "note": 77,
        "velocity": 64,
        "channel": 1
      },
      {
        "type": "note_off",
        "time": 12,
        "note": 53,
        "velocity": 64,
        "channel": 1
      },
      {
        "type": "note_off",
        "time": 20,
        "note": 72,
        "velocity": 64,
        "channel": 1
      },
      {
        "type": "note_on",
        "time": 96,
        "note": 53,
        "velocity": 89,
        "channel": 1
      },
      {
        "type": "note_on",
        "time": 0,
        "note": 69,
        "velocity": 91,
        "channel": 1
      },
      {
        "type": "note_on",
        "time": 16,
        "note": 72,
        "velocity": 91,
        "channel": 1
      },
      {
        "type": "note_on",
        "time": 4,
        "note": 77,
        "velocity": 91,
        "channel": 1
      },
      {
        "type": "note_off",
        "time": 668,
        "note": 69,
        "velocity": 64,
        "channel": 1
      },
      {
        "type": "note_off",
        "time": 0,
        "note": 72,
        "velocity": 64,
        "channel": 1
      },
      {
        "type": "note_off",
        "time": 4,
        "note": 77,
        "velocity": 64,
        "channel": 1
      },
      {
        "type": "note_off",
        "time": 204,
        "note": 53,
        "velocity": 64,
        "channel": 1
      },
      {
        "type": "note_on",
        "time": 60,
        "note": 60,
        "velocity": 89,
        "channel": 1
      },
      {
        "type": "note_on",
        "time": 764,
        "note": 59,
        "velocity": 91,
        "channel": 1
      },
      {
        "type": "note_off",
        "time": 52,
        "note": 60,
        "velocity": 64,
        "channel": 1
      },
      {
        "type": "note_on",
        "time": 720,
        "note": 58,
        "velocity": 91,
        "channel": 1
      },
      {
        "type": "note_off",
        "time": 12,
        "note": 59,
        "velocity": 64,
        "channel": 1
      },
      {
        "type": "note_on",
        "time": 372,
        "note": 53,
        "velocity": 89,
        "channel": 1
      },
      {
        "type": "note_on",
        "time": 0,
        "note": 69,
        "velocity": 67,
        "channel": 1
      },
      {
        "type": "note_on",
        "time": 4,
        "note": 72,
        "velocity": 67,
        "channel": 1
      },
      {
        "type": "note_on",
        "time": 0,
        "note": 77,
        "velocity": 63,
        "channel": 1
      },
      {
        "type": "note_off",
        "time": 12,
        "note": 58,
        "velocity": 64,
        "channel": 1
      },
      {
        "type": "note_off",
        "time": 64,
        "note": 69,
        "velocity": 64,
        "channel": 1
      },
      {
        "type": "note_off",
        "time": 4,
        "note": 72,
        "velocity": 64,
        "channel": 1
      },
      {
        "type": "note_off",
        "time": 0,
        "note": 77,
        "velocity": 64,
        "channel": 1
      },
      {
        "type": "note_off",
        "time": 44,
        "note": 53,
        "velocity": 64,
        "channel": 1
      },
      {
        "type": "note_on",
        "time": 64,
        "note": 53,
        "velocity": 91,
        "channel": 1
      },
      {
        "type": "note_on",
        "time": 4,
        "note": 69,
        "velocity": 89,
        "channel": 1
      },
      {
        "type": "note_on",
        "time": 0,
        "note": 72,
        "velocity": 91,
        "channel": 1
      },
      {
        "type": "note_on",
        "time": 4,
        "note": 77,
        "velocity": 91,
        "channel": 1
      },
      {
        "type": "note_off",
        "time": 1592,
        "note": 53,
        "velocity": 64,
        "channel": 1
      },
      {
        "type": "note_off",
        "time": 180,
        "note": 69,
        "velocity": 64,
        "channel": 1
      },
      {
        "type": "note_off",
        "time": 0,
        "note": 72,
        "velocity": 64,
        "channel": 1
      },
      {
        "type": "note_off",
        "time": 20,
        "note": 77,
        "velocity": 64,
        "channel": 1
      },
      {
        "type": "end_of_track",
        "time": 0
      }
    ],
    [
      {
        "type": "track_name",
        "name": "rythm guitar",
        "time": 0
      },
      {
        "type": "control_change",
        "time": 0,
        "control": 0,
        "value": 8,
        "channel": 2
      },
      {
        "type": "program_change",
        "time": 0,
        "program": 25,
        "channel": 2
      },
      {
        "type": "control_change",
        "time": 0,
        "control": 7,
        "value": 71,
        "channel": 2
      },
      {
        "type": "control_change",
        "time": 0,
        "control": 10,
        "value": 64,
        "channel": 2
      },
      {
        "type": "key_signature",
        "key": "C",
        "time": 0
      },
      {
        "type": "note_on",
        "time": 0,
        "note": 41,
        "velocity": 127,
        "channel": 2
      },
      {
        "type": "control_change",
        "time": 8,
        "control": 64,
        "value": 127,
        "channel": 2
      },
      {
        "type": "note_off",
        "time": 8,
        "note": 41,
        "velocity": 64,
        "channel": 2
      },
      {
        "type": "note_on",
        "time": 176,
        "note": 60,
        "velocity": 127,
        "channel": 2
      },
      {
        "type": "note_on",
        "time": 0,
        "note": 65,
        "velocity": 127,
        "channel": 2
      },
      {
        "type": "note_off",
        "time": 16,
        "note": 60,
        "velocity": 64,
        "channel": 2
      },
      {
        "type": "note_off",
        "time": 0,
        "note": 65,
        "velocity": 64,
        "channel": 2
      },
      {
        "type": "note_on",
        "time": 176,
        "note": 60,
        "velocity": 127,
        "channel": 2
      },
      {
        "type": "note_on",
        "time": 0,
        "note": 65,
        "velocity": 127,
        "channel": 2
      },
      {
        "type": "note_off",
        "time": 16,
        "note": 60,
        "velocity": 64,
        "channel": 2
      },
      {
        "type": "note_off",
        "time": 0,
        "note": 65,
        "velocity": 64,
        "channel": 2
      },
      {
        "type": "note_on",
        "time": 176,
        "note": 60,
        "velocity": 127,
        "channel": 2
      },
      {
        "type": "note_on",
        "time": 0,
        "note": 65,
        "velocity": 127,
        "channel": 2
      },
      {
        "type": "note_off",
        "time": 16,
        "note": 60,
        "velocity": 64,
        "channel": 2
      },
      {
        "type": "note_off",
        "time": 0,
        "note": 65,
        "velocity": 64,
        "channel": 2
      },
      {
        "type": "control_change",
        "time": 168,
        "control": 64,
        "value": 0,
        "channel": 2
      },
      {
        "type": "note_on",
        "time": 8,
        "note": 41,
        "velocity": 127,
        "channel": 2
      },
      {
        "type": "control_change",
        "time": 8,
        "control": 64,
        "value": 127,
        "channel": 2
      },
      {
        "type": "note_off",
        "time": 8,
        "note": 41,
        "velocity": 64,
        "channel": 2
      },
      {
        "type": "note_on",
        "time": 176,
        "note": 60,
        "velocity": 127,
        "channel": 2
      },
      {
        "type": "note_on",
        "time": 0,
        "note": 65,
        "velocity": 127,
        "channel": 2
      },
      {
        "type": "note_off",
        "time": 16,
        "note": 60,
        "velocity": 64,
        "channel": 2
      },
      {
        "type": "note_off",
        "time": 0,
        "note": 65,
        "velocity": 64,
        "channel": 2
      },
      {
        "type": "note_on",
        "time": 176,
        "note": 60,
        "velocity": 127,
        "channel": 2
      },
      {
        "type": "note_on",
        "time": 0,
        "note": 65,
        "velocity": 127,
        "channel": 2
      },
      {
        "type": "note_off",
        "time": 16,
        "note": 60,
        "velocity": 64,
        "channel": 2
      },
      {
        "type": "note_off",
        "time": 0,
        "note": 65,
        "velocity": 64,
        "channel": 2
      },
      {
        "type": "note_on",
        "time": 176,
        "note": 60,
        "velocity": 127,
        "channel": 2
      },
      {
        "type": "note_on",
        "time": 0,
        "note": 65,
        "velocity": 127,
        "channel": 2
      },
      {
        "type": "note_off",
        "time": 16,
        "note": 60,
        "velocity": 64,
        "channel": 2
      },
      {
        "type": "note_off",
        "time": 0,
        "note": 65,
        "velocity": 64,
        "channel": 2
      },
      {
        "type": "control_change",
        "time": 168,
        "control": 64,
        "value": 0,
        "channel": 2
      },
      {
        "type": "note_on",
        "time": 8,
        "note": 41,
        "velocity": 127,
        "channel": 2
      },
      {
        "type": "control_change",
        "time": 8,
        "control": 64,
        "value": 127,
        "channel": 2
      },
      {
        "type": "note_off",
        "time": 8,
        "note": 41,
        "velocity": 64,
        "channel": 2
      },
      {
        "type": "note_on",
        "time": 176,
        "note": 60,
        "velocity": 127,
        "channel": 2
      },
      {
        "type": "note_on",
        "time": 0,
        "note": 65,
        "velocity": 127,
        "channel": 2
      },
      {
        "type": "note_off",
        "time": 16,
        "note": 60,
        "velocity": 64,
        "channel": 2
      },
      {
        "type": "note_off",
        "time": 0,
        "note": 65,
        "velocity": 64,
        "channel": 2
      },
      {
        "type": "note_on",
        "time": 176,
        "note": 60,
        "velocity": 127,
        "channel": 2
      },
      {
        "type": "note_on",
        "time": 0,
        "note": 65,
        "velocity": 127,
        "channel": 2
      },
      {
        "type": "note_off",
        "time": 16,
        "note": 60,
        "velocity": 64,
        "channel": 2
      },
      {
        "type": "note_off",
        "time": 0,
        "note": 65,
        "velocity": 64,
        "channel": 2
      },
      {
        "type": "note_on",
        "time": 176,
        "note": 60,
        "velocity": 127,
        "channel": 2
      },
      {
        "type": "note_on",
        "time": 0,
        "note": 65,
        "velocity": 127,
        "channel": 2
      },
      {
        "type": "note_off",
        "time": 16,
        "note": 60,
        "velocity": 64,
        "channel": 2
      },
      {
        "type": "note_off",
        "time": 0,
        "note": 65,
        "velocity": 64,
        "channel": 2
      },
      {
        "type": "control_change",
        "time": 168,
        "control": 64,
        "value": 0,
        "channel": 2
      },
      {
        "type": "note_on",
        "time": 8,
        "note": 41,
        "velocity": 127,
        "channel": 2
      },
      {
        "type": "control_change",
        "time": 8,
        "control": 64,
        "value": 127,
        "channel": 2
      },
      {
        "type": "note_off",
        "time": 8,
        "note": 41,
        "velocity": 64,
        "channel": 2
      },
      {
        "type": "note_on",
        "time": 176,
        "note": 60,
        "velocity": 127,
        "channel": 2
      },
      {
        "type": "note_on",
        "time": 0,
        "note": 65,
        "velocity": 127,
        "channel": 2
      },
      {
        "type": "note_off",
        "time": 16,
        "note": 60,
        "velocity": 64,
        "channel": 2
      },
      {
        "type": "note_off",
        "time": 0,
        "note": 65,
        "velocity": 64,
        "channel": 2
      },
      {
        "type": "note_on",
        "time": 176,
        "note": 60,
        "velocity": 127,
        "channel": 2
      },
      {
        "type": "note_on",
        "time": 0,
        "note": 65,
        "velocity": 127,
        "channel": 2
      },
      {
        "type": "note_off",
        "time": 16,
        "note": 60,
        "velocity": 64,
        "channel": 2
      },
      {
        "type": "note_off",
        "time": 0,
        "note": 65,
        "velocity": 64,
        "channel": 2
      },
      {
        "type": "note_on",
        "time": 176,
        "note": 50,
        "velocity": 127,
        "channel": 2
      },
      {
        "type": "note_on",
        "time": 0,
        "note": 60,
        "velocity": 127,
        "channel": 2
      },
      {
        "type": "note_on",
        "time": 0,
        "note": 65,
        "velocity": 127,
        "channel": 2
      },
      {
        "type": "note_off",
        "time": 16,
        "note": 50,
        "velocity": 64,
        "channel": 2
      },
      {
        "type": "note_off",
        "time": 0,
        "note": 60,
        "velocity": 64,
        "channel": 2
      },
      {
        "type": "note_off",
        "time": 0,
        "note": 65,
        "velocity": 64,
        "channel": 2
      },
      {
        "type": "control_change",
        "time": 168,
        "control": 64,
        "value": 0,
        "channel": 2
      },
      {
        "type": "note_on",
        "time": 8,
        "note": 40,
        "velocity": 127,
        "channel": 2
      },
      {
        "type": "control_change",
        "time": 8,
        "control": 64,
        "value": 127,
        "channel": 2
      },
      {
        "type": "note_off",
        "time": 8,
        "note": 40,
        "velocity": 64,
        "channel": 2
      },
      {
        "type": "note_on",
        "time": 176,
        "note": 55,
        "velocity": 127,
        "channel": 2
      },
      {
        "type": "note_on",
        "time": 0,
        "note": 59,
        "velocity": 127,
        "channel": 2
      },
      {
        "type": "note_on",
        "time": 0,
        "note": 62,
        "velocity": 127,
        "channel": 2
      },
      {
        "type": "note_off",
        "time": 16,
        "note": 55,
        "velocity": 64,
        "channel": 2
      },
      {
        "type": "note_off",
        "time": 0,
        "note": 59,
        "velocity": 64,
        "channel": 2
      },
      {
        "type": "note_off",
        "time": 0,
        "note": 62,
        "velocity": 64,
        "channel": 2
      },
      {
        "type": "note_on",
        "time": 176,
        "note": 55,
        "velocity": 127,
        "channel": 2
      },
      {
        "type": "note_on",
        "time": 0,
        "note": 59,
        "velocity": 127,
        "channel": 2
      },
      {
        "type": "note_on",
        "time": 0,
        "note": 62,
        "velocity": 127,
        "channel": 2
      },
      {
        "type": "note_off",
        "time": 16,
        "note": 55,
        "velocity": 64,
        "channel": 2
      },
      {
        "type": "note_off",
        "time": 0,
        "note": 59,
        "velocity": 64,
        "channel": 2
      },
      {
        "type": "note_off",
        "time": 0,
        "note": 62,
        "velocity": 64,
        "channel": 2
      },
      {
        "type": "note_on",
        "time": 176,
        "note": 40,
        "velocity": 127,
        "channel": 2
      },
      {
        "type": "note_on",
        "time": 0,
        "note": 55,
        "velocity": 127,
        "channel": 2
      },
      {
        "type": "note_on",
        "time": 0,
        "note": 59,
        "velocity": 127,
        "channel": 2
      },
      {
        "type": "note_on",
        "time": 0,
        "note": 62,
        "velocity": 127,
        "channel": 2
      },
      {
        "type": "note_off",
        "time": 16,
        "note": 40,
        "velocity": 64,
        "channel": 2
      },
      {
        "type": "note_off",
        "time": 0,
        "note": 55,
        "velocity": 64,
        "channel": 2
      },
      {
        "type": "note_off",
        "time": 0,
        "note": 59,
        "velocity": 64,
        "channel": 2
      },
      {
        "type": "note_off",
        "time": 0,
        "note": 62,
        "velocity": 64,
        "channel": 2
      },
      {
        "type": "control_change",
        "time": 168,
        "control": 64,
        "value": 0,
        "channel": 2
      },
      {
        "type": "note_on",
        "time": 8,
        "note": 45,
        "velocity": 127,
        "channel": 2
      },
      {
        "type": "control_change",
        "time": 8,
        "control": 64,
        "value": 127,
        "channel": 2
      },
      {
        "type": "note_off",
        "time": 8,
        "note": 45,
        "velocity": 64,
        "channel": 2
      },
      {
        "type": "note_on",
        "time": 176,
        "note": 55,
        "velocity": 127,
        "channel": 2
      },
      {
        "type": "note_on",
        "time": 0,
        "note": 61,
        "velocity": 127,
        "channel": 2
      },
      {
        "type": "note_on",
        "time": 0,
        "note": 64,
        "velocity": 127,
        "channel": 2
      },
      {
        "type": "note_off",
        "time": 16,
        "note": 55,
        "velocity": 64,
        "channel": 2
      },
      {
        "type": "note_off",
        "time": 0,
        "note": 61,
        "velocity": 64,
        "channel": 2
      },
      {
        "type": "note_off",
        "time": 0,
        "note": 64,
        "velocity": 64,
        "channel": 2
      },
      {
        "type": "note_on",
        "time": 176,
        "note": 55,
        "velocity": 127,
        "channel": 2
      },
      {
        "type": "note_on",
        "time": 0,
        "note": 61,
        "velocity": 127,
        "channel": 2
      },
      {
        "type": "note_on",
        "time": 0,
        "note": 64,
        "velocity": 127,
        "channel": 2
      },
      {
        "type": "note_off",
        "time": 16,
        "note": 55,
        "velocity": 64,
        "channel": 2
      },
      {
        "type": "note_off",
        "time": 0,
        "note": 61,
        "velocity": 64,
        "channel": 2
      },
      {
        "type": "note_off",
        "time": 0,
        "note": 64,
        "velocity": 64,
        "channel": 2
      },
      {
        "type": "note_on",
        "time": 176,
        "note": 45,
        "velocity": 127,
        "channel": 2
      },
      {
        "type": "note_on",
        "time": 0,
        "note": 55,
        "velocity": 127,
        "channel": 2
      },
      {
        "type": "note_on",
        "time": 0,
        "note": 61,
        "velocity": 127,
        "channel": 2
      },
      {
        "type": "note_on",
        "time": 0,
        "note": 64,
        "velocity": 127,
        "channel": 2
      },
      {
        "type": "note_off",
        "time": 16,
        "note": 45,
        "velocity": 64,
        "channel": 2
      },
      {
        "type": "note_off",
        "time": 0,
        "note": 55,
        "velocity": 64,
        "channel": 2
      },
      {
        "type": "note_off",
        "time": 0,
        "note": 61,
        "velocity": 64,
        "channel": 2
      },
      {
        "type": "note_off",
        "time": 0,
        "note": 64,
        "velocity": 64,
        "channel": 2
      },
      {
        "type": "control_change",
        "time": 168,
        "control": 64,
        "value": 0,
        "channel": 2
      },
      {
        "type": "note_on",
        "time": 8,
        "note": 50,
        "velocity": 127,
        "channel": 2
      },
      {
        "type": "control_change",
        "time": 8,
        "control": 64,
        "value": 127,
        "channel": 2
      },
      {
        "type": "note_off",
        "time": 8,
        "note": 50,
        "velocity": 64,
        "channel": 2
      },
      {
        "type": "note_on",
        "time": 176,
        "note": 57,
        "velocity": 127,
        "channel": 2
      },
      {
        "type": "note_on",
        "time": 0,
        "note": 62,
        "velocity": 127,
        "channel": 2
      },
      {
        "type": "note_on",
        "time": 0,
        "note": 65,
        "velocity": 127,
        "channel": 2
      },
      {
        "type": "note_off",
        "time": 16,
        "note": 57,
        "velocity": 64,
        "channel": 2
      },
      {
        "type": "note_off",
        "time": 0,
        "note": 62,
        "velocity": 64,
        "channel": 2
      },
      {
        "type": "note_off",
        "time": 0,
        "note": 65,
        "velocity": 64,
        "channel": 2
      },
      {
        "type": "note_on",
        "time": 176,
        "note": 57,
        "velocity": 127,
        "channel": 2
      },
      {
        "type": "note_on",
        "time": 0,
        "note": 62,
        "velocity": 127,
        "channel": 2
      },
      {
        "type": "note_on",
        "time": 0,
        "note": 65,
        "velocity": 127,
        "channel": 2
      },
      {
        "type": "note_off",
        "time": 16,
        "note": 57,
        "velocity": 64,
        "channel": 2
      },
      {
        "type": "note_off",
        "time": 0,
        "note": 62,
        "velocity": 64,
        "channel": 2
      },
      {
        "type": "note_off",
        "time": 0,
        "note": 65,
        "velocity": 64,
        "channel": 2
      },
      {
        "type": "note_on",
        "time": 176,
        "note": 57,
        "velocity": 127,
        "channel": 2
      },
      {
        "type": "note_on",
        "time": 0,
        "note": 62,
        "velocity": 127,
        "channel": 2
      },
      {
        "type": "note_on",
        "time": 0,
        "note": 65,
        "velocity": 127,
        "channel": 2
      },
      {
        "type": "note_off",
        "time": 16,
        "note": 57,
        "velocity": 64,
        "channel": 2
      },
      {
        "type": "note_off",
        "time": 0,
        "note": 62,
        "velocity": 64,
        "channel": 2
      },
      {
        "type": "note_off",
        "time": 0,
        "note": 65,
        "velocity": 64,
        "channel": 2
      },
      {
        "type": "control_change",
        "time": 168,
        "control": 64,
        "value": 0,
        "channel": 2
      },
      {
        "type": "note_on",
        "time": 8,
        "note": 50,
        "velocity": 127,
        "channel": 2
      },
      {
        "type": "control_change",
        "time": 8,
        "control": 64,
        "value": 127,
        "channel": 2
      },
      {
        "type": "note_off",
        "time": 8,
        "note": 50,
        "velocity": 64,
        "channel": 2
      },
      {
        "type": "note_on",
        "time": 176,
        "note": 57,
        "velocity": 127,
        "channel": 2
      },
      {
        "type": "note_on",
        "time": 0,
        "note": 62,
        "velocity": 127,
        "channel": 2
      },
      {
        "type": "note_on",
        "time": 0,
        "note": 65,
        "velocity": 127,
        "channel": 2
      },
      {
        "type": "note_off",
        "time": 16,
        "note": 57,
        "velocity": 64,
        "channel": 2
      },
      {
        "type": "note_off",
        "time": 0,
        "note": 62,
        "velocity": 64,
        "channel": 2
      },
      {
        "type": "note_off",
        "time": 0,
        "note": 65,
        "velocity": 64,
        "channel": 2
      },
      {
        "type": "note_on",
        "time": 176,
        "note": 48,
        "velocity": 127,
        "channel": 2
      },
      {
        "type": "note_off",
        "time": 16,
        "note": 48,
        "velocity": 64,
        "channel": 2
      },
      {
        "type": "note_on",
        "time": 176,
        "note": 55,
        "velocity": 127,
        "channel": 2
      },
      {
        "type": "note_on",
        "time": 0,
        "note": 60,
        "velocity": 127,
        "channel": 2
      },
      {
        "type": "note_on",
        "time": 0,
        "note": 64,
        "velocity": 127,
        "channel": 2
      },
      {
        "type": "note_off",
        "time": 16,
        "note": 55,
        "velocity": 64,
        "channel": 2
      },
      {
        "type": "note_off",
        "time": 0,
        "note": 60,
        "velocity": 64,
        "channel": 2
      },
      {
        "type": "note_off",
        "time": 0,
        "note": 64,
        "velocity": 64,
        "channel": 2
      },
      {
        "type": "control_change",
        "time": 168,
        "control": 64,
        "value": 0,
        "channel": 2
      },
      {
        "type": "note_on",
        "time": 8,
        "note": 46,
        "velocity": 127,
        "channel": 2
      },
      {
        "type": "control_change",
        "time": 8,
        "control": 64,
        "value": 127,
        "channel": 2
      },
      {
        "type": "note_off",
        "time": 8,
        "note": 46,
        "velocity": 64,
        "channel": 2
      },
      {
        "type": "note_on",
        "time": 176,
        "note": 53,
        "velocity": 127,
        "channel": 2
      },
      {
        "type": "note_on",
        "time": 0,
        "note": 58,
        "velocity": 127,
        "channel": 2
      },
      {
        "type": "note_on",
        "time": 0,
        "note": 62,
        "velocity": 127,
        "channel": 2
      },
      {
        "type": "note_off",
        "time": 16,
        "note": 53,
        "velocity": 64,
        "channel": 2
      },
      {
        "type": "note_off",
        "time": 0,
        "note": 58,
        "velocity": 64,
        "channel": 2
      },
      {
        "type": "note_off",
        "time": 0,
        "note": 62,
        "velocity": 64,
        "channel": 2
      },
      {
        "type": "note_on",
        "time": 176,
        "note": 53,
        "velocity": 127,
        "channel": 2
      },
      {
        "type": "note_on",
        "time": 0,
        "note": 58,
        "velocity": 127,
        "channel": 2
      },
      {
        "type": "note_on",
        "time": 0,
        "note": 62,
        "velocity": 127,
        "channel": 2
      },
      {
        "type": "note_off",
        "time": 16,
        "note": 53,
        "velocity": 64,
        "channel": 2
      },
      {
        "type": "note_off",
        "time": 0,
        "note": 58,
        "velocity": 64,
        "channel": 2
      },
      {
        "type": "note_off",
        "time": 0,
        "note": 62,
        "velocity": 64,
        "channel": 2
      },
      {
        "type": "note_on",
        "time": 176,
        "note": 46,
        "velocity": 127,
        "channel": 2
      },
      {
        "type": "note_on",
        "time": 0,
        "note": 53,
        "velocity": 127,
        "channel": 2
      },
      {
        "type": "note_on",
        "time": 0,
        "note": 58,
        "velocity": 127,
        "channel": 2
      },
      {
        "type": "note_on",
        "time": 0,
        "note": 62,
        "velocity": 127,
        "channel": 2
      },
      {
        "type": "note_off",
        "time": 16,
        "note": 46,
        "velocity": 64,
        "channel": 2
      },
      {
        "type": "note_off",
        "time": 0,
        "note": 53,
        "velocity": 64,
        "channel": 2
      },
      {
        "type": "note_off",
        "time": 0,
        "note": 58,
        "velocity": 64,
        "channel": 2
      },
      {
        "type": "note_off",
        "time": 0,
        "note": 62,
        "velocity": 64,
        "channel": 2
      },
      {
        "type": "control_change",
        "time": 168,
        "control": 64,
        "value": 0,
        "channel": 2
      },
      {
        "type": "note_on",
        "time": 8,
        "note": 48,
        "velocity": 127,
        "channel": 2
      },
      {
        "type": "control_change",
        "time": 8,
        "control": 64,
        "value": 127,
        "channel": 2
      },
      {
        "type": "note_off",
        "time": 8,
        "note": 48,
        "velocity": 64,
        "channel": 2
      },
      {
        "type": "note_on",
        "time": 176,
        "note": 55,
        "velocity": 127,
        "channel": 2
      },
      {
        "type": "note_on",
        "time": 0,
        "note": 60,
        "velocity": 127,
        "channel": 2
      },
      {
        "type": "note_on",
        "time": 0,
        "note": 64,
        "velocity": 127,
        "channel": 2
      },
      {
        "type": "note_off",
        "time": 16,
        "note": 55,
        "velocity": 64,
        "channel": 2
      },
      {
        "type": "note_off",
        "time": 0,
        "note": 60,
        "velocity": 64,
        "channel": 2
      },
      {
        "type": "note_off",
        "time": 0,
        "note": 64,
        "velocity": 64,
        "channel": 2
      },
      {
        "type": "note_on",
        "time": 176,
        "note": 55,
        "velocity": 127,
        "channel": 2
      },
      {
        "type": "note_on",
        "time": 0,
        "note": 58,
        "velocity": 127,
        "channel": 2
      },
      {
        "type": "note_on",
        "time": 0,
        "note": 60,
        "velocity": 127,
        "channel": 2
      },
      {
        "type": "note_on",
        "time": 0,
        "note": 64,
        "velocity": 127,
        "channel": 2
      },
      {
        "type": "note_off",
        "time": 16,
        "note": 55,
        "velocity": 64,
        "channel": 2
      },
      {
        "type": "note_off",
        "time": 0,
        "note": 58,
        "velocity": 64,
        "channel": 2
      },
      {
        "type": "note_off",
        "time": 0,
        "note": 60,
        "velocity": 64,
        "channel": 2
      },
      {
        "type": "note_off",
        "time": 0,
        "note": 64,
        "velocity": 64,
        "channel": 2
      },
      {
        "type": "note_on",
        "time": 176,
        "note": 48,
        "velocity": 127,
        "channel": 2
      },
      {
        "type": "note_on",
        "time": 0,
        "note": 55,
        "velocity": 127,
        "channel": 2
      },
      {
        "type": "note_on",
        "time": 0,
        "note": 58,
        "velocity": 127,
        "channel": 2
      },
      {
        "type": "note_on",
        "time": 0,
        "note": 60,
        "velocity": 127,
        "channel": 2
      },
      {
        "type": "note_on",
        "time": 0,
        "note": 64,
        "velocity": 127,
        "channel": 2
      },
      {
        "type": "note_off",
        "time": 16,
        "note": 48,
        "velocity": 64,
        "channel": 2
      },
      {
        "type": "note_off",
        "time": 0,
        "note": 55,
        "velocity": 64,
        "channel": 2
      },
      {
        "type": "note_off",
        "time": 0,
        "note": 58,
        "velocity": 64,
        "channel": 2
      },
      {
        "type": "note_off",
        "time": 0,
        "note": 60,
        "velocity": 64,
        "channel": 2
      },
      {
        "type": "note_off",
        "time": 0,
        "note": 64,
        "velocity": 64,
        "channel": 2
      },
      {
        "type": "control_change",
        "time": 168,
        "control": 64,
        "value": 0,
        "channel": 2
      },
      {
        "type": "note_on",
        "time": 8,
        "note": 41,
        "velocity": 127,
        "channel": 2
      },
      {
        "type": "control_change",
        "time": 8,
        "control": 64,
        "value": 127,
        "channel": 2
      },
      {
        "type": "note_off",
        "time": 8,
        "note": 41,
        "velocity": 64,
        "channel": 2
      },
      {
        "type": "note_on",
        "time": 176,
        "note": 57,
        "velocity": 127,
        "channel": 2
      },
      {
        "type": "note_on",
        "time": 0,
        "note": 60,
        "velocity": 127,
        "channel": 2
      },
      {
        "type": "note_on",
        "time": 0,
        "note": 65,
        "velocity": 127,
        "channel": 2
      },
      {
        "type": "note_off",
        "time": 16,
        "note": 57,
        "velocity": 64,
        "channel": 2
      },
      {
        "type": "note_off",
        "time": 0,
        "note": 60,
        "velocity": 64,
        "channel": 2
      },
      {
        "type": "note_off",
        "time": 0,
        "note": 65,
        "velocity": 64,
        "channel": 2
      },
      {
        "type": "note_on",
        "time": 176,
        "note": 57,
        "velocity": 127,
        "channel": 2
      },
      {
        "type": "note_on",
        "time": 0,
        "note": 60,
        "velocity": 127,
        "channel": 2
      },
      {
        "type": "note_on",
        "time": 0,
        "note": 65,
        "velocity": 127,
        "channel": 2
      },
      {
        "type": "note_off",
        "time": 16,
        "note": 57,
        "velocity": 64,
        "channel": 2
      },
      {
        "type": "note_off",
        "time": 0,
        "note": 60,
        "velocity": 64,
        "channel": 2
      },
      {
        "type": "note_off",
        "time": 0,
        "note": 65,
        "velocity": 64,
        "channel": 2
      },
      {
        "type": "note_on",
        "time": 176,
        "note": 41,
        "velocity": 127,
        "channel": 2
      },
      {
        "type": "note_on",
        "time": 0,
        "note": 57,
        "velocity": 127,
        "channel": 2
      },
      {
        "type": "note_on",
        "time": 0,
        "note": 60,
        "velocity": 127,
        "channel": 2
      },
      {
        "type": "note_on",
        "time": 0,
        "note": 65,
        "velocity": 127,
        "channel": 2
      },
      {
        "type": "note_off",
        "time": 16,
        "note": 41,
        "velocity": 64,
        "channel": 2
      },
      {
        "type": "note_off",
        "time": 0,
        "note": 57,
        "velocity": 64,
        "channel": 2
      },
      {
        "type": "note_off",
        "time": 0,
        "note": 60,
        "velocity": 64,
        "channel": 2
      },
      {
        "type": "note_off",
        "time": 0,
        "note": 65,
        "velocity": 64,
        "channel": 2
      },
      {
        "type": "control_change",
        "time": 168,
        "control": 64,
        "value": 0,
        "channel": 2
      },
      {
        "type": "note_on",
        "time": 8,
        "note": 41,
        "velocity": 127,
        "channel": 2
      },
      {
        "type": "control_change",
        "time": 8,
        "control": 64,
        "value": 127,
        "channel": 2
      },
      {
        "type": "note_off",
        "time": 8,
        "note": 41,
        "velocity": 64,
        "channel": 2
      },
      {
        "type": "note_on",
        "time": 176,
        "note": 57,
        "velocity": 127,
        "channel": 2
      },
      {
        "type": "note_on",
        "time": 0,
        "note": 60,
        "velocity": 127,
        "channel": 2
      },
      {
        "type": "note_on",
        "time": 0,
        "note": 65,
        "velocity": 127,
        "channel": 2
      },
      {
        "type": "note_off",
        "time": 16,
        "note": 57,
        "velocity": 64,
        "channel": 2
      },
      {
        "type": "note_off",
        "time": 0,
        "note": 60,
        "velocity": 64,
        "channel": 2
      },
      {
        "type": "note_off",
        "time": 0,
        "note": 65,
        "velocity": 64,
        "channel": 2
      },
      {
        "type": "note_on",
        "time": 176,
        "note": 40,
        "velocity": 127,
        "channel": 2
      },
      {
        "type": "note_off",
        "time": 16,
        "note": 40,
        "velocity": 64,
        "channel": 2
      },
      {
        "type": "note_on",
        "time": 176,
        "note": 57,
        "velocity": 127,
        "channel": 2
      },
      {
        "type": "note_on",
        "time": 0,
        "note": 60,
        "velocity": 127,
        "channel": 2
      },
      {
        "type": "note_on",
        "time": 0,
        "note": 64,
        "velocity": 127,
        "channel": 2
      },
      {
        "type": "note_off",
        "time": 16,
        "note": 57,
        "velocity": 64,
        "channel": 2
      },
      {
        "type": "note_off",
        "time": 0,
        "note": 60,
        "velocity": 64,
        "channel": 2
      },
      {
        "type": "note_off",
        "time": 0,
        "note": 64,
        "velocity": 64,
        "channel": 2
      },
      {
        "type": "control_change",
        "time": 168,
        "control": 64,
        "value": 0,
        "channel": 2
      },
      {
        "type": "note_on",
        "time": 8,
        "note": 50,
        "velocity": 127,
        "channel": 2
      },
      {
        "type": "control_change",
        "time": 8,
        "control": 64,
        "value": 127,
        "channel": 2
      },
      {
        "type": "note_off",
        "time": 8,
        "note": 50,
        "velocity": 64,
        "channel": 2
      },
      {
        "type": "note_on",
        "time": 176,
        "note": 57,
        "velocity": 127,
        "channel": 2
      },
      {
        "type": "note_on",
        "time": 0,
        "note": 62,
        "velocity": 127,
        "channel": 2
      },
      {
        "type": "note_on",
        "time": 0,
        "note": 65,
        "velocity": 127,
        "channel": 2
      },
      {
        "type": "note_off",
        "time": 16,
        "note": 57,
        "velocity": 64,
        "channel": 2
      },
      {
        "type": "note_off",
        "time": 0,
        "note": 62,
        "velocity": 64,
        "channel": 2
      },
      {
        "type": "note_off",
        "time": 0,
        "note": 65,
        "velocity": 64,
        "channel": 2
      },
      {
        "type": "note_on",
        "time": 176,
        "note": 57,
        "velocity": 127,
        "channel": 2
      },
      {
        "type": "note_on",
        "time": 0,
        "note": 62,
        "velocity": 127,
        "channel": 2
      },
      {
        "type": "note_on",
        "time": 0,
        "note": 65,
        "velocity": 127,
        "channel": 2
      },
      {
        "type": "note_off",
        "time": 16,
        "note": 57,
        "velocity": 64,
        "channel": 2
      },
      {
        "type": "note_off",
        "time": 0,
        "note": 62,
        "velocity": 64,
        "channel": 2
      },
      {
        "type": "note_off",
        "time": 0,
        "note": 65,
        "velocity": 64,
        "channel": 2
      },
      {
        "type": "note_on",
        "time": 176,
        "note": 50,
        "velocity": 127,
        "channel": 2
      },
      {
        "type": "note_on",
        "time": 0,
        "note": 57,
        "velocity": 127,
        "channel": 2
      },
      {
        "type": "note_on",
        "time": 0,
        "note": 62,
        "velocity": 127,
        "channel": 2
      },
      {
        "type": "note_on",
        "time": 0,
        "note": 65,
        "velocity": 127,
        "channel": 2
      },
      {
        "type": "note_off",
        "time": 16,
        "note": 50,
        "velocity": 64,
        "channel": 2
      },
      {
        "type": "note_off",
        "time": 0,
        "note": 57,
        "velocity": 64,
        "channel": 2
      },
      {
        "type": "note_off",
        "time": 0,
        "note": 62,
        "velocity": 64,
        "channel": 2
      },
      {
        "type": "note_off",
        "time": 0,
        "note": 65,
        "velocity": 64,
        "channel": 2
      },
      {
        "type": "control_change",
        "time": 168,
        "control": 64,
        "value": 0,
        "channel": 2
      },
      {
        "type": "note_on",
        "time": 8,
        "note": 43,
        "velocity": 127,
        "channel": 2
      },
      {
        "type": "control_change",
        "time": 8,
        "control": 64,
        "value": 127,
        "channel": 2
      },
      {
        "type": "note_off",
        "time": 8,
        "note": 43,
        "velocity": 64,
        "channel": 2
      },
      {
        "type": "note_on",
        "time": 176,
        "note": 59,
        "velocity": 127,
        "channel": 2
      },
      {
        "type": "note_on",
        "time": 0,
        "note": 62,
        "velocity": 127,
        "channel": 2
      },
      {
        "type": "note_off",
        "time": 16,
        "note": 59,
        "velocity": 64,
        "channel": 2
      },
      {
        "type": "note_off",
        "time": 0,
        "note": 62,
        "velocity": 64,
        "channel": 2
      },
      {
        "type": "note_on",
        "time": 176,
        "note": 59,
        "velocity": 127,
        "channel": 2
      },
      {
        "type": "note_on",
        "time": 0,
        "note": 62,
        "velocity": 127,
        "channel": 2
      },
      {
        "type": "note_off",
        "time": 16,
        "note": 59,
        "velocity": 64,
        "channel": 2
      },
      {
        "type": "note_off",
        "time": 0,
        "note": 62,
        "velocity": 64,
        "channel": 2
      },
      {
        "type": "note_on",
        "time": 176,
        "note": 43,
        "velocity": 127,
        "channel": 2
      },
      {
        "type": "note_on",
        "time": 0,
        "note": 59,
        "velocity": 127,
        "channel": 2
      },
      {
        "type": "note_on",
        "time": 0,
        "note": 62,
        "velocity": 127,
        "channel": 2
      },
      {
        "type": "note_off",
        "time": 16,
        "note": 43,
        "velocity": 64,
        "channel": 2
      },
      {
        "type": "note_off",
        "time": 0,
        "note": 59,
        "velocity": 64,
        "channel": 2
      },
      {
        "type": "note_off",
        "time": 0,
        "note": 62,
        "velocity": 64,
        "channel": 2
      },
      {
        "type": "control_change",
        "time": 168,
        "control": 64,
        "value": 0,
        "channel": 2
      },
      {
        "type": "note_on",
        "time": 8,
        "note": 46,
        "velocity": 127,
        "channel": 2
      },
      {
        "type": "note_on",
        "time": 0,
        "note": 53,
        "velocity": 127,
        "channel": 2
      },
      {
        "type": "note_on",
        "time": 0,
        "note": 58,
        "velocity": 127,
        "channel": 2
      },
      {
        "type": "note_on",
        "time": 0,
        "note": 62,
        "velocity": 127,
        "channel": 2
      },
      {
        "type": "control_change",
        "time": 8,
        "control": 64,
        "value": 127,
        "channel": 2
      },
      {
        "type": "note_off",
        "time": 8,
        "note": 46,
        "velocity": 64,
        "channel": 2
      },
      {
        "type": "note_off",
        "time": 0,
        "note": 53,
        "velocity": 64,
        "channel": 2
      },
      {
        "type": "note_off",
        "time": 0,
        "note": 58,
        "velocity": 64,
        "channel": 2
      },
      {
        "type": "note_off",
        "time": 0,
        "note": 62,
        "velocity": 64,
        "channel": 2
      },
      {
        "type": "note_on",
        "time": 368,
        "note": 41,
        "velocity": 127,
        "channel": 2
      },
      {
        "type": "note_on",
        "time": 0,
        "note": 53,
        "velocity": 127,
        "channel": 2
      },
      {
        "type": "note_on",
        "time": 0,
        "note": 57,
        "velocity": 127,
        "channel": 2
      },
      {
        "type": "note_on",
        "time": 0,
        "note": 60,
        "velocity": 127,
        "channel": 2
      },
      {
        "type": "note_off",
        "time": 16,
        "note": 41,
        "velocity": 64,
        "channel": 2
      },
      {
        "type": "note_off",
        "time": 0,
        "note": 53,
        "velocity": 64,
        "channel": 2
      },
      {
        "type": "note_off",
        "time": 0,
        "note": 57,
        "velocity": 64,
        "channel": 2
      },
      {
        "type": "note_off",
        "time": 0,
        "note": 60,
        "velocity": 64,
        "channel": 2
      },
      {
        "type": "note_on",
        "time": 176,
        "note": 41,
        "velocity": 127,
        "channel": 2
      },
      {
        "type": "note_on",
        "time": 0,
        "note": 53,
        "velocity": 127,
        "channel": 2
      },
      {
        "type": "note_on",
        "time": 0,
        "note": 57,
        "velocity": 127,
        "channel": 2
      },
      {
        "type": "note_on",
        "time": 0,
        "note": 60,
        "velocity": 127,
        "channel": 2
      },
      {
        "type": "note_off",
        "time": 16,
        "note": 41,
        "velocity": 64,
        "channel": 2
      },
      {
        "type": "note_off",
        "time": 0,
        "note": 53,
        "velocity": 64,
        "channel": 2
      },
      {
        "type": "note_off",
        "time": 0,
        "note": 57,
        "velocity": 64,
        "channel": 2
      },
      {
        "type": "note_off",
        "time": 0,
        "note": 60,
        "velocity": 64,
        "channel": 2
      },
      {
        "type": "control_change",
        "time": 564,
        "control": 64,
        "value": 0,
        "channel": 2
      },
      {
        "type": "control_change",
        "time": 12,
        "control": 64,
        "value": 127,
        "channel": 2
      },
      {
        "type": "control_change",
        "time": 360,
        "control": 64,
        "value": 0,
        "channel": 2
      },
      {
        "type": "note_on",
        "time": 8,
        "note": 41,
        "velocity": 127,
        "channel": 2
      },
      {
        "type": "control_change",
        "time": 8,
        "control": 64,
        "value": 127,
        "channel": 2
      },
      {
        "type": "note_off",
        "time": 8,
        "note": 41,
        "velocity": 64,
        "channel": 2
      },
      {
        "type": "note_on",
        "time": 176,
        "note": 60,
        "velocity": 127,
        "channel": 2
      },
      {
        "type": "note_on",
        "time": 0,
        "note": 65,
        "velocity": 127,
        "channel": 2
      },
      {
        "type": "note_off",
        "time": 16,
        "note": 60,
        "velocity": 64,
        "channel": 2
      },
      {
        "type": "note_off",
        "time": 0,
        "note": 65,
        "velocity": 64,
        "channel": 2
      },
      {
        "type": "note_on",
        "time": 176,
        "note": 60,
        "velocity": 127,
        "channel": 2
      },
      {
        "type": "note_on",
        "time": 0,
        "note": 65,
        "velocity": 127,
        "channel": 2
      },
      {
        "type": "note_off",
        "time": 16,
        "note": 60,
        "velocity": 64,
        "channel": 2
      },
      {
        "type": "note_off",
        "time": 0,
        "note": 65,
        "velocity": 64,
        "channel": 2
      },
      {
        "type": "note_on",
        "time": 176,
        "note": 60,
        "velocity": 127,
        "channel": 2
      },
      {
        "type": "note_on",
        "time": 0,
        "note": 65,
        "velocity": 127,
        "channel": 2
      },
      {
        "type": "note_off",
        "time": 16,
        "note": 60,
        "velocity": 64,
        "channel": 2
      },
      {
        "type": "note_off",
        "time": 0,
        "note": 65,
        "velocity": 64,
        "channel": 2
      },
      {
        "type": "control_change",
        "time": 168,
        "control": 64,
        "value": 0,
        "channel": 2
      },
      {
        "type": "note_on",
        "time": 8,
        "note": 41,
        "velocity": 127,
        "channel": 2
      },
      {
        "type": "control_change",
        "time": 8,
        "control": 64,
        "value": 127,
        "channel": 2
      },
      {
        "type": "note_off",
        "time": 8,
        "note": 41,
        "velocity": 64,
        "channel": 2
      },
      {
        "type": "note_on",
        "time": 176,
        "note": 60,
        "velocity": 127,
        "channel": 2
      },
      {
        "type": "note_on",
        "time": 0,
        "note": 65,
        "velocity": 127,
        "channel": 2
      },
      {
        "type": "note_off",
        "time": 16,
        "note": 60,
        "velocity": 64,
        "channel": 2
      },
      {
        "type": "note_off",
        "time": 0,
        "note": 65,
        "velocity": 64,
        "channel": 2
      },
      {
        "type": "note_on",
        "time": 176,
        "note": 60,
        "velocity": 127,
        "channel": 2
      },
      {
        "type": "note_on",
        "time": 0,
        "note": 65,
        "velocity": 127,
        "channel": 2
      },
      {
        "type": "note_off",
        "time": 16,
        "note": 60,
        "velocity": 64,
        "channel": 2
      },
      {
        "type": "note_off",
        "time": 0,
        "note": 65,
        "velocity": 64,
        "channel": 2
      },
      {
        "type": "note_on",
        "time": 176,
        "note": 50,
        "velocity": 127,
        "channel": 2
      },
      {
        "type": "note_on",
        "time": 0,
        "note": 60,
        "velocity": 127,
        "channel": 2
      },
      {
        "type": "note_on",
        "time": 0,
        "note": 65,
        "velocity": 127,
        "channel": 2
      },
      {
        "type": "note_off",
        "time": 16,
        "note": 50,
        "velocity": 64,
        "channel": 2
      },
      {
        "type": "note_off",
        "time": 0,
        "note": 60,
        "velocity": 64,
        "channel": 2
      },
      {
        "type": "note_off",
        "time": 0,
        "note": 65,
        "velocity": 64,
        "channel": 2
      },
      {
        "type": "control_change",
        "time": 168,
        "control": 64,
        "value": 0,
        "channel": 2
      },
      {
        "type": "note_on",
        "time": 8,
        "note": 40,
        "velocity": 127,
        "channel": 2
      },
      {
        "type": "control_change",
        "time": 8,
        "control": 64,
        "value": 127,
        "channel": 2
      },
      {
        "type": "note_off",
        "time": 8,
        "note": 40,
        "velocity": 64,
        "channel": 2
      },
      {
        "type": "note_on",
        "time": 176,
        "note": 55,
        "velocity": 127,
        "channel": 2
      },
      {
        "type": "note_on",
        "time": 0,
        "note": 58,
        "velocity": 127,
        "channel": 2
      },
      {
        "type": "note_on",
        "time": 0,
        "note": 62,
        "velocity": 127,
        "channel": 2
      },
      {
        "type": "note_off",
        "time": 16,
        "note": 55,
        "velocity": 64,
        "channel": 2
      },
      {
        "type": "note_off",
        "time": 0,
        "note": 58,
        "velocity": 64,
        "channel": 2
      },
      {
        "type": "note_off",
        "time": 0,
        "note": 62,
        "velocity": 64,
        "channel": 2
      },
      {
        "type": "note_on",
        "time": 176,
        "note": 55,
        "velocity": 127,
        "channel": 2
      },
      {
        "type": "note_on",
        "time": 0,
        "note": 58,
        "velocity": 127,
        "channel": 2
      },
      {
        "type": "note_on",
        "time": 0,
        "note": 62,
        "velocity": 127,
        "channel": 2
      },
      {
        "type": "note_off",
        "time": 16,
        "note": 55,
        "velocity": 64,
        "channel": 2
      },
      {
        "type": "note_off",
        "time": 0,
        "note": 58,
        "velocity": 64,
        "channel": 2
      },
      {
        "type": "note_off",
        "time": 0,
        "note": 62,
        "velocity": 64,
        "channel": 2
      },
      {
        "type": "note_on",
        "time": 176,
        "note": 40,
        "velocity": 127,
        "channel": 2
      },
      {
        "type": "note_on",
        "time": 0,
        "note": 55,
        "velocity": 127,
        "channel": 2
      },
      {
        "type": "note_on",
        "time": 0,
        "note": 58,
        "velocity": 127,
        "channel": 2
      },
      {
        "type": "note_on",
        "time": 0,
        "note": 62,
        "velocity": 127,
        "channel": 2
      },
      {
        "type": "note_off",
        "time": 16,
        "note": 40,
        "velocity": 64,
        "channel": 2
      },
      {
        "type": "note_off",
        "time": 0,
        "note": 55,
        "velocity": 64,
        "channel": 2
      },
      {
        "type": "note_off",
        "time": 0,
        "note": 58,
        "velocity": 64,
        "channel": 2
      },
      {
        "type": "note_off",
        "time": 0,
        "note": 62,
        "velocity": 64,
        "channel": 2
      },
      {
        "type": "control_change",
        "time": 168,
        "control": 64,
        "value": 0,
        "channel": 2
      },
      {
        "type": "note_on",
        "time": 8,
        "note": 45,
        "velocity": 127,
        "channel": 2
      },
      {
        "type": "control_change",
        "time": 8,
        "control": 64,
        "value": 127,
        "channel": 2
      },
      {
        "type": "note_off",
        "time": 8,
        "note": 45,
        "velocity": 64,
        "channel": 2
      },
      {
        "type": "note_on",
        "time": 176,
        "note": 55,
        "velocity": 127,
        "channel": 2
      },
      {
        "type": "note_on",
        "time": 0,
        "note": 61,
        "velocity": 127,
        "channel": 2
      },
      {
        "type": "note_on",
        "time": 0,
        "note": 64,
        "velocity": 127,
        "channel": 2
      },
      {
        "type": "note_off",
        "time": 16,
        "note": 55,
        "velocity": 64,
        "channel": 2
      },
      {
        "type": "note_off",
        "time": 0,
        "note": 61,
        "velocity": 64,
        "channel": 2
      },
      {
        "type": "note_off",
        "time": 0,
        "note": 64,
        "velocity": 64,
        "channel": 2
      },
      {
        "type": "note_on",
        "time": 176,
        "note": 55,
        "velocity": 127,
        "channel": 2
      },
      {
        "type": "note_on",
        "time": 0,
        "note": 61,
        "velocity": 127,
        "channel": 2
      },
      {
        "type": "note_on",
        "time": 0,
        "note": 64,
        "velocity": 127,
        "channel": 2
      },
      {
        "type": "note_off",
        "time": 16,
        "note": 55,
        "velocity": 64,
        "channel": 2
      },
      {
        "type": "note_off",
        "time": 0,
        "note": 61,
        "velocity": 64,
        "channel": 2
      },
      {
        "type": "note_off",
        "time": 0,
        "note": 64,
        "velocity": 64,
        "channel": 2
      },
      {
        "type": "note_on",
        "time": 176,
        "note": 45,
        "velocity": 127,
        "channel": 2
      },
      {
        "type": "note_on",
        "time": 0,
        "note": 55,
        "velocity": 127,
        "channel": 2
      },
      {
        "type": "note_on",
        "time": 0,
        "note": 61,
        "velocity": 127,
        "channel": 2
      },
      {
        "type": "note_on",
        "time": 0,
        "note": 64,
        "velocity": 127,
        "channel": 2
      },
      {
        "type": "note_off",
        "time": 16,
        "note": 45,
        "velocity": 64,
        "channel": 2
      },
      {
        "type": "note_off",
        "time": 0,
        "note": 55,
        "velocity": 64,
        "channel": 2
      },
      {
        "type": "note_off",
        "time": 0,
        "note": 61,
        "velocity": 64,
        "channel": 2
      },
      {
        "type": "note_off",
        "time": 0,
        "note": 64,
        "velocity": 64,
        "channel": 2
      },
      {
        "type": "control_change",
        "time": 168,
        "control": 64,
        "value": 0,
        "channel": 2
      },
      {
        "type": "note_on",
        "time": 8,
        "note": 50,
        "velocity": 127,
        "channel": 2
      },
      {
        "type": "control_change",
        "time": 8,
        "control": 64,
        "value": 127,
        "channel": 2
      },
      {
        "type": "note_off",
        "time": 8,
        "note": 50,
        "velocity": 64,
        "channel": 2
      },
      {
        "type": "note_on",
        "time": 176,
        "note": 57,
        "velocity": 127,
        "channel": 2
      },
      {
        "type": "note_on",
        "time": 0,
        "note": 62,
        "velocity": 127,
        "channel": 2
      },
      {
        "type": "note_on",
        "time": 0,
        "note": 65,
        "velocity": 127,
        "channel": 2
      },
      {
        "type": "note_off",
        "time": 16,
        "note": 57,
        "velocity": 64,
        "channel": 2
      },
      {
        "type": "note_off",
        "time": 0,
        "note": 62,
        "velocity": 64,
        "channel": 2
      },
      {
        "type": "note_off",
        "time": 0,
        "note": 65,
        "velocity": 64,
        "channel": 2
      },
      {
        "type": "note_on",
        "time": 176,
        "note": 57,
        "velocity": 127,
        "channel": 2
      },
      {
        "type": "note_on",
        "time": 0,
        "note": 62,
        "velocity": 127,
        "channel": 2
      },
      {
        "type": "note_on",
        "time": 0,
        "note": 65,
        "velocity": 127,
        "channel": 2
      },
      {
        "type": "note_off",
        "time": 16,
        "note": 57,
        "velocity": 64,
        "channel": 2
      },
      {
        "type": "note_off",
        "time": 0,
        "note": 62,
        "velocity": 64,
        "channel": 2
      },
      {
        "type": "note_off",
        "time": 0,
        "note": 65,
        "velocity": 64,
        "channel": 2
      },
      {
        "type": "note_on",
        "time": 176,
        "note": 50,
        "velocity": 127,
        "channel": 2
      },
      {
        "type": "note_on",
        "time": 0,
        "note": 57,
        "velocity": 127,
        "channel": 2
      },
      {
        "type": "note_on",
        "time": 0,
        "note": 62,
        "velocity": 127,
        "channel": 2
      },
      {
        "type": "note_on",
        "time": 0,
        "note": 65,
        "velocity": 127,
        "channel": 2
      },
      {
        "type": "note_off",
        "time": 16,
        "note": 50,
        "velocity": 64,
        "channel": 2
      },
      {
        "type": "note_off",
        "time": 0,
        "note": 57,
        "velocity": 64,
        "channel": 2
      },
      {
        "type": "note_off",
        "time": 0,
        "note": 62,
        "velocity": 64,
        "channel": 2
      },
      {
        "type": "note_off",
        "time": 0,
        "note": 65,
        "velocity": 64,
        "channel": 2
      },
      {
        "type": "control_change",
        "time": 168,
        "control": 64,
        "value": 0,
        "channel": 2
      },
      {
        "type": "note_on",
        "time": 8,
        "note": 50,
        "velocity": 127,
        "channel": 2
      },
      {
        "type": "control_change",
        "time": 8,
        "control": 64,
        "value": 127,
        "channel": 2
      },
      {
        "type": "note_off",
        "time": 8,
        "note": 50,
        "velocity": 64,
        "channel": 2
      },
      {
        "type": "note_on",
        "time": 176,
        "note": 57,
        "velocity": 127,
        "channel": 2
      },
      {
        "type": "note_on",
        "time": 0,
        "note": 62,
        "velocity": 127,
        "channel": 2
      },
      {
        "type": "note_on",
        "time": 0,
        "note": 65,
        "velocity": 127,
        "channel": 2
      },
      {
        "type": "note_off",
        "time": 16,
        "note": 57,
        "velocity": 64,
        "channel": 2
      },
      {
        "type": "note_off",
        "time": 0,
        "note": 62,
        "velocity": 64,
        "channel": 2
      },
      {
        "type": "note_off",
        "time": 0,
        "note": 65,
        "velocity": 64,
        "channel": 2
      },
      {
        "type": "note_on",
        "time": 176,
        "note": 48,
        "velocity": 127,
        "channel": 2
      },
      {
        "type": "note_off",
        "time": 16,
        "note": 48,
        "velocity": 64,
        "channel": 2
      },
      {
        "type": "note_on",
        "time": 176,
        "note": 55,
        "velocity": 127,
        "channel": 2
      },
      {
        "type": "note_on",
        "time": 0,
        "note": 60,
        "velocity": 127,
        "channel": 2
      },
      {
        "type": "note_on",
        "time": 0,
        "note": 64,
        "velocity": 127,
        "channel": 2
      },
      {
        "type": "note_off",
        "time": 16,
        "note": 55,
        "velocity": 64,
        "channel": 2
      },
      {
        "type": "note_off",
        "time": 0,
        "note": 60,
        "velocity": 64,
        "channel": 2
      },
      {
        "type": "note_off",
        "time": 0,
        "note": 64,
        "velocity": 64,
        "channel": 2
      },
      {
        "type": "control_change",
        "time": 168,
        "control": 64,
        "value": 0,
        "channel": 2
      },
      {
        "type": "note_on",
        "time": 8,
        "note": 46,
        "velocity": 127,
        "channel": 2
      },
      {
        "type": "control_change",
        "time": 8,
        "control": 64,
        "value": 127,
        "channel": 2
      },
      {
        "type": "note_off",
        "time": 8,
        "note": 46,
        "velocity": 64,
        "channel": 2
      },
      {
        "type": "note_on",
        "time": 176,
        "note": 53,
        "velocity": 127,
        "channel": 2
      },
      {
        "type": "note_on",
        "time": 0,
        "note": 58,
        "velocity": 127,
        "channel": 2
      },
      {
        "type": "note_on",
        "time": 0,
        "note": 62,
        "velocity": 127,
        "channel": 2
      },
      {
        "type": "note_off",
        "time": 16,
        "note": 53,
        "velocity": 64,
        "channel": 2
      },
      {
        "type": "note_off",
        "time": 0,
        "note": 58,
        "velocity": 64,
        "channel": 2
      },
      {
        "type": "note_off",
        "time": 0,
        "note": 62,
        "velocity": 64,
        "channel": 2
      },
      {
        "type": "note_on",
        "time": 176,
        "note": 53,
        "velocity": 127,
        "channel": 2
      },
      {
        "type": "note_on",
        "time": 0,
        "note": 58,
        "velocity": 127,
        "channel": 2
      },
      {
        "type": "note_on",
        "time": 0,
        "note": 62,
        "velocity": 127,
        "channel": 2
      },
      {
        "type": "note_off",
        "time": 16,
        "note": 53,
        "velocity": 64,
        "channel": 2
      },
      {
        "type": "note_off",
        "time": 0,
        "note": 58,
        "velocity": 64,
        "channel": 2
      },
      {
        "type": "note_off",
        "time": 0,
        "note": 62,
        "velocity": 64,
        "channel": 2
      },
      {
        "type": "note_on",
        "time": 176,
        "note": 46,
        "velocity": 127,
        "channel": 2
      },
      {
        "type": "note_on",
        "time": 0,
        "note": 53,
        "velocity": 127,
        "channel": 2
      },
      {
        "type": "note_on",
        "time": 0,
        "note": 58,
        "velocity": 127,
        "channel": 2
      },
      {
        "type": "note_on",
        "time": 0,
        "note": 62,
        "velocity": 127,
        "channel": 2
      },
      {
        "type": "note_off",
        "time": 16,
        "note": 46,
        "velocity": 64,
        "channel": 2
      },
      {
        "type": "note_off",
        "time": 0,
        "note": 53,
        "velocity": 64,
        "channel": 2
      },
      {
        "type": "note_off",
        "time": 0,
        "note": 58,
        "velocity": 64,
        "channel": 2
      },
      {
        "type": "note_off",
        "time": 0,
        "note": 62,
        "velocity": 64,
        "channel": 2
      },
      {
        "type": "control_change",
        "time": 168,
        "control": 64,
        "value": 0,
        "channel": 2
      },
      {
        "type": "note_on",
        "time": 8,
        "note": 48,
        "velocity": 127,
        "channel": 2
      },
      {
        "type": "control_change",
        "time": 8,
        "control": 64,
        "value": 127,
        "channel": 2
      },
      {
        "type": "note_off",
        "time": 8,
        "note": 48,
        "velocity": 64,
        "channel": 2
      },
      {
        "type": "note_on",
        "time": 176,
        "note": 53,
        "velocity": 127,
        "channel": 2
      },
      {
        "type": "note_on",
        "time": 0,
        "note": 58,
        "velocity": 127,
        "channel": 2
      },
      {
        "type": "note_on",
        "time": 0,
        "note": 60,
        "velocity": 127,
        "channel": 2
      },
      {
        "type": "note_on",
        "time": 0,
        "note": 64,
        "velocity": 127,
        "channel": 2
      },
      {
        "type": "note_off",
        "time": 16,
        "note": 53,
        "velocity": 64,
        "channel": 2
      },
      {
        "type": "note_off",
        "time": 0,
        "note": 58,
        "velocity": 64,
        "channel": 2
      },
      {
        "type": "note_off",
        "time": 0,
        "note": 60,
        "velocity": 64,
        "channel": 2
      },
      {
        "type": "note_off",
        "time": 0,
        "note": 64,
        "velocity": 64,
        "channel": 2
      },
      {
        "type": "note_on",
        "time": 176,
        "note": 58,
        "velocity": 127,
        "channel": 2
      },
      {
        "type": "note_on",
        "time": 0,
        "note": 60,
        "velocity": 127,
        "channel": 2
      },
      {
        "type": "note_on",
        "time": 0,
        "note": 64,
        "velocity": 127,
        "channel": 2
      },
      {
        "type": "note_off",
        "time": 16,
        "note": 58,
        "velocity": 64,
        "channel": 2
      },
      {
        "type": "note_off",
        "time": 0,
        "note": 60,
        "velocity": 64,
        "channel": 2
      },
      {
        "type": "note_off",
        "time": 0,
        "note": 64,
        "velocity": 64,
        "channel": 2
      },
      {
        "type": "note_on",
        "time": 176,
        "note": 48,
        "velocity": 127,
        "channel": 2
      },
      {
        "type": "note_on",
        "time": 0,
        "note": 58,
        "velocity": 127,
        "channel": 2
      },
      {
        "type": "note_on",
        "time": 0,
        "note": 60,
        "velocity": 127,
        "channel": 2
      },
      {
        "type": "note_on",
        "time": 0,
        "note": 64,
        "velocity": 127,
        "channel": 2
      },
      {
        "type": "note_off",
        "time": 16,
        "note": 48,
        "velocity": 64,
        "channel": 2
      },
      {
        "type": "note_off",
        "time": 0,
        "note": 58,
        "velocity": 64,
        "channel": 2
      },
      {
        "type": "note_off",
        "time": 0,
        "note": 60,
        "velocity": 64,
        "channel": 2
      },
      {
        "type": "note_off",
        "time": 0,
        "note": 64,
        "velocity": 64,
        "channel": 2
      },
      {
        "type": "control_change",
        "time": 168,
        "control": 64,
        "value": 0,
        "channel": 2
      },
      {
        "type": "note_on",
        "time": 8,
        "note": 41,
        "velocity": 127,
        "channel": 2
      },
      {
        "type": "control_change",
        "time": 8,
        "control": 64,
        "value": 127,
        "channel": 2
      },
      {
        "type": "note_off",
        "time": 8,
        "note": 41,
        "velocity": 64,
        "channel": 2
      },
      {
        "type": "note_on",
        "time": 176,
        "note": 57,
        "velocity": 127,
        "channel": 2
      },
      {
        "type": "note_on",
        "time": 0,
        "note": 60,
        "velocity": 127,
        "channel": 2
      },
      {
        "type": "note_on",
        "time": 0,
        "note": 65,
        "velocity": 127,
        "channel": 2
      },
      {
        "type": "note_off",
        "time": 16,
        "note": 57,
        "velocity": 64,
        "channel": 2
      },
      {
        "type": "note_off",
        "time": 0,
        "note": 60,
        "velocity": 64,
        "channel": 2
      },
      {
        "type": "note_off",
        "time": 0,
        "note": 65,
        "velocity": 64,
        "channel": 2
      },
      {
        "type": "note_on",
        "time": 176,
        "note": 57,
        "velocity": 127,
        "channel": 2
      },
      {
        "type": "note_on",
        "time": 0,
        "note": 60,
        "velocity": 127,
        "channel": 2
      },
      {
        "type": "note_on",
        "time": 0,
        "note": 65,
        "velocity": 127,
        "channel": 2
      },
      {
        "type": "note_off",
        "time": 16,
        "note": 57,
        "velocity": 64,
        "channel": 2
      },
      {
        "type": "note_off",
        "time": 0,
        "note": 60,
        "velocity": 64,
        "channel": 2
      },
      {
        "type": "note_off",
        "time": 0,
        "note": 65,
        "velocity": 64,
        "channel": 2
      },
      {
        "type": "note_on",
        "time": 176,
        "note": 41,
        "velocity": 127,
        "channel": 2
      },
      {
        "type": "note_on",
        "time": 0,
        "note": 57,
        "velocity": 127,
        "channel": 2
      },
      {
        "type": "note_on",
        "time": 0,
        "note": 60,
        "velocity": 127,
        "channel": 2
      },
      {
        "type": "note_on",
        "time": 0,
        "note": 65,
        "velocity": 127,
        "channel": 2
      },
      {
        "type": "note_off",
        "time": 16,
        "note": 41,
        "velocity": 64,
        "channel": 2
      },
      {
        "type": "note_off",
        "time": 0,
        "note": 57,
        "velocity": 64,
        "channel": 2
      },
      {
        "type": "note_off",
        "time": 0,
        "note": 60,
        "velocity": 64,
        "channel": 2
      },
      {
        "type": "note_off",
        "time": 0,
        "note": 65,
        "velocity": 64,
        "channel": 2
      },
      {
        "type": "control_change",
        "time": 168,
        "control": 64,
        "value": 0,
        "channel": 2
      },
      {
        "type": "note_on",
        "time": 8,
        "note": 41,
        "velocity": 127,
        "channel": 2
      },
      {
        "type": "control_change",
        "time": 8,
        "control": 64,
        "value": 127,
        "channel": 2
      },
      {
        "type": "note_off",
        "time": 8,
        "note": 41,
        "velocity": 64,
        "channel": 2
      },
      {
        "type": "note_on",
        "time": 176,
        "note": 57,
        "velocity": 127,
        "channel": 2
      },
      {
        "type": "note_on",
        "time": 0,
        "note": 60,
        "velocity": 127,
        "channel": 2
      },
      {
        "type": "note_on",
        "time": 0,
        "note": 65,
        "velocity": 127,
        "channel": 2
      },
      {
        "type": "note_off",
        "time": 16,
        "note": 57,
        "velocity": 64,
        "channel": 2
      },
      {
        "type": "note_off",
        "time": 0,
        "note": 60,
        "velocity": 64,
        "channel": 2
      },
      {
        "type": "note_off",
        "time": 0,
        "note": 65,
        "velocity": 64,
        "channel": 2
      },
      {
        "type": "note_on",
        "time": 176,
        "note": 40,
        "velocity": 127,
        "channel": 2
      },
      {
        "type": "note_off",
        "time": 16,
        "note": 40,
        "velocity": 64,
        "channel": 2
      },
      {
        "type": "note_on",
        "time": 176,
        "note": 57,
        "velocity": 127,
        "channel": 2
      },
      {
        "type": "note_on",
        "time": 0,
        "note": 60,
        "velocity": 127,
        "channel": 2
      },
      {
        "type": "note_on",
        "time": 0,
        "note": 64,
        "velocity": 127,
        "channel": 2
      },
      {
        "type": "note_off",
        "time": 16,
        "note": 57,
        "velocity": 64,
        "channel": 2
      },
      {
        "type": "note_off",
        "time": 0,
        "note": 60,
        "velocity": 64,
        "channel": 2
      },
      {
        "type": "note_off",
        "time": 0,
        "note": 64,
        "velocity": 64,
        "channel": 2
      },
      {
        "type": "control_change",
        "time": 168,
        "control": 64,
        "value": 0,
        "channel": 2
      },
      {
        "type": "note_on",
        "time": 8,
        "note": 50,
        "velocity": 127,
        "channel": 2
      },
      {
        "type": "control_change",
        "time": 8,
        "control": 64,
        "value": 127,
        "channel": 2
      },
      {
        "type": "note_off",
        "time": 8,
        "note": 50,
        "velocity": 64,
        "channel": 2
      },
      {
        "type": "note_on",
        "time": 176,
        "note": 57,
        "velocity": 127,
        "channel": 2
      },
      {
        "type": "note_on",
        "time": 0,
        "note": 62,
        "velocity": 127,
        "channel": 2
      },
      {
        "type": "note_on",
        "time": 0,
        "note": 65,
        "velocity": 127,
        "channel": 2
      },
      {
        "type": "note_off",
        "time": 16,
        "note": 57,
        "velocity": 64,
        "channel": 2
      },
      {
        "type": "note_off",
        "time": 0,
        "note": 62,
        "velocity": 64,
        "channel": 2
      },
      {
        "type": "note_off",
        "time": 0,
        "note": 65,
        "velocity": 64,
        "channel": 2
      },
      {
        "type": "note_on",
        "time": 176,
        "note": 57,
        "velocity": 127,
        "channel": 2
      },
      {
        "type": "note_on",
        "time": 0,
        "note": 62,
        "velocity": 127,
        "channel": 2
      },
      {
        "type": "note_on",
        "time": 0,
        "note": 65,
        "velocity": 127,
        "channel": 2
      },
      {
        "type": "note_off",
        "time": 16,
        "note": 57,
        "velocity": 64,
        "channel": 2
      },
      {
        "type": "note_off",
        "time": 0,
        "note": 62,
        "velocity": 64,
        "channel": 2
      },
      {
        "type": "note_off",
        "time": 0,
        "note": 65,
        "velocity": 64,
        "channel": 2
      },
      {
        "type": "note_on",
        "time": 176,
        "note": 50,
        "velocity": 127,
        "channel": 2
      },
      {
        "type": "note_on",
        "time": 0,
        "note": 57,
        "velocity": 127,
        "channel": 2
      },
      {
        "type": "note_on",
        "time": 0,
        "note": 62,
        "velocity": 127,
        "channel": 2
      },
      {
        "type": "note_on",
        "time": 0,
        "note": 65,
        "velocity": 127,
        "channel": 2
      },
      {
        "type": "note_off",
        "time": 16,
        "note": 50,
        "velocity": 64,
        "channel": 2
      },
      {
        "type": "note_off",
        "time": 0,
        "note": 57,
        "velocity": 64,
        "channel": 2
      },
      {
        "type": "note_off",
        "time": 0,
        "note": 62,
        "velocity": 64,
        "channel": 2
      },
      {
        "type": "note_off",
        "time": 0,
        "note": 65,
        "velocity": 64,
        "channel": 2
      },
      {
        "type": "control_change",
        "time": 168,
        "control": 64,
        "value": 0,
        "channel": 2
      },
      {
        "type": "note_on",
        "time": 8,
        "note": 43,
        "velocity": 127,
        "channel": 2
      },
      {
        "type": "control_change",
        "time": 8,
        "control": 64,
        "value": 127,
        "channel": 2
      },
      {
        "type": "note_off",
        "time": 8,
        "note": 43,
        "velocity": 64,
        "channel": 2
      },
      {
        "type": "note_on",
        "time": 176,
        "note": 59,
        "velocity": 127,
        "channel": 2
      },
      {
        "type": "note_on",
        "time": 0,
        "note": 62,
        "velocity": 127,
        "channel": 2
      },
      {
        "type": "note_on",
        "time": 0,
        "note": 67,
        "velocity": 127,
        "channel": 2
      },
      {
        "type": "note_off",
        "time": 16,
        "note": 59,
        "velocity": 64,
        "channel": 2
      },
      {
        "type": "note_off",
        "time": 0,
        "note": 62,
        "velocity": 64,
        "channel": 2
      },
      {
        "type": "note_off",
        "time": 0,
        "note": 67,
        "velocity": 64,
        "channel": 2
      },
      {
        "type": "note_on",
        "time": 176,
        "note": 59,
        "velocity": 127,
        "channel": 2
      },
      {
        "type": "note_on",
        "time": 0,
        "note": 62,
        "velocity": 127,
        "channel": 2
      },
      {
        "type": "note_on",
        "time": 0,
        "note": 67,
        "velocity": 127,
        "channel": 2
      },
      {
        "type": "note_off",
        "time": 16,
        "note": 59,
        "velocity": 64,
        "channel": 2
      },
      {
        "type": "note_off",
        "time": 0,
        "note": 62,
        "velocity": 64,
        "channel": 2
      },
      {
        "type": "note_off",
        "time": 0,
        "note": 67,
        "velocity": 64,
        "channel": 2
      },
      {
        "type": "note_on",
        "time": 176,
        "note": 43,
        "velocity": 127,
        "channel": 2
      },
      {
        "type": "note_on",
        "time": 0,
        "note": 59,
        "velocity": 127,
        "channel": 2
      },
      {
        "type": "note_on",
        "time": 0,
        "note": 62,
        "velocity": 127,
        "channel": 2
      },
      {
        "type": "note_on",
        "time": 0,
        "note": 67,
        "velocity": 127,
        "channel": 2
      },
      {
        "type": "note_off",
        "time": 16,
        "note": 43,
        "velocity": 64,
        "channel": 2
      },
      {
        "type": "note_off",
        "time": 0,
        "note": 59,
        "velocity": 64,
        "channel": 2
      },
      {
        "type": "note_off",
        "time": 0,
        "note": 62,
        "velocity": 64,
        "channel": 2
      },
      {
        "type": "note_off",
        "time": 0,
        "note": 67,
        "velocity": 64,
        "channel": 2
      },
      {
        "type": "control_change",
        "time": 168,
        "control": 64,
        "value": 0,
        "channel": 2
      },
      {
        "type": "note_on",
        "time": 8,
        "note": 46,
        "velocity": 127,
        "channel": 2
      },
      {
        "type": "note_on",
        "time": 0,
        "note": 53,
        "velocity": 127,
        "channel": 2
      },
      {
        "type": "note_on",
        "time": 0,
        "note": 58,
        "velocity": 127,
        "channel": 2
      },
      {
        "type": "note_on",
        "time": 0,
        "note": 62,
        "velocity": 127,
        "channel": 2
      },
      {
        "type": "control_change",
        "time": 8,
        "control": 64,
        "value": 127,
        "channel": 2
      },
      {
        "type": "note_off",
        "time": 8,
        "note": 46,
        "velocity": 64,
        "channel": 2
      },
      {
        "type": "note_off",
        "time": 0,
        "note": 53,
        "velocity": 64,
        "channel": 2
      },
      {
        "type": "note_off",
        "time": 0,
        "note": 58,
        "velocity": 64,
        "channel": 2
      },
      {
        "type": "note_off",
        "time": 0,
        "note": 62,
        "velocity": 64,
        "channel": 2
      },
      {
        "type": "note_on",
        "time": 368,
        "note": 41,
        "velocity": 127,
        "channel": 2
      },
      {
        "type": "note_on",
        "time": 0,
        "note": 53,
        "velocity": 127,
        "channel": 2
      },
      {
        "type": "note_on",
        "time": 0,
        "note": 57,
        "velocity": 127,
        "channel": 2
      },
      {
        "type": "note_on",
        "time": 0,
        "note": 60,
        "velocity": 127,
        "channel": 2
      },
      {
        "type": "note_off",
        "time": 16,
        "note": 41,
        "velocity": 64,
        "channel": 2
      },
      {
        "type": "note_off",
        "time": 0,
        "note": 53,
        "velocity": 64,
        "channel": 2
      },
      {
        "type": "note_off",
        "time": 0,
        "note": 57,
        "velocity": 64,
        "channel": 2
      },
      {
        "type": "note_off",
        "time": 0,
        "note": 60,
        "velocity": 64,
        "channel": 2
      },
      {
        "type": "note_on",
        "time": 176,
        "note": 41,
        "velocity": 127,
        "channel": 2
      },
      {
        "type": "note_on",
        "time": 0,
        "note": 53,
        "velocity": 127,
        "channel": 2
      },
      {
        "type": "note_on",
        "time": 0,
        "note": 57,
        "velocity": 127,
        "channel": 2
      },
      {
        "type": "note_on",
        "time": 0,
        "note": 60,
        "velocity": 127,
        "channel": 2
      },
      {
        "type": "note_off",
        "time": 336,
        "note": 41,
        "velocity": 64,
        "channel": 2
      },
      {
        "type": "note_off",
        "time": 0,
        "note": 53,
        "velocity": 64,
        "channel": 2
      },
      {
        "type": "note_off",
        "time": 0,
        "note": 57,
        "velocity": 64,
        "channel": 2
      },
      {
        "type": "note_off",
        "time": 0,
        "note": 60,
        "velocity": 64,
        "channel": 2
      },
      {
        "type": "control_change",
        "time": 240,
        "control": 64,
        "value": 0,
        "channel": 2
      },
      {
        "type": "control_change",
        "time": 8,
        "control": 64,
        "value": 127,
        "channel": 2
      },
      {
        "type": "note_on",
        "time": 376,
        "note": 40,
        "velocity": 127,
        "channel": 2
      },
      {
        "type": "control_change",
        "time": 8,
        "control": 64,
        "value": 127,
        "channel": 2
      },
      {
        "type": "note_off",
        "time": 8,
        "note": 40,
        "velocity": 64,
        "channel": 2
      },
      {
        "type": "note_on",
        "time": 176,
        "note": 55,
        "velocity": 127,
        "channel": 2
      },
      {
        "type": "note_on",
        "time": 0,
        "note": 59,
        "velocity": 127,
        "channel": 2
      },
      {
        "type": "note_on",
        "time": 0,
        "note": 62,
        "velocity": 127,
        "channel": 2
      },
      {
        "type": "note_off",
        "time": 16,
        "note": 55,
        "velocity": 64,
        "channel": 2
      },
      {
        "type": "note_off",
        "time": 0,
        "note": 59,
        "velocity": 64,
        "channel": 2
      },
      {
        "type": "note_off",
        "time": 0,
        "note": 62,
        "velocity": 64,
        "channel": 2
      },
      {
        "type": "note_on",
        "time": 176,
        "note": 55,
        "velocity": 127,
        "channel": 2
      },
      {
        "type": "note_on",
        "time": 0,
        "note": 59,
        "velocity": 127,
        "channel": 2
      },
      {
        "type": "note_on",
        "time": 0,
        "note": 62,
        "velocity": 127,
        "channel": 2
      },
      {
        "type": "note_off",
        "time": 16,
        "note": 55,
        "velocity": 64,
        "channel": 2
      },
      {
        "type": "note_off",
        "time": 0,
        "note": 59,
        "velocity": 64,
        "channel": 2
      },
      {
        "type": "note_off",
        "time": 0,
        "note": 62,
        "velocity": 64,
        "channel": 2
      },
      {
        "type": "note_on",
        "time": 176,
        "note": 40,
        "velocity": 127,
        "channel": 2
      },
      {
        "type": "note_on",
        "time": 0,
        "note": 55,
        "velocity": 127,
        "channel": 2
      },
      {
        "type": "note_on",
        "time": 0,
        "note": 59,
        "velocity": 127,
        "channel": 2
      },
      {
        "type": "note_on",
        "time": 0,
        "note": 62,
        "velocity": 127,
        "channel": 2
      },
      {
        "type": "note_off",
        "time": 16,
        "note": 40,
        "velocity": 64,
        "channel": 2
      },
      {
        "type": "note_off",
        "time": 0,
        "note": 55,
        "velocity": 64,
        "channel": 2
      },
      {
        "type": "note_off",
        "time": 0,
        "note": 59,
        "velocity": 64,
        "channel": 2
      },
      {
        "type": "note_off",
        "time": 0,
        "note": 62,
        "velocity": 64,
        "channel": 2
      },
      {
        "type": "control_change",
        "time": 168,
        "control": 64,
        "value": 0,
        "channel": 2
      },
      {
        "type": "note_on",
        "time": 8,
        "note": 45,
        "velocity": 127,
        "channel": 2
      },
      {
        "type": "control_change",
        "time": 8,
        "control": 64,
        "value": 127,
        "channel": 2
      },
      {
        "type": "note_off",
        "time": 8,
        "note": 45,
        "velocity": 64,
        "channel": 2
      },
      {
        "type": "note_on",
        "time": 176,
        "note": 55,
        "velocity": 127,
        "channel": 2
      },
      {
        "type": "note_on",
        "time": 0,
        "note": 61,
        "velocity": 127,
        "channel": 2
      },
      {
        "type": "note_on",
        "time": 0,
        "note": 64,
        "velocity": 127,
        "channel": 2
      },
      {
        "type": "note_off",
        "time": 16,
        "note": 55,
        "velocity": 64,
        "channel": 2
      },
      {
        "type": "note_off",
        "time": 0,
        "note": 61,
        "velocity": 64,
        "channel": 2
      },
      {
        "type": "note_off",
        "time": 0,
        "note": 64,
        "velocity": 64,
        "channel": 2
      },
      {
        "type": "note_on",
        "time": 176,
        "note": 55,
        "velocity": 127,
        "channel": 2
      },
      {
        "type": "note_on",
        "time": 0,
        "note": 61,
        "velocity": 127,
        "channel": 2
      },
      {
        "type": "note_on",
        "time": 0,
        "note": 64,
        "velocity": 127,
        "channel": 2
      },
      {
        "type": "note_off",
        "time": 16,
        "note": 55,
        "velocity": 64,
        "channel": 2
      },
      {
        "type": "note_off",
        "time": 0,
        "note": 61,
        "velocity": 64,
        "channel": 2
      },
      {
        "type": "note_off",
        "time": 0,
        "note": 64,
        "velocity": 64,
        "channel": 2
      },
      {
        "type": "note_on",
        "time": 176,
        "note": 45,
        "velocity": 127,
        "channel": 2
      },
      {
        "type": "note_on",
        "time": 0,
        "note": 55,
        "velocity": 127,
        "channel": 2
      },
      {
        "type": "note_on",
        "time": 0,
        "note": 61,
        "velocity": 127,
        "channel": 2
      },
      {
        "type": "note_on",
        "time": 0,
        "note": 64,
        "velocity": 127,
        "channel": 2
      },
      {
        "type": "note_off",
        "time": 16,
        "note": 45,
        "velocity": 64,
        "channel": 2
      },
      {
        "type": "note_off",
        "time": 0,
        "note": 55,
        "velocity": 64,
        "channel": 2
      },
      {
        "type": "note_off",
        "time": 0,
        "note": 61,
        "velocity": 64,
        "channel": 2
      },
      {
        "type": "note_off",
        "time": 0,
        "note": 64,
        "velocity": 64,
        "channel": 2
      },
      {
        "type": "note_on",
        "time": 168,
        "note": 50,
        "velocity": 127,
        "channel": 2
      },
      {
        "type": "control_change",
        "time": 0,
        "control": 64,
        "value": 0,
        "channel": 2
      },
      {
        "type": "note_on",
        "time": 4,
        "note": 57,
        "velocity": 127,
        "channel": 2
      },
      {
        "type": "note_on",
        "time": 4,
        "note": 62,
        "velocity": 127,
        "channel": 2
      },
      {
        "type": "note_on",
        "time": 4,
        "note": 65,
        "velocity": 127,
        "channel": 2
      },
      {
        "type": "note_off",
        "time": 4,
        "note": 50,
        "velocity": 64,
        "channel": 2
      },
      {
        "type": "control_change",
        "time": 0,
        "control": 64,
        "value": 127,
        "channel": 2
      },
      {
        "type": "note_off",
        "time": 4,
        "note": 57,
        "velocity": 64,
        "channel": 2
      },
      {
        "type": "note_off",
        "time": 4,
        "note": 62,
        "velocity": 64,
        "channel": 2
      },
      {
        "type": "note_off",
        "time": 4,
        "note": 65,
        "velocity": 64,
        "channel": 2
      },
      {
        "type": "note_on",
        "time": 352,
        "note": 48,
        "velocity": 127,
        "channel": 2
      },
      {
        "type": "note_on",
        "time": 8,
        "note": 60,
        "velocity": 127,
        "channel": 2
      },
      {
        "type": "note_on",
        "time": 4,
        "note": 64,
        "velocity": 127,
        "channel": 2
      },
      {
        "type": "note_off",
        "time": 4,
        "note": 48,
        "velocity": 64,
        "channel": 2
      },
      {
        "type": "note_on",
        "time": 0,
        "note": 55,
        "velocity": 127,
        "channel": 2
      },
      {
        "type": "note_off",
        "time": 8,
        "note": 60,
        "velocity": 64,
        "channel": 2
      },
      {
        "type": "note_off",
        "time": 4,
        "note": 64,
        "velocity": 64,
        "channel": 2
      },
      {
        "type": "note_off",
        "time": 4,
        "note": 55,
        "velocity": 64,
        "channel": 2
      },
      {
        "type": "note_on",
        "time": 356,
        "note": 46,
        "velocity": 127,
        "channel": 2
      },
      {
        "type": "control_change",
        "time": 0,
        "control": 64,
        "value": 0,
        "channel": 2
      },
      {
        "type": "note_on",
        "time": 8,
        "note": 53,
        "velocity": 127,
        "channel": 2
      },
      {
        "type": "note_on",
        "time": 4,
        "note": 58,
        "velocity": 127,
        "channel": 2
      },
      {
        "type": "note_on",
        "time": 0,
        "note": 62,
        "velocity": 127,
        "channel": 2
      },
      {
        "type": "note_off",
        "time": 4,
        "note": 46,
        "velocity": 64,
        "channel": 2
      },
      {
        "type": "control_change",
        "time": 0,
        "control": 64,
        "value": 127,
        "channel": 2
      },
      {
        "type": "note_off",
        "time": 8,
        "note": 53,
        "velocity": 64,
        "channel": 2
      },
      {
        "type": "note_off",
        "time": 4,
        "note": 58,
        "velocity": 64,
        "channel": 2
      },
      {
        "type": "note_off",
        "time": 0,
        "note": 62,
        "velocity": 64,
        "channel": 2
      },
      {
        "type": "note_on",
        "time": 352,
        "note": 45,
        "velocity": 127,
        "channel": 2
      },
      {
        "type": "note_on",
        "time": 8,
        "note": 53,
        "velocity": 127,
        "channel": 2
      },
      {
        "type": "note_off",
        "time": 8,
        "note": 45,
        "velocity": 64,
        "channel": 2
      },
      {
        "type": "note_on",
        "time": 0,
        "note": 57,
        "velocity": 127,
        "channel": 2
      },
      {
        "type": "note_on",
        "time": 0,
        "note": 60,
        "velocity": 127,
        "channel": 2
      },
      {
        "type": "note_off",
        "time": 8,
        "note": 53,
        "velocity": 64,
        "channel": 2
      },
      {
        "type": "note_off",
        "time": 8,
        "note": 57,
        "velocity": 64,
        "channel": 2
      },
      {
        "type": "note_off",
        "time": 0,
        "note": 60,
        "velocity": 64,
        "channel": 2
      },
      {
        "type": "control_change",
        "time": 356,
        "control": 64,
        "value": 0,
        "channel": 2
      },
      {
        "type": "note_on",
        "time": 8,
        "note": 43,
        "velocity": 127,
        "channel": 2
      },
      {
        "type": "control_change",
        "time": 8,
        "control": 64,
        "value": 127,
        "channel": 2
      },
      {
        "type": "note_off",
        "time": 8,
        "note": 43,
        "velocity": 64,
        "channel": 2
      },
      {
        "type": "note_on",
        "time": 176,
        "note": 55,
        "velocity": 127,
        "channel": 2
      },
      {
        "type": "note_on",
        "time": 0,
        "note": 58,
        "velocity": 127,
        "channel": 2
      },
      {
        "type": "note_on",
        "time": 0,
        "note": 62,
        "velocity": 127,
        "channel": 2
      },
      {
        "type": "note_off",
        "time": 16,
        "note": 55,
        "velocity": 64,
        "channel": 2
      },
      {
        "type": "note_off",
        "time": 0,
        "note": 58,
        "velocity": 64,
        "channel": 2
      },
      {
        "type": "note_off",
        "time": 0,
        "note": 62,
        "velocity": 64,
        "channel": 2
      },
      {
        "type": "note_on",
        "time": 176,
        "note": 55,
        "velocity": 127,
        "channel": 2
      },
      {
        "type": "note_on",
        "time": 0,
        "note": 58,
        "velocity": 127,
        "channel": 2
      },
      {
        "type": "note_on",
        "time": 0,
        "note": 62,
        "velocity": 127,
        "channel": 2
      },
      {
        "type": "note_off",
        "time": 16,
        "note": 55,
        "velocity": 64,
        "channel": 2
      },
      {
        "type": "note_off",
        "time": 0,
        "note": 58,
        "velocity": 64,
        "channel": 2
      },
      {
        "type": "note_off",
        "time": 0,
        "note": 62,
        "velocity": 64,
        "channel": 2
      },
      {
        "type": "note_on",
        "time": 176,
        "note": 43,
        "velocity": 127,
        "channel": 2
      },
      {
        "type": "note_on",
        "time": 0,
        "note": 55,
        "velocity": 127,
        "channel": 2
      },
      {
        "type": "note_on",
        "time": 0,
        "note": 58,
        "velocity": 127,
        "channel": 2
      },
      {
        "type": "note_on",
        "time": 0,
        "note": 62,
        "velocity": 127,
        "channel": 2
      },
      {
        "type": "note_off",
        "time": 16,
        "note": 43,
        "velocity": 64,
        "channel": 2
      },
      {
        "type": "note_off",
        "time": 0,
        "note": 55,
        "velocity": 64,
        "channel": 2
      },
      {
        "type": "note_off",
        "time": 0,
        "note": 58,
        "velocity": 64,
        "channel": 2
      },
      {
        "type": "note_off",
        "time": 0,
        "note": 62,
        "velocity": 64,
        "channel": 2
      },
      {
        "type": "control_change",
        "time": 168,
        "control": 64,
        "value": 0,
        "channel": 2
      },
      {
        "type": "note_on",
        "time": 8,
        "note": 48,
        "velocity": 127,
        "channel": 2
      },
      {
        "type": "control_change",
        "time": 8,
        "control": 64,
        "value": 127,
        "channel": 2
      },
      {
        "type": "note_off",
        "time": 8,
        "note": 48,
        "velocity": 64,
        "channel": 2
      },
      {
        "type": "note_on",
        "time": 176,
        "note": 55,
        "velocity": 127,
        "channel": 2
      },
      {
        "type": "note_on",
        "time": 0,
        "note": 58,
        "velocity": 127,
        "channel": 2
      },
      {
        "type": "note_on",
        "time": 0,
        "note": 60,
        "velocity": 127,
        "channel": 2
      },
      {
        "type": "note_on",
        "time": 0,
        "note": 64,
        "velocity": 127,
        "channel": 2
      },
      {
        "type": "note_off",
        "time": 16,
        "note": 55,
        "velocity": 64,
        "channel": 2
      },
      {
        "type": "note_off",
        "time": 0,
        "note": 58,
        "velocity": 64,
        "channel": 2
      },
      {
        "type": "note_off",
        "time": 0,
        "note": 60,
        "velocity": 64,
        "channel": 2
      },
      {
        "type": "note_off",
        "time": 0,
        "note": 64,
        "velocity": 64,
        "channel": 2
      },
      {
        "type": "note_on",
        "time": 176,
        "note": 55,
        "velocity": 127,
        "channel": 2
      },
      {
        "type": "note_on",
        "time": 0,
        "note": 58,
        "velocity": 127,
        "channel": 2
      },
      {
        "type": "note_on",
        "time": 0,
        "note": 60,
        "velocity": 127,
        "channel": 2
      },
      {
        "type": "note_on",
        "time": 0,
        "note": 64,
        "velocity": 127,
        "channel": 2
      },
      {
        "type": "note_off",
        "time": 16,
        "note": 55,
        "velocity": 64,
        "channel": 2
      },
      {
        "type": "note_off",
        "time": 0,
        "note": 58,
        "velocity": 64,
        "channel": 2
      },
      {
        "type": "note_off",
        "time": 0,
        "note": 60,
        "velocity": 64,
        "channel": 2
      },
      {
        "type": "note_off",
        "time": 0,
        "note": 64,
        "velocity": 64,
        "channel": 2
      },
      {
        "type": "note_on",
        "time": 176,
        "note": 48,
        "velocity": 127,
        "channel": 2
      },
      {
        "type": "note_on",
        "time": 0,
        "note": 55,
        "velocity": 127,
        "channel": 2
      },
      {
        "type": "note_on",
        "time": 0,
        "note": 58,
        "velocity": 127,
        "channel": 2
      },
      {
        "type": "note_on",
        "time": 0,
        "note": 60,
        "velocity": 127,
        "channel": 2
      },
      {
        "type": "note_on",
        "time": 0,
        "note": 64,
        "velocity": 127,
        "channel": 2
      },
      {
        "type": "note_off",
        "time": 16,
        "note": 48,
        "velocity": 64,
        "channel": 2
      },
      {
        "type": "note_off",
        "time": 0,
        "note": 55,
        "velocity": 64,
        "channel": 2
      },
      {
        "type": "note_off",
        "time": 0,
        "note": 58,
        "velocity": 64,
        "channel": 2
      },
      {
        "type": "note_off",
        "time": 0,
        "note": 60,
        "velocity": 64,
        "channel": 2
      },
      {
        "type": "note_off",
        "time": 0,
        "note": 64,
        "velocity": 64,
        "channel": 2
      },
      {
        "type": "control_change",
        "time": 168,
        "control": 64,
        "value": 0,
        "channel": 2
      },
      {
        "type": "note_on",
        "time": 8,
        "note": 41,
        "velocity": 127,
        "channel": 2
      },
      {
        "type": "control_change",
        "time": 8,
        "control": 64,
        "value": 127,
        "channel": 2
      },
      {
        "type": "note_off",
        "time": 8,
        "note": 41,
        "velocity": 64,
        "channel": 2
      },
      {
        "type": "note_on",
        "time": 176,
        "note": 57,
        "velocity": 127,
        "channel": 2
      },
      {
        "type": "note_on",
        "time": 0,
        "note": 60,
        "velocity": 127,
        "channel": 2
      },
      {
        "type": "note_on",
        "time": 0,
        "note": 65,
        "velocity": 127,
        "channel": 2
      },
      {
        "type": "note_off",
        "time": 16,
        "note": 57,
        "velocity": 64,
        "channel": 2
      },
      {
        "type": "note_off",
        "time": 0,
        "note": 60,
        "velocity": 64,
        "channel": 2
      },
      {
        "type": "note_off",
        "time": 0,
        "note": 65,
        "velocity": 64,
        "channel": 2
      },
      {
        "type": "note_on",
        "time": 176,
        "note": 57,
        "velocity": 127,
        "channel": 2
      },
      {
        "type": "note_on",
        "time": 0,
        "note": 60,
        "velocity": 127,
        "channel": 2
      },
      {
        "type": "note_on",
        "time": 0,
        "note": 65,
        "velocity": 127,
        "channel": 2
      },
      {
        "type": "note_off",
        "time": 16,
        "note": 57,
        "velocity": 64,
        "channel": 2
      },
      {
        "type": "note_off",
        "time": 0,
        "note": 60,
        "velocity": 64,
        "channel": 2
      },
      {
        "type": "note_off",
        "time": 0,
        "note": 65,
        "velocity": 64,
        "channel": 2
      },
      {
        "type": "note_on",
        "time": 176,
        "note": 41,
        "velocity": 127,
        "channel": 2
      },
      {
        "type": "note_on",
        "time": 0,
        "note": 57,
        "velocity": 127,
        "channel": 2
      },
      {
        "type": "note_on",
        "time": 0,
        "note": 60,
        "velocity": 127,
        "channel": 2
      },
      {
        "type": "note_on",
        "time": 0,
        "note": 65,
        "velocity": 127,
        "channel": 2
      },
      {
        "type": "note_off",
        "time": 16,
        "note": 41,
        "velocity": 64,
        "channel": 2
      },
      {
        "type": "note_off",
        "time": 0,
        "note": 57,
        "velocity": 64,
        "channel": 2
      },
      {
        "type": "note_off",
        "time": 0,
        "note": 60,
        "velocity": 64,
        "channel": 2
      },
      {
        "type": "note_off",
        "time": 0,
        "note": 65,
        "velocity": 64,
        "channel": 2
      },
      {
        "type": "control_change",
        "time": 168,
        "control": 64,
        "value": 0,
        "channel": 2
      },
      {
        "type": "note_on",
        "time": 8,
        "note": 41,
        "velocity": 127,
        "channel": 2
      },
      {
        "type": "control_change",
        "time": 8,
        "control": 64,
        "value": 127,
        "channel": 2
      },
      {
        "type": "note_off",
        "time": 8,
        "note": 41,
        "velocity": 64,
        "channel": 2
      },
      {
        "type": "note_on",
        "time": 176,
        "note": 57,
        "velocity": 127,
        "channel": 2
      },
      {
        "type": "note_on",
        "time": 0,
        "note": 60,
        "velocity": 127,
        "channel": 2
      },
      {
        "type": "note_on",
        "time": 0,
        "note": 65,
        "velocity": 127,
        "channel": 2
      },
      {
        "type": "note_off",
        "time": 16,
        "note": 57,
        "velocity": 64,
        "channel": 2
      },
      {
        "type": "note_off",
        "time": 0,
        "note": 60,
        "velocity": 64,
        "channel": 2
      },
      {
        "type": "note_off",
        "time": 0,
        "note": 65,
        "velocity": 64,
        "channel": 2
      },
      {
        "type": "note_on",
        "time": 176,
        "note": 57,
        "velocity": 127,
        "channel": 2
      },
      {
        "type": "note_on",
        "time": 0,
        "note": 60,
        "velocity": 127,
        "channel": 2
      },
      {
        "type": "note_on",
        "time": 0,
        "note": 65,
        "velocity": 127,
        "channel": 2
      },
      {
        "type": "note_off",
        "time": 16,
        "note": 57,
        "velocity": 64,
        "channel": 2
      },
      {
        "type": "note_off",
        "time": 0,
        "note": 60,
        "velocity": 64,
        "channel": 2
      },
      {
        "type": "note_off",
        "time": 0,
        "note": 65,
        "velocity": 64,
        "channel": 2
      },
      {
        "type": "note_on",
        "time": 176,
        "note": 41,
        "velocity": 127,
        "channel": 2
      },
      {
        "type": "note_on",
        "time": 0,
        "note": 57,
        "velocity": 127,
        "channel": 2
      },
      {
        "type": "note_on",
        "time": 0,
        "note": 60,
        "velocity": 127,
        "channel": 2
      },
      {
        "type": "note_on",
        "time": 0,
        "note": 65,
        "velocity": 127,
        "channel": 2
      },
      {
        "type": "note_off",
        "time": 16,
        "note": 41,
        "velocity": 64,
        "channel": 2
      },
      {
        "type": "note_off",
        "time": 0,
        "note": 57,
        "velocity": 64,
        "channel": 2
      },
      {
        "type": "note_off",
        "time": 0,
        "note": 60,
        "velocity": 64,
        "channel": 2
      },
      {
        "type": "note_off",
        "time": 0,
        "note": 65,
        "velocity": 64,
        "channel": 2
      },
      {
        "type": "control_change",
        "time": 168,
        "control": 64,
        "value": 0,
        "channel": 2
      },
      {
        "type": "note_on",
        "time": 8,
        "note": 40,
        "velocity": 127,
        "channel": 2
      },
      {
        "type": "control_change",
        "time": 8,
        "control": 64,
        "value": 127,
        "channel": 2
      },
      {
        "type": "note_off",
        "time": 8,
        "note": 40,
        "velocity": 64,
        "channel": 2
      },
      {
        "type": "note_on",
        "time": 176,
        "note": 55,
        "velocity": 127,
        "channel": 2
      },
      {
        "type": "note_on",
        "time": 0,
        "note": 59,
        "velocity": 127,
        "channel": 2
      },
      {
        "type": "note_on",
        "time": 0,
        "note": 62,
        "velocity": 127,
        "channel": 2
      },
      {
        "type": "note_off",
        "time": 16,
        "note": 55,
        "velocity": 64,
        "channel": 2
      },
      {
        "type": "note_off",
        "time": 0,
        "note": 59,
        "velocity": 64,
        "channel": 2
      },
      {
        "type": "note_off",
        "time": 0,
        "note": 62,
        "velocity": 64,
        "channel": 2
      },
      {
        "type": "note_on",
        "time": 176,
        "note": 55,
        "velocity": 127,
        "channel": 2
      },
      {
        "type": "note_on",
        "time": 0,
        "note": 59,
        "velocity": 127,
        "channel": 2
      },
      {
        "type": "note_on",
        "time": 0,
        "note": 62,
        "velocity": 127,
        "channel": 2
      },
      {
        "type": "note_off",
        "time": 16,
        "note": 55,
        "velocity": 64,
        "channel": 2
      },
      {
        "type": "note_off",
        "time": 0,
        "note": 59,
        "velocity": 64,
        "channel": 2
      },
      {
        "type": "note_off",
        "time": 0,
        "note": 62,
        "velocity": 64,
        "channel": 2
      },
      {
        "type": "note_on",
        "time": 176,
        "note": 40,
        "velocity": 127,
        "channel": 2
      },
      {
        "type": "note_on",
        "time": 0,
        "note": 55,
        "velocity": 127,
        "channel": 2
      },
      {
        "type": "note_on",
        "time": 0,
        "note": 59,
        "velocity": 127,
        "channel": 2
      },
      {
        "type": "note_on",
        "time": 0,
        "note": 62,
        "velocity": 127,
        "channel": 2
      },
      {
        "type": "note_off",
        "time": 16,
        "note": 40,
        "velocity": 64,
        "channel": 2
      },
      {
        "type": "note_off",
        "time": 0,
        "note": 55,
        "velocity": 64,
        "channel": 2
      },
      {
        "type": "note_off",
        "time": 0,
        "note": 59,
        "velocity": 64,
        "channel": 2
      },
      {
        "type": "note_off",
        "time": 0,
        "note": 62,
        "velocity": 64,
        "channel": 2
      },
      {
        "type": "control_change",
        "time": 168,
        "control": 64,
        "value": 0,
        "channel": 2
      },
      {
        "type": "note_on",
        "time": 8,
        "note": 45,
        "velocity": 127,
        "channel": 2
      },
      {
        "type": "control_change",
        "time": 8,
        "control": 64,
        "value": 127,
        "channel": 2
      },
      {
        "type": "note_off",
        "time": 8,
        "note": 45,
        "velocity": 64,
        "channel": 2
      },
      {
        "type": "note_on",
        "time": 176,
        "note": 55,
        "velocity": 127,
        "channel": 2
      },
      {
        "type": "note_on",
        "time": 0,
        "note": 61,
        "velocity": 127,
        "channel": 2
      },
      {
        "type": "note_on",
        "time": 0,
        "note": 64,
        "velocity": 127,
        "channel": 2
      },
      {
        "type": "note_off",
        "time": 16,
        "note": 55,
        "velocity": 64,
        "channel": 2
      },
      {
        "type": "note_off",
        "time": 0,
        "note": 61,
        "velocity": 64,
        "channel": 2
      },
      {
        "type": "note_off",
        "time": 0,
        "note": 64,
        "velocity": 64,
        "channel": 2
      },
      {
        "type": "note_on",
        "time": 176,
        "note": 55,
        "velocity": 127,
        "channel": 2
      },
      {
        "type": "note_on",
        "time": 0,
        "note": 61,
        "velocity": 127,
        "channel": 2
      },
      {
        "type": "note_on",
        "time": 0,
        "note": 64,
        "velocity": 127,
        "channel": 2
      },
      {
        "type": "note_off",
        "time": 16,
        "note": 55,
        "velocity": 64,
        "channel": 2
      },
      {
        "type": "note_off",
        "time": 0,
        "note": 61,
        "velocity": 64,
        "channel": 2
      },
      {
        "type": "note_off",
        "time": 0,
        "note": 64,
        "velocity": 64,
        "channel": 2
      },
      {
        "type": "note_on",
        "time": 176,
        "note": 45,
        "velocity": 127,
        "channel": 2
      },
      {
        "type": "note_on",
        "time": 0,
        "note": 55,
        "velocity": 127,
        "channel": 2
      },
      {
        "type": "note_on",
        "time": 0,
        "note": 61,
        "velocity": 127,
        "channel": 2
      },
      {
        "type": "note_on",
        "time": 0,
        "note": 64,
        "velocity": 127,
        "channel": 2
      },
      {
        "type": "note_off",
        "time": 16,
        "note": 45,
        "velocity": 64,
        "channel": 2
      },
      {
        "type": "note_off",
        "time": 0,
        "note": 55,
        "velocity": 64,
        "channel": 2
      },
      {
        "type": "note_off",
        "time": 0,
        "note": 61,
        "velocity": 64,
        "channel": 2
      },
      {
        "type": "note_off",
        "time": 0,
        "note": 64,
        "velocity": 64,
        "channel": 2
      },
      {
        "type": "note_on",
        "time": 168,
        "note": 50,
        "velocity": 127,
        "channel": 2
      },
      {
        "type": "control_change",
        "time": 0,
        "control": 64,
        "value": 0,
        "channel": 2
      },
      {
        "type": "note_on",
        "time": 4,
        "note": 57,
        "velocity": 127,
        "channel": 2
      },
      {
        "type": "note_on",
        "time": 4,
        "note": 62,
        "velocity": 127,
        "channel": 2
      },
      {
        "type": "note_on",
        "time": 4,
        "note": 65,
        "velocity": 127,
        "channel": 2
      },
      {
        "type": "note_off",
        "time": 4,
        "note": 50,
        "velocity": 64,
        "channel": 2
      },
      {
        "type": "control_change",
        "time": 0,
        "control": 64,
        "value": 127,
        "channel": 2
      },
      {
        "type": "note_off",
        "time": 4,
        "note": 57,
        "velocity": 64,
        "channel": 2
      },
      {
        "type": "note_off",
        "time": 4,
        "note": 62,
        "velocity": 64,
        "channel": 2
      },
      {
        "type": "note_off",
        "time": 4,
        "note": 65,
        "velocity": 64,
        "channel": 2
      },
      {
        "type": "note_on",
        "time": 352,
        "note": 48,
        "velocity": 127,
        "channel": 2
      },
      {
        "type": "note_on",
        "time": 8,
        "note": 60,
        "velocity": 127,
        "channel": 2
      },
      {
        "type": "note_on",
        "time": 4,
        "note": 64,
        "velocity": 127,
        "channel": 2
      },
      {
        "type": "note_off",
        "time": 4,
        "note": 48,
        "velocity": 64,
        "channel": 2
      },
      {
        "type": "note_on",
        "time": 0,
        "note": 55,
        "velocity": 127,
        "channel": 2
      },
      {
        "type": "note_off",
        "time": 8,
        "note": 60,
        "velocity": 64,
        "channel": 2
      },
      {
        "type": "note_off",
        "time": 4,
        "note": 64,
        "velocity": 64,
        "channel": 2
      },
      {
        "type": "note_off",
        "time": 4,
        "note": 55,
        "velocity": 64,
        "channel": 2
      },
      {
        "type": "note_on",
        "time": 356,
        "note": 46,
        "velocity": 127,
        "channel": 2
      },
      {
        "type": "control_change",
        "time": 0,
        "control": 64,
        "value": 0,
        "channel": 2
      },
      {
        "type": "note_on",
        "time": 8,
        "note": 53,
        "velocity": 127,
        "channel": 2
      },
      {
        "type": "note_on",
        "time": 4,
        "note": 58,
        "velocity": 127,
        "channel": 2
      },
      {
        "type": "note_on",
        "time": 0,
        "note": 62,
        "velocity": 127,
        "channel": 2
      },
      {
        "type": "note_off",
        "time": 4,
        "note": 46,
        "velocity": 64,
        "channel": 2
      },
      {
        "type": "control_change",
        "time": 0,
        "control": 64,
        "value": 127,
        "channel": 2
      },
      {
        "type": "note_off",
        "time": 8,
        "note": 53,
        "velocity": 64,
        "channel": 2
      },
      {
        "type": "note_off",
        "time": 4,
        "note": 58,
        "velocity": 64,
        "channel": 2
      },
      {
        "type": "note_off",
        "time": 0,
        "note": 62,
        "velocity": 64,
        "channel": 2
      },
      {
        "type": "note_on",
        "time": 352,
        "note": 45,
        "velocity": 127,
        "channel": 2
      },
      {
        "type": "note_on",
        "time": 8,
        "note": 53,
        "velocity": 127,
        "channel": 2
      },
      {
        "type": "note_off",
        "time": 8,
        "note": 45,
        "velocity": 64,
        "channel": 2
      },
      {
        "type": "note_on",
        "time": 0,
        "note": 57,
        "velocity": 127,
        "channel": 2
      },
      {
        "type": "note_on",
        "time": 0,
        "note": 60,
        "velocity": 127,
        "channel": 2
      },
      {
        "type": "note_off",
        "time": 8,
        "note": 53,
        "velocity": 64,
        "channel": 2
      },
      {
        "type": "note_off",
        "time": 8,
        "note": 57,
        "velocity": 64,
        "channel": 2
      },
      {
        "type": "note_off",
        "time": 0,
        "note": 60,
        "velocity": 64,
        "channel": 2
      },
      {
        "type": "control_change",
        "time": 356,
        "control": 64,
        "value": 0,
        "channel": 2
      },
      {
        "type": "note_on",
        "time": 8,
        "note": 43,
        "velocity": 127,
        "channel": 2
      },
      {
        "type": "control_change",
        "time": 8,
        "control": 64,
        "value": 127,
        "channel": 2
      },
      {
        "type": "note_off",
        "time": 8,
        "note": 43,
        "velocity": 64,
        "channel": 2
      },
      {
        "type": "note_on",
        "time": 176,
        "note": 55,
        "velocity": 127,
        "channel": 2
      },
      {
        "type": "note_on",
        "time": 0,
        "note": 58,
        "velocity": 127,
        "channel": 2
      },
      {
        "type": "note_on",
        "time": 0,
        "note": 62,
        "velocity": 127,
        "channel": 2
      },
      {
        "type": "note_off",
        "time": 16,
        "note": 55,
        "velocity": 64,
        "channel": 2
      },
      {
        "type": "note_off",
        "time": 0,
        "note": 58,
        "velocity": 64,
        "channel": 2
      },
      {
        "type": "note_off",
        "time": 0,
        "note": 62,
        "velocity": 64,
        "channel": 2
      },
      {
        "type": "note_on",
        "time": 176,
        "note": 55,
        "velocity": 127,
        "channel": 2
      },
      {
        "type": "note_on",
        "time": 0,
        "note": 58,
        "velocity": 127,
        "channel": 2
      },
      {
        "type": "note_on",
        "time": 0,
        "note": 62,
        "velocity": 127,
        "channel": 2
      },
      {
        "type": "note_off",
        "time": 16,
        "note": 55,
        "velocity": 64,
        "channel": 2
      },
      {
        "type": "note_off",
        "time": 0,
        "note": 58,
        "velocity": 64,
        "channel": 2
      },
      {
        "type": "note_off",
        "time": 0,
        "note": 62,
        "velocity": 64,
        "channel": 2
      },
      {
        "type": "note_on",
        "time": 176,
        "note": 43,
        "velocity": 127,
        "channel": 2
      },
      {
        "type": "note_on",
        "time": 0,
        "note": 55,
        "velocity": 127,
        "channel": 2
      },
      {
        "type": "note_on",
        "time": 0,
        "note": 58,
        "velocity": 127,
        "channel": 2
      },
      {
        "type": "note_on",
        "time": 0,
        "note": 62,
        "velocity": 127,
        "channel": 2
      },
      {
        "type": "note_off",
        "time": 16,
        "note": 43,
        "velocity": 64,
        "channel": 2
      },
      {
        "type": "note_off",
        "time": 0,
        "note": 55,
        "velocity": 64,
        "channel": 2
      },
      {
        "type": "note_off",
        "time": 0,
        "note": 58,
        "velocity": 64,
        "channel": 2
      },
      {
        "type": "note_off",
        "time": 0,
        "note": 62,
        "velocity": 64,
        "channel": 2
      },
      {
        "type": "control_change",
        "time": 168,
        "control": 64,
        "value": 0,
        "channel": 2
      },
      {
        "type": "note_on",
        "time": 8,
        "note": 48,
        "velocity": 127,
        "channel": 2
      },
      {
        "type": "control_change",
        "time": 8,
        "control": 64,
        "value": 127,
        "channel": 2
      },
      {
        "type": "note_off",
        "time": 8,
        "note": 48,
        "velocity": 64,
        "channel": 2
      },
      {
        "type": "note_on",
        "time": 176,
        "note": 55,
        "velocity": 127,
        "channel": 2
      },
      {
        "type": "note_on",
        "time": 0,
        "note": 58,
        "velocity": 127,
        "channel": 2
      },
      {
        "type": "note_on",
        "time": 0,
        "note": 60,
        "velocity": 127,
        "channel": 2
      },
      {
        "type": "note_on",
        "time": 0,
        "note": 64,
        "velocity": 127,
        "channel": 2
      },
      {
        "type": "note_off",
        "time": 16,
        "note": 55,
        "velocity": 64,
        "channel": 2
      },
      {
        "type": "note_off",
        "time": 0,
        "note": 58,
        "velocity": 64,
        "channel": 2
      },
      {
        "type": "note_off",
        "time": 0,
        "note": 60,
        "velocity": 64,
        "channel": 2
      },
      {
        "type": "note_off",
        "time": 0,
        "note": 64,
        "velocity": 64,
        "channel": 2
      },
      {
        "type": "note_on",
        "time": 176,
        "note": 55,
        "velocity": 127,
        "channel": 2
      },
      {
        "type": "note_on",
        "time": 0,
        "note": 58,
        "velocity": 127,
        "channel": 2
      },
      {
        "type": "note_on",
        "time": 0,
        "note": 60,
        "velocity": 127,
        "channel": 2
      },
      {
        "type": "note_on",
        "time": 0,
        "note": 64,
        "velocity": 127,
        "channel": 2
      },
      {
        "type": "note_off",
        "time": 16,
        "note": 55,
        "velocity": 64,
        "channel": 2
      },
      {
        "type": "note_off",
        "time": 0,
        "note": 58,
        "velocity": 64,
        "channel": 2
      },
      {
        "type": "note_off",
        "time": 0,
        "note": 60,
        "velocity": 64,
        "channel": 2
      },
      {
        "type": "note_off",
        "time": 0,
        "note": 64,
        "velocity": 64,
        "channel": 2
      },
      {
        "type": "note_on",
        "time": 176,
        "note": 48,
        "velocity": 127,
        "channel": 2
      },
      {
        "type": "note_on",
        "time": 0,
        "note": 55,
        "velocity": 127,
        "channel": 2
      },
      {
        "type": "note_on",
        "time": 0,
        "note": 58,
        "velocity": 127,
        "channel": 2
      },
      {
        "type": "note_on",
        "time": 0,
        "note": 60,
        "velocity": 127,
        "channel": 2
      },
      {
        "type": "note_on",
        "time": 0,
        "note": 64,
        "velocity": 127,
        "channel": 2
      },
      {
        "type": "note_off",
        "time": 16,
        "note": 48,
        "velocity": 64,
        "channel": 2
      },
      {
        "type": "note_off",
        "time": 0,
        "note": 55,
        "velocity": 64,
        "channel": 2
      },
      {
        "type": "note_off",
        "time": 0,
        "note": 58,
        "velocity": 64,
        "channel": 2
      },
      {
        "type": "note_off",
        "time": 0,
        "note": 60,
        "velocity": 64,
        "channel": 2
      },
      {
        "type": "note_off",
        "time": 0,
        "note": 64,
        "velocity": 64,
        "channel": 2
      },
      {
        "type": "control_change",
        "time": 168,
        "control": 64,
        "value": 0,
        "channel": 2
      },
      {
        "type": "note_on",
        "time": 8,
        "note": 41,
        "velocity": 127,
        "channel": 2
      },
      {
        "type": "note_on",
        "time": 0,
        "note": 57,
        "velocity": 127,
        "channel": 2
      },
      {
        "type": "note_on",
        "time": 0,
        "note": 60,
        "velocity": 127,
        "channel": 2
      },
      {
        "type": "note_on",
        "time": 0,
        "note": 65,
        "velocity": 127,
        "channel": 2
      },
      {
        "type": "control_change",
        "time": 8,
        "control": 64,
        "value": 127,
        "channel": 2
      },
      {
        "type": "note_off",
        "time": 8,
        "note": 41,
        "velocity": 64,
        "channel": 2
      },
      {
        "type": "note_off",
        "time": 32,
        "note": 57,
        "velocity": 64,
        "channel": 2
      },
      {
        "type": "note_off",
        "time": 0,
        "note": 60,
        "velocity": 64,
        "channel": 2
      },
      {
        "type": "note_off",
        "time": 0,
        "note": 65,
        "velocity": 64,
        "channel": 2
      },
      {
        "type": "control_change",
        "time": 712,
        "control": 64,
        "value": 0,
        "channel": 2
      },
      {
        "type": "control_change",
        "time": 16,
        "control": 64,
        "value": 127,
        "channel": 2
      },
      {
        "type": "control_change",
        "time": 752,
        "control": 64,
        "value": 0,
        "channel": 2
      },
      {
        "type": "note_on",
        "time": 8,
        "note": 41,
        "velocity": 127,
        "channel": 2
      },
      {
        "type": "control_change",
        "time": 8,
        "control": 64,
        "value": 127,
        "channel": 2
      },
      {
        "type": "note_off",
        "time": 8,
        "note": 41,
        "velocity": 64,
        "channel": 2
      },
      {
        "type": "note_on",
        "time": 176,
        "note": 60,
        "velocity": 127,
        "channel": 2
      },
      {
        "type": "note_on",
        "time": 0,
        "note": 65,
        "velocity": 127,
        "channel": 2
      },
      {
        "type": "note_off",
        "time": 16,
        "note": 60,
        "velocity": 64,
        "channel": 2
      },
      {
        "type": "note_off",
        "time": 0,
        "note": 65,
        "velocity": 64,
        "channel": 2
      },
      {
        "type": "note_on",
        "time": 176,
        "note": 60,
        "velocity": 127,
        "channel": 2
      },
      {
        "type": "note_on",
        "time": 0,
        "note": 65,
        "velocity": 127,
        "channel": 2
      },
      {
        "type": "note_off",
        "time": 16,
        "note": 60,
        "velocity": 64,
        "channel": 2
      },
      {
        "type": "note_off",
        "time": 0,
        "note": 65,
        "velocity": 64,
        "channel": 2
      },
      {
        "type": "note_on",
        "time": 176,
        "note": 60,
        "velocity": 127,
        "channel": 2
      },
      {
        "type": "note_on",
        "time": 0,
        "note": 65,
        "velocity": 127,
        "channel": 2
      },
      {
        "type": "note_off",
        "time": 16,
        "note": 60,
        "velocity": 64,
        "channel": 2
      },
      {
        "type": "note_off",
        "time": 0,
        "note": 65,
        "velocity": 64,
        "channel": 2
      },
      {
        "type": "control_change",
        "time": 168,
        "control": 64,
        "value": 0,
        "channel": 2
      },
      {
        "type": "note_on",
        "time": 8,
        "note": 41,
        "velocity": 127,
        "channel": 2
      },
      {
        "type": "control_change",
        "time": 8,
        "control": 64,
        "value": 127,
        "channel": 2
      },
      {
        "type": "note_off",
        "time": 8,
        "note": 41,
        "velocity": 64,
        "channel": 2
      },
      {
        "type": "note_on",
        "time": 176,
        "note": 60,
        "velocity": 127,
        "channel": 2
      },
      {
        "type": "note_on",
        "time": 0,
        "note": 65,
        "velocity": 127,
        "channel": 2
      },
      {
        "type": "note_off",
        "time": 16,
        "note": 60,
        "velocity": 64,
        "channel": 2
      },
      {
        "type": "note_off",
        "time": 0,
        "note": 65,
        "velocity": 64,
        "channel": 2
      },
      {
        "type": "note_on",
        "time": 176,
        "note": 60,
        "velocity": 127,
        "channel": 2
      },
      {
        "type": "note_on",
        "time": 0,
        "note": 65,
        "velocity": 127,
        "channel": 2
      },
      {
        "type": "note_off",
        "time": 16,
        "note": 60,
        "velocity": 64,
        "channel": 2
      },
      {
        "type": "note_off",
        "time": 0,
        "note": 65,
        "velocity": 64,
        "channel": 2
      },
      {
        "type": "note_on",
        "time": 176,
        "note": 50,
        "velocity": 127,
        "channel": 2
      },
      {
        "type": "note_on",
        "time": 0,
        "note": 60,
        "velocity": 127,
        "channel": 2
      },
      {
        "type": "note_on",
        "time": 0,
        "note": 65,
        "velocity": 127,
        "channel": 2
      },
      {
        "type": "note_off",
        "time": 16,
        "note": 50,
        "velocity": 64,
        "channel": 2
      },
      {
        "type": "note_off",
        "time": 0,
        "note": 60,
        "velocity": 64,
        "channel": 2
      },
      {
        "type": "note_off",
        "time": 0,
        "note": 65,
        "velocity": 64,
        "channel": 2
      },
      {
        "type": "control_change",
        "time": 168,
        "control": 64,
        "value": 0,
        "channel": 2
      },
      {
        "type": "note_on",
        "time": 8,
        "note": 40,
        "velocity": 127,
        "channel": 2
      },
      {
        "type": "control_change",
        "time": 8,
        "control": 64,
        "value": 127,
        "channel": 2
      },
      {
        "type": "note_off",
        "time": 8,
        "note": 40,
        "velocity": 64,
        "channel": 2
      },
      {
        "type": "note_on",
        "time": 176,
        "note": 55,
        "velocity": 127,
        "channel": 2
      },
      {
        "type": "note_on",
        "time": 0,
        "note": 58,
        "velocity": 127,
        "channel": 2
      },
      {
        "type": "note_on",
        "time": 0,
        "note": 62,
        "velocity": 127,
        "channel": 2
      },
      {
        "type": "note_off",
        "time": 16,
        "note": 55,
        "velocity": 64,
        "channel": 2
      },
      {
        "type": "note_off",
        "time": 0,
        "note": 58,
        "velocity": 64,
        "channel": 2
      },
      {
        "type": "note_off",
        "time": 0,
        "note": 62,
        "velocity": 64,
        "channel": 2
      },
      {
        "type": "note_on",
        "time": 176,
        "note": 55,
        "velocity": 127,
        "channel": 2
      },
      {
        "type": "note_on",
        "time": 0,
        "note": 58,
        "velocity": 127,
        "channel": 2
      },
      {
        "type": "note_on",
        "time": 0,
        "note": 62,
        "velocity": 127,
        "channel": 2
      },
      {
        "type": "note_off",
        "time": 16,
        "note": 55,
        "velocity": 64,
        "channel": 2
      },
      {
        "type": "note_off",
        "time": 0,
        "note": 58,
        "velocity": 64,
        "channel": 2
      },
      {
        "type": "note_off",
        "time": 0,
        "note": 62,
        "velocity": 64,
        "channel": 2
      },
      {
        "type": "note_on",
        "time": 176,
        "note": 40,
        "velocity": 127,
        "channel": 2
      },
      {
        "type": "note_on",
        "time": 0,
        "note": 55,
        "velocity": 127,
        "channel": 2
      },
      {
        "type": "note_on",
        "time": 0,
        "note": 58,
        "velocity": 127,
        "channel": 2
      },
      {
        "type": "note_on",
        "time": 0,
        "note": 62,
        "velocity": 127,
        "channel": 2
      },
      {
        "type": "note_off",
        "time": 16,
        "note": 40,
        "velocity": 64,
        "channel": 2
      },
      {
        "type": "note_off",
        "time": 0,
        "note": 55,
        "velocity": 64,
        "channel": 2
      },
      {
        "type": "note_off",
        "time": 0,
        "note": 58,
        "velocity": 64,
        "channel": 2
      },
      {
        "type": "note_off",
        "time": 0,
        "note": 62,
        "velocity": 64,
        "channel": 2
      },
      {
        "type": "control_change",
        "time": 168,
        "control": 64,
        "value": 0,
        "channel": 2
      },
      {
        "type": "note_on",
        "time": 8,
        "note": 45,
        "velocity": 127,
        "channel": 2
      },
      {
        "type": "control_change",
        "time": 8,
        "control": 64,
        "value": 127,
        "channel": 2
      },
      {
        "type": "note_off",
        "time": 8,
        "note": 45,
        "velocity": 64,
        "channel": 2
      },
      {
        "type": "note_on",
        "time": 176,
        "note": 55,
        "velocity": 127,
        "channel": 2
      },
      {
        "type": "note_on",
        "time": 0,
        "note": 61,
        "velocity": 127,
        "channel": 2
      },
      {
        "type": "note_on",
        "time": 0,
        "note": 64,
        "velocity": 127,
        "channel": 2
      },
      {
        "type": "note_off",
        "time": 16,
        "note": 55,
        "velocity": 64,
        "channel": 2
      },
      {
        "type": "note_off",
        "time": 0,
        "note": 61,
        "velocity": 64,
        "channel": 2
      },
      {
        "type": "note_off",
        "time": 0,
        "note": 64,
        "velocity": 64,
        "channel": 2
      },
      {
        "type": "note_on",
        "time": 176,
        "note": 55,
        "velocity": 127,
        "channel": 2
      },
      {
        "type": "note_on",
        "time": 0,
        "note": 61,
        "velocity": 127,
        "channel": 2
      },
      {
        "type": "note_on",
        "time": 0,
        "note": 64,
        "velocity": 127,
        "channel": 2
      },
      {
        "type": "note_off",
        "time": 16,
        "note": 55,
        "velocity": 64,
        "channel": 2
      },
      {
        "type": "note_off",
        "time": 0,
        "note": 61,
        "velocity": 64,
        "channel": 2
      },
      {
        "type": "note_off",
        "time": 0,
        "note": 64,
        "velocity": 64,
        "channel": 2
      },
      {
        "type": "note_on",
        "time": 176,
        "note": 45,
        "velocity": 127,
        "channel": 2
      },
      {
        "type": "note_on",
        "time": 0,
        "note": 55,
        "velocity": 127,
        "channel": 2
      },
      {
        "type": "note_on",
        "time": 0,
        "note": 61,
        "velocity": 127,
        "channel": 2
      },
      {
        "type": "note_on",
        "time": 0,
        "note": 64,
        "velocity": 127,
        "channel": 2
      },
      {
        "type": "note_off",
        "time": 16,
        "note": 45,
        "velocity": 64,
        "channel": 2
      },
      {
        "type": "note_off",
        "time": 0,
        "note": 55,
        "velocity": 64,
        "channel": 2
      },
      {
        "type": "note_off",
        "time": 0,
        "note": 61,
        "velocity": 64,
        "channel": 2
      },
      {
        "type": "note_off",
        "time": 0,
        "note": 64,
        "velocity": 64,
        "channel": 2
      },
      {
        "type": "control_change",
        "time": 168,
        "control": 64,
        "value": 0,
        "channel": 2
      },
      {
        "type": "note_on",
        "time": 8,
        "note": 50,
        "velocity": 127,
        "channel": 2
      },
      {
        "type": "control_change",
        "time": 8,
        "control": 64,
        "value": 127,
        "channel": 2
      },
      {
        "type": "note_off",
        "time": 8,
        "note": 50,
        "velocity": 64,
        "channel": 2
      },
      {
        "type": "note_on",
        "time": 176,
        "note": 57,
        "velocity": 127,
        "channel": 2
      },
      {
        "type": "note_on",
        "time": 0,
        "note": 62,
        "velocity": 127,
        "channel": 2
      },
      {
        "type": "note_on",
        "time": 0,
        "note": 65,
        "velocity": 127,
        "channel": 2
      },
      {
        "type": "note_off",
        "time": 16,
        "note": 57,
        "velocity": 64,
        "channel": 2
      },
      {
        "type": "note_off",
        "time": 0,
        "note": 62,
        "velocity": 64,
        "channel": 2
      },
      {
        "type": "note_off",
        "time": 0,
        "note": 65,
        "velocity": 64,
        "channel": 2
      },
      {
        "type": "note_on",
        "time": 176,
        "note": 57,
        "velocity": 127,
        "channel": 2
      },
      {
        "type": "note_on",
        "time": 0,
        "note": 62,
        "velocity": 127,
        "channel": 2
      },
      {
        "type": "note_on",
        "time": 0,
        "note": 65,
        "velocity": 127,
        "channel": 2
      },
      {
        "type": "note_off",
        "time": 16,
        "note": 57,
        "velocity": 64,
        "channel": 2
      },
      {
        "type": "note_off",
        "time": 0,
        "note": 62,
        "velocity": 64,
        "channel": 2
      },
      {
        "type": "note_off",
        "time": 0,
        "note": 65,
        "velocity": 64,
        "channel": 2
      },
      {
        "type": "note_on",
        "time": 176,
        "note": 50,
        "velocity": 127,
        "channel": 2
      },
      {
        "type": "note_on",
        "time": 0,
        "note": 57,
        "velocity": 127,
        "channel": 2
      },
      {
        "type": "note_on",
        "time": 0,
        "note": 62,
        "velocity": 127,
        "channel": 2
      },
      {
        "type": "note_on",
        "time": 0,
        "note": 65,
        "velocity": 127,
        "channel": 2
      },
      {
        "type": "note_off",
        "time": 16,
        "note": 50,
        "velocity": 64,
        "channel": 2
      },
      {
        "type": "note_off",
        "time": 0,
        "note": 57,
        "velocity": 64,
        "channel": 2
      },
      {
        "type": "note_off",
        "time": 0,
        "note": 62,
        "velocity": 64,
        "channel": 2
      },
      {
        "type": "note_off",
        "time": 0,
        "note": 65,
        "velocity": 64,
        "channel": 2
      },
      {
        "type": "control_change",
        "time": 168,
        "control": 64,
        "value": 0,
        "channel": 2
      },
      {
        "type": "note_on",
        "time": 8,
        "note": 50,
        "velocity": 127,
        "channel": 2
      },
      {
        "type": "control_change",
        "time": 8,
        "control": 64,
        "value": 127,
        "channel": 2
      },
      {
        "type": "note_off",
        "time": 8,
        "note": 50,
        "velocity": 64,
        "channel": 2
      },
      {
        "type": "note_on",
        "time": 176,
        "note": 57,
        "velocity": 127,
        "channel": 2
      },
      {
        "type": "note_on",
        "time": 0,
        "note": 62,
        "velocity": 127,
        "channel": 2
      },
      {
        "type": "note_on",
        "time": 0,
        "note": 65,
        "velocity": 127,
        "channel": 2
      },
      {
        "type": "note_off",
        "time": 16,
        "note": 57,
        "velocity": 64,
        "channel": 2
      },
      {
        "type": "note_off",
        "time": 0,
        "note": 62,
        "velocity": 64,
        "channel": 2
      },
      {
        "type": "note_off",
        "time": 0,
        "note": 65,
        "velocity": 64,
        "channel": 2
      },
      {
        "type": "note_on",
        "time": 176,
        "note": 48,
        "velocity": 127,
        "channel": 2
      },
      {
        "type": "note_off",
        "time": 16,
        "note": 48,
        "velocity": 64,
        "channel": 2
      },
      {
        "type": "note_on",
        "time": 176,
        "note": 55,
        "velocity": 127,
        "channel": 2
      },
      {
        "type": "note_on",
        "time": 0,
        "note": 60,
        "velocity": 127,
        "channel": 2
      },
      {
        "type": "note_on",
        "time": 0,
        "note": 64,
        "velocity": 127,
        "channel": 2
      },
      {
        "type": "note_off",
        "time": 16,
        "note": 55,
        "velocity": 64,
        "channel": 2
      },
      {
        "type": "note_off",
        "time": 0,
        "note": 60,
        "velocity": 64,
        "channel": 2
      },
      {
        "type": "note_off",
        "time": 0,
        "note": 64,
        "velocity": 64,
        "channel": 2
      },
      {
        "type": "control_change",
        "time": 168,
        "control": 64,
        "value": 0,
        "channel": 2
      },
      {
        "type": "note_on",
        "time": 8,
        "note": 46,
        "velocity": 127,
        "channel": 2
      },
      {
        "type": "control_change",
        "time": 8,
        "control": 64,
        "value": 127,
        "channel": 2
      },
      {
        "type": "note_off",
        "time": 8,
        "note": 46,
        "velocity": 64,
        "channel": 2
      },
      {
        "type": "note_on",
        "time": 176,
        "note": 53,
        "velocity": 127,
        "channel": 2
      },
      {
        "type": "note_on",
        "time": 0,
        "note": 58,
        "velocity": 127,
        "channel": 2
      },
      {
        "type": "note_on",
        "time": 0,
        "note": 62,
        "velocity": 127,
        "channel": 2
      },
      {
        "type": "note_off",
        "time": 16,
        "note": 53,
        "velocity": 64,
        "channel": 2
      },
      {
        "type": "note_off",
        "time": 0,
        "note": 58,
        "velocity": 64,
        "channel": 2
      },
      {
        "type": "note_off",
        "time": 0,
        "note": 62,
        "velocity": 64,
        "channel": 2
      },
      {
        "type": "note_on",
        "time": 176,
        "note": 53,
        "velocity": 127,
        "channel": 2
      },
      {
        "type": "note_on",
        "time": 0,
        "note": 58,
        "velocity": 127,
        "channel": 2
      },
      {
        "type": "note_on",
        "time": 0,
        "note": 62,
        "velocity": 127,
        "channel": 2
      },
      {
        "type": "note_off",
        "time": 16,
        "note": 53,
        "velocity": 64,
        "channel": 2
      },
      {
        "type": "note_off",
        "time": 0,
        "note": 58,
        "velocity": 64,
        "channel": 2
      },
      {
        "type": "note_off",
        "time": 0,
        "note": 62,
        "velocity": 64,
        "channel": 2
      },
      {
        "type": "note_on",
        "time": 176,
        "note": 46,
        "velocity": 127,
        "channel": 2
      },
      {
        "type": "note_on",
        "time": 0,
        "note": 53,
        "velocity": 127,
        "channel": 2
      },
      {
        "type": "note_on",
        "time": 0,
        "note": 58,
        "velocity": 127,
        "channel": 2
      },
      {
        "type": "note_on",
        "time": 0,
        "note": 62,
        "velocity": 127,
        "channel": 2
      },
      {
        "type": "note_off",
        "time": 16,
        "note": 46,
        "velocity": 64,
        "channel": 2
      },
      {
        "type": "note_off",
        "time": 0,
        "note": 53,
        "velocity": 64,
        "channel": 2
      },
      {
        "type": "note_off",
        "time": 0,
        "note": 58,
        "velocity": 64,
        "channel": 2
      },
      {
        "type": "note_off",
        "time": 0,
        "note": 62,
        "velocity": 64,
        "channel": 2
      },
      {
        "type": "control_change",
        "time": 168,
        "control": 64,
        "value": 0,
        "channel": 2
      },
      {
        "type": "note_on",
        "time": 8,
        "note": 48,
        "velocity": 127,
        "channel": 2
      },
      {
        "type": "control_change",
        "time": 8,
        "control": 64,
        "value": 127,
        "channel": 2
      },
      {
        "type": "note_off",
        "time": 8,
        "note": 48,
        "velocity": 64,
        "channel": 2
      },
      {
        "type": "note_on",
        "time": 176,
        "note": 55,
        "velocity": 127,
        "channel": 2
      },
      {
        "type": "note_on",
        "time": 0,
        "note": 60,
        "velocity": 127,
        "channel": 2
      },
      {
        "type": "note_on",
        "time": 0,
        "note": 64,
        "velocity": 127,
        "channel": 2
      },
      {
        "type": "note_off",
        "time": 16,
        "note": 55,
        "velocity": 64,
        "channel": 2
      },
      {
        "type": "note_off",
        "time": 0,
        "note": 60,
        "velocity": 64,
        "channel": 2
      },
      {
        "type": "note_off",
        "time": 0,
        "note": 64,
        "velocity": 64,
        "channel": 2
      },
      {
        "type": "note_on",
        "time": 176,
        "note": 55,
        "velocity": 127,
        "channel": 2
      },
      {
        "type": "note_on",
        "time": 0,
        "note": 60,
        "velocity": 127,
        "channel": 2
      },
      {
        "type": "note_on",
        "time": 0,
        "note": 64,
        "velocity": 127,
        "channel": 2
      },
      {
        "type": "note_off",
        "time": 16,
        "note": 55,
        "velocity": 64,
        "channel": 2
      },
      {
        "type": "note_off",
        "time": 0,
        "note": 60,
        "velocity": 64,
        "channel": 2
      },
      {
        "type": "note_off",
        "time": 0,
        "note": 64,
        "velocity": 64,
        "channel": 2
      },
      {
        "type": "note_on",
        "time": 176,
        "note": 48,
        "velocity": 127,
        "channel": 2
      },
      {
        "type": "note_on",
        "time": 0,
        "note": 55,
        "velocity": 127,
        "channel": 2
      },
      {
        "type": "note_on",
        "time": 0,
        "note": 60,
        "velocity": 127,
        "channel": 2
      },
      {
        "type": "note_on",
        "time": 0,
        "note": 64,
        "velocity": 127,
        "channel": 2
      },
      {
        "type": "note_off",
        "time": 16,
        "note": 48,
        "velocity": 64,
        "channel": 2
      },
      {
        "type": "note_off",
        "time": 0,
        "note": 55,
        "velocity": 64,
        "channel": 2
      },
      {
        "type": "note_off",
        "time": 0,
        "note": 60,
        "velocity": 64,
        "channel": 2
      },
      {
        "type": "note_off",
        "time": 0,
        "note": 64,
        "velocity": 64,
        "channel": 2
      },
      {
        "type": "control_change",
        "time": 168,
        "control": 64,
        "value": 0,
        "channel": 2
      },
      {
        "type": "note_on",
        "time": 8,
        "note": 41,
        "velocity": 127,
        "channel": 2
      },
      {
        "type": "control_change",
        "time": 8,
        "control": 64,
        "value": 127,
        "channel": 2
      },
      {
        "type": "note_off",
        "time": 8,
        "note": 41,
        "velocity": 64,
        "channel": 2
      },
      {
        "type": "note_on",
        "time": 176,
        "note": 57,
        "velocity": 127,
        "channel": 2
      },
      {
        "type": "note_on",
        "time": 0,
        "note": 60,
        "velocity": 127,
        "channel": 2
      },
      {
        "type": "note_on",
        "time": 0,
        "note": 65,
        "velocity": 127,
        "channel": 2
      },
      {
        "type": "note_off",
        "time": 16,
        "note": 57,
        "velocity": 64,
        "channel": 2
      },
      {
        "type": "note_off",
        "time": 0,
        "note": 60,
        "velocity": 64,
        "channel": 2
      },
      {
        "type": "note_off",
        "time": 0,
        "note": 65,
        "velocity": 64,
        "channel": 2
      },
      {
        "type": "note_on",
        "time": 176,
        "note": 57,
        "velocity": 127,
        "channel": 2
      },
      {
        "type": "note_on",
        "time": 0,
        "note": 60,
        "velocity": 127,
        "channel": 2
      },
      {
        "type": "note_on",
        "time": 0,
        "note": 65,
        "velocity": 127,
        "channel": 2
      },
      {
        "type": "note_off",
        "time": 16,
        "note": 57,
        "velocity": 64,
        "channel": 2
      },
      {
        "type": "note_off",
        "time": 0,
        "note": 60,
        "velocity": 64,
        "channel": 2
      },
      {
        "type": "note_off",
        "time": 0,
        "note": 65,
        "velocity": 64,
        "channel": 2
      },
      {
        "type": "note_on",
        "time": 176,
        "note": 41,
        "velocity": 127,
        "channel": 2
      },
      {
        "type": "note_on",
        "time": 0,
        "note": 57,
        "velocity": 127,
        "channel": 2
      },
      {
        "type": "note_on",
        "time": 0,
        "note": 60,
        "velocity": 127,
        "channel": 2
      },
      {
        "type": "note_on",
        "time": 0,
        "note": 65,
        "velocity": 127,
        "channel": 2
      },
      {
        "type": "note_off",
        "time": 16,
        "note": 41,
        "velocity": 64,
        "channel": 2
      },
      {
        "type": "note_off",
        "time": 0,
        "note": 57,
        "velocity": 64,
        "channel": 2
      },
      {
        "type": "note_off",
        "time": 0,
        "note": 60,
        "velocity": 64,
        "channel": 2
      },
      {
        "type": "note_off",
        "time": 0,
        "note": 65,
        "velocity": 64,
        "channel": 2
      },
      {
        "type": "control_change",
        "time": 168,
        "control": 64,
        "value": 0,
        "channel": 2
      },
      {
        "type": "note_on",
        "time": 8,
        "note": 41,
        "velocity": 127,
        "channel": 2
      },
      {
        "type": "control_change",
        "time": 8,
        "control": 64,
        "value": 127,
        "channel": 2
      },
      {
        "type": "note_off",
        "time": 8,
        "note": 41,
        "velocity": 64,
        "channel": 2
      },
      {
        "type": "note_on",
        "time": 176,
        "note": 57,
        "velocity": 127,
        "channel": 2
      },
      {
        "type": "note_on",
        "time": 0,
        "note": 60,
        "velocity": 127,
        "channel": 2
      },
      {
        "type": "note_on",
        "time": 0,
        "note": 65,
        "velocity": 127,
        "channel": 2
      },
      {
        "type": "note_off",
        "time": 16,
        "note": 57,
        "velocity": 64,
        "channel": 2
      },
      {
        "type": "note_off",
        "time": 0,
        "note": 60,
        "velocity": 64,
        "channel": 2
      },
      {
        "type": "note_off",
        "time": 0,
        "note": 65,
        "velocity": 64,
        "channel": 2
      },
      {
        "type": "note_on",
        "time": 176,
        "note": 40,
        "velocity": 127,
        "channel": 2
      },
      {
        "type": "note_off",
        "time": 16,
        "note": 40,
        "velocity": 64,
        "channel": 2
      },
      {
        "type": "note_on",
        "time": 176,
        "note": 57,
        "velocity": 127,
        "channel": 2
      },
      {
        "type": "note_on",
        "time": 0,
        "note": 60,
        "velocity": 127,
        "channel": 2
      },
      {
        "type": "note_on",
        "time": 0,
        "note": 64,
        "velocity": 127,
        "channel": 2
      },
      {
        "type": "note_off",
        "time": 16,
        "note": 57,
        "velocity": 64,
        "channel": 2
      },
      {
        "type": "note_off",
        "time": 0,
        "note": 60,
        "velocity": 64,
        "channel": 2
      },
      {
        "type": "note_off",
        "time": 0,
        "note": 64,
        "velocity": 64,
        "channel": 2
      },
      {
        "type": "control_change",
        "time": 168,
        "control": 64,
        "value": 0,
        "channel": 2
      },
      {
        "type": "note_on",
        "time": 8,
        "note": 50,
        "velocity": 127,
        "channel": 2
      },
      {
        "type": "control_change",
        "time": 8,
        "control": 64,
        "value": 127,
        "channel": 2
      },
      {
        "type": "note_off",
        "time": 8,
        "note": 50,
        "velocity": 64,
        "channel": 2
      },
      {
        "type": "note_on",
        "time": 176,
        "note": 57,
        "velocity": 127,
        "channel": 2
      },
      {
        "type": "note_on",
        "time": 0,
        "note": 62,
        "velocity": 127,
        "channel": 2
      },
      {
        "type": "note_on",
        "time": 0,
        "note": 65,
        "velocity": 127,
        "channel": 2
      },
      {
        "type": "note_off",
        "time": 16,
        "note": 57,
        "velocity": 64,
        "channel": 2
      },
      {
        "type": "note_off",
        "time": 0,
        "note": 62,
        "velocity": 64,
        "channel": 2
      },
      {
        "type": "note_off",
        "time": 0,
        "note": 65,
        "velocity": 64,
        "channel": 2
      },
      {
        "type": "note_on",
        "time": 176,
        "note": 57,
        "velocity": 127,
        "channel": 2
      },
      {
        "type": "note_on",
        "time": 0,
        "note": 62,
        "velocity": 127,
        "channel": 2
      },
      {
        "type": "note_on",
        "time": 0,
        "note": 65,
        "velocity": 127,
        "channel": 2
      },
      {
        "type": "note_off",
        "time": 16,
        "note": 57,
        "velocity": 64,
        "channel": 2
      },
      {
        "type": "note_off",
        "time": 0,
        "note": 62,
        "velocity": 64,
        "channel": 2
      },
      {
        "type": "note_off",
        "time": 0,
        "note": 65,
        "velocity": 64,
        "channel": 2
      },
      {
        "type": "note_on",
        "time": 176,
        "note": 50,
        "velocity": 127,
        "channel": 2
      },
      {
        "type": "note_on",
        "time": 0,
        "note": 57,
        "velocity": 127,
        "channel": 2
      },
      {
        "type": "note_on",
        "time": 0,
        "note": 62,
        "velocity": 127,
        "channel": 2
      },
      {
        "type": "note_on",
        "time": 0,
        "note": 65,
        "velocity": 127,
        "channel": 2
      },
      {
        "type": "note_off",
        "time": 16,
        "note": 50,
        "velocity": 64,
        "channel": 2
      },
      {
        "type": "note_off",
        "time": 0,
        "note": 57,
        "velocity": 64,
        "channel": 2
      },
      {
        "type": "note_off",
        "time": 0,
        "note": 62,
        "velocity": 64,
        "channel": 2
      },
      {
        "type": "note_off",
        "time": 0,
        "note": 65,
        "velocity": 64,
        "channel": 2
      },
      {
        "type": "control_change",
        "time": 168,
        "control": 64,
        "value": 0,
        "channel": 2
      },
      {
        "type": "note_on",
        "time": 8,
        "note": 43,
        "velocity": 127,
        "channel": 2
      },
      {
        "type": "control_change",
        "time": 8,
        "control": 64,
        "value": 127,
        "channel": 2
      },
      {
        "type": "note_off",
        "time": 8,
        "note": 43,
        "velocity": 64,
        "channel": 2
      },
      {
        "type": "note_on",
        "time": 176,
        "note": 59,
        "velocity": 127,
        "channel": 2
      },
      {
        "type": "note_on",
        "time": 0,
        "note": 62,
        "velocity": 127,
        "channel": 2
      },
      {
        "type": "note_on",
        "time": 0,
        "note": 67,
        "velocity": 127,
        "channel": 2
      },
      {
        "type": "note_off",
        "time": 16,
        "note": 59,
        "velocity": 64,
        "channel": 2
      },
      {
        "type": "note_off",
        "time": 0,
        "note": 62,
        "velocity": 64,
        "channel": 2
      },
      {
        "type": "note_off",
        "time": 0,
        "note": 67,
        "velocity": 64,
        "channel": 2
      },
      {
        "type": "note_on",
        "time": 176,
        "note": 59,
        "velocity": 127,
        "channel": 2
      },
      {
        "type": "note_on",
        "time": 0,
        "note": 62,
        "velocity": 127,
        "channel": 2
      },
      {
        "type": "note_on",
        "time": 0,
        "note": 67,
        "velocity": 127,
        "channel": 2
      },
      {
        "type": "note_off",
        "time": 16,
        "note": 59,
        "velocity": 64,
        "channel": 2
      },
      {
        "type": "note_off",
        "time": 0,
        "note": 62,
        "velocity": 64,
        "channel": 2
      },
      {
        "type": "note_off",
        "time": 0,
        "note": 67,
        "velocity": 64,
        "channel": 2
      },
      {
        "type": "note_on",
        "time": 176,
        "note": 43,
        "velocity": 127,
        "channel": 2
      },
      {
        "type": "note_on",
        "time": 0,
        "note": 59,
        "velocity": 127,
        "channel": 2
      },
      {
        "type": "note_on",
        "time": 0,
        "note": 62,
        "velocity": 127,
        "channel": 2
      },
      {
        "type": "note_on",
        "time": 0,
        "note": 67,
        "velocity": 127,
        "channel": 2
      },
      {
        "type": "note_off",
        "time": 16,
        "note": 43,
        "velocity": 64,
        "channel": 2
      },
      {
        "type": "note_off",
        "time": 0,
        "note": 59,
        "velocity": 64,
        "channel": 2
      },
      {
        "type": "note_off",
        "time": 0,
        "note": 62,
        "velocity": 64,
        "channel": 2
      },
      {
        "type": "note_off",
        "time": 0,
        "note": 67,
        "velocity": 64,
        "channel": 2
      },
      {
        "type": "control_change",
        "time": 168,
        "control": 64,
        "value": 0,
        "channel": 2
      },
      {
        "type": "note_on",
        "time": 8,
        "note": 46,
        "velocity": 127,
        "channel": 2
      },
      {
        "type": "note_on",
        "time": 0,
        "note": 53,
        "velocity": 127,
        "channel": 2
      },
      {
        "type": "note_on",
        "time": 0,
        "note": 58,
        "velocity": 127,
        "channel": 2
      },
      {
        "type": "note_on",
        "time": 0,
        "note": 62,
        "velocity": 127,
        "channel": 2
      },
      {
        "type": "control_change",
        "time": 8,
        "control": 64,
        "value": 127,
        "channel": 2
      },
      {
        "type": "note_off",
        "time": 8,
        "note": 46,
        "velocity": 64,
        "channel": 2
      },
      {
        "type": "note_off",
        "time": 0,
        "note": 53,
        "velocity": 64,
        "channel": 2
      },
      {
        "type": "note_off",
        "time": 0,
        "note": 58,
        "velocity": 64,
        "channel": 2
      },
      {
        "type": "note_off",
        "time": 0,
        "note": 62,
        "velocity": 64,
        "channel": 2
      },
      {
        "type": "note_on",
        "time": 368,
        "note": 41,
        "velocity": 127,
        "channel": 2
      },
      {
        "type": "note_on",
        "time": 0,
        "note": 53,
        "velocity": 127,
        "channel": 2
      },
      {
        "type": "note_on",
        "time": 0,
        "note": 57,
        "velocity": 127,
        "channel": 2
      },
      {
        "type": "note_on",
        "time": 0,
        "note": 60,
        "velocity": 127,
        "channel": 2
      },
      {
        "type": "note_off",
        "time": 16,
        "note": 41,
        "velocity": 64,
        "channel": 2
      },
      {
        "type": "note_off",
        "time": 0,
        "note": 53,
        "velocity": 64,
        "channel": 2
      },
      {
        "type": "note_off",
        "time": 0,
        "note": 57,
        "velocity": 64,
        "channel": 2
      },
      {
        "type": "note_off",
        "time": 0,
        "note": 60,
        "velocity": 64,
        "channel": 2
      },
      {
        "type": "note_on",
        "time": 176,
        "note": 41,
        "velocity": 127,
        "channel": 2
      },
      {
        "type": "note_on",
        "time": 0,
        "note": 53,
        "velocity": 127,
        "channel": 2
      },
      {
        "type": "note_on",
        "time": 0,
        "note": 57,
        "velocity": 127,
        "channel": 2
      },
      {
        "type": "note_on",
        "time": 0,
        "note": 60,
        "velocity": 127,
        "channel": 2
      },
      {
        "type": "note_off",
        "time": 336,
        "note": 41,
        "velocity": 64,
        "channel": 2
      },
      {
        "type": "note_off",
        "time": 0,
        "note": 53,
        "velocity": 64,
        "channel": 2
      },
      {
        "type": "note_off",
        "time": 0,
        "note": 57,
        "velocity": 64,
        "channel": 2
      },
      {
        "type": "note_off",
        "time": 0,
        "note": 60,
        "velocity": 64,
        "channel": 2
      },
      {
        "type": "control_change",
        "time": 240,
        "control": 64,
        "value": 0,
        "channel": 2
      },
      {
        "type": "control_change",
        "time": 8,
        "control": 64,
        "value": 127,
        "channel": 2
      },
      {
        "type": "note_on",
        "time": 376,
        "note": 40,
        "velocity": 127,
        "channel": 2
      },
      {
        "type": "control_change",
        "time": 8,
        "control": 64,
        "value": 127,
        "channel": 2
      },
      {
        "type": "note_off",
        "time": 8,
        "note": 40,
        "velocity": 64,
        "channel": 2
      },
      {
        "type": "note_on",
        "time": 176,
        "note": 55,
        "velocity": 127,
        "channel": 2
      },
      {
        "type": "note_on",
        "time": 0,
        "note": 59,
        "velocity": 127,
        "channel": 2
      },
      {
        "type": "note_on",
        "time": 0,
        "note": 62,
        "velocity": 127,
        "channel": 2
      },
      {
        "type": "note_off",
        "time": 16,
        "note": 55,
        "velocity": 64,
        "channel": 2
      },
      {
        "type": "note_off",
        "time": 0,
        "note": 59,
        "velocity": 64,
        "channel": 2
      },
      {
        "type": "note_off",
        "time": 0,
        "note": 62,
        "velocity": 64,
        "channel": 2
      },
      {
        "type": "note_on",
        "time": 176,
        "note": 55,
        "velocity": 127,
        "channel": 2
      },
      {
        "type": "note_on",
        "time": 0,
        "note": 59,
        "velocity": 127,
        "channel": 2
      },
      {
        "type": "note_on",
        "time": 0,
        "note": 62,
        "velocity": 127,
        "channel": 2
      },
      {
        "type": "note_off",
        "time": 16,
        "note": 55,
        "velocity": 64,
        "channel": 2
      },
      {
        "type": "note_off",
        "time": 0,
        "note": 59,
        "velocity": 64,
        "channel": 2
      },
      {
        "type": "note_off",
        "time": 0,
        "note": 62,
        "velocity": 64,
        "channel": 2
      },
      {
        "type": "note_on",
        "time": 176,
        "note": 40,
        "velocity": 127,
        "channel": 2
      },
      {
        "type": "note_on",
        "time": 0,
        "note": 55,
        "velocity": 127,
        "channel": 2
      },
      {
        "type": "note_on",
        "time": 0,
        "note": 59,
        "velocity": 127,
        "channel": 2
      },
      {
        "type": "note_on",
        "time": 0,
        "note": 62,
        "velocity": 127,
        "channel": 2
      },
      {
        "type": "note_off",
        "time": 16,
        "note": 40,
        "velocity": 64,
        "channel": 2
      },
      {
        "type": "note_off",
        "time": 0,
        "note": 55,
        "velocity": 64,
        "channel": 2
      },
      {
        "type": "note_off",
        "time": 0,
        "note": 59,
        "velocity": 64,
        "channel": 2
      },
      {
        "type": "note_off",
        "time": 0,
        "note": 62,
        "velocity": 64,
        "channel": 2
      },
      {
        "type": "control_change",
        "time": 168,
        "control": 64,
        "value": 0,
        "channel": 2
      },
      {
        "type": "note_on",
        "time": 8,
        "note": 45,
        "velocity": 127,
        "channel": 2
      },
      {
        "type": "control_change",
        "time": 8,
        "control": 64,
        "value": 127,
        "channel": 2
      },
      {
        "type": "note_off",
        "time": 8,
        "note": 45,
        "velocity": 64,
        "channel": 2
      },
      {
        "type": "note_on",
        "time": 176,
        "note": 55,
        "velocity": 127,
        "channel": 2
      },
      {
        "type": "note_on",
        "time": 0,
        "note": 61,
        "velocity": 127,
        "channel": 2
      },
      {
        "type": "note_on",
        "time": 0,
        "note": 64,
        "velocity": 127,
        "channel": 2
      },
      {
        "type": "note_off",
        "time": 16,
        "note": 55,
        "velocity": 64,
        "channel": 2
      },
      {
        "type": "note_off",
        "time": 0,
        "note": 61,
        "velocity": 64,
        "channel": 2
      },
      {
        "type": "note_off",
        "time": 0,
        "note": 64,
        "velocity": 64,
        "channel": 2
      },
      {
        "type": "note_on",
        "time": 176,
        "note": 55,
        "velocity": 127,
        "channel": 2
      },
      {
        "type": "note_on",
        "time": 0,
        "note": 61,
        "velocity": 127,
        "channel": 2
      },
      {
        "type": "note_on",
        "time": 0,
        "note": 64,
        "velocity": 127,
        "channel": 2
      },
      {
        "type": "note_off",
        "time": 16,
        "note": 55,
        "velocity": 64,
        "channel": 2
      },
      {
        "type": "note_off",
        "time": 0,
        "note": 61,
        "velocity": 64,
        "channel": 2
      },
      {
        "type": "note_off",
        "time": 0,
        "note": 64,
        "velocity": 64,
        "channel": 2
      },
      {
        "type": "note_on",
        "time": 176,
        "note": 45,
        "velocity": 127,
        "channel": 2
      },
      {
        "type": "note_on",
        "time": 0,
        "note": 55,
        "velocity": 127,
        "channel": 2
      },
      {
        "type": "note_on",
        "time": 0,
        "note": 61,
        "velocity": 127,
        "channel": 2
      },
      {
        "type": "note_on",
        "time": 0,
        "note": 64,
        "velocity": 127,
        "channel": 2
      },
      {
        "type": "note_off",
        "time": 16,
        "note": 45,
        "velocity": 64,
        "channel": 2
      },
      {
        "type": "note_off",
        "time": 0,
        "note": 55,
        "velocity": 64,
        "channel": 2
      },
      {
        "type": "note_off",
        "time": 0,
        "note": 61,
        "velocity": 64,
        "channel": 2
      },
      {
        "type": "note_off",
        "time": 0,
        "note": 64,
        "velocity": 64,
        "channel": 2
      },
      {
        "type": "note_on",
        "time": 168,
        "note": 50,
        "velocity": 127,
        "channel": 2
      },
      {
        "type": "control_change",
        "time": 0,
        "control": 64,
        "value": 0,
        "channel": 2
      },
      {
        "type": "note_on",
        "time": 4,
        "note": 57,
        "velocity": 127,
        "channel": 2
      },
      {
        "type": "note_on",
        "time": 4,
        "note": 62,
        "velocity": 127,
        "channel": 2
      },
      {
        "type": "note_on",
        "time": 4,
        "note": 65,
        "velocity": 127,
        "channel": 2
      },
      {
        "type": "note_off",
        "time": 4,
        "note": 50,
        "velocity": 64,
        "channel": 2
      },
      {
        "type": "control_change",
        "time": 0,
        "control": 64,
        "value": 127,
        "channel": 2
      },
      {
        "type": "note_off",
        "time": 4,
        "note": 57,
        "velocity": 64,
        "channel": 2
      },
      {
        "type": "note_off",
        "time": 4,
        "note": 62,
        "velocity": 64,
        "channel": 2
      },
      {
        "type": "note_off",
        "time": 4,
        "note": 65,
        "velocity": 64,
        "channel": 2
      },
      {
        "type": "note_on",
        "time": 352,
        "note": 48,
        "velocity": 127,
        "channel": 2
      },
      {
        "type": "note_on",
        "time": 8,
        "note": 60,
        "velocity": 127,
        "channel": 2
      },
      {
        "type": "note_on",
        "time": 4,
        "note": 64,
        "velocity": 127,
        "channel": 2
      },
      {
        "type": "note_off",
        "time": 4,
        "note": 48,
        "velocity": 64,
        "channel": 2
      },
      {
        "type": "note_on",
        "time": 0,
        "note": 55,
        "velocity": 127,
        "channel": 2
      },
      {
        "type": "note_off",
        "time": 8,
        "note": 60,
        "velocity": 64,
        "channel": 2
      },
      {
        "type": "note_off",
        "time": 4,
        "note": 64,
        "velocity": 64,
        "channel": 2
      },
      {
        "type": "note_off",
        "time": 4,
        "note": 55,
        "velocity": 64,
        "channel": 2
      },
      {
        "type": "note_on",
        "time": 356,
        "note": 46,
        "velocity": 127,
        "channel": 2
      },
      {
        "type": "control_change",
        "time": 0,
        "control": 64,
        "value": 0,
        "channel": 2
      },
      {
        "type": "note_on",
        "time": 8,
        "note": 53,
        "velocity": 127,
        "channel": 2
      },
      {
        "type": "note_on",
        "time": 4,
        "note": 58,
        "velocity": 127,
        "channel": 2
      },
      {
        "type": "note_on",
        "time": 0,
        "note": 62,
        "velocity": 127,
        "channel": 2
      },
      {
        "type": "note_off",
        "time": 4,
        "note": 46,
        "velocity": 64,
        "channel": 2
      },
      {
        "type": "control_change",
        "time": 0,
        "control": 64,
        "value": 127,
        "channel": 2
      },
      {
        "type": "note_off",
        "time": 8,
        "note": 53,
        "velocity": 64,
        "channel": 2
      },
      {
        "type": "note_off",
        "time": 4,
        "note": 58,
        "velocity": 64,
        "channel": 2
      },
      {
        "type": "note_off",
        "time": 0,
        "note": 62,
        "velocity": 64,
        "channel": 2
      },
      {
        "type": "note_on",
        "time": 352,
        "note": 45,
        "velocity": 127,
        "channel": 2
      },
      {
        "type": "note_on",
        "time": 8,
        "note": 53,
        "velocity": 127,
        "channel": 2
      },
      {
        "type": "note_off",
        "time": 8,
        "note": 45,
        "velocity": 64,
        "channel": 2
      },
      {
        "type": "note_on",
        "time": 0,
        "note": 57,
        "velocity": 127,
        "channel": 2
      },
      {
        "type": "note_on",
        "time": 0,
        "note": 60,
        "velocity": 127,
        "channel": 2
      },
      {
        "type": "note_off",
        "time": 8,
        "note": 53,
        "velocity": 64,
        "channel": 2
      },
      {
        "type": "note_off",
        "time": 8,
        "note": 57,
        "velocity": 64,
        "channel": 2
      },
      {
        "type": "note_off",
        "time": 0,
        "note": 60,
        "velocity": 64,
        "channel": 2
      },
      {
        "type": "control_change",
        "time": 356,
        "control": 64,
        "value": 0,
        "channel": 2
      },
      {
        "type": "note_on",
        "time": 8,
        "note": 43,
        "velocity": 127,
        "channel": 2
      },
      {
        "type": "control_change",
        "time": 8,
        "control": 64,
        "value": 127,
        "channel": 2
      },
      {
        "type": "note_off",
        "time": 8,
        "note": 43,
        "velocity": 64,
        "channel": 2
      },
      {
        "type": "note_on",
        "time": 176,
        "note": 55,
        "velocity": 127,
        "channel": 2
      },
      {
        "type": "note_on",
        "time": 0,
        "note": 58,
        "velocity": 127,
        "channel": 2
      },
      {
        "type": "note_on",
        "time": 0,
        "note": 62,
        "velocity": 127,
        "channel": 2
      },
      {
        "type": "note_off",
        "time": 16,
        "note": 55,
        "velocity": 64,
        "channel": 2
      },
      {
        "type": "note_off",
        "time": 0,
        "note": 58,
        "velocity": 64,
        "channel": 2
      },
      {
        "type": "note_off",
        "time": 0,
        "note": 62,
        "velocity": 64,
        "channel": 2
      },
      {
        "type": "note_on",
        "time": 176,
        "note": 55,
        "velocity": 127,
        "channel": 2
      },
      {
        "type": "note_on",
        "time": 0,
        "note": 58,
        "velocity": 127,
        "channel": 2
      },
      {
        "type": "note_on",
        "time": 0,
        "note": 62,
        "velocity": 127,
        "channel": 2
      },
      {
        "type": "note_off",
        "time": 16,
        "note": 55,
        "velocity": 64,
        "channel": 2
      },
      {
        "type": "note_off",
        "time": 0,
        "note": 58,
        "velocity": 64,
        "channel": 2
      },
      {
        "type": "note_off",
        "time": 0,
        "note": 62,
        "velocity": 64,
        "channel": 2
      },
      {
        "type": "note_on",
        "time": 176,
        "note": 43,
        "velocity": 127,
        "channel": 2
      },
      {
        "type": "note_on",
        "time": 0,
        "note": 55,
        "velocity": 127,
        "channel": 2
      },
      {
        "type": "note_on",
        "time": 0,
        "note": 58,
        "velocity": 127,
        "channel": 2
      },
      {
        "type": "note_on",
        "time": 0,
        "note": 62,
        "velocity": 127,
        "channel": 2
      },
      {
        "type": "note_off",
        "time": 16,
        "note": 43,
        "velocity": 64,
        "channel": 2
      },
      {
        "type": "note_off",
        "time": 0,
        "note": 55,
        "velocity": 64,
        "channel": 2
      },
      {
        "type": "note_off",
        "time": 0,
        "note": 58,
        "velocity": 64,
        "channel": 2
      },
      {
        "type": "note_off",
        "time": 0,
        "note": 62,
        "velocity": 64,
        "channel": 2
      },
      {
        "type": "control_change",
        "time": 168,
        "control": 64,
        "value": 0,
        "channel": 2
      },
      {
        "type": "note_on",
        "time": 8,
        "note": 48,
        "velocity": 127,
        "channel": 2
      },
      {
        "type": "control_change",
        "time": 8,
        "control": 64,
        "value": 127,
        "channel": 2
      },
      {
        "type": "note_off",
        "time": 8,
        "note": 48,
        "velocity": 64,
        "channel": 2
      },
      {
        "type": "note_on",
        "time": 176,
        "note": 55,
        "velocity": 127,
        "channel": 2
      },
      {
        "type": "note_on",
        "time": 0,
        "note": 58,
        "velocity": 127,
        "channel": 2
      },
      {
        "type": "note_on",
        "time": 0,
        "note": 60,
        "velocity": 127,
        "channel": 2
      },
      {
        "type": "note_on",
        "time": 0,
        "note": 64,
        "velocity": 127,
        "channel": 2
      },
      {
        "type": "note_off",
        "time": 16,
        "note": 55,
        "velocity": 64,
        "channel": 2
      },
      {
        "type": "note_off",
        "time": 0,
        "note": 58,
        "velocity": 64,
        "channel": 2
      },
      {
        "type": "note_off",
        "time": 0,
        "note": 60,
        "velocity": 64,
        "channel": 2
      },
      {
        "type": "note_off",
        "time": 0,
        "note": 64,
        "velocity": 64,
        "channel": 2
      },
      {
        "type": "note_on",
        "time": 176,
        "note": 55,
        "velocity": 127,
        "channel": 2
      },
      {
        "type": "note_on",
        "time": 0,
        "note": 58,
        "velocity": 127,
        "channel": 2
      },
      {
        "type": "note_on",
        "time": 0,
        "note": 60,
        "velocity": 127,
        "channel": 2
      },
      {
        "type": "note_on",
        "time": 0,
        "note": 64,
        "velocity": 127,
        "channel": 2
      },
      {
        "type": "note_off",
        "time": 16,
        "note": 55,
        "velocity": 64,
        "channel": 2
      },
      {
        "type": "note_off",
        "time": 0,
        "note": 58,
        "velocity": 64,
        "channel": 2
      },
      {
        "type": "note_off",
        "time": 0,
        "note": 60,
        "velocity": 64,
        "channel": 2
      },
      {
        "type": "note_off",
        "time": 0,
        "note": 64,
        "velocity": 64,
        "channel": 2
      },
      {
        "type": "note_on",
        "time": 176,
        "note": 48,
        "velocity": 127,
        "channel": 2
      },
      {
        "type": "note_on",
        "time": 0,
        "note": 55,
        "velocity": 127,
        "channel": 2
      },
      {
        "type": "note_on",
        "time": 0,
        "note": 58,
        "velocity": 127,
        "channel": 2
      },
      {
        "type": "note_on",
        "time": 0,
        "note": 60,
        "velocity": 127,
        "channel": 2
      },
      {
        "type": "note_on",
        "time": 0,
        "note": 64,
        "velocity": 127,
        "channel": 2
      },
      {
        "type": "note_off",
        "time": 16,
        "note": 48,
        "velocity": 64,
        "channel": 2
      },
      {
        "type": "note_off",
        "time": 0,
        "note": 55,
        "velocity": 64,
        "channel": 2
      },
      {
        "type": "note_off",
        "time": 0,
        "note": 58,
        "velocity": 64,
        "channel": 2
      },
      {
        "type": "note_off",
        "time": 0,
        "note": 60,
        "velocity": 64,
        "channel": 2
      },
      {
        "type": "note_off",
        "time": 0,
        "note": 64,
        "velocity": 64,
        "channel": 2
      },
      {
        "type": "control_change",
        "time": 168,
        "control": 64,
        "value": 0,
        "channel": 2
      },
      {
        "type": "note_on",
        "time": 8,
        "note": 41,
        "velocity": 127,
        "channel": 2
      },
      {
        "type": "control_change",
        "time": 8,
        "control": 64,
        "value": 127,
        "channel": 2
      },
      {
        "type": "note_off",
        "time": 8,
        "note": 41,
        "velocity": 64,
        "channel": 2
      },
      {
        "type": "note_on",
        "time": 176,
        "note": 57,
        "velocity": 127,
        "channel": 2
      },
      {
        "type": "note_on",
        "time": 0,
        "note": 60,
        "velocity": 127,
        "channel": 2
      },
      {
        "type": "note_on",
        "time": 0,
        "note": 65,
        "velocity": 127,
        "channel": 2
      },
      {
        "type": "note_off",
        "time": 16,
        "note": 57,
        "velocity": 64,
        "channel": 2
      },
      {
        "type": "note_off",
        "time": 0,
        "note": 60,
        "velocity": 64,
        "channel": 2
      },
      {
        "type": "note_off",
        "time": 0,
        "note": 65,
        "velocity": 64,
        "channel": 2
      },
      {
        "type": "note_on",
        "time": 176,
        "note": 57,
        "velocity": 127,
        "channel": 2
      },
      {
        "type": "note_on",
        "time": 0,
        "note": 60,
        "velocity": 127,
        "channel": 2
      },
      {
        "type": "note_on",
        "time": 0,
        "note": 65,
        "velocity": 127,
        "channel": 2
      },
      {
        "type": "note_off",
        "time": 16,
        "note": 57,
        "velocity": 64,
        "channel": 2
      },
      {
        "type": "note_off",
        "time": 0,
        "note": 60,
        "velocity": 64,
        "channel": 2
      },
      {
        "type": "note_off",
        "time": 0,
        "note": 65,
        "velocity": 64,
        "channel": 2
      },
      {
        "type": "note_on",
        "time": 176,
        "note": 41,
        "velocity": 127,
        "channel": 2
      },
      {
        "type": "note_on",
        "time": 0,
        "note": 57,
        "velocity": 127,
        "channel": 2
      },
      {
        "type": "note_on",
        "time": 0,
        "note": 60,
        "velocity": 127,
        "channel": 2
      },
      {
        "type": "note_on",
        "time": 0,
        "note": 65,
        "velocity": 127,
        "channel": 2
      },
      {
        "type": "note_off",
        "time": 16,
        "note": 41,
        "velocity": 64,
        "channel": 2
      },
      {
        "type": "note_off",
        "time": 0,
        "note": 57,
        "velocity": 64,
        "channel": 2
      },
      {
        "type": "note_off",
        "time": 0,
        "note": 60,
        "velocity": 64,
        "channel": 2
      },
      {
        "type": "note_off",
        "time": 0,
        "note": 65,
        "velocity": 64,
        "channel": 2
      },
      {
        "type": "control_change",
        "time": 168,
        "control": 64,
        "value": 0,
        "channel": 2
      },
      {
        "type": "note_on",
        "time": 8,
        "note": 41,
        "velocity": 127,
        "channel": 2
      },
      {
        "type": "control_change",
        "time": 8,
        "control": 64,
        "value": 127,
        "channel": 2
      },
      {
        "type": "note_off",
        "time": 8,
        "note": 41,
        "velocity": 64,
        "channel": 2
      },
      {
        "type": "note_on",
        "time": 176,
        "note": 57,
        "velocity": 127,
        "channel": 2
      },
      {
        "type": "note_on",
        "time": 0,
        "note": 60,
        "velocity": 127,
        "channel": 2
      },
      {
        "type": "note_on",
        "time": 0,
        "note": 65,
        "velocity": 127,
        "channel": 2
      },
      {
        "type": "note_off",
        "time": 16,
        "note": 57,
        "velocity": 64,
        "channel": 2
      },
      {
        "type": "note_off",
        "time": 0,
        "note": 60,
        "velocity": 64,
        "channel": 2
      },
      {
        "type": "note_off",
        "time": 0,
        "note": 65,
        "velocity": 64,
        "channel": 2
      },
      {
        "type": "note_on",
        "time": 176,
        "note": 57,
        "velocity": 127,
        "channel": 2
      },
      {
        "type": "note_on",
        "time": 0,
        "note": 60,
        "velocity": 127,
        "channel": 2
      },
      {
        "type": "note_on",
        "time": 0,
        "note": 65,
        "velocity": 127,
        "channel": 2
      },
      {
        "type": "note_off",
        "time": 16,
        "note": 57,
        "velocity": 64,
        "channel": 2
      },
      {
        "type": "note_off",
        "time": 0,
        "note": 60,
        "velocity": 64,
        "channel": 2
      },
      {
        "type": "note_off",
        "time": 0,
        "note": 65,
        "velocity": 64,
        "channel": 2
      },
      {
        "type": "note_on",
        "time": 176,
        "note": 41,
        "velocity": 127,
        "channel": 2
      },
      {
        "type": "note_on",
        "time": 0,
        "note": 57,
        "velocity": 127,
        "channel": 2
      },
      {
        "type": "note_on",
        "time": 0,
        "note": 60,
        "velocity": 127,
        "channel": 2
      },
      {
        "type": "note_on",
        "time": 0,
        "note": 65,
        "velocity": 127,
        "channel": 2
      },
      {
        "type": "note_off",
        "time": 16,
        "note": 41,
        "velocity": 64,
        "channel": 2
      },
      {
        "type": "note_off",
        "time": 0,
        "note": 57,
        "velocity": 64,
        "channel": 2
      },
      {
        "type": "note_off",
        "time": 0,
        "note": 60,
        "velocity": 64,
        "channel": 2
      },
      {
        "type": "note_off",
        "time": 0,
        "note": 65,
        "velocity": 64,
        "channel": 2
      },
      {
        "type": "control_change",
        "time": 168,
        "control": 64,
        "value": 0,
        "channel": 2
      },
      {
        "type": "note_on",
        "time": 8,
        "note": 40,
        "velocity": 127,
        "channel": 2
      },
      {
        "type": "control_change",
        "time": 8,
        "control": 64,
        "value": 127,
        "channel": 2
      },
      {
        "type": "note_off",
        "time": 8,
        "note": 40,
        "velocity": 64,
        "channel": 2
      },
      {
        "type": "note_on",
        "time": 176,
        "note": 55,
        "velocity": 127,
        "channel": 2
      },
      {
        "type": "note_on",
        "time": 0,
        "note": 59,
        "velocity": 127,
        "channel": 2
      },
      {
        "type": "note_on",
        "time": 0,
        "note": 62,
        "velocity": 127,
        "channel": 2
      },
      {
        "type": "note_off",
        "time": 16,
        "note": 55,
        "velocity": 64,
        "channel": 2
      },
      {
        "type": "note_off",
        "time": 0,
        "note": 59,
        "velocity": 64,
        "channel": 2
      },
      {
        "type": "note_off",
        "time": 0,
        "note": 62,
        "velocity": 64,
        "channel": 2
      },
      {
        "type": "note_on",
        "time": 176,
        "note": 55,
        "velocity": 127,
        "channel": 2
      },
      {
        "type": "note_on",
        "time": 0,
        "note": 59,
        "velocity": 127,
        "channel": 2
      },
      {
        "type": "note_on",
        "time": 0,
        "note": 62,
        "velocity": 127,
        "channel": 2
      },
      {
        "type": "note_off",
        "time": 16,
        "note": 55,
        "velocity": 64,
        "channel": 2
      },
      {
        "type": "note_off",
        "time": 0,
        "note": 59,
        "velocity": 64,
        "channel": 2
      },
      {
        "type": "note_off",
        "time": 0,
        "note": 62,
        "velocity": 64,
        "channel": 2
      },
      {
        "type": "note_on",
        "time": 176,
        "note": 40,
        "velocity": 127,
        "channel": 2
      },
      {
        "type": "note_on",
        "time": 0,
        "note": 55,
        "velocity": 127,
        "channel": 2
      },
      {
        "type": "note_on",
        "time": 0,
        "note": 59,
        "velocity": 127,
        "channel": 2
      },
      {
        "type": "note_on",
        "time": 0,
        "note": 62,
        "velocity": 127,
        "channel": 2
      },
      {
        "type": "note_off",
        "time": 16,
        "note": 40,
        "velocity": 64,
        "channel": 2
      },
      {
        "type": "note_off",
        "time": 0,
        "note": 55,
        "velocity": 64,
        "channel": 2
      },
      {
        "type": "note_off",
        "time": 0,
        "note": 59,
        "velocity": 64,
        "channel": 2
      },
      {
        "type": "note_off",
        "time": 0,
        "note": 62,
        "velocity": 64,
        "channel": 2
      },
      {
        "type": "control_change",
        "time": 168,
        "control": 64,
        "value": 0,
        "channel": 2
      },
      {
        "type": "note_on",
        "time": 8,
        "note": 45,
        "velocity": 127,
        "channel": 2
      },
      {
        "type": "control_change",
        "time": 8,
        "control": 64,
        "value": 127,
        "channel": 2
      },
      {
        "type": "note_off",
        "time": 8,
        "note": 45,
        "velocity": 64,
        "channel": 2
      },
      {
        "type": "note_on",
        "time": 176,
        "note": 55,
        "velocity": 127,
        "channel": 2
      },
      {
        "type": "note_on",
        "time": 0,
        "note": 61,
        "velocity": 127,
        "channel": 2
      },
      {
        "type": "note_on",
        "time": 0,
        "note": 64,
        "velocity": 127,
        "channel": 2
      },
      {
        "type": "note_off",
        "time": 16,
        "note": 55,
        "velocity": 64,
        "channel": 2
      },
      {
        "type": "note_off",
        "time": 0,
        "note": 61,
        "velocity": 64,
        "channel": 2
      },
      {
        "type": "note_off",
        "time": 0,
        "note": 64,
        "velocity": 64,
        "channel": 2
      },
      {
        "type": "note_on",
        "time": 176,
        "note": 55,
        "velocity": 127,
        "channel": 2
      },
      {
        "type": "note_on",
        "time": 0,
        "note": 61,
        "velocity": 127,
        "channel": 2
      },
      {
        "type": "note_on",
        "time": 0,
        "note": 64,
        "velocity": 127,
        "channel": 2
      },
      {
        "type": "note_off",
        "time": 16,
        "note": 55,
        "velocity": 64,
        "channel": 2
      },
      {
        "type": "note_off",
        "time": 0,
        "note": 61,
        "velocity": 64,
        "channel": 2
      },
      {
        "type": "note_off",
        "time": 0,
        "note": 64,
        "velocity": 64,
        "channel": 2
      },
      {
        "type": "note_on",
        "time": 176,
        "note": 45,
        "velocity": 127,
        "channel": 2
      },
      {
        "type": "note_on",
        "time": 0,
        "note": 55,
        "velocity": 127,
        "channel": 2
      },
      {
        "type": "note_on",
        "time": 0,
        "note": 61,
        "velocity": 127,
        "channel": 2
      },
      {
        "type": "note_on",
        "time": 0,
        "note": 64,
        "velocity": 127,
        "channel": 2
      },
      {
        "type": "note_off",
        "time": 16,
        "note": 45,
        "velocity": 64,
        "channel": 2
      },
      {
        "type": "note_off",
        "time": 0,
        "note": 55,
        "velocity": 64,
        "channel": 2
      },
      {
        "type": "note_off",
        "time": 0,
        "note": 61,
        "velocity": 64,
        "channel": 2
      },
      {
        "type": "note_off",
        "time": 0,
        "note": 64,
        "velocity": 64,
        "channel": 2
      },
      {
        "type": "note_on",
        "time": 168,
        "note": 50,
        "velocity": 127,
        "channel": 2
      },
      {
        "type": "control_change",
        "time": 0,
        "control": 64,
        "value": 0,
        "channel": 2
      },
      {
        "type": "note_on",
        "time": 4,
        "note": 57,
        "velocity": 127,
        "channel": 2
      },
      {
        "type": "note_on",
        "time": 4,
        "note": 62,
        "velocity": 127,
        "channel": 2
      },
      {
        "type": "note_on",
        "time": 4,
        "note": 65,
        "velocity": 127,
        "channel": 2
      },
      {
        "type": "note_off",
        "time": 4,
        "note": 50,
        "velocity": 64,
        "channel": 2
      },
      {
        "type": "control_change",
        "time": 0,
        "control": 64,
        "value": 127,
        "channel": 2
      },
      {
        "type": "note_off",
        "time": 4,
        "note": 57,
        "velocity": 64,
        "channel": 2
      },
      {
        "type": "note_off",
        "time": 4,
        "note": 62,
        "velocity": 64,
        "channel": 2
      },
      {
        "type": "note_off",
        "time": 4,
        "note": 65,
        "velocity": 64,
        "channel": 2
      },
      {
        "type": "note_on",
        "time": 352,
        "note": 48,
        "velocity": 127,
        "channel": 2
      },
      {
        "type": "note_on",
        "time": 8,
        "note": 60,
        "velocity": 127,
        "channel": 2
      },
      {
        "type": "note_on",
        "time": 4,
        "note": 64,
        "velocity": 127,
        "channel": 2
      },
      {
        "type": "note_off",
        "time": 4,
        "note": 48,
        "velocity": 64,
        "channel": 2
      },
      {
        "type": "note_on",
        "time": 0,
        "note": 55,
        "velocity": 127,
        "channel": 2
      },
      {
        "type": "note_off",
        "time": 8,
        "note": 60,
        "velocity": 64,
        "channel": 2
      },
      {
        "type": "note_off",
        "time": 4,
        "note": 64,
        "velocity": 64,
        "channel": 2
      },
      {
        "type": "note_off",
        "time": 4,
        "note": 55,
        "velocity": 64,
        "channel": 2
      },
      {
        "type": "note_on",
        "time": 356,
        "note": 46,
        "velocity": 127,
        "channel": 2
      },
      {
        "type": "control_change",
        "time": 0,
        "control": 64,
        "value": 0,
        "channel": 2
      },
      {
        "type": "note_on",
        "time": 8,
        "note": 53,
        "velocity": 127,
        "channel": 2
      },
      {
        "type": "note_on",
        "time": 4,
        "note": 58,
        "velocity": 127,
        "channel": 2
      },
      {
        "type": "note_on",
        "time": 0,
        "note": 62,
        "velocity": 127,
        "channel": 2
      },
      {
        "type": "note_off",
        "time": 4,
        "note": 46,
        "velocity": 64,
        "channel": 2
      },
      {
        "type": "control_change",
        "time": 0,
        "control": 64,
        "value": 127,
        "channel": 2
      },
      {
        "type": "note_off",
        "time": 8,
        "note": 53,
        "velocity": 64,
        "channel": 2
      },
      {
        "type": "note_off",
        "time": 4,
        "note": 58,
        "velocity": 64,
        "channel": 2
      },
      {
        "type": "note_off",
        "time": 0,
        "note": 62,
        "velocity": 64,
        "channel": 2
      },
      {
        "type": "note_on",
        "time": 352,
        "note": 45,
        "velocity": 127,
        "channel": 2
      },
      {
        "type": "note_on",
        "time": 8,
        "note": 53,
        "velocity": 127,
        "channel": 2
      },
      {
        "type": "note_off",
        "time": 8,
        "note": 45,
        "velocity": 64,
        "channel": 2
      },
      {
        "type": "note_on",
        "time": 0,
        "note": 57,
        "velocity": 127,
        "channel": 2
      },
      {
        "type": "note_on",
        "time": 0,
        "note": 60,
        "velocity": 127,
        "channel": 2
      },
      {
        "type": "note_off",
        "time": 8,
        "note": 53,
        "velocity": 64,
        "channel": 2
      },
      {
        "type": "note_off",
        "time": 8,
        "note": 57,
        "velocity": 64,
        "channel": 2
      },
      {
        "type": "note_off",
        "time": 0,
        "note": 60,
        "velocity": 64,
        "channel": 2
      },
      {
        "type": "control_change",
        "time": 356,
        "control": 64,
        "value": 0,
        "channel": 2
      },
      {
        "type": "note_on",
        "time": 8,
        "note": 43,
        "velocity": 127,
        "channel": 2
      },
      {
        "type": "control_change",
        "time": 8,
        "control": 64,
        "value": 127,
        "channel": 2
      },
      {
        "type": "note_off",
        "time": 8,
        "note": 43,
        "velocity": 64,
        "channel": 2
      },
      {
        "type": "note_on",
        "time": 176,
        "note": 55,
        "velocity": 127,
        "channel": 2
      },
      {
        "type": "note_on",
        "time": 0,
        "note": 58,
        "velocity": 127,
        "channel": 2
      },
      {
        "type": "note_on",
        "time": 0,
        "note": 62,
        "velocity": 127,
        "channel": 2
      },
      {
        "type": "note_off",
        "time": 16,
        "note": 55,
        "velocity": 64,
        "channel": 2
      },
      {
        "type": "note_off",
        "time": 0,
        "note": 58,
        "velocity": 64,
        "channel": 2
      },
      {
        "type": "note_off",
        "time": 0,
        "note": 62,
        "velocity": 64,
        "channel": 2
      },
      {
        "type": "note_on",
        "time": 176,
        "note": 55,
        "velocity": 127,
        "channel": 2
      },
      {
        "type": "note_on",
        "time": 0,
        "note": 58,
        "velocity": 127,
        "channel": 2
      },
      {
        "type": "note_on",
        "time": 0,
        "note": 62,
        "velocity": 127,
        "channel": 2
      },
      {
        "type": "note_off",
        "time": 16,
        "note": 55,
        "velocity": 64,
        "channel": 2
      },
      {
        "type": "note_off",
        "time": 0,
        "note": 58,
        "velocity": 64,
        "channel": 2
      },
      {
        "type": "note_off",
        "time": 0,
        "note": 62,
        "velocity": 64,
        "channel": 2
      },
      {
        "type": "note_on",
        "time": 176,
        "note": 43,
        "velocity": 127,
        "channel": 2
      },
      {
        "type": "note_on",
        "time": 0,
        "note": 55,
        "velocity": 127,
        "channel": 2
      },
      {
        "type": "note_on",
        "time": 0,
        "note": 58,
        "velocity": 127,
        "channel": 2
      },
      {
        "type": "note_on",
        "time": 0,
        "note": 62,
        "velocity": 127,
        "channel": 2
      },
      {
        "type": "note_off",
        "time": 16,
        "note": 43,
        "velocity": 64,
        "channel": 2
      },
      {
        "type": "note_off",
        "time": 0,
        "note": 55,
        "velocity": 64,
        "channel": 2
      },
      {
        "type": "note_off",
        "time": 0,
        "note": 58,
        "velocity": 64,
        "channel": 2
      },
      {
        "type": "note_off",
        "time": 0,
        "note": 62,
        "velocity": 64,
        "channel": 2
      },
      {
        "type": "control_change",
        "time": 168,
        "control": 64,
        "value": 0,
        "channel": 2
      },
      {
        "type": "note_on",
        "time": 8,
        "note": 48,
        "velocity": 127,
        "channel": 2
      },
      {
        "type": "control_change",
        "time": 8,
        "control": 64,
        "value": 127,
        "channel": 2
      },
      {
        "type": "note_off",
        "time": 8,
        "note": 48,
        "velocity": 64,
        "channel": 2
      },
      {
        "type": "note_on",
        "time": 176,
        "note": 55,
        "velocity": 127,
        "channel": 2
      },
      {
        "type": "note_on",
        "time": 0,
        "note": 58,
        "velocity": 127,
        "channel": 2
      },
      {
        "type": "note_on",
        "time": 0,
        "note": 60,
        "velocity": 127,
        "channel": 2
      },
      {
        "type": "note_on",
        "time": 0,
        "note": 64,
        "velocity": 127,
        "channel": 2
      },
      {
        "type": "note_off",
        "time": 16,
        "note": 55,
        "velocity": 64,
        "channel": 2
      },
      {
        "type": "note_off",
        "time": 0,
        "note": 58,
        "velocity": 64,
        "channel": 2
      },
      {
        "type": "note_off",
        "time": 0,
        "note": 60,
        "velocity": 64,
        "channel": 2
      },
      {
        "type": "note_off",
        "time": 0,
        "note": 64,
        "velocity": 64,
        "channel": 2
      },
      {
        "type": "note_on",
        "time": 176,
        "note": 55,
        "velocity": 127,
        "channel": 2
      },
      {
        "type": "note_on",
        "time": 0,
        "note": 58,
        "velocity": 127,
        "channel": 2
      },
      {
        "type": "note_on",
        "time": 0,
        "note": 60,
        "velocity": 127,
        "channel": 2
      },
      {
        "type": "note_on",
        "time": 0,
        "note": 64,
        "velocity": 127,
        "channel": 2
      },
      {
        "type": "note_off",
        "time": 16,
        "note": 55,
        "velocity": 64,
        "channel": 2
      },
      {
        "type": "note_off",
        "time": 0,
        "note": 58,
        "velocity": 64,
        "channel": 2
      },
      {
        "type": "note_off",
        "time": 0,
        "note": 60,
        "velocity": 64,
        "channel": 2
      },
      {
        "type": "note_off",
        "time": 0,
        "note": 64,
        "velocity": 64,
        "channel": 2
      },
      {
        "type": "note_on",
        "time": 176,
        "note": 48,
        "velocity": 127,
        "channel": 2
      },
      {
        "type": "note_on",
        "time": 0,
        "note": 55,
        "velocity": 127,
        "channel": 2
      },
      {
        "type": "note_on",
        "time": 0,
        "note": 58,
        "velocity": 127,
        "channel": 2
      },
      {
        "type": "note_on",
        "time": 0,
        "note": 60,
        "velocity": 127,
        "channel": 2
      },
      {
        "type": "note_on",
        "time": 0,
        "note": 64,
        "velocity": 127,
        "channel": 2
      },
      {
        "type": "note_off",
        "time": 16,
        "note": 48,
        "velocity": 64,
        "channel": 2
      },
      {
        "type": "note_off",
        "time": 0,
        "note": 55,
        "velocity": 64,
        "channel": 2
      },
      {
        "type": "note_off",
        "time": 0,
        "note": 58,
        "velocity": 64,
        "channel": 2
      },
      {
        "type": "note_off",
        "time": 0,
        "note": 60,
        "velocity": 64,
        "channel": 2
      },
      {
        "type": "note_off",
        "time": 0,
        "note": 64,
        "velocity": 64,
        "channel": 2
      },
      {
        "type": "control_change",
        "time": 168,
        "control": 64,
        "value": 0,
        "channel": 2
      },
      {
        "type": "note_on",
        "time": 8,
        "note": 41,
        "velocity": 127,
        "channel": 2
      },
      {
        "type": "note_on",
        "time": 0,
        "note": 57,
        "velocity": 127,
        "channel": 2
      },
      {
        "type": "note_on",
        "time": 0,
        "note": 60,
        "velocity": 127,
        "channel": 2
      },
      {
        "type": "control_change",
        "time": 8,
        "control": 64,
        "value": 127,
        "channel": 2
      },
      {
        "type": "note_off",
        "time": 8,
        "note": 41,
        "velocity": 64,
        "channel": 2
      },
      {
        "type": "note_off",
        "time": 32,
        "note": 57,
        "velocity": 64,
        "channel": 2
      },
      {
        "type": "note_off",
        "time": 0,
        "note": 60,
        "velocity": 64,
        "channel": 2
      },
      {
        "type": "note_on",
        "time": 48,
        "note": 65,
        "velocity": 127,
        "channel": 2
      },
      {
        "type": "note_off",
        "time": 48,
        "note": 65,
        "velocity": 64,
        "channel": 2
      },
      {
        "type": "control_change",
        "time": 616,
        "control": 64,
        "value": 0,
        "channel": 2
      },
      {
        "type": "control_change",
        "time": 16,
        "control": 64,
        "value": 127,
        "channel": 2
      },
      {
        "type": "control_change",
        "time": 752,
        "control": 64,
        "value": 0,
        "channel": 2
      },
      {
        "type": "note_on",
        "time": 8,
        "note": 41,
        "velocity": 127,
        "channel": 2
      },
      {
        "type": "control_change",
        "time": 8,
        "control": 64,
        "value": 127,
        "channel": 2
      },
      {
        "type": "note_off",
        "time": 8,
        "note": 41,
        "velocity": 64,
        "channel": 2
      },
      {
        "type": "note_on",
        "time": 176,
        "note": 60,
        "velocity": 127,
        "channel": 2
      },
      {
        "type": "note_on",
        "time": 0,
        "note": 65,
        "velocity": 127,
        "channel": 2
      },
      {
        "type": "note_off",
        "time": 16,
        "note": 60,
        "velocity": 64,
        "channel": 2
      },
      {
        "type": "note_off",
        "time": 0,
        "note": 65,
        "velocity": 64,
        "channel": 2
      },
      {
        "type": "note_on",
        "time": 176,
        "note": 60,
        "velocity": 127,
        "channel": 2
      },
      {
        "type": "note_on",
        "time": 0,
        "note": 65,
        "velocity": 127,
        "channel": 2
      },
      {
        "type": "note_off",
        "time": 16,
        "note": 60,
        "velocity": 64,
        "channel": 2
      },
      {
        "type": "note_off",
        "time": 0,
        "note": 65,
        "velocity": 64,
        "channel": 2
      },
      {
        "type": "note_on",
        "time": 176,
        "note": 60,
        "velocity": 127,
        "channel": 2
      },
      {
        "type": "note_on",
        "time": 0,
        "note": 65,
        "velocity": 127,
        "channel": 2
      },
      {
        "type": "note_off",
        "time": 16,
        "note": 60,
        "velocity": 64,
        "channel": 2
      },
      {
        "type": "note_off",
        "time": 0,
        "note": 65,
        "velocity": 64,
        "channel": 2
      },
      {
        "type": "control_change",
        "time": 168,
        "control": 64,
        "value": 0,
        "channel": 2
      },
      {
        "type": "note_on",
        "time": 8,
        "note": 41,
        "velocity": 127,
        "channel": 2
      },
      {
        "type": "control_change",
        "time": 8,
        "control": 64,
        "value": 127,
        "channel": 2
      },
      {
        "type": "note_off",
        "time": 8,
        "note": 41,
        "velocity": 64,
        "channel": 2
      },
      {
        "type": "note_on",
        "time": 176,
        "note": 60,
        "velocity": 127,
        "channel": 2
      },
      {
        "type": "note_on",
        "time": 0,
        "note": 65,
        "velocity": 127,
        "channel": 2
      },
      {
        "type": "note_off",
        "time": 16,
        "note": 60,
        "velocity": 64,
        "channel": 2
      },
      {
        "type": "note_off",
        "time": 0,
        "note": 65,
        "velocity": 64,
        "channel": 2
      },
      {
        "type": "note_on",
        "time": 176,
        "note": 60,
        "velocity": 127,
        "channel": 2
      },
      {
        "type": "note_on",
        "time": 0,
        "note": 65,
        "velocity": 127,
        "channel": 2
      },
      {
        "type": "note_off",
        "time": 16,
        "note": 60,
        "velocity": 64,
        "channel": 2
      },
      {
        "type": "note_off",
        "time": 0,
        "note": 65,
        "velocity": 64,
        "channel": 2
      },
      {
        "type": "note_on",
        "time": 176,
        "note": 50,
        "velocity": 127,
        "channel": 2
      },
      {
        "type": "note_on",
        "time": 0,
        "note": 60,
        "velocity": 127,
        "channel": 2
      },
      {
        "type": "note_on",
        "time": 0,
        "note": 65,
        "velocity": 127,
        "channel": 2
      },
      {
        "type": "note_off",
        "time": 16,
        "note": 50,
        "velocity": 64,
        "channel": 2
      },
      {
        "type": "note_off",
        "time": 0,
        "note": 60,
        "velocity": 64,
        "channel": 2
      },
      {
        "type": "note_off",
        "time": 0,
        "note": 65,
        "velocity": 64,
        "channel": 2
      },
      {
        "type": "control_change",
        "time": 168,
        "control": 64,
        "value": 0,
        "channel": 2
      },
      {
        "type": "note_on",
        "time": 8,
        "note": 40,
        "velocity": 127,
        "channel": 2
      },
      {
        "type": "control_change",
        "time": 8,
        "control": 64,
        "value": 127,
        "channel": 2
      },
      {
        "type": "note_off",
        "time": 8,
        "note": 40,
        "velocity": 64,
        "channel": 2
      },
      {
        "type": "note_on",
        "time": 176,
        "note": 55,
        "velocity": 127,
        "channel": 2
      },
      {
        "type": "note_on",
        "time": 0,
        "note": 58,
        "velocity": 127,
        "channel": 2
      },
      {
        "type": "note_on",
        "time": 0,
        "note": 62,
        "velocity": 127,
        "channel": 2
      },
      {
        "type": "note_off",
        "time": 16,
        "note": 55,
        "velocity": 64,
        "channel": 2
      },
      {
        "type": "note_off",
        "time": 0,
        "note": 58,
        "velocity": 64,
        "channel": 2
      },
      {
        "type": "note_off",
        "time": 0,
        "note": 62,
        "velocity": 64,
        "channel": 2
      },
      {
        "type": "note_on",
        "time": 176,
        "note": 55,
        "velocity": 127,
        "channel": 2
      },
      {
        "type": "note_on",
        "time": 0,
        "note": 58,
        "velocity": 127,
        "channel": 2
      },
      {
        "type": "note_on",
        "time": 0,
        "note": 62,
        "velocity": 127,
        "channel": 2
      },
      {
        "type": "note_off",
        "time": 16,
        "note": 55,
        "velocity": 64,
        "channel": 2
      },
      {
        "type": "note_off",
        "time": 0,
        "note": 58,
        "velocity": 64,
        "channel": 2
      },
      {
        "type": "note_off",
        "time": 0,
        "note": 62,
        "velocity": 64,
        "channel": 2
      },
      {
        "type": "note_on",
        "time": 176,
        "note": 40,
        "velocity": 127,
        "channel": 2
      },
      {
        "type": "note_on",
        "time": 0,
        "note": 55,
        "velocity": 127,
        "channel": 2
      },
      {
        "type": "note_on",
        "time": 0,
        "note": 58,
        "velocity": 127,
        "channel": 2
      },
      {
        "type": "note_on",
        "time": 0,
        "note": 62,
        "velocity": 127,
        "channel": 2
      },
      {
        "type": "note_off",
        "time": 16,
        "note": 40,
        "velocity": 64,
        "channel": 2
      },
      {
        "type": "note_off",
        "time": 0,
        "note": 55,
        "velocity": 64,
        "channel": 2
      },
      {
        "type": "note_off",
        "time": 0,
        "note": 58,
        "velocity": 64,
        "channel": 2
      },
      {
        "type": "note_off",
        "time": 0,
        "note": 62,
        "velocity": 64,
        "channel": 2
      },
      {
        "type": "control_change",
        "time": 168,
        "control": 64,
        "value": 0,
        "channel": 2
      },
      {
        "type": "note_on",
        "time": 8,
        "note": 45,
        "velocity": 127,
        "channel": 2
      },
      {
        "type": "control_change",
        "time": 8,
        "control": 64,
        "value": 127,
        "channel": 2
      },
      {
        "type": "note_off",
        "time": 8,
        "note": 45,
        "velocity": 64,
        "channel": 2
      },
      {
        "type": "note_on",
        "time": 176,
        "note": 55,
        "velocity": 127,
        "channel": 2
      },
      {
        "type": "note_on",
        "time": 0,
        "note": 61,
        "velocity": 127,
        "channel": 2
      },
      {
        "type": "note_on",
        "time": 0,
        "note": 64,
        "velocity": 127,
        "channel": 2
      },
      {
        "type": "note_off",
        "time": 16,
        "note": 55,
        "velocity": 64,
        "channel": 2
      },
      {
        "type": "note_off",
        "time": 0,
        "note": 61,
        "velocity": 64,
        "channel": 2
      },
      {
        "type": "note_off",
        "time": 0,
        "note": 64,
        "velocity": 64,
        "channel": 2
      },
      {
        "type": "note_on",
        "time": 176,
        "note": 55,
        "velocity": 127,
        "channel": 2
      },
      {
        "type": "note_on",
        "time": 0,
        "note": 61,
        "velocity": 127,
        "channel": 2
      },
      {
        "type": "note_on",
        "time": 0,
        "note": 64,
        "velocity": 127,
        "channel": 2
      },
      {
        "type": "note_off",
        "time": 16,
        "note": 55,
        "velocity": 64,
        "channel": 2
      },
      {
        "type": "note_off",
        "time": 0,
        "note": 61,
        "velocity": 64,
        "channel": 2
      },
      {
        "type": "note_off",
        "time": 0,
        "note": 64,
        "velocity": 64,
        "channel": 2
      },
      {
        "type": "note_on",
        "time": 176,
        "note": 45,
        "velocity": 127,
        "channel": 2
      },
      {
        "type": "note_on",
        "time": 0,
        "note": 55,
        "velocity": 127,
        "channel": 2
      },
      {
        "type": "note_on",
        "time": 0,
        "note": 61,
        "velocity": 127,
        "channel": 2
      },
      {
        "type": "note_on",
        "time": 0,
        "note": 64,
        "velocity": 127,
        "channel": 2
      },
      {
        "type": "note_off",
        "time": 16,
        "note": 45,
        "velocity": 64,
        "channel": 2
      },
      {
        "type": "note_off",
        "time": 0,
        "note": 55,
        "velocity": 64,
        "channel": 2
      },
      {
        "type": "note_off",
        "time": 0,
        "note": 61,
        "velocity": 64,
        "channel": 2
      },
      {
        "type": "note_off",
        "time": 0,
        "note": 64,
        "velocity": 64,
        "channel": 2
      },
      {
        "type": "control_change",
        "time": 168,
        "control": 64,
        "value": 0,
        "channel": 2
      },
      {
        "type": "note_on",
        "time": 8,
        "note": 50,
        "velocity": 127,
        "channel": 2
      },
      {
        "type": "control_change",
        "time": 8,
        "control": 64,
        "value": 127,
        "channel": 2
      },
      {
        "type": "note_off",
        "time": 8,
        "note": 50,
        "velocity": 64,
        "channel": 2
      },
      {
        "type": "note_on",
        "time": 176,
        "note": 57,
        "velocity": 127,
        "channel": 2
      },
      {
        "type": "note_on",
        "time": 0,
        "note": 62,
        "velocity": 127,
        "channel": 2
      },
      {
        "type": "note_on",
        "time": 0,
        "note": 65,
        "velocity": 127,
        "channel": 2
      },
      {
        "type": "note_off",
        "time": 16,
        "note": 57,
        "velocity": 64,
        "channel": 2
      },
      {
        "type": "note_off",
        "time": 0,
        "note": 62,
        "velocity": 64,
        "channel": 2
      },
      {
        "type": "note_off",
        "time": 0,
        "note": 65,
        "velocity": 64,
        "channel": 2
      },
      {
        "type": "note_on",
        "time": 176,
        "note": 57,
        "velocity": 127,
        "channel": 2
      },
      {
        "type": "note_on",
        "time": 0,
        "note": 62,
        "velocity": 127,
        "channel": 2
      },
      {
        "type": "note_on",
        "time": 0,
        "note": 65,
        "velocity": 127,
        "channel": 2
      },
      {
        "type": "note_off",
        "time": 16,
        "note": 57,
        "velocity": 64,
        "channel": 2
      },
      {
        "type": "note_off",
        "time": 0,
        "note": 62,
        "velocity": 64,
        "channel": 2
      },
      {
        "type": "note_off",
        "time": 0,
        "note": 65,
        "velocity": 64,
        "channel": 2
      },
      {
        "type": "note_on",
        "time": 176,
        "note": 50,
        "velocity": 127,
        "channel": 2
      },
      {
        "type": "note_on",
        "time": 0,
        "note": 57,
        "velocity": 127,
        "channel": 2
      },
      {
        "type": "note_on",
        "time": 0,
        "note": 62,
        "velocity": 127,
        "channel": 2
      },
      {
        "type": "note_on",
        "time": 0,
        "note": 65,
        "velocity": 127,
        "channel": 2
      },
      {
        "type": "note_off",
        "time": 16,
        "note": 50,
        "velocity": 64,
        "channel": 2
      },
      {
        "type": "note_off",
        "time": 0,
        "note": 57,
        "velocity": 64,
        "channel": 2
      },
      {
        "type": "note_off",
        "time": 0,
        "note": 62,
        "velocity": 64,
        "channel": 2
      },
      {
        "type": "note_off",
        "time": 0,
        "note": 65,
        "velocity": 64,
        "channel": 2
      },
      {
        "type": "control_change",
        "time": 168,
        "control": 64,
        "value": 0,
        "channel": 2
      },
      {
        "type": "note_on",
        "time": 8,
        "note": 50,
        "velocity": 127,
        "channel": 2
      },
      {
        "type": "control_change",
        "time": 8,
        "control": 64,
        "value": 127,
        "channel": 2
      },
      {
        "type": "note_off",
        "time": 8,
        "note": 50,
        "velocity": 64,
        "channel": 2
      },
      {
        "type": "note_on",
        "time": 176,
        "note": 57,
        "velocity": 127,
        "channel": 2
      },
      {
        "type": "note_on",
        "time": 0,
        "note": 62,
        "velocity": 127,
        "channel": 2
      },
      {
        "type": "note_on",
        "time": 0,
        "note": 65,
        "velocity": 127,
        "channel": 2
      },
      {
        "type": "note_off",
        "time": 16,
        "note": 57,
        "velocity": 64,
        "channel": 2
      },
      {
        "type": "note_off",
        "time": 0,
        "note": 62,
        "velocity": 64,
        "channel": 2
      },
      {
        "type": "note_off",
        "time": 0,
        "note": 65,
        "velocity": 64,
        "channel": 2
      },
      {
        "type": "note_on",
        "time": 176,
        "note": 48,
        "velocity": 127,
        "channel": 2
      },
      {
        "type": "note_off",
        "time": 16,
        "note": 48,
        "velocity": 64,
        "channel": 2
      },
      {
        "type": "note_on",
        "time": 176,
        "note": 55,
        "velocity": 127,
        "channel": 2
      },
      {
        "type": "note_on",
        "time": 0,
        "note": 60,
        "velocity": 127,
        "channel": 2
      },
      {
        "type": "note_on",
        "time": 0,
        "note": 64,
        "velocity": 127,
        "channel": 2
      },
      {
        "type": "note_off",
        "time": 16,
        "note": 55,
        "velocity": 64,
        "channel": 2
      },
      {
        "type": "note_off",
        "time": 0,
        "note": 60,
        "velocity": 64,
        "channel": 2
      },
      {
        "type": "note_off",
        "time": 0,
        "note": 64,
        "velocity": 64,
        "channel": 2
      },
      {
        "type": "control_change",
        "time": 168,
        "control": 64,
        "value": 0,
        "channel": 2
      },
      {
        "type": "note_on",
        "time": 8,
        "note": 46,
        "velocity": 127,
        "channel": 2
      },
      {
        "type": "control_change",
        "time": 8,
        "control": 64,
        "value": 127,
        "channel": 2
      },
      {
        "type": "note_off",
        "time": 8,
        "note": 46,
        "velocity": 64,
        "channel": 2
      },
      {
        "type": "note_on",
        "time": 176,
        "note": 53,
        "velocity": 127,
        "channel": 2
      },
      {
        "type": "note_on",
        "time": 0,
        "note": 58,
        "velocity": 127,
        "channel": 2
      },
      {
        "type": "note_on",
        "time": 0,
        "note": 62,
        "velocity": 127,
        "channel": 2
      },
      {
        "type": "note_off",
        "time": 16,
        "note": 53,
        "velocity": 64,
        "channel": 2
      },
      {
        "type": "note_off",
        "time": 0,
        "note": 58,
        "velocity": 64,
        "channel": 2
      },
      {
        "type": "note_off",
        "time": 0,
        "note": 62,
        "velocity": 64,
        "channel": 2
      },
      {
        "type": "note_on",
        "time": 176,
        "note": 53,
        "velocity": 127,
        "channel": 2
      },
      {
        "type": "note_on",
        "time": 0,
        "note": 58,
        "velocity": 127,
        "channel": 2
      },
      {
        "type": "note_on",
        "time": 0,
        "note": 62,
        "velocity": 127,
        "channel": 2
      },
      {
        "type": "note_off",
        "time": 16,
        "note": 53,
        "velocity": 64,
        "channel": 2
      },
      {
        "type": "note_off",
        "time": 0,
        "note": 58,
        "velocity": 64,
        "channel": 2
      },
      {
        "type": "note_off",
        "time": 0,
        "note": 62,
        "velocity": 64,
        "channel": 2
      },
      {
        "type": "note_on",
        "time": 176,
        "note": 46,
        "velocity": 127,
        "channel": 2
      },
      {
        "type": "note_on",
        "time": 0,
        "note": 53,
        "velocity": 127,
        "channel": 2
      },
      {
        "type": "note_on",
        "time": 0,
        "note": 58,
        "velocity": 127,
        "channel": 2
      },
      {
        "type": "note_on",
        "time": 0,
        "note": 62,
        "velocity": 127,
        "channel": 2
      },
      {
        "type": "note_off",
        "time": 16,
        "note": 46,
        "velocity": 64,
        "channel": 2
      },
      {
        "type": "note_off",
        "time": 0,
        "note": 53,
        "velocity": 64,
        "channel": 2
      },
      {
        "type": "note_off",
        "time": 0,
        "note": 58,
        "velocity": 64,
        "channel": 2
      },
      {
        "type": "note_off",
        "time": 0,
        "note": 62,
        "velocity": 64,
        "channel": 2
      },
      {
        "type": "control_change",
        "time": 168,
        "control": 64,
        "value": 0,
        "channel": 2
      },
      {
        "type": "note_on",
        "time": 8,
        "note": 48,
        "velocity": 127,
        "channel": 2
      },
      {
        "type": "control_change",
        "time": 8,
        "control": 64,
        "value": 127,
        "channel": 2
      },
      {
        "type": "note_off",
        "time": 8,
        "note": 48,
        "velocity": 64,
        "channel": 2
      },
      {
        "type": "note_on",
        "time": 176,
        "note": 58,
        "velocity": 127,
        "channel": 2
      },
      {
        "type": "note_on",
        "time": 0,
        "note": 60,
        "velocity": 127,
        "channel": 2
      },
      {
        "type": "note_on",
        "time": 0,
        "note": 64,
        "velocity": 127,
        "channel": 2
      },
      {
        "type": "note_off",
        "time": 16,
        "note": 58,
        "velocity": 64,
        "channel": 2
      },
      {
        "type": "note_off",
        "time": 0,
        "note": 60,
        "velocity": 64,
        "channel": 2
      },
      {
        "type": "note_off",
        "time": 0,
        "note": 64,
        "velocity": 64,
        "channel": 2
      },
      {
        "type": "note_on",
        "time": 176,
        "note": 58,
        "velocity": 127,
        "channel": 2
      },
      {
        "type": "note_on",
        "time": 0,
        "note": 60,
        "velocity": 127,
        "channel": 2
      },
      {
        "type": "note_on",
        "time": 0,
        "note": 64,
        "velocity": 127,
        "channel": 2
      },
      {
        "type": "note_off",
        "time": 16,
        "note": 58,
        "velocity": 64,
        "channel": 2
      },
      {
        "type": "note_off",
        "time": 0,
        "note": 60,
        "velocity": 64,
        "channel": 2
      },
      {
        "type": "note_off",
        "time": 0,
        "note": 64,
        "velocity": 64,
        "channel": 2
      },
      {
        "type": "note_on",
        "time": 176,
        "note": 48,
        "velocity": 127,
        "channel": 2
      },
      {
        "type": "note_on",
        "time": 0,
        "note": 58,
        "velocity": 127,
        "channel": 2
      },
      {
        "type": "note_on",
        "time": 0,
        "note": 60,
        "velocity": 127,
        "channel": 2
      },
      {
        "type": "note_on",
        "time": 0,
        "note": 64,
        "velocity": 127,
        "channel": 2
      },
      {
        "type": "note_off",
        "time": 16,
        "note": 48,
        "velocity": 64,
        "channel": 2
      },
      {
        "type": "note_off",
        "time": 0,
        "note": 58,
        "velocity": 64,
        "channel": 2
      },
      {
        "type": "note_off",
        "time": 0,
        "note": 60,
        "velocity": 64,
        "channel": 2
      },
      {
        "type": "note_off",
        "time": 0,
        "note": 64,
        "velocity": 64,
        "channel": 2
      },
      {
        "type": "control_change",
        "time": 168,
        "control": 64,
        "value": 0,
        "channel": 2
      },
      {
        "type": "note_on",
        "time": 8,
        "note": 41,
        "velocity": 127,
        "channel": 2
      },
      {
        "type": "control_change",
        "time": 8,
        "control": 64,
        "value": 127,
        "channel": 2
      },
      {
        "type": "note_off",
        "time": 8,
        "note": 41,
        "velocity": 64,
        "channel": 2
      },
      {
        "type": "note_on",
        "time": 176,
        "note": 57,
        "velocity": 127,
        "channel": 2
      },
      {
        "type": "note_on",
        "time": 0,
        "note": 60,
        "velocity": 127,
        "channel": 2
      },
      {
        "type": "note_on",
        "time": 0,
        "note": 65,
        "velocity": 127,
        "channel": 2
      },
      {
        "type": "note_off",
        "time": 16,
        "note": 57,
        "velocity": 64,
        "channel": 2
      },
      {
        "type": "note_off",
        "time": 0,
        "note": 60,
        "velocity": 64,
        "channel": 2
      },
      {
        "type": "note_off",
        "time": 0,
        "note": 65,
        "velocity": 64,
        "channel": 2
      },
      {
        "type": "note_on",
        "time": 176,
        "note": 57,
        "velocity": 127,
        "channel": 2
      },
      {
        "type": "note_on",
        "time": 0,
        "note": 60,
        "velocity": 127,
        "channel": 2
      },
      {
        "type": "note_on",
        "time": 0,
        "note": 65,
        "velocity": 127,
        "channel": 2
      },
      {
        "type": "note_off",
        "time": 16,
        "note": 57,
        "velocity": 64,
        "channel": 2
      },
      {
        "type": "note_off",
        "time": 0,
        "note": 60,
        "velocity": 64,
        "channel": 2
      },
      {
        "type": "note_off",
        "time": 0,
        "note": 65,
        "velocity": 64,
        "channel": 2
      },
      {
        "type": "note_on",
        "time": 176,
        "note": 41,
        "velocity": 127,
        "channel": 2
      },
      {
        "type": "note_on",
        "time": 0,
        "note": 57,
        "velocity": 127,
        "channel": 2
      },
      {
        "type": "note_on",
        "time": 0,
        "note": 60,
        "velocity": 127,
        "channel": 2
      },
      {
        "type": "note_on",
        "time": 0,
        "note": 65,
        "velocity": 127,
        "channel": 2
      },
      {
        "type": "note_off",
        "time": 16,
        "note": 41,
        "velocity": 64,
        "channel": 2
      },
      {
        "type": "note_off",
        "time": 0,
        "note": 57,
        "velocity": 64,
        "channel": 2
      },
      {
        "type": "note_off",
        "time": 0,
        "note": 60,
        "velocity": 64,
        "channel": 2
      },
      {
        "type": "note_off",
        "time": 0,
        "note": 65,
        "velocity": 64,
        "channel": 2
      },
      {
        "type": "control_change",
        "time": 168,
        "control": 64,
        "value": 0,
        "channel": 2
      },
      {
        "type": "note_on",
        "time": 8,
        "note": 41,
        "velocity": 127,
        "channel": 2
      },
      {
        "type": "control_change",
        "time": 8,
        "control": 64,
        "value": 127,
        "channel": 2
      },
      {
        "type": "note_off",
        "time": 8,
        "note": 41,
        "velocity": 64,
        "channel": 2
      },
      {
        "type": "note_on",
        "time": 176,
        "note": 57,
        "velocity": 127,
        "channel": 2
      },
      {
        "type": "note_on",
        "time": 0,
        "note": 60,
        "velocity": 127,
        "channel": 2
      },
      {
        "type": "note_on",
        "time": 0,
        "note": 65,
        "velocity": 127,
        "channel": 2
      },
      {
        "type": "note_off",
        "time": 16,
        "note": 57,
        "velocity": 64,
        "channel": 2
      },
      {
        "type": "note_off",
        "time": 0,
        "note": 60,
        "velocity": 64,
        "channel": 2
      },
      {
        "type": "note_off",
        "time": 0,
        "note": 65,
        "velocity": 64,
        "channel": 2
      },
      {
        "type": "note_on",
        "time": 176,
        "note": 40,
        "velocity": 127,
        "channel": 2
      },
      {
        "type": "note_off",
        "time": 16,
        "note": 40,
        "velocity": 64,
        "channel": 2
      },
      {
        "type": "note_on",
        "time": 176,
        "note": 57,
        "velocity": 127,
        "channel": 2
      },
      {
        "type": "note_on",
        "time": 0,
        "note": 60,
        "velocity": 127,
        "channel": 2
      },
      {
        "type": "note_on",
        "time": 0,
        "note": 64,
        "velocity": 127,
        "channel": 2
      },
      {
        "type": "note_off",
        "time": 16,
        "note": 57,
        "velocity": 64,
        "channel": 2
      },
      {
        "type": "note_off",
        "time": 0,
        "note": 60,
        "velocity": 64,
        "channel": 2
      },
      {
        "type": "note_off",
        "time": 0,
        "note": 64,
        "velocity": 64,
        "channel": 2
      },
      {
        "type": "control_change",
        "time": 168,
        "control": 64,
        "value": 0,
        "channel": 2
      },
      {
        "type": "note_on",
        "time": 8,
        "note": 50,
        "velocity": 127,
        "channel": 2
      },
      {
        "type": "control_change",
        "time": 8,
        "control": 64,
        "value": 127,
        "channel": 2
      },
      {
        "type": "note_off",
        "time": 8,
        "note": 50,
        "velocity": 64,
        "channel": 2
      },
      {
        "type": "note_on",
        "time": 176,
        "note": 57,
        "velocity": 127,
        "channel": 2
      },
      {
        "type": "note_on",
        "time": 0,
        "note": 62,
        "velocity": 127,
        "channel": 2
      },
      {
        "type": "note_on",
        "time": 0,
        "note": 65,
        "velocity": 127,
        "channel": 2
      },
      {
        "type": "note_off",
        "time": 16,
        "note": 57,
        "velocity": 64,
        "channel": 2
      },
      {
        "type": "note_off",
        "time": 0,
        "note": 62,
        "velocity": 64,
        "channel": 2
      },
      {
        "type": "note_off",
        "time": 0,
        "note": 65,
        "velocity": 64,
        "channel": 2
      },
      {
        "type": "note_on",
        "time": 176,
        "note": 57,
        "velocity": 127,
        "channel": 2
      },
      {
        "type": "note_on",
        "time": 0,
        "note": 62,
        "velocity": 127,
        "channel": 2
      },
      {
        "type": "note_on",
        "time": 0,
        "note": 65,
        "velocity": 127,
        "channel": 2
      },
      {
        "type": "note_off",
        "time": 16,
        "note": 57,
        "velocity": 64,
        "channel": 2
      },
      {
        "type": "note_off",
        "time": 0,
        "note": 62,
        "velocity": 64,
        "channel": 2
      },
      {
        "type": "note_off",
        "time": 0,
        "note": 65,
        "velocity": 64,
        "channel": 2
      },
      {
        "type": "note_on",
        "time": 176,
        "note": 50,
        "velocity": 127,
        "channel": 2
      },
      {
        "type": "note_on",
        "time": 0,
        "note": 57,
        "velocity": 127,
        "channel": 2
      },
      {
        "type": "note_on",
        "time": 0,
        "note": 62,
        "velocity": 127,
        "channel": 2
      },
      {
        "type": "note_on",
        "time": 0,
        "note": 65,
        "velocity": 127,
        "channel": 2
      },
      {
        "type": "note_off",
        "time": 16,
        "note": 50,
        "velocity": 64,
        "channel": 2
      },
      {
        "type": "note_off",
        "time": 0,
        "note": 57,
        "velocity": 64,
        "channel": 2
      },
      {
        "type": "note_off",
        "time": 0,
        "note": 62,
        "velocity": 64,
        "channel": 2
      },
      {
        "type": "note_off",
        "time": 0,
        "note": 65,
        "velocity": 64,
        "channel": 2
      },
      {
        "type": "control_change",
        "time": 168,
        "control": 64,
        "value": 0,
        "channel": 2
      },
      {
        "type": "note_on",
        "time": 8,
        "note": 43,
        "velocity": 127,
        "channel": 2
      },
      {
        "type": "control_change",
        "time": 8,
        "control": 64,
        "value": 127,
        "channel": 2
      },
      {
        "type": "note_off",
        "time": 8,
        "note": 43,
        "velocity": 64,
        "channel": 2
      },
      {
        "type": "note_on",
        "time": 176,
        "note": 55,
        "velocity": 127,
        "channel": 2
      },
      {
        "type": "note_on",
        "time": 0,
        "note": 59,
        "velocity": 127,
        "channel": 2
      },
      {
        "type": "note_on",
        "time": 0,
        "note": 62,
        "velocity": 127,
        "channel": 2
      },
      {
        "type": "note_off",
        "time": 16,
        "note": 55,
        "velocity": 64,
        "channel": 2
      },
      {
        "type": "note_off",
        "time": 0,
        "note": 59,
        "velocity": 64,
        "channel": 2
      },
      {
        "type": "note_off",
        "time": 0,
        "note": 62,
        "velocity": 64,
        "channel": 2
      },
      {
        "type": "note_on",
        "time": 176,
        "note": 55,
        "velocity": 127,
        "channel": 2
      },
      {
        "type": "note_on",
        "time": 0,
        "note": 59,
        "velocity": 127,
        "channel": 2
      },
      {
        "type": "note_on",
        "time": 0,
        "note": 62,
        "velocity": 127,
        "channel": 2
      },
      {
        "type": "note_off",
        "time": 16,
        "note": 55,
        "velocity": 64,
        "channel": 2
      },
      {
        "type": "note_off",
        "time": 0,
        "note": 59,
        "velocity": 64,
        "channel": 2
      },
      {
        "type": "note_off",
        "time": 0,
        "note": 62,
        "velocity": 64,
        "channel": 2
      },
      {
        "type": "note_on",
        "time": 176,
        "note": 43,
        "velocity": 127,
        "channel": 2
      },
      {
        "type": "note_on",
        "time": 0,
        "note": 55,
        "velocity": 127,
        "channel": 2
      },
      {
        "type": "note_on",
        "time": 0,
        "note": 59,
        "velocity": 127,
        "channel": 2
      },
      {
        "type": "note_on",
        "time": 0,
        "note": 62,
        "velocity": 127,
        "channel": 2
      },
      {
        "type": "note_off",
        "time": 16,
        "note": 43,
        "velocity": 64,
        "channel": 2
      },
      {
        "type": "note_off",
        "time": 0,
        "note": 55,
        "velocity": 64,
        "channel": 2
      },
      {
        "type": "note_off",
        "time": 0,
        "note": 59,
        "velocity": 64,
        "channel": 2
      },
      {
        "type": "note_off",
        "time": 0,
        "note": 62,
        "velocity": 64,
        "channel": 2
      },
      {
        "type": "control_change",
        "time": 168,
        "control": 64,
        "value": 0,
        "channel": 2
      },
      {
        "type": "note_on",
        "time": 8,
        "note": 46,
        "velocity": 127,
        "channel": 2
      },
      {
        "type": "control_change",
        "time": 8,
        "control": 64,
        "value": 127,
        "channel": 2
      },
      {
        "type": "note_off",
        "time": 8,
        "note": 46,
        "velocity": 64,
        "channel": 2
      },
      {
        "type": "note_on",
        "time": 176,
        "note": 53,
        "velocity": 127,
        "channel": 2
      },
      {
        "type": "note_on",
        "time": 0,
        "note": 58,
        "velocity": 127,
        "channel": 2
      },
      {
        "type": "note_on",
        "time": 0,
        "note": 62,
        "velocity": 127,
        "channel": 2
      },
      {
        "type": "note_off",
        "time": 16,
        "note": 53,
        "velocity": 64,
        "channel": 2
      },
      {
        "type": "note_off",
        "time": 0,
        "note": 58,
        "velocity": 64,
        "channel": 2
      },
      {
        "type": "note_off",
        "time": 0,
        "note": 62,
        "velocity": 64,
        "channel": 2
      },
      {
        "type": "note_on",
        "time": 176,
        "note": 41,
        "velocity": 127,
        "channel": 2
      },
      {
        "type": "note_off",
        "time": 16,
        "note": 41,
        "velocity": 64,
        "channel": 2
      },
      {
        "type": "note_on",
        "time": 176,
        "note": 41,
        "velocity": 127,
        "channel": 2
      },
      {
        "type": "note_on",
        "time": 0,
        "note": 53,
        "velocity": 127,
        "channel": 2
      },
      {
        "type": "note_on",
        "time": 0,
        "note": 57,
        "velocity": 127,
        "channel": 2
      },
      {
        "type": "note_on",
        "time": 0,
        "note": 60,
        "velocity": 127,
        "channel": 2
      },
      {
        "type": "note_off",
        "time": 16,
        "note": 41,
        "velocity": 64,
        "channel": 2
      },
      {
        "type": "note_off",
        "time": 16,
        "note": 53,
        "velocity": 64,
        "channel": 2
      },
      {
        "type": "note_off",
        "time": 0,
        "note": 57,
        "velocity": 64,
        "channel": 2
      },
      {
        "type": "note_off",
        "time": 0,
        "note": 60,
        "velocity": 64,
        "channel": 2
      },
      {
        "type": "control_change",
        "time": 152,
        "control": 64,
        "value": 0,
        "channel": 2
      },
      {
        "type": "control_change",
        "time": 16,
        "control": 64,
        "value": 127,
        "channel": 2
      },
      {
        "type": "control_change",
        "time": 752,
        "control": 64,
        "value": 0,
        "channel": 2
      },
      {
        "type": "note_on",
        "time": 8,
        "note": 41,
        "velocity": 127,
        "channel": 2
      },
      {
        "type": "control_change",
        "time": 8,
        "control": 64,
        "value": 127,
        "channel": 2
      },
      {
        "type": "note_off",
        "time": 8,
        "note": 41,
        "velocity": 64,
        "channel": 2
      },
      {
        "type": "note_on",
        "time": 176,
        "note": 57,
        "velocity": 127,
        "channel": 2
      },
      {
        "type": "note_on",
        "time": 0,
        "note": 60,
        "velocity": 127,
        "channel": 2
      },
      {
        "type": "note_off",
        "time": 16,
        "note": 57,
        "velocity": 64,
        "channel": 2
      },
      {
        "type": "note_off",
        "time": 0,
        "note": 60,
        "velocity": 64,
        "channel": 2
      },
      {
        "type": "note_on",
        "time": 176,
        "note": 57,
        "velocity": 127,
        "channel": 2
      },
      {
        "type": "note_on",
        "time": 0,
        "note": 60,
        "velocity": 127,
        "channel": 2
      },
      {
        "type": "note_on",
        "time": 0,
        "note": 65,
        "velocity": 127,
        "channel": 2
      },
      {
        "type": "note_off",
        "time": 16,
        "note": 57,
        "velocity": 64,
        "channel": 2
      },
      {
        "type": "note_off",
        "time": 0,
        "note": 60,
        "velocity": 64,
        "channel": 2
      },
      {
        "type": "note_off",
        "time": 0,
        "note": 65,
        "velocity": 64,
        "channel": 2
      },
      {
        "type": "note_on",
        "time": 176,
        "note": 41,
        "velocity": 127,
        "channel": 2
      },
      {
        "type": "note_on",
        "time": 0,
        "note": 57,
        "velocity": 127,
        "channel": 2
      },
      {
        "type": "note_on",
        "time": 0,
        "note": 60,
        "velocity": 127,
        "channel": 2
      },
      {
        "type": "note_on",
        "time": 0,
        "note": 65,
        "velocity": 127,
        "channel": 2
      },
      {
        "type": "note_off",
        "time": 16,
        "note": 41,
        "velocity": 64,
        "channel": 2
      },
      {
        "type": "note_off",
        "time": 0,
        "note": 57,
        "velocity": 64,
        "channel": 2
      },
      {
        "type": "note_off",
        "time": 0,
        "note": 60,
        "velocity": 64,
        "channel": 2
      },
      {
        "type": "note_off",
        "time": 0,
        "note": 65,
        "velocity": 64,
        "channel": 2
      },
      {
        "type": "control_change",
        "time": 168,
        "control": 64,
        "value": 0,
        "channel": 2
      },
      {
        "type": "note_on",
        "time": 8,
        "note": 43,
        "velocity": 127,
        "channel": 2
      },
      {
        "type": "control_change",
        "time": 8,
        "control": 64,
        "value": 127,
        "channel": 2
      },
      {
        "type": "note_off",
        "time": 8,
        "note": 43,
        "velocity": 64,
        "channel": 2
      },
      {
        "type": "note_on",
        "time": 176,
        "note": 55,
        "velocity": 127,
        "channel": 2
      },
      {
        "type": "note_on",
        "time": 0,
        "note": 59,
        "velocity": 127,
        "channel": 2
      },
      {
        "type": "note_on",
        "time": 0,
        "note": 62,
        "velocity": 127,
        "channel": 2
      },
      {
        "type": "note_off",
        "time": 16,
        "note": 55,
        "velocity": 64,
        "channel": 2
      },
      {
        "type": "note_off",
        "time": 0,
        "note": 59,
        "velocity": 64,
        "channel": 2
      },
      {
        "type": "note_off",
        "time": 0,
        "note": 62,
        "velocity": 64,
        "channel": 2
      },
      {
        "type": "note_on",
        "time": 176,
        "note": 55,
        "velocity": 127,
        "channel": 2
      },
      {
        "type": "note_on",
        "time": 0,
        "note": 59,
        "velocity": 127,
        "channel": 2
      },
      {
        "type": "note_on",
        "time": 0,
        "note": 62,
        "velocity": 127,
        "channel": 2
      },
      {
        "type": "note_off",
        "time": 16,
        "note": 55,
        "velocity": 64,
        "channel": 2
      },
      {
        "type": "note_off",
        "time": 0,
        "note": 59,
        "velocity": 64,
        "channel": 2
      },
      {
        "type": "note_off",
        "time": 0,
        "note": 62,
        "velocity": 64,
        "channel": 2
      },
      {
        "type": "note_on",
        "time": 176,
        "note": 43,
        "velocity": 127,
        "channel": 2
      },
      {
        "type": "note_on",
        "time": 0,
        "note": 55,
        "velocity": 127,
        "channel": 2
      },
      {
        "type": "note_on",
        "time": 0,
        "note": 59,
        "velocity": 127,
        "channel": 2
      },
      {
        "type": "note_on",
        "time": 0,
        "note": 62,
        "velocity": 127,
        "channel": 2
      },
      {
        "type": "note_off",
        "time": 16,
        "note": 43,
        "velocity": 64,
        "channel": 2
      },
      {
        "type": "note_off",
        "time": 0,
        "note": 55,
        "velocity": 64,
        "channel": 2
      },
      {
        "type": "note_off",
        "time": 0,
        "note": 59,
        "velocity": 64,
        "channel": 2
      },
      {
        "type": "note_off",
        "time": 0,
        "note": 62,
        "velocity": 64,
        "channel": 2
      },
      {
        "type": "control_change",
        "time": 112,
        "control": 64,
        "value": 0,
        "channel": 2
      },
      {
        "type": "control_change",
        "time": 20,
        "control": 64,
        "value": 127,
        "channel": 2
      },
      {
        "type": "note_on",
        "time": 24,
        "note": 46,
        "velocity": 127,
        "channel": 2
      },
      {
        "type": "note_off",
        "time": 16,
        "note": 46,
        "velocity": 64,
        "channel": 2
      },
      {
        "type": "note_on",
        "time": 4,
        "note": 53,
        "velocity": 127,
        "channel": 2
      },
      {
        "type": "note_off",
        "time": 16,
        "note": 53,
        "velocity": 64,
        "channel": 2
      },
      {
        "type": "note_on",
        "time": 8,
        "note": 58,
        "velocity": 127,
        "channel": 2
      },
      {
        "type": "note_off",
        "time": 16,
        "note": 58,
        "velocity": 64,
        "channel": 2
      },
      {
        "type": "note_on",
        "time": 20,
        "note": 62,
        "velocity": 127,
        "channel": 2
      },
      {
        "type": "note_off",
        "time": 16,
        "note": 62,
        "velocity": 64,
        "channel": 2
      },
      {
        "type": "note_on",
        "time": 116,
        "note": 41,
        "velocity": 127,
        "channel": 2
      },
      {
        "type": "note_off",
        "time": 16,
        "note": 41,
        "velocity": 64,
        "channel": 2
      },
      {
        "type": "note_on",
        "time": 144,
        "note": 41,
        "velocity": 127,
        "channel": 2
      },
      {
        "type": "note_off",
        "time": 16,
        "note": 41,
        "velocity": 64,
        "channel": 2
      },
      {
        "type": "note_on",
        "time": 8,
        "note": 53,
        "velocity": 127,
        "channel": 2
      },
      {
        "type": "note_off",
        "time": 16,
        "note": 53,
        "velocity": 64,
        "channel": 2
      },
      {
        "type": "note_on",
        "time": 4,
        "note": 57,
        "velocity": 127,
        "channel": 2
      },
      {
        "type": "note_on",
        "time": 12,
        "note": 60,
        "velocity": 127,
        "channel": 2
      },
      {
        "type": "note_off",
        "time": 4,
        "note": 57,
        "velocity": 64,
        "channel": 2
      },
      {
        "type": "note_off",
        "time": 12,
        "note": 60,
        "velocity": 64,
        "channel": 2
      },
      {
        "type": "note_on",
        "time": 124,
        "note": 65,
        "velocity": 127,
        "channel": 2
      },
      {
        "type": "note_on",
        "time": 12,
        "note": 60,
        "velocity": 127,
        "channel": 2
      },
      {
        "type": "note_on",
        "time": 16,
        "note": 57,
        "velocity": 127,
        "channel": 2
      },
      {
        "type": "note_off",
        "time": 12,
        "note": 65,
        "velocity": 64,
        "channel": 2
      },
      {
        "type": "note_on",
        "time": 0,
        "note": 53,
        "velocity": 127,
        "channel": 2
      },
      {
        "type": "note_off",
        "time": 4,
        "note": 60,
        "velocity": 64,
        "channel": 2
      },
      {
        "type": "note_off",
        "time": 20,
        "note": 57,
        "velocity": 64,
        "channel": 2
      },
      {
        "type": "note_off",
        "time": 4,
        "note": 53,
        "velocity": 64,
        "channel": 2
      },
      {
        "type": "control_change",
        "time": 528,
        "control": 64,
        "value": 0,
        "channel": 2
      },
      {
        "type": "end_of_track",
        "time": 0
      }
    ],
    [
      {
        "type": "track_name",
        "name": "Bass",
        "time": 0
      },
      {
        "type": "control_change",
        "time": 0,
        "control": 0,
        "value": 0,
        "channel": 3
      },
      {
        "type": "program_change",
        "time": 0,
        "program": 32,
        "channel": 3
      },
      {
        "type": "control_change",
        "time": 0,
        "control": 7,
        "value": 121,
        "channel": 3
      },
      {
        "type": "control_change",
        "time": 0,
        "control": 10,
        "value": 64,
        "channel": 3
      },
      {
        "type": "key_signature",
        "key": "C",
        "time": 0
      },
      {
        "type": "note_on",
        "time": 0,
        "note": 41,
        "velocity": 127,
        "channel": 3
      },
      {
        "type": "note_off",
        "time": 656,
        "note": 41,
        "velocity": 64,
        "channel": 3
      },
      {
        "type": "note_on",
        "time": 116,
        "note": 41,
        "velocity": 107,
        "channel": 3
      },
      {
        "type": "note_off",
        "time": 640,
        "note": 41,
        "velocity": 64,
        "channel": 3
      },
      {
        "type": "note_on",
        "time": 124,
        "note": 41,
        "velocity": 123,
        "channel": 3
      },
      {
        "type": "note_off",
        "time": 640,
        "note": 41,
        "velocity": 64,
        "channel": 3
      },
      {
        "type": "note_on",
        "time": 128,
        "note": 41,
        "velocity": 123,
        "channel": 3
      },
      {
        "type": "note_off",
        "time": 464,
        "note": 41,
        "velocity": 64,
        "channel": 3
      },
      {
        "type": "note_on",
        "time": 116,
        "note": 38,
        "velocity": 127,
        "channel": 3
      },
      {
        "type": "note_off",
        "time": 160,
        "note": 38,
        "velocity": 64,
        "channel": 3
      },
      {
        "type": "note_on",
        "time": 28,
        "note": 40,
        "velocity": 127,
        "channel": 3
      },
      {
        "type": "note_off",
        "time": 480,
        "note": 40,
        "velocity": 64,
        "channel": 3
      },
      {
        "type": "note_on",
        "time": 96,
        "note": 40,
        "velocity": 127,
        "channel": 3
      },
      {
        "type": "note_off",
        "time": 192,
        "note": 40,
        "velocity": 64,
        "channel": 3
      },
      {
        "type": "note_on",
        "time": 0,
        "note": 45,
        "velocity": 99,
        "channel": 3
      },
      {
        "type": "note_off",
        "time": 480,
        "note": 45,
        "velocity": 64,
        "channel": 3
      },
      {
        "type": "note_on",
        "time": 96,
        "note": 45,
        "velocity": 71,
        "channel": 3
      },
      {
        "type": "note_off",
        "time": 192,
        "note": 45,
        "velocity": 64,
        "channel": 3
      },
      {
        "type": "note_on",
        "time": 0,
        "note": 50,
        "velocity": 95,
        "channel": 3
      },
      {
        "type": "note_off",
        "time": 720,
        "note": 50,
        "velocity": 64,
        "channel": 3
      },
      {
        "type": "note_on",
        "time": 48,
        "note": 50,
        "velocity": 95,
        "channel": 3
      },
      {
        "type": "note_off",
        "time": 368,
        "note": 50,
        "velocity": 64,
        "channel": 3
      },
      {
        "type": "note_on",
        "time": 16,
        "note": 48,
        "velocity": 123,
        "channel": 3
      },
      {
        "type": "note_off",
        "time": 384,
        "note": 48,
        "velocity": 64,
        "channel": 3
      },
      {
        "type": "note_on",
        "time": 0,
        "note": 46,
        "velocity": 107,
        "channel": 3
      },
      {
        "type": "note_off",
        "time": 464,
        "note": 46,
        "velocity": 64,
        "channel": 3
      },
      {
        "type": "note_on",
        "time": 112,
        "note": 46,
        "velocity": 103,
        "channel": 3
      },
      {
        "type": "note_off",
        "time": 192,
        "note": 46,
        "velocity": 64,
        "channel": 3
      },
      {
        "type": "note_on",
        "time": 0,
        "note": 48,
        "velocity": 103,
        "channel": 3
      },
      {
        "type": "note_off",
        "time": 480,
        "note": 48,
        "velocity": 64,
        "channel": 3
      },
      {
        "type": "note_on",
        "time": 96,
        "note": 48,
        "velocity": 107,
        "channel": 3
      },
      {
        "type": "note_on",
        "time": 192,
        "note": 41,
        "velocity": 115,
        "channel": 3
      },
      {
        "type": "note_off",
        "time": 16,
        "note": 48,
        "velocity": 64,
        "channel": 3
      },
      {
        "type": "note_off",
        "time": 528,
        "note": 41,
        "velocity": 64,
        "channel": 3
      },
      {
        "type": "note_on",
        "time": 32,
        "note": 41,
        "velocity": 63,
        "channel": 3
      },
      {
        "type": "note_off",
        "time": 128,
        "note": 41,
        "velocity": 64,
        "channel": 3
      },
      {
        "type": "note_on",
        "time": 64,
        "note": 41,
        "velocity": 115,
        "channel": 3
      },
      {
        "type": "note_off",
        "time": 384,
        "note": 41,
        "velocity": 64,
        "channel": 3
      },
      {
        "type": "note_on",
        "time": 0,
        "note": 40,
        "velocity": 127,
        "channel": 3
      },
      {
        "type": "note_on",
        "time": 388,
        "note": 38,
        "velocity": 127,
        "channel": 3
      },
      {
        "type": "note_off",
        "time": 12,
        "note": 40,
        "velocity": 64,
        "channel": 3
      },
      {
        "type": "note_off",
        "time": 500,
        "note": 38,
        "velocity": 64,
        "channel": 3
      },
      {
        "type": "note_on",
        "time": 64,
        "note": 38,
        "velocity": 123,
        "channel": 3
      },
      {
        "type": "note_off",
        "time": 176,
        "note": 38,
        "velocity": 64,
        "channel": 3
      },
      {
        "type": "note_on",
        "time": 12,
        "note": 43,
        "velocity": 95,
        "channel": 3
      },
      {
        "type": "note_off",
        "time": 480,
        "note": 43,
        "velocity": 64,
        "channel": 3
      },
      {
        "type": "note_on",
        "time": 96,
        "note": 43,
        "velocity": 103,
        "channel": 3
      },
      {
        "type": "note_off",
        "time": 160,
        "note": 43,
        "velocity": 64,
        "channel": 3
      },
      {
        "type": "note_on",
        "time": 32,
        "note": 46,
        "velocity": 115,
        "channel": 3
      },
      {
        "type": "note_off",
        "time": 304,
        "note": 46,
        "velocity": 64,
        "channel": 3
      },
      {
        "type": "note_on",
        "time": 80,
        "note": 41,
        "velocity": 107,
        "channel": 3
      },
      {
        "type": "note_off",
        "time": 64,
        "note": 41,
        "velocity": 64,
        "channel": 3
      },
      {
        "type": "note_on",
        "time": 128,
        "note": 41,
        "velocity": 115,
        "channel": 3
      },
      {
        "type": "note_off",
        "time": 832,
        "note": 41,
        "velocity": 64,
        "channel": 3
      },
      {
        "type": "note_on",
        "time": 128,
        "note": 41,
        "velocity": 127,
        "channel": 3
      },
      {
        "type": "note_off",
        "time": 640,
        "note": 41,
        "velocity": 64,
        "channel": 3
      },
      {
        "type": "note_on",
        "time": 132,
        "note": 41,
        "velocity": 127,
        "channel": 3
      },
      {
        "type": "note_off",
        "time": 560,
        "note": 41,
        "velocity": 64,
        "channel": 3
      },
      {
        "type": "note_on",
        "time": 16,
        "note": 38,
        "velocity": 127,
        "channel": 3
      },
      {
        "type": "note_on",
        "time": 192,
        "note": 40,
        "velocity": 127,
        "channel": 3
      },
      {
        "type": "note_off",
        "time": 16,
        "note": 38,
        "velocity": 64,
        "channel": 3
      },
      {
        "type": "note_off",
        "time": 496,
        "note": 40,
        "velocity": 64,
        "channel": 3
      },
      {
        "type": "note_on",
        "time": 64,
        "note": 40,
        "velocity": 127,
        "channel": 3
      },
      {
        "type": "note_off",
        "time": 176,
        "note": 40,
        "velocity": 64,
        "channel": 3
      },
      {
        "type": "note_on",
        "time": 24,
        "note": 45,
        "velocity": 103,
        "channel": 3
      },
      {
        "type": "note_off",
        "time": 480,
        "note": 45,
        "velocity": 64,
        "channel": 3
      },
      {
        "type": "note_on",
        "time": 84,
        "note": 45,
        "velocity": 91,
        "channel": 3
      },
      {
        "type": "note_off",
        "time": 192,
        "note": 45,
        "velocity": 64,
        "channel": 3
      },
      {
        "type": "note_on",
        "time": 4,
        "note": 50,
        "velocity": 95,
        "channel": 3
      },
      {
        "type": "note_off",
        "time": 480,
        "note": 50,
        "velocity": 64,
        "channel": 3
      },
      {
        "type": "note_on",
        "time": 92,
        "note": 50,
        "velocity": 67,
        "channel": 3
      },
      {
        "type": "note_off",
        "time": 112,
        "note": 50,
        "velocity": 64,
        "channel": 3
      },
      {
        "type": "note_on",
        "time": 80,
        "note": 50,
        "velocity": 91,
        "channel": 3
      },
      {
        "type": "note_on",
        "time": 384,
        "note": 48,
        "velocity": 123,
        "channel": 3
      },
      {
        "type": "note_off",
        "time": 16,
        "note": 50,
        "velocity": 64,
        "channel": 3
      },
      {
        "type": "note_on",
        "time": 368,
        "note": 46,
        "velocity": 123,
        "channel": 3
      },
      {
        "type": "note_off",
        "time": 16,
        "note": 48,
        "velocity": 64,
        "channel": 3
      },
      {
        "type": "note_off",
        "time": 448,
        "note": 46,
        "velocity": 64,
        "channel": 3
      },
      {
        "type": "note_on",
        "time": 112,
        "note": 46,
        "velocity": 115,
        "channel": 3
      },
      {
        "type": "note_off",
        "time": 176,
        "note": 46,
        "velocity": 64,
        "channel": 3
      },
      {
        "type": "note_on",
        "time": 20,
        "note": 48,
        "velocity": 107,
        "channel": 3
      },
      {
        "type": "note_off",
        "time": 448,
        "note": 48,
        "velocity": 64,
        "channel": 3
      },
      {
        "type": "note_on",
        "time": 128,
        "note": 48,
        "velocity": 95,
        "channel": 3
      },
      {
        "type": "note_on",
        "time": 192,
        "note": 41,
        "velocity": 123,
        "channel": 3
      },
      {
        "type": "note_off",
        "time": 16,
        "note": 48,
        "velocity": 64,
        "channel": 3
      },
      {
        "type": "note_off",
        "time": 496,
        "note": 41,
        "velocity": 64,
        "channel": 3
      },
      {
        "type": "note_on",
        "time": 60,
        "note": 41,
        "velocity": 107,
        "channel": 3
      },
      {
        "type": "note_off",
        "time": 112,
        "note": 41,
        "velocity": 64,
        "channel": 3
      },
      {
        "type": "note_on",
        "time": 84,
        "note": 41,
        "velocity": 103,
        "channel": 3
      },
      {
        "type": "note_off",
        "time": 368,
        "note": 41,
        "velocity": 64,
        "channel": 3
      },
      {
        "type": "note_on",
        "time": 12,
        "note": 40,
        "velocity": 127,
        "channel": 3
      },
      {
        "type": "note_off",
        "time": 384,
        "note": 40,
        "velocity": 64,
        "channel": 3
      },
      {
        "type": "note_on",
        "time": 4,
        "note": 38,
        "velocity": 127,
        "channel": 3
      },
      {
        "type": "note_off",
        "time": 464,
        "note": 38,
        "velocity": 64,
        "channel": 3
      },
      {
        "type": "note_on",
        "time": 112,
        "note": 38,
        "velocity": 127,
        "channel": 3
      },
      {
        "type": "note_off",
        "time": 160,
        "note": 38,
        "velocity": 64,
        "channel": 3
      },
      {
        "type": "note_on",
        "time": 28,
        "note": 43,
        "velocity": 127,
        "channel": 3
      },
      {
        "type": "note_off",
        "time": 496,
        "note": 43,
        "velocity": 64,
        "channel": 3
      },
      {
        "type": "note_on",
        "time": 80,
        "note": 43,
        "velocity": 103,
        "channel": 3
      },
      {
        "type": "note_on",
        "time": 196,
        "note": 46,
        "velocity": 123,
        "channel": 3
      },
      {
        "type": "note_off",
        "time": 28,
        "note": 43,
        "velocity": 64,
        "channel": 3
      },
      {
        "type": "note_off",
        "time": 324,
        "note": 46,
        "velocity": 64,
        "channel": 3
      },
      {
        "type": "note_on",
        "time": 32,
        "note": 41,
        "velocity": 103,
        "channel": 3
      },
      {
        "type": "note_off",
        "time": 48,
        "note": 41,
        "velocity": 64,
        "channel": 3
      },
      {
        "type": "note_on",
        "time": 140,
        "note": 41,
        "velocity": 127,
        "channel": 3
      },
      {
        "type": "note_on",
        "time": 964,
        "note": 40,
        "velocity": 127,
        "channel": 3
      },
      {
        "type": "note_off",
        "time": 28,
        "note": 41,
        "velocity": 64,
        "channel": 3
      },
      {
        "type": "note_off",
        "time": 436,
        "note": 40,
        "velocity": 64,
        "channel": 3
      },
      {
        "type": "note_on",
        "time": 112,
        "note": 40,
        "velocity": 103,
        "channel": 3
      },
      {
        "type": "note_on",
        "time": 192,
        "note": 45,
        "velocity": 123,
        "channel": 3
      },
      {
        "type": "note_off",
        "time": 16,
        "note": 40,
        "velocity": 64,
        "channel": 3
      },
      {
        "type": "note_off",
        "time": 464,
        "note": 45,
        "velocity": 64,
        "channel": 3
      },
      {
        "type": "note_on",
        "time": 92,
        "note": 45,
        "velocity": 91,
        "channel": 3
      },
      {
        "type": "note_off",
        "time": 192,
        "note": 45,
        "velocity": 64,
        "channel": 3
      },
      {
        "type": "note_on",
        "time": 4,
        "note": 50,
        "velocity": 99,
        "channel": 3
      },
      {
        "type": "note_off",
        "time": 352,
        "note": 50,
        "velocity": 64,
        "channel": 3
      },
      {
        "type": "note_on",
        "time": 28,
        "note": 48,
        "velocity": 123,
        "channel": 3
      },
      {
        "type": "note_on",
        "time": 388,
        "note": 46,
        "velocity": 127,
        "channel": 3
      },
      {
        "type": "note_off",
        "time": 12,
        "note": 48,
        "velocity": 64,
        "channel": 3
      },
      {
        "type": "note_off",
        "time": 356,
        "note": 46,
        "velocity": 64,
        "channel": 3
      },
      {
        "type": "note_on",
        "time": 16,
        "note": 45,
        "velocity": 123,
        "channel": 3
      },
      {
        "type": "note_off",
        "time": 368,
        "note": 45,
        "velocity": 64,
        "channel": 3
      },
      {
        "type": "note_on",
        "time": 16,
        "note": 43,
        "velocity": 103,
        "channel": 3
      },
      {
        "type": "note_off",
        "time": 464,
        "note": 43,
        "velocity": 64,
        "channel": 3
      },
      {
        "type": "note_on",
        "time": 108,
        "note": 43,
        "velocity": 103,
        "channel": 3
      },
      {
        "type": "note_off",
        "time": 176,
        "note": 43,
        "velocity": 64,
        "channel": 3
      },
      {
        "type": "note_on",
        "time": 20,
        "note": 48,
        "velocity": 103,
        "channel": 3
      },
      {
        "type": "note_off",
        "time": 464,
        "note": 48,
        "velocity": 64,
        "channel": 3
      },
      {
        "type": "note_on",
        "time": 112,
        "note": 48,
        "velocity": 87,
        "channel": 3
      },
      {
        "type": "note_off",
        "time": 192,
        "note": 48,
        "velocity": 64,
        "channel": 3
      },
      {
        "type": "note_on",
        "time": 0,
        "note": 41,
        "velocity": 103,
        "channel": 3
      },
      {
        "type": "note_off",
        "time": 512,
        "note": 41,
        "velocity": 64,
        "channel": 3
      },
      {
        "type": "note_on",
        "time": 64,
        "note": 41,
        "velocity": 79,
        "channel": 3
      },
      {
        "type": "note_off",
        "time": 96,
        "note": 41,
        "velocity": 64,
        "channel": 3
      },
      {
        "type": "note_on",
        "time": 96,
        "note": 41,
        "velocity": 115,
        "channel": 3
      },
      {
        "type": "note_off",
        "time": 480,
        "note": 41,
        "velocity": 64,
        "channel": 3
      },
      {
        "type": "note_on",
        "time": 92,
        "note": 41,
        "velocity": 83,
        "channel": 3
      },
      {
        "type": "note_on",
        "time": 200,
        "note": 40,
        "velocity": 127,
        "channel": 3
      },
      {
        "type": "note_off",
        "time": 8,
        "note": 41,
        "velocity": 64,
        "channel": 3
      },
      {
        "type": "note_off",
        "time": 472,
        "note": 40,
        "velocity": 64,
        "channel": 3
      },
      {
        "type": "note_on",
        "time": 88,
        "note": 40,
        "velocity": 127,
        "channel": 3
      },
      {
        "type": "note_on",
        "time": 192,
        "note": 45,
        "velocity": 123,
        "channel": 3
      },
      {
        "type": "note_off",
        "time": 16,
        "note": 40,
        "velocity": 64,
        "channel": 3
      },
      {
        "type": "note_off",
        "time": 480,
        "note": 45,
        "velocity": 64,
        "channel": 3
      },
      {
        "type": "note_on",
        "time": 80,
        "note": 45,
        "velocity": 95,
        "channel": 3
      },
      {
        "type": "note_on",
        "time": 192,
        "note": 50,
        "velocity": 103,
        "channel": 3
      },
      {
        "type": "note_off",
        "time": 32,
        "note": 45,
        "velocity": 64,
        "channel": 3
      },
      {
        "type": "note_on",
        "time": 352,
        "note": 48,
        "velocity": 123,
        "channel": 3
      },
      {
        "type": "note_off",
        "time": 16,
        "note": 50,
        "velocity": 64,
        "channel": 3
      },
      {
        "type": "note_off",
        "time": 352,
        "note": 48,
        "velocity": 64,
        "channel": 3
      },
      {
        "type": "note_on",
        "time": 20,
        "note": 46,
        "velocity": 127,
        "channel": 3
      },
      {
        "type": "note_off",
        "time": 384,
        "note": 46,
        "velocity": 64,
        "channel": 3
      },
      {
        "type": "note_on",
        "time": 0,
        "note": 45,
        "velocity": 123,
        "channel": 3
      },
      {
        "type": "note_on",
        "time": 384,
        "note": 43,
        "velocity": 115,
        "channel": 3
      },
      {
        "type": "note_off",
        "time": 16,
        "note": 45,
        "velocity": 64,
        "channel": 3
      },
      {
        "type": "note_off",
        "time": 448,
        "note": 43,
        "velocity": 64,
        "channel": 3
      },
      {
        "type": "note_on",
        "time": 112,
        "note": 43,
        "velocity": 103,
        "channel": 3
      },
      {
        "type": "note_off",
        "time": 176,
        "note": 43,
        "velocity": 64,
        "channel": 3
      },
      {
        "type": "note_on",
        "time": 16,
        "note": 48,
        "velocity": 91,
        "channel": 3
      },
      {
        "type": "note_off",
        "time": 464,
        "note": 48,
        "velocity": 64,
        "channel": 3
      },
      {
        "type": "note_on",
        "time": 108,
        "note": 48,
        "velocity": 103,
        "channel": 3
      },
      {
        "type": "note_on",
        "time": 196,
        "note": 41,
        "velocity": 127,
        "channel": 3
      },
      {
        "type": "note_off",
        "time": 12,
        "note": 48,
        "velocity": 64,
        "channel": 3
      },
      {
        "type": "note_off",
        "time": 1380,
        "note": 41,
        "velocity": 64,
        "channel": 3
      },
      {
        "type": "note_on",
        "time": 140,
        "note": 41,
        "velocity": 127,
        "channel": 3
      },
      {
        "type": "note_off",
        "time": 688,
        "note": 41,
        "velocity": 64,
        "channel": 3
      },
      {
        "type": "note_on",
        "time": 80,
        "note": 41,
        "velocity": 127,
        "channel": 3
      },
      {
        "type": "note_off",
        "time": 576,
        "note": 41,
        "velocity": 64,
        "channel": 3
      },
      {
        "type": "note_on",
        "time": 4,
        "note": 38,
        "velocity": 127,
        "channel": 3
      },
      {
        "type": "note_on",
        "time": 192,
        "note": 40,
        "velocity": 127,
        "channel": 3
      },
      {
        "type": "note_off",
        "time": 16,
        "note": 38,
        "velocity": 64,
        "channel": 3
      },
      {
        "type": "note_off",
        "time": 480,
        "note": 40,
        "velocity": 64,
        "channel": 3
      },
      {
        "type": "note_on",
        "time": 76,
        "note": 40,
        "velocity": 127,
        "channel": 3
      },
      {
        "type": "note_on",
        "time": 200,
        "note": 45,
        "velocity": 127,
        "channel": 3
      },
      {
        "type": "note_off",
        "time": 8,
        "note": 40,
        "velocity": 64,
        "channel": 3
      },
      {
        "type": "note_off",
        "time": 488,
        "note": 45,
        "velocity": 64,
        "channel": 3
      },
      {
        "type": "note_on",
        "time": 72,
        "note": 45,
        "velocity": 95,
        "channel": 3
      },
      {
        "type": "note_on",
        "time": 192,
        "note": 50,
        "velocity": 103,
        "channel": 3
      },
      {
        "type": "note_off",
        "time": 16,
        "note": 45,
        "velocity": 64,
        "channel": 3
      },
      {
        "type": "note_off",
        "time": 496,
        "note": 50,
        "velocity": 64,
        "channel": 3
      },
      {
        "type": "note_on",
        "time": 64,
        "note": 50,
        "velocity": 63,
        "channel": 3
      },
      {
        "type": "note_off",
        "time": 112,
        "note": 50,
        "velocity": 64,
        "channel": 3
      },
      {
        "type": "note_on",
        "time": 80,
        "note": 50,
        "velocity": 107,
        "channel": 3
      },
      {
        "type": "note_on",
        "time": 384,
        "note": 48,
        "velocity": 127,
        "channel": 3
      },
      {
        "type": "note_off",
        "time": 16,
        "note": 50,
        "velocity": 64,
        "channel": 3
      },
      {
        "type": "note_on",
        "time": 372,
        "note": 46,
        "velocity": 123,
        "channel": 3
      },
      {
        "type": "note_off",
        "time": 12,
        "note": 48,
        "velocity": 64,
        "channel": 3
      },
      {
        "type": "note_off",
        "time": 452,
        "note": 46,
        "velocity": 64,
        "channel": 3
      },
      {
        "type": "note_on",
        "time": 112,
        "note": 46,
        "velocity": 103,
        "channel": 3
      },
      {
        "type": "note_off",
        "time": 192,
        "note": 46,
        "velocity": 64,
        "channel": 3
      },
      {
        "type": "note_on",
        "time": 0,
        "note": 48,
        "velocity": 127,
        "channel": 3
      },
      {
        "type": "note_off",
        "time": 480,
        "note": 48,
        "velocity": 64,
        "channel": 3
      },
      {
        "type": "note_on",
        "time": 96,
        "note": 48,
        "velocity": 127,
        "channel": 3
      },
      {
        "type": "note_on",
        "time": 192,
        "note": 41,
        "velocity": 123,
        "channel": 3
      },
      {
        "type": "note_off",
        "time": 16,
        "note": 48,
        "velocity": 64,
        "channel": 3
      },
      {
        "type": "note_off",
        "time": 464,
        "note": 41,
        "velocity": 64,
        "channel": 3
      },
      {
        "type": "note_on",
        "time": 100,
        "note": 41,
        "velocity": 107,
        "channel": 3
      },
      {
        "type": "note_off",
        "time": 80,
        "note": 41,
        "velocity": 64,
        "channel": 3
      },
      {
        "type": "note_on",
        "time": 104,
        "note": 41,
        "velocity": 107,
        "channel": 3
      },
      {
        "type": "note_off",
        "time": 368,
        "note": 41,
        "velocity": 64,
        "channel": 3
      },
      {
        "type": "note_on",
        "time": 16,
        "note": 40,
        "velocity": 127,
        "channel": 3
      },
      {
        "type": "note_on",
        "time": 384,
        "note": 38,
        "velocity": 127,
        "channel": 3
      },
      {
        "type": "note_off",
        "time": 32,
        "note": 40,
        "velocity": 64,
        "channel": 3
      },
      {
        "type": "note_off",
        "time": 448,
        "note": 38,
        "velocity": 64,
        "channel": 3
      },
      {
        "type": "note_on",
        "time": 96,
        "note": 38,
        "velocity": 127,
        "channel": 3
      },
      {
        "type": "note_on",
        "time": 192,
        "note": 43,
        "velocity": 127,
        "channel": 3
      },
      {
        "type": "note_off",
        "time": 16,
        "note": 38,
        "velocity": 64,
        "channel": 3
      },
      {
        "type": "note_off",
        "time": 480,
        "note": 43,
        "velocity": 64,
        "channel": 3
      },
      {
        "type": "note_on",
        "time": 84,
        "note": 43,
        "velocity": 95,
        "channel": 3
      },
      {
        "type": "note_on",
        "time": 192,
        "note": 46,
        "velocity": 107,
        "channel": 3
      },
      {
        "type": "note_off",
        "time": 16,
        "note": 43,
        "velocity": 64,
        "channel": 3
      },
      {
        "type": "note_off",
        "time": 336,
        "note": 46,
        "velocity": 64,
        "channel": 3
      },
      {
        "type": "note_on",
        "time": 28,
        "note": 41,
        "velocity": 115,
        "channel": 3
      },
      {
        "type": "note_off",
        "time": 48,
        "note": 41,
        "velocity": 64,
        "channel": 3
      },
      {
        "type": "note_on",
        "time": 144,
        "note": 41,
        "velocity": 123,
        "channel": 3
      },
      {
        "type": "note_off",
        "time": 960,
        "note": 41,
        "velocity": 64,
        "channel": 3
      },
      {
        "type": "note_on",
        "time": 8,
        "note": 40,
        "velocity": 127,
        "channel": 3
      },
      {
        "type": "note_off",
        "time": 464,
        "note": 40,
        "velocity": 64,
        "channel": 3
      },
      {
        "type": "note_on",
        "time": 108,
        "note": 40,
        "velocity": 107,
        "channel": 3
      },
      {
        "type": "note_off",
        "time": 192,
        "note": 40,
        "velocity": 64,
        "channel": 3
      },
      {
        "type": "note_on",
        "time": 8,
        "note": 45,
        "velocity": 123,
        "channel": 3
      },
      {
        "type": "note_off",
        "time": 464,
        "note": 45,
        "velocity": 64,
        "channel": 3
      },
      {
        "type": "note_on",
        "time": 100,
        "note": 45,
        "velocity": 103,
        "channel": 3
      },
      {
        "type": "note_on",
        "time": 192,
        "note": 50,
        "velocity": 95,
        "channel": 3
      },
      {
        "type": "note_off",
        "time": 16,
        "note": 45,
        "velocity": 64,
        "channel": 3
      },
      {
        "type": "note_on",
        "time": 368,
        "note": 48,
        "velocity": 115,
        "channel": 3
      },
      {
        "type": "note_off",
        "time": 16,
        "note": 50,
        "velocity": 64,
        "channel": 3
      },
      {
        "type": "note_off",
        "time": 368,
        "note": 48,
        "velocity": 64,
        "channel": 3
      },
      {
        "type": "note_on",
        "time": 4,
        "note": 46,
        "velocity": 127,
        "channel": 3
      },
      {
        "type": "note_on",
        "time": 384,
        "note": 45,
        "velocity": 127,
        "channel": 3
      },
      {
        "type": "note_off",
        "time": 16,
        "note": 46,
        "velocity": 64,
        "channel": 3
      },
      {
        "type": "note_on",
        "time": 368,
        "note": 43,
        "velocity": 127,
        "channel": 3
      },
      {
        "type": "note_off",
        "time": 16,
        "note": 45,
        "velocity": 64,
        "channel": 3
      },
      {
        "type": "note_off",
        "time": 432,
        "note": 43,
        "velocity": 64,
        "channel": 3
      },
      {
        "type": "note_on",
        "time": 128,
        "note": 43,
        "velocity": 123,
        "channel": 3
      },
      {
        "type": "note_off",
        "time": 192,
        "note": 43,
        "velocity": 64,
        "channel": 3
      },
      {
        "type": "note_on",
        "time": 4,
        "note": 48,
        "velocity": 99,
        "channel": 3
      },
      {
        "type": "note_off",
        "time": 464,
        "note": 48,
        "velocity": 64,
        "channel": 3
      },
      {
        "type": "note_on",
        "time": 112,
        "note": 48,
        "velocity": 115,
        "channel": 3
      },
      {
        "type": "note_off",
        "time": 160,
        "note": 48,
        "velocity": 64,
        "channel": 3
      },
      {
        "type": "note_on",
        "time": 28,
        "note": 41,
        "velocity": 127,
        "channel": 3
      },
      {
        "type": "note_off",
        "time": 496,
        "note": 41,
        "velocity": 64,
        "channel": 3
      },
      {
        "type": "note_on",
        "time": 76,
        "note": 41,
        "velocity": 91,
        "channel": 3
      },
      {
        "type": "note_off",
        "time": 96,
        "note": 41,
        "velocity": 64,
        "channel": 3
      },
      {
        "type": "note_on",
        "time": 96,
        "note": 41,
        "velocity": 115,
        "channel": 3
      },
      {
        "type": "note_off",
        "time": 544,
        "note": 41,
        "velocity": 64,
        "channel": 3
      },
      {
        "type": "note_on",
        "time": 32,
        "note": 41,
        "velocity": 87,
        "channel": 3
      },
      {
        "type": "note_on",
        "time": 192,
        "note": 40,
        "velocity": 127,
        "channel": 3
      },
      {
        "type": "note_off",
        "time": 32,
        "note": 41,
        "velocity": 64,
        "channel": 3
      },
      {
        "type": "note_off",
        "time": 464,
        "note": 40,
        "velocity": 64,
        "channel": 3
      },
      {
        "type": "note_on",
        "time": 80,
        "note": 40,
        "velocity": 127,
        "channel": 3
      },
      {
        "type": "note_on",
        "time": 192,
        "note": 45,
        "velocity": 107,
        "channel": 3
      },
      {
        "type": "note_off",
        "time": 16,
        "note": 40,
        "velocity": 64,
        "channel": 3
      },
      {
        "type": "note_off",
        "time": 464,
        "note": 45,
        "velocity": 64,
        "channel": 3
      },
      {
        "type": "note_on",
        "time": 96,
        "note": 45,
        "velocity": 107,
        "channel": 3
      },
      {
        "type": "note_off",
        "time": 192,
        "note": 45,
        "velocity": 64,
        "channel": 3
      },
      {
        "type": "note_on",
        "time": 4,
        "note": 50,
        "velocity": 95,
        "channel": 3
      },
      {
        "type": "note_on",
        "time": 384,
        "note": 48,
        "velocity": 127,
        "channel": 3
      },
      {
        "type": "note_off",
        "time": 32,
        "note": 50,
        "velocity": 64,
        "channel": 3
      },
      {
        "type": "note_off",
        "time": 352,
        "note": 48,
        "velocity": 64,
        "channel": 3
      },
      {
        "type": "note_on",
        "time": 0,
        "note": 46,
        "velocity": 127,
        "channel": 3
      },
      {
        "type": "note_on",
        "time": 384,
        "note": 45,
        "velocity": 123,
        "channel": 3
      },
      {
        "type": "note_off",
        "time": 16,
        "note": 46,
        "velocity": 64,
        "channel": 3
      },
      {
        "type": "note_on",
        "time": 368,
        "note": 43,
        "velocity": 99,
        "channel": 3
      },
      {
        "type": "note_off",
        "time": 16,
        "note": 45,
        "velocity": 64,
        "channel": 3
      },
      {
        "type": "note_off",
        "time": 448,
        "note": 43,
        "velocity": 64,
        "channel": 3
      },
      {
        "type": "note_on",
        "time": 108,
        "note": 43,
        "velocity": 99,
        "channel": 3
      },
      {
        "type": "note_on",
        "time": 192,
        "note": 48,
        "velocity": 95,
        "channel": 3
      },
      {
        "type": "note_off",
        "time": 16,
        "note": 43,
        "velocity": 64,
        "channel": 3
      },
      {
        "type": "note_off",
        "time": 464,
        "note": 48,
        "velocity": 64,
        "channel": 3
      },
      {
        "type": "note_on",
        "time": 96,
        "note": 48,
        "velocity": 99,
        "channel": 3
      },
      {
        "type": "note_off",
        "time": 192,
        "note": 48,
        "velocity": 64,
        "channel": 3
      },
      {
        "type": "note_on",
        "time": 4,
        "note": 41,
        "velocity": 127,
        "channel": 3
      },
      {
        "type": "note_off",
        "time": 1424,
        "note": 41,
        "velocity": 64,
        "channel": 3
      },
      {
        "type": "note_on",
        "time": 108,
        "note": 41,
        "velocity": 127,
        "channel": 3
      },
      {
        "type": "note_off",
        "time": 688,
        "note": 41,
        "velocity": 64,
        "channel": 3
      },
      {
        "type": "note_on",
        "time": 80,
        "note": 41,
        "velocity": 127,
        "channel": 3
      },
      {
        "type": "note_off",
        "time": 576,
        "note": 41,
        "velocity": 64,
        "channel": 3
      },
      {
        "type": "note_on",
        "time": 8,
        "note": 38,
        "velocity": 127,
        "channel": 3
      },
      {
        "type": "note_off",
        "time": 176,
        "note": 38,
        "velocity": 64,
        "channel": 3
      },
      {
        "type": "note_on",
        "time": 16,
        "note": 40,
        "velocity": 127,
        "channel": 3
      },
      {
        "type": "note_off",
        "time": 480,
        "note": 40,
        "velocity": 64,
        "channel": 3
      },
      {
        "type": "note_on",
        "time": 88,
        "note": 40,
        "velocity": 127,
        "channel": 3
      },
      {
        "type": "note_off",
        "time": 192,
        "note": 40,
        "velocity": 64,
        "channel": 3
      },
      {
        "type": "note_on",
        "time": 4,
        "note": 45,
        "velocity": 115,
        "channel": 3
      },
      {
        "type": "note_off",
        "time": 480,
        "note": 45,
        "velocity": 64,
        "channel": 3
      },
      {
        "type": "note_on",
        "time": 92,
        "note": 45,
        "velocity": 95,
        "channel": 3
      },
      {
        "type": "note_off",
        "time": 192,
        "note": 45,
        "velocity": 64,
        "channel": 3
      },
      {
        "type": "note_on",
        "time": 4,
        "note": 50,
        "velocity": 103,
        "channel": 3
      },
      {
        "type": "note_off",
        "time": 496,
        "note": 50,
        "velocity": 64,
        "channel": 3
      },
      {
        "type": "note_on",
        "time": 76,
        "note": 50,
        "velocity": 87,
        "channel": 3
      },
      {
        "type": "note_off",
        "time": 112,
        "note": 50,
        "velocity": 64,
        "channel": 3
      },
      {
        "type": "note_on",
        "time": 80,
        "note": 50,
        "velocity": 91,
        "channel": 3
      },
      {
        "type": "note_on",
        "time": 384,
        "note": 48,
        "velocity": 127,
        "channel": 3
      },
      {
        "type": "note_off",
        "time": 16,
        "note": 50,
        "velocity": 64,
        "channel": 3
      },
      {
        "type": "note_on",
        "time": 368,
        "note": 46,
        "velocity": 115,
        "channel": 3
      },
      {
        "type": "note_off",
        "time": 16,
        "note": 48,
        "velocity": 64,
        "channel": 3
      },
      {
        "type": "note_off",
        "time": 464,
        "note": 46,
        "velocity": 64,
        "channel": 3
      },
      {
        "type": "note_on",
        "time": 96,
        "note": 46,
        "velocity": 103,
        "channel": 3
      },
      {
        "type": "note_off",
        "time": 176,
        "note": 46,
        "velocity": 64,
        "channel": 3
      },
      {
        "type": "note_on",
        "time": 20,
        "note": 48,
        "velocity": 115,
        "channel": 3
      },
      {
        "type": "note_off",
        "time": 464,
        "note": 48,
        "velocity": 64,
        "channel": 3
      },
      {
        "type": "note_on",
        "time": 112,
        "note": 48,
        "velocity": 95,
        "channel": 3
      },
      {
        "type": "note_off",
        "time": 192,
        "note": 48,
        "velocity": 64,
        "channel": 3
      },
      {
        "type": "note_on",
        "time": 0,
        "note": 41,
        "velocity": 103,
        "channel": 3
      },
      {
        "type": "note_off",
        "time": 480,
        "note": 41,
        "velocity": 64,
        "channel": 3
      },
      {
        "type": "note_on",
        "time": 96,
        "note": 41,
        "velocity": 87,
        "channel": 3
      },
      {
        "type": "note_off",
        "time": 64,
        "note": 41,
        "velocity": 64,
        "channel": 3
      },
      {
        "type": "note_on",
        "time": 124,
        "note": 41,
        "velocity": 99,
        "channel": 3
      },
      {
        "type": "note_off",
        "time": 384,
        "note": 41,
        "velocity": 64,
        "channel": 3
      },
      {
        "type": "note_on",
        "time": 4,
        "note": 40,
        "velocity": 127,
        "channel": 3
      },
      {
        "type": "note_on",
        "time": 384,
        "note": 38,
        "velocity": 127,
        "channel": 3
      },
      {
        "type": "note_off",
        "time": 32,
        "note": 40,
        "velocity": 64,
        "channel": 3
      },
      {
        "type": "note_off",
        "time": 432,
        "note": 38,
        "velocity": 64,
        "channel": 3
      },
      {
        "type": "note_on",
        "time": 112,
        "note": 38,
        "velocity": 123,
        "channel": 3
      },
      {
        "type": "note_off",
        "time": 160,
        "note": 38,
        "velocity": 64,
        "channel": 3
      },
      {
        "type": "note_on",
        "time": 28,
        "note": 43,
        "velocity": 127,
        "channel": 3
      },
      {
        "type": "note_off",
        "time": 496,
        "note": 43,
        "velocity": 64,
        "channel": 3
      },
      {
        "type": "note_on",
        "time": 80,
        "note": 43,
        "velocity": 123,
        "channel": 3
      },
      {
        "type": "note_off",
        "time": 192,
        "note": 43,
        "velocity": 64,
        "channel": 3
      },
      {
        "type": "note_on",
        "time": 4,
        "note": 46,
        "velocity": 127,
        "channel": 3
      },
      {
        "type": "note_off",
        "time": 384,
        "note": 46,
        "velocity": 64,
        "channel": 3
      },
      {
        "type": "note_on",
        "time": 0,
        "note": 41,
        "velocity": 123,
        "channel": 3
      },
      {
        "type": "note_off",
        "time": 64,
        "note": 41,
        "velocity": 64,
        "channel": 3
      },
      {
        "type": "note_on",
        "time": 128,
        "note": 41,
        "velocity": 127,
        "channel": 3
      },
      {
        "type": "note_off",
        "time": 816,
        "note": 41,
        "velocity": 64,
        "channel": 3
      },
      {
        "type": "note_on",
        "time": 144,
        "note": 41,
        "velocity": 115,
        "channel": 3
      },
      {
        "type": "note_off",
        "time": 416,
        "note": 41,
        "velocity": 64,
        "channel": 3
      },
      {
        "type": "note_on",
        "time": 156,
        "note": 41,
        "velocity": 107,
        "channel": 3
      },
      {
        "type": "note_on",
        "time": 192,
        "note": 43,
        "velocity": 127,
        "channel": 3
      },
      {
        "type": "note_off",
        "time": 16,
        "note": 41,
        "velocity": 64,
        "channel": 3
      },
      {
        "type": "note_off",
        "time": 512,
        "note": 43,
        "velocity": 64,
        "channel": 3
      },
      {
        "type": "note_on",
        "time": 48,
        "note": 43,
        "velocity": 103,
        "channel": 3
      },
      {
        "type": "note_on",
        "time": 192,
        "note": 46,
        "velocity": 115,
        "channel": 3
      },
      {
        "type": "note_off",
        "time": 16,
        "note": 43,
        "velocity": 64,
        "channel": 3
      },
      {
        "type": "note_off",
        "time": 288,
        "note": 46,
        "velocity": 64,
        "channel": 3
      },
      {
        "type": "note_on",
        "time": 80,
        "note": 41,
        "velocity": 103,
        "channel": 3
      },
      {
        "type": "note_off",
        "time": 64,
        "note": 41,
        "velocity": 64,
        "channel": 3
      },
      {
        "type": "note_on",
        "time": 128,
        "note": 41,
        "velocity": 127,
        "channel": 3
      },
      {
        "type": "note_off",
        "time": 1488,
        "note": 41,
        "velocity": 64,
        "channel": 3
      },
      {
        "type": "end_of_track",
        "time": 0
      }
    ],
    [
      {
        "type": "track_name",
        "name": "Cello",
        "time": 0
      },
      {
        "type": "control_change",
        "time": 0,
        "control": 0,
        "value": 0,
        "channel": 4
      },
      {
        "type": "program_change",
        "time": 0,
        "program": 42,
        "channel": 4
      },
      {
        "type": "control_change",
        "time": 0,
        "control": 7,
        "value": 127,
        "channel": 4
      },
      {
        "type": "key_signature",
        "key": "F",
        "time": 0
      },
      {
        "type": "note_on",
        "time": 12960,
        "note": 46,
        "velocity": 100,
        "channel": 4
      },
      {
        "type": "note_off",
        "time": 64,
        "note": 46,
        "velocity": 100,
        "channel": 4
      },
      {
        "type": "note_on",
        "time": 32,
        "note": 48,
        "velocity": 100,
        "channel": 4
      },
      {
        "type": "note_off",
        "time": 256,
        "note": 48,
        "velocity": 100,
        "channel": 4
      },
      {
        "type": "note_on",
        "time": 128,
        "note": 53,
        "velocity": 100,
        "channel": 4
      },
      {
        "type": "note_off",
        "time": 256,
        "note": 53,
        "velocity": 100,
        "channel": 4
      },
      {
        "type": "note_on",
        "time": 128,
        "note": 52,
        "velocity": 100,
        "channel": 4
      },
      {
        "type": "note_off",
        "time": 512,
        "note": 52,
        "velocity": 100,
        "channel": 4
      },
      {
        "type": "note_on",
        "time": 256,
        "note": 45,
        "velocity": 100,
        "channel": 4
      },
      {
        "type": "note_off",
        "time": 512,
        "note": 45,
        "velocity": 100,
        "channel": 4
      },
      {
        "type": "note_on",
        "time": 256,
        "note": 50,
        "velocity": 100,
        "channel": 4
      },
      {
        "type": "note_off",
        "time": 512,
        "note": 50,
        "velocity": 100,
        "channel": 4
      },
      {
        "type": "note_on",
        "time": 256,
        "note": 50,
        "velocity": 100,
        "channel": 4
      },
      {
        "type": "note_off",
        "time": 256,
        "note": 50,
        "velocity": 100,
        "channel": 4
      },
      {
        "type": "note_on",
        "time": 128,
        "note": 48,
        "velocity": 100,
        "channel": 4
      },
      {
        "type": "note_off",
        "time": 256,
        "note": 48,
        "velocity": 100,
        "channel": 4
      },
      {
        "type": "note_on",
        "time": 128,
        "note": 46,
        "velocity": 100,
        "channel": 4
      },
      {
        "type": "note_off",
        "time": 512,
        "note": 46,
        "velocity": 100,
        "channel": 4
      },
      {
        "type": "note_on",
        "time": 256,
        "note": 48,
        "velocity": 100,
        "channel": 4
      },
      {
        "type": "note_off",
        "time": 512,
        "note": 48,
        "velocity": 100,
        "channel": 4
      },
      {
        "type": "note_on",
        "time": 256,
        "note": 53,
        "velocity": 100,
        "channel": 4
      },
      {
        "type": "note_off",
        "time": 512,
        "note": 53,
        "velocity": 100,
        "channel": 4
      },
      {
        "type": "note_on",
        "time": 256,
        "note": 53,
        "velocity": 100,
        "channel": 4
      },
      {
        "type": "note_off",
        "time": 256,
        "note": 53,
        "velocity": 100,
        "channel": 4
      },
      {
        "type": "note_on",
        "time": 128,
        "note": 52,
        "velocity": 100,
        "channel": 4
      },
      {
        "type": "note_off",
        "time": 256,
        "note": 52,
        "velocity": 100,
        "channel": 4
      },
      {
        "type": "note_on",
        "time": 128,
        "note": 50,
        "velocity": 100,
        "channel": 4
      },
      {
        "type": "note_off",
        "time": 512,
        "note": 50,
        "velocity": 100,
        "channel": 4
      },
      {
        "type": "note_on",
        "time": 256,
        "note": 43,
        "velocity": 100,
        "channel": 4
      },
      {
        "type": "note_off",
        "time": 512,
        "note": 43,
        "velocity": 100,
        "channel": 4
      },
      {
        "type": "note_on",
        "time": 260,
        "note": 46,
        "velocity": 123,
        "channel": 4
      },
      {
        "type": "note_off",
        "time": 352,
        "note": 46,
        "velocity": 64,
        "channel": 4
      },
      {
        "type": "note_on",
        "time": 32,
        "note": 41,
        "velocity": 103,
        "channel": 4
      },
      {
        "type": "note_off",
        "time": 48,
        "note": 41,
        "velocity": 64,
        "channel": 4
      },
      {
        "type": "note_on",
        "time": 140,
        "note": 41,
        "velocity": 127,
        "channel": 4
      },
      {
        "type": "note_on",
        "time": 960,
        "note": 45,
        "velocity": 100,
        "channel": 4
      },
      {
        "type": "note_off",
        "time": 32,
        "note": 41,
        "velocity": 64,
        "channel": 4
      },
      {
        "type": "note_off",
        "time": 480,
        "note": 45,
        "velocity": 100,
        "channel": 4
      },
      {
        "type": "note_on",
        "time": 256,
        "note": 45,
        "velocity": 100,
        "channel": 4
      },
      {
        "type": "note_off",
        "time": 512,
        "note": 45,
        "velocity": 100,
        "channel": 4
      },
      {
        "type": "note_on",
        "time": 256,
        "note": 50,
        "velocity": 100,
        "channel": 4
      },
      {
        "type": "note_off",
        "time": 256,
        "note": 50,
        "velocity": 100,
        "channel": 4
      },
      {
        "type": "note_on",
        "time": 128,
        "note": 48,
        "velocity": 100,
        "channel": 4
      },
      {
        "type": "note_off",
        "time": 256,
        "note": 48,
        "velocity": 100,
        "channel": 4
      },
      {
        "type": "note_on",
        "time": 128,
        "note": 46,
        "velocity": 100,
        "channel": 4
      },
      {
        "type": "note_off",
        "time": 256,
        "note": 46,
        "velocity": 100,
        "channel": 4
      },
      {
        "type": "note_on",
        "time": 128,
        "note": 45,
        "velocity": 100,
        "channel": 4
      },
      {
        "type": "note_off",
        "time": 256,
        "note": 45,
        "velocity": 100,
        "channel": 4
      },
      {
        "type": "note_on",
        "time": 128,
        "note": 43,
        "velocity": 100,
        "channel": 4
      },
      {
        "type": "note_off",
        "time": 512,
        "note": 43,
        "velocity": 100,
        "channel": 4
      },
      {
        "type": "note_on",
        "time": 256,
        "note": 48,
        "velocity": 100,
        "channel": 4
      },
      {
        "type": "note_off",
        "time": 512,
        "note": 48,
        "velocity": 100,
        "channel": 4
      },
      {
        "type": "note_on",
        "time": 256,
        "note": 41,
        "velocity": 100,
        "channel": 4
      },
      {
        "type": "note_off",
        "time": 256,
        "note": 41,
        "velocity": 100,
        "channel": 4
      },
      {
        "type": "note_on",
        "time": 32,
        "note": 46,
        "velocity": 100,
        "channel": 4
      },
      {
        "type": "note_off",
        "time": 64,
        "note": 46,
        "velocity": 100,
        "channel": 4
      },
      {
        "type": "note_on",
        "time": 32,
        "note": 48,
        "velocity": 100,
        "channel": 4
      },
      {
        "type": "note_off",
        "time": 256,
        "note": 48,
        "velocity": 100,
        "channel": 4
      },
      {
        "type": "note_on",
        "time": 128,
        "note": 53,
        "velocity": 100,
        "channel": 4
      },
      {
        "type": "note_off",
        "time": 256,
        "note": 53,
        "velocity": 100,
        "channel": 4
      },
      {
        "type": "note_on",
        "time": 128,
        "note": 52,
        "velocity": 100,
        "channel": 4
      },
      {
        "type": "note_off",
        "time": 256,
        "note": 52,
        "velocity": 100,
        "channel": 4
      },
      {
        "type": "note_on",
        "time": 128,
        "note": 45,
        "velocity": 100,
        "channel": 4
      },
      {
        "type": "note_off",
        "time": 512,
        "note": 45,
        "velocity": 100,
        "channel": 4
      },
      {
        "type": "note_on",
        "time": 256,
        "note": 45,
        "velocity": 100,
        "channel": 4
      },
      {
        "type": "note_off",
        "time": 512,
        "note": 45,
        "velocity": 100,
        "channel": 4
      },
      {
        "type": "note_on",
        "time": 256,
        "note": 50,
        "velocity": 100,
        "channel": 4
      },
      {
        "type": "note_off",
        "time": 256,
        "note": 50,
        "velocity": 100,
        "channel": 4
      },
      {
        "type": "note_on",
        "time": 128,
        "note": 48,
        "velocity": 100,
        "channel": 4
      },
      {
        "type": "note_off",
        "time": 256,
        "note": 48,
        "velocity": 100,
        "channel": 4
      },
      {
        "type": "note_on",
        "time": 128,
        "note": 46,
        "velocity": 100,
        "channel": 4
      },
      {
        "type": "note_off",
        "time": 256,
        "note": 46,
        "velocity": 100,
        "channel": 4
      },
      {
        "type": "note_on",
        "time": 128,
        "note": 45,
        "velocity": 100,
        "channel": 4
      },
      {
        "type": "note_off",
        "time": 256,
        "note": 45,
        "velocity": 100,
        "channel": 4
      },
      {
        "type": "note_on",
        "time": 128,
        "note": 43,
        "velocity": 100,
        "channel": 4
      },
      {
        "type": "note_off",
        "time": 512,
        "note": 43,
        "velocity": 100,
        "channel": 4
      },
      {
        "type": "note_on",
        "time": 256,
        "note": 48,
        "velocity": 100,
        "channel": 4
      },
      {
        "type": "note_off",
        "time": 512,
        "note": 48,
        "velocity": 100,
        "channel": 4
      },
      {
        "type": "note_on",
        "time": 256,
        "note": 41,
        "velocity": 100,
        "channel": 4
      },
      {
        "type": "note_off",
        "time": 1028,
        "note": 41,
        "velocity": 100,
        "channel": 4
      },
      {
        "type": "note_on",
        "time": 508,
        "note": 41,
        "velocity": 100,
        "channel": 4
      },
      {
        "type": "note_off",
        "time": 512,
        "note": 41,
        "velocity": 100,
        "channel": 4
      },
      {
        "type": "note_on",
        "time": 256,
        "note": 48,
        "velocity": 100,
        "channel": 4
      },
      {
        "type": "note_off",
        "time": 256,
        "note": 48,
        "velocity": 100,
        "channel": 4
      },
      {
        "type": "note_on",
        "time": 32,
        "note": 52,
        "velocity": 100,
        "channel": 4
      },
      {
        "type": "note_off",
        "time": 64,
        "note": 52,
        "velocity": 100,
        "channel": 4
      },
      {
        "type": "note_on",
        "time": 32,
        "note": 53,
        "velocity": 100,
        "channel": 4
      },
      {
        "type": "note_off",
        "time": 256,
        "note": 53,
        "velocity": 100,
        "channel": 4
      },
      {
        "type": "note_on",
        "time": 128,
        "note": 52,
        "velocity": 100,
        "channel": 4
      },
      {
        "type": "note_off",
        "time": 512,
        "note": 52,
        "velocity": 100,
        "channel": 4
      },
      {
        "type": "note_on",
        "time": 256,
        "note": 45,
        "velocity": 100,
        "channel": 4
      },
      {
        "type": "note_off",
        "time": 512,
        "note": 45,
        "velocity": 100,
        "channel": 4
      },
      {
        "type": "note_on",
        "time": 256,
        "note": 50,
        "velocity": 100,
        "channel": 4
      },
      {
        "type": "note_off",
        "time": 512,
        "note": 50,
        "velocity": 100,
        "channel": 4
      },
      {
        "type": "note_on",
        "time": 256,
        "note": 50,
        "velocity": 100,
        "channel": 4
      },
      {
        "type": "note_off",
        "time": 256,
        "note": 50,
        "velocity": 100,
        "channel": 4
      },
      {
        "type": "note_on",
        "time": 128,
        "note": 48,
        "velocity": 100,
        "channel": 4
      },
      {
        "type": "note_off",
        "time": 256,
        "note": 48,
        "velocity": 100,
        "channel": 4
      },
      {
        "type": "note_on",
        "time": 128,
        "note": 46,
        "velocity": 100,
        "channel": 4
      },
      {
        "type": "note_off",
        "time": 512,
        "note": 46,
        "velocity": 100,
        "channel": 4
      },
      {
        "type": "note_on",
        "time": 256,
        "note": 48,
        "velocity": 100,
        "channel": 4
      },
      {
        "type": "note_off",
        "time": 512,
        "note": 48,
        "velocity": 100,
        "channel": 4
      },
      {
        "type": "note_on",
        "time": 256,
        "note": 53,
        "velocity": 100,
        "channel": 4
      },
      {
        "type": "note_off",
        "time": 512,
        "note": 53,
        "velocity": 100,
        "channel": 4
      },
      {
        "type": "note_on",
        "time": 256,
        "note": 53,
        "velocity": 100,
        "channel": 4
      },
      {
        "type": "note_off",
        "time": 256,
        "note": 53,
        "velocity": 100,
        "channel": 4
      },
      {
        "type": "note_on",
        "time": 128,
        "note": 52,
        "velocity": 100,
        "channel": 4
      },
      {
        "type": "note_off",
        "time": 256,
        "note": 52,
        "velocity": 100,
        "channel": 4
      },
      {
        "type": "note_on",
        "time": 128,
        "note": 50,
        "velocity": 100,
        "channel": 4
      },
      {
        "type": "note_off",
        "time": 512,
        "note": 50,
        "velocity": 100,
        "channel": 4
      },
      {
        "type": "note_on",
        "time": 256,
        "note": 43,
        "velocity": 100,
        "channel": 4
      },
      {
        "type": "note_off",
        "time": 512,
        "note": 43,
        "velocity": 100,
        "channel": 4
      },
      {
        "type": "note_on",
        "time": 260,
        "note": 46,
        "velocity": 123,
        "channel": 4
      },
      {
        "type": "note_off",
        "time": 352,
        "note": 46,
        "velocity": 64,
        "channel": 4
      },
      {
        "type": "note_on",
        "time": 32,
        "note": 41,
        "velocity": 103,
        "channel": 4
      },
      {
        "type": "note_off",
        "time": 48,
        "note": 41,
        "velocity": 64,
        "channel": 4
      },
      {
        "type": "note_on",
        "time": 140,
        "note": 41,
        "velocity": 127,
        "channel": 4
      },
      {
        "type": "note_on",
        "time": 960,
        "note": 45,
        "velocity": 100,
        "channel": 4
      },
      {
        "type": "note_off",
        "time": 32,
        "note": 41,
        "velocity": 64,
        "channel": 4
      },
      {
        "type": "note_off",
        "time": 480,
        "note": 45,
        "velocity": 100,
        "channel": 4
      },
      {
        "type": "note_on",
        "time": 256,
        "note": 45,
        "velocity": 100,
        "channel": 4
      },
      {
        "type": "note_off",
        "time": 512,
        "note": 45,
        "velocity": 100,
        "channel": 4
      },
      {
        "type": "note_on",
        "time": 256,
        "note": 50,
        "velocity": 100,
        "channel": 4
      },
      {
        "type": "note_off",
        "time": 256,
        "note": 50,
        "velocity": 100,
        "channel": 4
      },
      {
        "type": "note_on",
        "time": 128,
        "note": 48,
        "velocity": 100,
        "channel": 4
      },
      {
        "type": "note_off",
        "time": 256,
        "note": 48,
        "velocity": 100,
        "channel": 4
      },
      {
        "type": "note_on",
        "time": 128,
        "note": 46,
        "velocity": 100,
        "channel": 4
      },
      {
        "type": "note_off",
        "time": 256,
        "note": 46,
        "velocity": 100,
        "channel": 4
      },
      {
        "type": "note_on",
        "time": 128,
        "note": 45,
        "velocity": 100,
        "channel": 4
      },
      {
        "type": "note_off",
        "time": 256,
        "note": 45,
        "velocity": 100,
        "channel": 4
      },
      {
        "type": "note_on",
        "time": 128,
        "note": 43,
        "velocity": 100,
        "channel": 4
      },
      {
        "type": "note_off",
        "time": 512,
        "note": 43,
        "velocity": 100,
        "channel": 4
      },
      {
        "type": "note_on",
        "time": 256,
        "note": 36,
        "velocity": 100,
        "channel": 4
      },
      {
        "type": "note_off",
        "time": 512,
        "note": 36,
        "velocity": 100,
        "channel": 4
      },
      {
        "type": "note_on",
        "time": 256,
        "note": 41,
        "velocity": 100,
        "channel": 4
      },
      {
        "type": "note_off",
        "time": 256,
        "note": 41,
        "velocity": 100,
        "channel": 4
      },
      {
        "type": "note_on",
        "time": 32,
        "note": 46,
        "velocity": 100,
        "channel": 4
      },
      {
        "type": "note_off",
        "time": 64,
        "note": 46,
        "velocity": 100,
        "channel": 4
      },
      {
        "type": "note_on",
        "time": 32,
        "note": 48,
        "velocity": 100,
        "channel": 4
      },
      {
        "type": "note_off",
        "time": 256,
        "note": 48,
        "velocity": 100,
        "channel": 4
      },
      {
        "type": "note_on",
        "time": 128,
        "note": 53,
        "velocity": 100,
        "channel": 4
      },
      {
        "type": "note_off",
        "time": 256,
        "note": 53,
        "velocity": 100,
        "channel": 4
      },
      {
        "type": "note_on",
        "time": 128,
        "note": 52,
        "velocity": 100,
        "channel": 4
      },
      {
        "type": "note_off",
        "time": 256,
        "note": 52,
        "velocity": 100,
        "channel": 4
      },
      {
        "type": "note_on",
        "time": 128,
        "note": 45,
        "velocity": 100,
        "channel": 4
      },
      {
        "type": "note_off",
        "time": 512,
        "note": 45,
        "velocity": 100,
        "channel": 4
      },
      {
        "type": "note_on",
        "time": 256,
        "note": 45,
        "velocity": 100,
        "channel": 4
      },
      {
        "type": "note_off",
        "time": 512,
        "note": 45,
        "velocity": 100,
        "channel": 4
      },
      {
        "type": "note_on",
        "time": 256,
        "note": 50,
        "velocity": 100,
        "channel": 4
      },
      {
        "type": "note_off",
        "time": 256,
        "note": 50,
        "velocity": 100,
        "channel": 4
      },
      {
        "type": "note_on",
        "time": 128,
        "note": 48,
        "velocity": 100,
        "channel": 4
      },
      {
        "type": "note_off",
        "time": 256,
        "note": 48,
        "velocity": 100,
        "channel": 4
      },
      {
        "type": "note_on",
        "time": 128,
        "note": 46,
        "velocity": 100,
        "channel": 4
      },
      {
        "type": "note_off",
        "time": 256,
        "note": 46,
        "velocity": 100,
        "channel": 4
      },
      {
        "type": "note_on",
        "time": 128,
        "note": 45,
        "velocity": 100,
        "channel": 4
      },
      {
        "type": "note_off",
        "time": 256,
        "note": 45,
        "velocity": 100,
        "channel": 4
      },
      {
        "type": "note_on",
        "time": 128,
        "note": 43,
        "velocity": 100,
        "channel": 4
      },
      {
        "type": "note_off",
        "time": 512,
        "note": 43,
        "velocity": 100,
        "channel": 4
      },
      {
        "type": "note_on",
        "time": 256,
        "note": 48,
        "velocity": 100,
        "channel": 4
      },
      {
        "type": "note_off",
        "time": 512,
        "note": 48,
        "velocity": 100,
        "channel": 4
      },
      {
        "type": "note_on",
        "time": 256,
        "note": 41,
        "velocity": 100,
        "channel": 4
      },
      {
        "type": "note_off",
        "time": 256,
        "note": 41,
        "velocity": 100,
        "channel": 4
      },
      {
        "type": "note_on",
        "time": 128,
        "note": 48,
        "velocity": 100,
        "channel": 4
      },
      {
        "type": "note_off",
        "time": 256,
        "note": 48,
        "velocity": 100,
        "channel": 4
      },
      {
        "type": "note_on",
        "time": 128,
        "note": 46,
        "velocity": 100,
        "channel": 4
      },
      {
        "type": "note_off",
        "time": 256,
        "note": 46,
        "velocity": 100,
        "channel": 4
      },
      {
        "type": "note_on",
        "time": 128,
        "note": 45,
        "velocity": 100,
        "channel": 4
      },
      {
        "type": "note_off",
        "time": 256,
        "note": 45,
        "velocity": 100,
        "channel": 4
      },
      {
        "type": "note_on",
        "time": 128,
        "note": 41,
        "velocity": 100,
        "channel": 4
      },
      {
        "type": "note_off",
        "time": 512,
        "note": 41,
        "velocity": 100,
        "channel": 4
      },
      {
        "type": "note_on",
        "time": 256,
        "note": 48,
        "velocity": 100,
        "channel": 4
      },
      {
        "type": "note_off",
        "time": 256,
        "note": 48,
        "velocity": 100,
        "channel": 4
      },
      {
        "type": "note_on",
        "time": 32,
        "note": 52,
        "velocity": 100,
        "channel": 4
      },
      {
        "type": "note_off",
        "time": 64,
        "note": 52,
        "velocity": 100,
        "channel": 4
      },
      {
        "type": "note_on",
        "time": 32,
        "note": 53,
        "velocity": 100,
        "channel": 4
      },
      {
        "type": "note_off",
        "time": 256,
        "note": 53,
        "velocity": 100,
        "channel": 4
      },
      {
        "type": "note_on",
        "time": 128,
        "note": 52,
        "velocity": 100,
        "channel": 4
      },
      {
        "type": "note_off",
        "time": 512,
        "note": 52,
        "velocity": 100,
        "channel": 4
      },
      {
        "type": "note_on",
        "time": 256,
        "note": 45,
        "velocity": 100,
        "channel": 4
      },
      {
        "type": "note_off",
        "time": 512,
        "note": 45,
        "velocity": 100,
        "channel": 4
      },
      {
        "type": "note_on",
        "time": 256,
        "note": 50,
        "velocity": 100,
        "channel": 4
      },
      {
        "type": "note_off",
        "time": 512,
        "note": 50,
        "velocity": 100,
        "channel": 4
      },
      {
        "type": "note_on",
        "time": 256,
        "note": 50,
        "velocity": 100,
        "channel": 4
      },
      {
        "type": "note_off",
        "time": 256,
        "note": 50,
        "velocity": 100,
        "channel": 4
      },
      {
        "type": "note_on",
        "time": 128,
        "note": 48,
        "velocity": 100,
        "channel": 4
      },
      {
        "type": "note_off",
        "time": 256,
        "note": 48,
        "velocity": 100,
        "channel": 4
      },
      {
        "type": "note_on",
        "time": 128,
        "note": 46,
        "velocity": 100,
        "channel": 4
      },
      {
        "type": "note_off",
        "time": 512,
        "note": 46,
        "velocity": 100,
        "channel": 4
      },
      {
        "type": "note_on",
        "time": 256,
        "note": 48,
        "velocity": 100,
        "channel": 4
      },
      {
        "type": "note_off",
        "time": 512,
        "note": 48,
        "velocity": 100,
        "channel": 4
      },
      {
        "type": "note_on",
        "time": 256,
        "note": 53,
        "velocity": 100,
        "channel": 4
      },
      {
        "type": "note_off",
        "time": 512,
        "note": 53,
        "velocity": 100,
        "channel": 4
      },
      {
        "type": "note_on",
        "time": 256,
        "note": 53,
        "velocity": 100,
        "channel": 4
      },
      {
        "type": "note_off",
        "time": 256,
        "note": 53,
        "velocity": 100,
        "channel": 4
      },
      {
        "type": "note_on",
        "time": 128,
        "note": 52,
        "velocity": 100,
        "channel": 4
      },
      {
        "type": "note_off",
        "time": 256,
        "note": 52,
        "velocity": 100,
        "channel": 4
      },
      {
        "type": "note_on",
        "time": 128,
        "note": 50,
        "velocity": 100,
        "channel": 4
      },
      {
        "type": "note_off",
        "time": 512,
        "note": 50,
        "velocity": 100,
        "channel": 4
      },
      {
        "type": "note_on",
        "time": 256,
        "note": 43,
        "velocity": 100,
        "channel": 4
      },
      {
        "type": "note_off",
        "time": 512,
        "note": 43,
        "velocity": 100,
        "channel": 4
      },
      {
        "type": "note_on",
        "time": 260,
        "note": 46,
        "velocity": 127,
        "channel": 4
      },
      {
        "type": "note_off",
        "time": 384,
        "note": 46,
        "velocity": 64,
        "channel": 4
      },
      {
        "type": "note_on",
        "time": 0,
        "note": 41,
        "velocity": 123,
        "channel": 4
      },
      {
        "type": "note_off",
        "time": 64,
        "note": 41,
        "velocity": 64,
        "channel": 4
      },
      {
        "type": "note_on",
        "time": 128,
        "note": 41,
        "velocity": 127,
        "channel": 4
      },
      {
        "type": "note_off",
        "time": 816,
        "note": 41,
        "velocity": 64,
        "channel": 4
      },
      {
        "type": "note_on",
        "time": 140,
        "note": 48,
        "velocity": 100,
        "channel": 4
      },
      {
        "type": "note_off",
        "time": 512,
        "note": 48,
        "velocity": 100,
        "channel": 4
      },
      {
        "type": "note_on",
        "time": 256,
        "note": 47,
        "velocity": 100,
        "channel": 4
      },
      {
        "type": "note_off",
        "time": 512,
        "note": 47,
        "velocity": 100,
        "channel": 4
      },
      {
        "type": "note_on",
        "time": 256,
        "note": 46,
        "velocity": 115,
        "channel": 4
      },
      {
        "type": "note_off",
        "time": 304,
        "note": 46,
        "velocity": 64,
        "channel": 4
      },
      {
        "type": "note_on",
        "time": 80,
        "note": 41,
        "velocity": 103,
        "channel": 4
      },
      {
        "type": "note_off",
        "time": 64,
        "note": 41,
        "velocity": 64,
        "channel": 4
      },
      {
        "type": "note_on",
        "time": 128,
        "note": 41,
        "velocity": 127,
        "channel": 4
      },
      {
        "type": "note_off",
        "time": 1488,
        "note": 41,
        "velocity": 64,
        "channel": 4
      },
      {
        "type": "end_of_track",
        "time": 0
      }
    ],
    [
      {
        "type": "end_of_track",
        "time": 0
      }
    ]
  ]
}
